<?xml version="1.0" encoding="utf-8" standalone="no"?>
<!DOCTYPE svg PUBLIC "-//W3C//DTD SVG 1.1//EN"
  "http://www.w3.org/Graphics/SVG/1.1/DTD/svg11.dtd">
<!-- Created with matplotlib (https://matplotlib.org/) -->
<svg height="1980pt" version="1.1" viewBox="0 0 1584 1980" width="1584pt" xmlns="http://www.w3.org/2000/svg" xmlns:xlink="http://www.w3.org/1999/xlink">
 <defs>
  <style type="text/css">
*{stroke-linecap:butt;stroke-linejoin:round;}
  </style>
 </defs>
 <g id="figure_1">
  <g id="patch_1">
   <path d="M 0 1980 
L 1584 1980 
L 1584 0 
L 0 0 
z
" style="fill:#ffffff;"/>
  </g>
  <g id="axes_1">
   <g id="patch_2">
    <path d="M 198 1732.5 
L 1425.6 1732.5 
L 1425.6 237.6 
L 198 237.6 
z
" style="fill:#ffffff;"/>
   </g>
   <g id="PolyCollection_1">
    <defs>
     <path d="M 253.8 -1388.004723 
L 253.8 -1316.851243 
L 292.282759 -282.9796 
L 330.765517 -392.284752 
L 369.248276 -603.110184 
L 407.731034 -828.828801 
L 446.213793 -920.888227 
L 484.696552 -986.819499 
L 523.17931 -1031.03645 
L 561.662069 -1174.579714 
L 600.144828 -1221.511288 
L 638.627586 -1247.592464 
L 677.110345 -1274.324828 
L 715.593103 -1260.479552 
L 754.075862 -1286.157276 
L 792.558621 -1297.369794 
L 831.041379 -1298.550125 
L 869.524138 -1305.496729 
L 908.006897 -1305.372709 
L 946.489655 -1309.704413 
L 984.972414 -1310.710447 
L 1023.455172 -1307.742675 
L 1061.937931 -1309.77661 
L 1100.42069 -1308.667562 
L 1138.903448 -1313.071604 
L 1177.386207 -1318.066416 
L 1215.868966 -1316.196978 
L 1254.351724 -1315.398378 
L 1292.834483 -1319.719349 
L 1331.317241 -1320.718979 
L 1369.8 -1319.750433 
L 1369.8 -1374.16787 
L 1369.8 -1374.16787 
L 1331.317241 -1379.120047 
L 1292.834483 -1381.007839 
L 1254.351724 -1382.263836 
L 1215.868966 -1380.809338 
L 1177.386207 -1377.043152 
L 1138.903448 -1378.279776 
L 1100.42069 -1376.325556 
L 1061.937931 -1371.06181 
L 1023.455172 -1370.97234 
L 984.972414 -1374.857778 
L 946.489655 -1378.197599 
L 908.006897 -1372.915585 
L 869.524138 -1372.643976 
L 831.041379 -1364.843424 
L 792.558621 -1362.582722 
L 754.075862 -1355.30165 
L 715.593103 -1338.570428 
L 677.110345 -1352.767045 
L 638.627586 -1323.693627 
L 600.144828 -1317.621752 
L 561.662069 -1288.521701 
L 523.17931 -1127.604219 
L 484.696552 -1091.894819 
L 446.213793 -1044.271183 
L 407.731034 -947.434723 
L 369.248276 -676.711142 
L 330.765517 -438.803263 
L 292.282759 -292.929291 
L 253.8 -1388.004723 
z
" id="m055f416180" style="stroke:#74c265;stroke-opacity:0.2;"/>
    </defs>
    <g clip-path="url(#pb4452afc2b)">
     <use style="fill:#74c265;fill-opacity:0.2;stroke:#74c265;stroke-opacity:0.2;" x="0" xlink:href="#m055f416180" y="1980"/>
    </g>
   </g>
   <g id="PolyCollection_2">
    <defs>
     <path d="M 253.8 -1558.013385 
L 253.8 -1265.262837 
L 292.282759 -296.312208 
L 330.765517 -299.943518 
L 369.248276 -395.3949 
L 407.731034 -557.584815 
L 446.213793 -730.906411 
L 484.696552 -811.841788 
L 523.17931 -875.975854 
L 561.662069 -927.092364 
L 600.144828 -921.097166 
L 638.627586 -998.440055 
L 677.110345 -1060.298253 
L 715.593103 -1066.326548 
L 754.075862 -1131.610602 
L 792.558621 -1228.63311 
L 831.041379 -1246.096056 
L 869.524138 -1219.692891 
L 908.006897 -1261.753711 
L 946.489655 -1282.753023 
L 984.972414 -1301.587522 
L 1023.455172 -1320.37479 
L 1061.937931 -1324.95454 
L 1100.42069 -1327.848305 
L 1138.903448 -1336.391828 
L 1177.386207 -1342.267361 
L 1215.868966 -1323.655727 
L 1254.351724 -1331.688669 
L 1292.834483 -1346.043713 
L 1331.317241 -1323.421969 
L 1369.8 -1332.271513 
L 1369.8 -1465.058766 
L 1369.8 -1465.058766 
L 1331.317241 -1470.844557 
L 1292.834483 -1441.622992 
L 1254.351724 -1446.201133 
L 1215.868966 -1465.711095 
L 1177.386207 -1435.358356 
L 1138.903448 -1438.694689 
L 1100.42069 -1431.577307 
L 1061.937931 -1420.042609 
L 1023.455172 -1407.560016 
L 984.972414 -1404.515905 
L 946.489655 -1397.30017 
L 908.006897 -1379.996695 
L 869.524138 -1364.355092 
L 831.041379 -1351.044221 
L 792.558621 -1326.477557 
L 754.075862 -1237.724179 
L 715.593103 -1169.684378 
L 677.110345 -1170.99983 
L 638.627586 -1107.655099 
L 600.144828 -1025.52342 
L 561.662069 -1053.011997 
L 523.17931 -1009.133493 
L 484.696552 -931.495467 
L 446.213793 -845.667205 
L 407.731034 -629.159974 
L 369.248276 -436.479267 
L 330.765517 -322.630251 
L 292.282759 -309.41861 
L 253.8 -1558.013385 
z
" id="m7c5eb4614d" style="stroke:#ff9933;stroke-opacity:0.2;"/>
    </defs>
    <g clip-path="url(#pb4452afc2b)">
     <use style="fill:#ff9933;fill-opacity:0.2;stroke:#ff9933;stroke-opacity:0.2;" x="0" xlink:href="#m7c5eb4614d" y="1980"/>
    </g>
   </g>
   <g id="PolyCollection_3">
    <defs>
     <path d="M 253.8 -1409.770419 
L 253.8 -1326.30422 
L 292.282759 -293.181304 
L 330.765517 -338.573042 
L 369.248276 -599.364357 
L 407.731034 -730.628377 
L 446.213793 -782.847737 
L 484.696552 -834.832807 
L 523.17931 -841.029358 
L 561.662069 -1062.122697 
L 600.144828 -1132.347155 
L 638.627586 -1216.383517 
L 677.110345 -1256.438958 
L 715.593103 -1240.552159 
L 754.075862 -1267.59463 
L 792.558621 -1280.838746 
L 831.041379 -1297.610044 
L 869.524138 -1304.197409 
L 908.006897 -1302.185075 
L 946.489655 -1309.407871 
L 984.972414 -1313.058101 
L 1023.455172 -1314.133632 
L 1061.937931 -1315.149422 
L 1100.42069 -1314.865433 
L 1138.903448 -1316.417742 
L 1177.386207 -1319.751909 
L 1215.868966 -1319.307356 
L 1254.351724 -1320.79471 
L 1292.834483 -1326.248112 
L 1331.317241 -1326.447381 
L 1369.8 -1326.497337 
L 1369.8 -1390.701093 
L 1369.8 -1390.701093 
L 1331.317241 -1399.167583 
L 1292.834483 -1394.581221 
L 1254.351724 -1395.013798 
L 1215.868966 -1391.2249 
L 1177.386207 -1393.254681 
L 1138.903448 -1392.295434 
L 1100.42069 -1385.499219 
L 1061.937931 -1372.621907 
L 1023.455172 -1378.256867 
L 984.972414 -1375.145572 
L 946.489655 -1379.328119 
L 908.006897 -1373.169818 
L 869.524138 -1374.903564 
L 831.041379 -1375.3099 
L 792.558621 -1370.327408 
L 754.075862 -1352.039588 
L 715.593103 -1327.131787 
L 677.110345 -1330.047115 
L 638.627586 -1301.723089 
L 600.144828 -1243.387956 
L 561.662069 -1174.649763 
L 523.17931 -943.523266 
L 484.696552 -952.031338 
L 446.213793 -897.217469 
L 407.731034 -830.54435 
L 369.248276 -658.63288 
L 330.765517 -374.869212 
L 292.282759 -311.38364 
L 253.8 -1409.770419 
z
" id="mf5946fdc4d" style="stroke:#d1aa9f;stroke-opacity:0.2;"/>
    </defs>
    <g clip-path="url(#pb4452afc2b)">
     <use style="fill:#d1aa9f;fill-opacity:0.2;stroke:#d1aa9f;stroke-opacity:0.2;" x="0" xlink:href="#mf5946fdc4d" y="1980"/>
    </g>
   </g>
   <g id="PolyCollection_4">
    <defs>
     <path d="M 253.8 -1346.140979 
L 253.8 -1307.570297 
L 292.282759 -721.85161 
L 330.765517 -1169.261036 
L 369.248276 -1283.524665 
L 407.731034 -1306.57098 
L 446.213793 -1307.408869 
L 484.696552 -1307.53495 
L 523.17931 -1306.549807 
L 561.662069 -1308.034824 
L 600.144828 -1307.084208 
L 638.627586 -1305.557394 
L 677.110345 -1308.616556 
L 715.593103 -1306.616185 
L 754.075862 -1306.849391 
L 792.558621 -1306.215003 
L 831.041379 -1307.964919 
L 869.524138 -1308.290066 
L 908.006897 -1305.273091 
L 946.489655 -1306.523374 
L 984.972414 -1307.727685 
L 1023.455172 -1308.657396 
L 1061.937931 -1308.338268 
L 1100.42069 -1307.556963 
L 1138.903448 -1308.085636 
L 1177.386207 -1307.244897 
L 1215.868966 -1308.854934 
L 1254.351724 -1307.351242 
L 1292.834483 -1307.189199 
L 1331.317241 -1306.510161 
L 1369.8 -1307.698361 
L 1369.8 -1339.604147 
L 1369.8 -1339.604147 
L 1331.317241 -1342.767668 
L 1292.834483 -1340.460201 
L 1254.351724 -1339.537859 
L 1215.868966 -1338.802935 
L 1177.386207 -1345.056394 
L 1138.903448 -1341.107564 
L 1100.42069 -1338.206382 
L 1061.937931 -1335.61777 
L 1023.455172 -1335.83176 
L 984.972414 -1337.651246 
L 946.489655 -1336.89438 
L 908.006897 -1336.972844 
L 869.524138 -1342.113227 
L 831.041379 -1334.172529 
L 792.558621 -1339.338135 
L 754.075862 -1338.62769 
L 715.593103 -1340.581836 
L 677.110345 -1337.071643 
L 638.627586 -1340.465735 
L 600.144828 -1339.252635 
L 561.662069 -1335.810172 
L 523.17931 -1336.141029 
L 484.696552 -1341.577836 
L 446.213793 -1344.47606 
L 407.731034 -1339.75215 
L 369.248276 -1328.608857 
L 330.765517 -1253.012861 
L 292.282759 -754.778906 
L 253.8 -1346.140979 
z
" id="mffa8366a87" style="stroke:#c54c36;stroke-opacity:0.2;"/>
    </defs>
    <g clip-path="url(#pb4452afc2b)">
     <use style="fill:#c54c36;fill-opacity:0.2;stroke:#c54c36;stroke-opacity:0.2;" x="0" xlink:href="#mffa8366a87" y="1980"/>
    </g>
   </g>
   <g id="PolyCollection_5">
    <defs>
     <path d="M 253.8 -1342.099439 
L 253.8 -1306.8216 
L 292.282759 -1307.8815 
L 330.765517 -1308.410002 
L 369.248276 -1308.586742 
L 407.731034 -1308.753351 
L 446.213793 -1309.166162 
L 484.696552 -1308.803096 
L 523.17931 -1307.828819 
L 561.662069 -1307.770177 
L 600.144828 -1306.640598 
L 638.627586 -1306.316341 
L 677.110345 -1307.179615 
L 715.593103 -1306.670008 
L 754.075862 -1306.555042 
L 792.558621 -1306.283732 
L 831.041379 -1306.894674 
L 869.524138 -1307.670487 
L 908.006897 -1308.324875 
L 946.489655 -1307.860989 
L 984.972414 -1308.920435 
L 1023.455172 -1308.165462 
L 1061.937931 -1307.644968 
L 1100.42069 -1307.474483 
L 1138.903448 -1307.932839 
L 1177.386207 -1308.649906 
L 1215.868966 -1308.688363 
L 1254.351724 -1308.329605 
L 1292.834483 -1307.188449 
L 1331.317241 -1306.806563 
L 1369.8 -1306.139685 
L 1369.8 -1337.967277 
L 1369.8 -1337.967277 
L 1331.317241 -1336.798677 
L 1292.834483 -1335.12389 
L 1254.351724 -1333.213635 
L 1215.868966 -1331.712911 
L 1177.386207 -1332.980322 
L 1138.903448 -1333.125571 
L 1100.42069 -1333.314159 
L 1061.937931 -1332.76814 
L 1023.455172 -1333.53132 
L 984.972414 -1333.075623 
L 946.489655 -1334.437877 
L 908.006897 -1333.929926 
L 869.524138 -1333.339014 
L 831.041379 -1334.02209 
L 792.558621 -1336.352156 
L 754.075862 -1337.773169 
L 715.593103 -1340.010071 
L 677.110345 -1339.244829 
L 638.627586 -1340.751522 
L 600.144828 -1339.596668 
L 561.662069 -1337.486094 
L 523.17931 -1336.482239 
L 484.696552 -1337.002116 
L 446.213793 -1335.790838 
L 407.731034 -1336.99186 
L 369.248276 -1338.492336 
L 330.765517 -1338.332091 
L 292.282759 -1340.279443 
L 253.8 -1342.099439 
z
" id="m9732d1ea79" style="stroke:#000000;stroke-opacity:0.2;"/>
    </defs>
    <g clip-path="url(#pb4452afc2b)">
     <use style="fill-opacity:0.2;stroke:#000000;stroke-opacity:0.2;" x="0" xlink:href="#m9732d1ea79" y="1980"/>
    </g>
   </g>
   <g id="matplotlib.axis_1">
    <g id="xtick_1">
     <g id="line2d_1">
      <defs>
       <path d="M 0 7 
L 0 -7 
" id="m8391c43d5c" style="stroke:#000000;stroke-width:3.5;"/>
      </defs>
      <g>
       <use style="stroke:#000000;stroke-width:3.5;" x="253.8" xlink:href="#m8391c43d5c" y="1732.5"/>
      </g>
     </g>
     <g id="text_1">
      <!-- 0 -->
      <defs>
       <path d="M 31.78125 3.421875 
Q 39.265625 3.421875 42.96875 11.625 
Q 46.6875 19.828125 46.6875 36.375 
Q 46.6875 52.984375 42.96875 61.1875 
Q 39.265625 69.390625 31.78125 69.390625 
Q 24.3125 69.390625 20.59375 61.1875 
Q 16.890625 52.984375 16.890625 36.375 
Q 16.890625 19.828125 20.59375 11.625 
Q 24.3125 3.421875 31.78125 3.421875 
z
M 31.78125 -1.421875 
Q 19.921875 -1.421875 13.25 8.53125 
Q 6.59375 18.5 6.59375 36.375 
Q 6.59375 54.296875 13.25 64.25 
Q 19.921875 74.21875 31.78125 74.21875 
Q 43.703125 74.21875 50.34375 64.25 
Q 56.984375 54.296875 56.984375 36.375 
Q 56.984375 18.5 50.34375 8.53125 
Q 43.703125 -1.421875 31.78125 -1.421875 
z
" id="DejaVuSerif-48"/>
      </defs>
      <g transform="translate(233.121875 1792.389844)scale(0.65 -0.65)">
       <use xlink:href="#DejaVuSerif-48"/>
      </g>
     </g>
    </g>
    <g id="xtick_2">
     <g id="line2d_2">
      <g>
       <use style="stroke:#000000;stroke-width:3.5;" x="638.627586" xlink:href="#m8391c43d5c" y="1732.5"/>
      </g>
     </g>
     <g id="text_2">
      <!-- 10 -->
      <defs>
       <path d="M 14.203125 0 
L 14.203125 5.171875 
L 26.90625 5.171875 
L 26.90625 65.828125 
L 12.203125 56.296875 
L 12.203125 62.703125 
L 29.984375 74.21875 
L 36.71875 74.21875 
L 36.71875 5.171875 
L 49.421875 5.171875 
L 49.421875 0 
z
" id="DejaVuSerif-49"/>
      </defs>
      <g transform="translate(597.271336 1792.389844)scale(0.65 -0.65)">
       <use xlink:href="#DejaVuSerif-49"/>
       <use x="63.623047" xlink:href="#DejaVuSerif-48"/>
      </g>
     </g>
    </g>
    <g id="xtick_3">
     <g id="line2d_3">
      <g>
       <use style="stroke:#000000;stroke-width:3.5;" x="1023.455172" xlink:href="#m8391c43d5c" y="1732.5"/>
      </g>
     </g>
     <g id="text_3">
      <!-- 20 -->
      <defs>
       <path d="M 12.796875 55.515625 
L 7.328125 55.515625 
L 7.328125 68.5 
Q 12.546875 71.296875 17.84375 72.75 
Q 23.140625 74.21875 28.21875 74.21875 
Q 39.59375 74.21875 46.1875 68.703125 
Q 52.78125 63.1875 52.78125 53.71875 
Q 52.78125 43.015625 37.84375 28.125 
Q 36.671875 27 36.078125 26.421875 
L 17.671875 8.015625 
L 48.09375 8.015625 
L 48.09375 17 
L 53.8125 17 
L 53.8125 0 
L 6.78125 0 
L 6.78125 5.328125 
L 28.90625 27.390625 
Q 36.234375 34.71875 39.359375 40.84375 
Q 42.484375 46.96875 42.484375 53.71875 
Q 42.484375 61.078125 38.640625 65.234375 
Q 34.8125 69.390625 28.078125 69.390625 
Q 21.09375 69.390625 17.28125 65.921875 
Q 13.484375 62.453125 12.796875 55.515625 
z
" id="DejaVuSerif-50"/>
      </defs>
      <g transform="translate(982.098922 1792.389844)scale(0.65 -0.65)">
       <use xlink:href="#DejaVuSerif-50"/>
       <use x="63.623047" xlink:href="#DejaVuSerif-48"/>
      </g>
     </g>
    </g>
    <g id="xtick_4">
     <g id="line2d_4">
      <g>
       <use style="stroke:#000000;stroke-width:3.5;" x="1408.282759" xlink:href="#m8391c43d5c" y="1732.5"/>
      </g>
     </g>
     <g id="text_4">
      <!-- 30 -->
      <defs>
       <path d="M 9.71875 69.828125 
Q 15.4375 71.96875 20.671875 73.09375 
Q 25.921875 74.21875 30.515625 74.21875 
Q 41.21875 74.21875 47.21875 69.59375 
Q 53.21875 64.984375 53.21875 56.78125 
Q 53.21875 50.203125 49.0625 45.78125 
Q 44.921875 41.359375 37.3125 39.796875 
Q 46.296875 38.53125 51.25 33.28125 
Q 56.203125 28.03125 56.203125 19.671875 
Q 56.203125 9.46875 49.34375 4.015625 
Q 42.484375 -1.421875 29.59375 -1.421875 
Q 23.875 -1.421875 18.421875 -0.1875 
Q 12.984375 1.03125 7.625 3.515625 
L 7.625 17.671875 
L 13.09375 17.671875 
Q 13.578125 10.640625 17.828125 7.03125 
Q 22.078125 3.421875 29.78125 3.421875 
Q 37.25 3.421875 41.578125 7.734375 
Q 45.90625 12.0625 45.90625 19.578125 
Q 45.90625 28.171875 41.453125 32.59375 
Q 37.015625 37.015625 28.421875 37.015625 
L 23.78125 37.015625 
L 23.78125 42 
L 26.21875 42 
Q 34.765625 42 39.03125 45.53125 
Q 43.3125 49.078125 43.3125 56.203125 
Q 43.3125 62.59375 39.796875 65.984375 
Q 36.28125 69.390625 29.6875 69.390625 
Q 23.09375 69.390625 19.453125 66.265625 
Q 15.828125 63.140625 15.1875 56.984375 
L 9.71875 56.984375 
z
" id="DejaVuSerif-51"/>
      </defs>
      <g transform="translate(1366.926509 1792.389844)scale(0.65 -0.65)">
       <use xlink:href="#DejaVuSerif-51"/>
       <use x="63.623047" xlink:href="#DejaVuSerif-48"/>
      </g>
     </g>
    </g>
   </g>
   <g id="matplotlib.axis_2">
    <g id="ytick_1">
     <g id="line2d_5">
      <defs>
       <path d="M 7 0 
L -7 -0 
" id="md9ff13edd3" style="stroke:#000000;stroke-width:3.5;"/>
      </defs>
      <g>
       <use style="stroke:#000000;stroke-width:3.5;" x="198" xlink:href="#md9ff13edd3" y="1732.5"/>
      </g>
     </g>
     <g id="text_5">
      <!-- 0 -->
      <g transform="translate(146.14375 1757.194922)scale(0.65 -0.65)">
       <use xlink:href="#DejaVuSerif-48"/>
      </g>
     </g>
    </g>
    <g id="ytick_2">
     <g id="line2d_6">
      <g>
       <use style="stroke:#000000;stroke-width:3.5;" x="198" xlink:href="#md9ff13edd3" y="1518.942857"/>
      </g>
     </g>
     <g id="text_6">
      <!-- 1 -->
      <g transform="translate(146.14375 1543.637779)scale(0.65 -0.65)">
       <use xlink:href="#DejaVuSerif-49"/>
      </g>
     </g>
    </g>
    <g id="ytick_3">
     <g id="line2d_7">
      <g>
       <use style="stroke:#000000;stroke-width:3.5;" x="198" xlink:href="#md9ff13edd3" y="1305.385714"/>
      </g>
     </g>
     <g id="text_7">
      <!-- 2 -->
      <g transform="translate(146.14375 1330.080636)scale(0.65 -0.65)">
       <use xlink:href="#DejaVuSerif-50"/>
      </g>
     </g>
    </g>
    <g id="ytick_4">
     <g id="line2d_8">
      <g>
       <use style="stroke:#000000;stroke-width:3.5;" x="198" xlink:href="#md9ff13edd3" y="1091.828571"/>
      </g>
     </g>
     <g id="text_8">
      <!-- 3 -->
      <g transform="translate(146.14375 1116.523493)scale(0.65 -0.65)">
       <use xlink:href="#DejaVuSerif-51"/>
      </g>
     </g>
    </g>
    <g id="ytick_5">
     <g id="line2d_9">
      <g>
       <use style="stroke:#000000;stroke-width:3.5;" x="198" xlink:href="#md9ff13edd3" y="878.271429"/>
      </g>
     </g>
     <g id="text_9">
      <!-- 4 -->
      <defs>
       <path d="M 34.90625 24.703125 
L 34.90625 63.484375 
L 10.015625 24.703125 
z
M 56.390625 0 
L 23.1875 0 
L 23.1875 5.171875 
L 34.90625 5.171875 
L 34.90625 19.484375 
L 3.078125 19.484375 
L 3.078125 24.8125 
L 35.015625 74.21875 
L 44.671875 74.21875 
L 44.671875 24.703125 
L 58.59375 24.703125 
L 58.59375 19.484375 
L 44.671875 19.484375 
L 44.671875 5.171875 
L 56.390625 5.171875 
z
" id="DejaVuSerif-52"/>
      </defs>
      <g transform="translate(146.14375 902.96635)scale(0.65 -0.65)">
       <use xlink:href="#DejaVuSerif-52"/>
      </g>
     </g>
    </g>
    <g id="ytick_6">
     <g id="line2d_10">
      <g>
       <use style="stroke:#000000;stroke-width:3.5;" x="198" xlink:href="#md9ff13edd3" y="664.714286"/>
      </g>
     </g>
     <g id="text_10">
      <!-- 5 -->
      <defs>
       <path d="M 50.296875 72.90625 
L 50.296875 64.890625 
L 16.890625 64.890625 
L 16.890625 44 
Q 19.4375 45.75 22.828125 46.625 
Q 26.21875 47.515625 30.421875 47.515625 
Q 42.234375 47.515625 49.0625 40.96875 
Q 55.90625 34.421875 55.90625 23.09375 
Q 55.90625 11.53125 49 5.046875 
Q 42.09375 -1.421875 29.59375 -1.421875 
Q 24.5625 -1.421875 19.28125 -0.1875 
Q 14.015625 1.03125 8.5 3.515625 
L 8.5 17.671875 
L 14.015625 17.671875 
Q 14.453125 10.75 18.421875 7.078125 
Q 22.40625 3.421875 29.59375 3.421875 
Q 37.3125 3.421875 41.453125 8.5 
Q 45.609375 13.578125 45.609375 23.09375 
Q 45.609375 32.5625 41.484375 37.609375 
Q 37.359375 42.671875 29.59375 42.671875 
Q 25.203125 42.671875 21.84375 41.109375 
Q 18.5 39.546875 15.921875 36.28125 
L 11.71875 36.28125 
L 11.71875 72.90625 
z
" id="DejaVuSerif-53"/>
      </defs>
      <g transform="translate(146.14375 689.409208)scale(0.65 -0.65)">
       <use xlink:href="#DejaVuSerif-53"/>
      </g>
     </g>
    </g>
    <g id="ytick_7">
     <g id="line2d_11">
      <g>
       <use style="stroke:#000000;stroke-width:3.5;" x="198" xlink:href="#md9ff13edd3" y="451.157143"/>
      </g>
     </g>
     <g id="text_11">
      <!-- 6 -->
      <defs>
       <path d="M 32.71875 3.421875 
Q 39.59375 3.421875 43.296875 8.46875 
Q 47.015625 13.53125 47.015625 23 
Q 47.015625 32.46875 43.296875 37.515625 
Q 39.59375 42.578125 32.71875 42.578125 
Q 25.734375 42.578125 22.0625 37.6875 
Q 18.40625 32.8125 18.40625 23.578125 
Q 18.40625 13.875 22.109375 8.640625 
Q 25.828125 3.421875 32.71875 3.421875 
z
M 16.796875 40.140625 
Q 20.125 43.796875 24.3125 45.59375 
Q 28.515625 47.40625 33.796875 47.40625 
Q 44.671875 47.40625 51 40.859375 
Q 57.328125 34.328125 57.328125 23 
Q 57.328125 11.921875 50.515625 5.25 
Q 43.703125 -1.421875 32.328125 -1.421875 
Q 19.96875 -1.421875 13.328125 7.78125 
Q 6.6875 17 6.6875 34.078125 
Q 6.6875 53.21875 14.546875 63.71875 
Q 22.40625 74.21875 36.71875 74.21875 
Q 40.578125 74.21875 44.828125 73.484375 
Q 49.078125 72.75 53.515625 71.296875 
L 53.515625 59.28125 
L 48 59.28125 
Q 47.40625 64.203125 44.234375 66.796875 
Q 41.0625 69.390625 35.6875 69.390625 
Q 26.21875 69.390625 21.578125 62.203125 
Q 16.9375 55.03125 16.796875 40.140625 
z
" id="DejaVuSerif-54"/>
      </defs>
      <g transform="translate(146.14375 475.852065)scale(0.65 -0.65)">
       <use xlink:href="#DejaVuSerif-54"/>
      </g>
     </g>
    </g>
    <g id="ytick_8">
     <g id="line2d_12">
      <g>
       <use style="stroke:#000000;stroke-width:3.5;" x="198" xlink:href="#md9ff13edd3" y="237.6"/>
      </g>
     </g>
     <g id="text_12">
      <!-- 7 -->
      <defs>
       <path d="M 56.390625 67.921875 
L 27.875 0 
L 20.609375 0 
L 47.796875 64.890625 
L 14.109375 64.890625 
L 14.109375 55.90625 
L 8.40625 55.90625 
L 8.40625 72.90625 
L 56.390625 72.90625 
z
" id="DejaVuSerif-55"/>
      </defs>
      <g transform="translate(146.14375 262.294922)scale(0.65 -0.65)">
       <use xlink:href="#DejaVuSerif-55"/>
      </g>
     </g>
    </g>
   </g>
   <g id="line2d_13">
    <path clip-path="url(#pb4452afc2b)" d="M 253.8 627.572017 
L 292.282759 1692.045555 
L 330.765517 1564.455993 
L 369.248276 1340.089337 
L 407.731034 1091.868238 
L 446.213793 997.420295 
L 484.696552 940.642841 
L 523.17931 900.679666 
L 561.662069 748.449292 
L 600.144828 710.43348 
L 638.627586 694.356954 
L 677.110345 666.454063 
L 715.593103 680.47501 
L 754.075862 659.270537 
L 792.558621 650.023742 
L 831.041379 648.303226 
L 869.524138 640.929647 
L 908.006897 640.855853 
L 946.489655 636.048994 
L 984.972414 637.215887 
L 1023.455172 640.642493 
L 1061.937931 639.58079 
L 1100.42069 637.503441 
L 1138.903448 634.32431 
L 1177.386207 632.445216 
L 1215.868966 631.496842 
L 1254.351724 631.168893 
L 1292.834483 629.636406 
L 1331.317241 630.080487 
L 1369.8 633.040849 
" style="fill:none;stroke:#74c265;stroke-linecap:square;stroke-width:4;"/>
    <defs>
     <path d="M 0 7.5 
C 1.989023 7.5 3.896849 6.709753 5.303301 5.303301 
C 6.709753 3.896849 7.5 1.989023 7.5 0 
C 7.5 -1.989023 6.709753 -3.896849 5.303301 -5.303301 
C 3.896849 -6.709753 1.989023 -7.5 0 -7.5 
C -1.989023 -7.5 -3.896849 -6.709753 -5.303301 -5.303301 
C -6.709753 -3.896849 -7.5 -1.989023 -7.5 0 
C -7.5 1.989023 -6.709753 3.896849 -5.303301 5.303301 
C -3.896849 6.709753 -1.989023 7.5 0 7.5 
z
" id="m2287ce0e1f" style="stroke:#74c265;"/>
    </defs>
    <g clip-path="url(#pb4452afc2b)">
     <use style="fill:#74c265;stroke:#74c265;" x="253.8" xlink:href="#m2287ce0e1f" y="627.572017"/>
     <use style="fill:#74c265;stroke:#74c265;" x="292.282759" xlink:href="#m2287ce0e1f" y="1692.045555"/>
     <use style="fill:#74c265;stroke:#74c265;" x="330.765517" xlink:href="#m2287ce0e1f" y="1564.455993"/>
     <use style="fill:#74c265;stroke:#74c265;" x="369.248276" xlink:href="#m2287ce0e1f" y="1340.089337"/>
     <use style="fill:#74c265;stroke:#74c265;" x="407.731034" xlink:href="#m2287ce0e1f" y="1091.868238"/>
     <use style="fill:#74c265;stroke:#74c265;" x="446.213793" xlink:href="#m2287ce0e1f" y="997.420295"/>
     <use style="fill:#74c265;stroke:#74c265;" x="484.696552" xlink:href="#m2287ce0e1f" y="940.642841"/>
     <use style="fill:#74c265;stroke:#74c265;" x="523.17931" xlink:href="#m2287ce0e1f" y="900.679666"/>
     <use style="fill:#74c265;stroke:#74c265;" x="561.662069" xlink:href="#m2287ce0e1f" y="748.449292"/>
     <use style="fill:#74c265;stroke:#74c265;" x="600.144828" xlink:href="#m2287ce0e1f" y="710.43348"/>
     <use style="fill:#74c265;stroke:#74c265;" x="638.627586" xlink:href="#m2287ce0e1f" y="694.356954"/>
     <use style="fill:#74c265;stroke:#74c265;" x="677.110345" xlink:href="#m2287ce0e1f" y="666.454063"/>
     <use style="fill:#74c265;stroke:#74c265;" x="715.593103" xlink:href="#m2287ce0e1f" y="680.47501"/>
     <use style="fill:#74c265;stroke:#74c265;" x="754.075862" xlink:href="#m2287ce0e1f" y="659.270537"/>
     <use style="fill:#74c265;stroke:#74c265;" x="792.558621" xlink:href="#m2287ce0e1f" y="650.023742"/>
     <use style="fill:#74c265;stroke:#74c265;" x="831.041379" xlink:href="#m2287ce0e1f" y="648.303226"/>
     <use style="fill:#74c265;stroke:#74c265;" x="869.524138" xlink:href="#m2287ce0e1f" y="640.929647"/>
     <use style="fill:#74c265;stroke:#74c265;" x="908.006897" xlink:href="#m2287ce0e1f" y="640.855853"/>
     <use style="fill:#74c265;stroke:#74c265;" x="946.489655" xlink:href="#m2287ce0e1f" y="636.048994"/>
     <use style="fill:#74c265;stroke:#74c265;" x="984.972414" xlink:href="#m2287ce0e1f" y="637.215887"/>
     <use style="fill:#74c265;stroke:#74c265;" x="1023.455172" xlink:href="#m2287ce0e1f" y="640.642493"/>
     <use style="fill:#74c265;stroke:#74c265;" x="1061.937931" xlink:href="#m2287ce0e1f" y="639.58079"/>
     <use style="fill:#74c265;stroke:#74c265;" x="1100.42069" xlink:href="#m2287ce0e1f" y="637.503441"/>
     <use style="fill:#74c265;stroke:#74c265;" x="1138.903448" xlink:href="#m2287ce0e1f" y="634.32431"/>
     <use style="fill:#74c265;stroke:#74c265;" x="1177.386207" xlink:href="#m2287ce0e1f" y="632.445216"/>
     <use style="fill:#74c265;stroke:#74c265;" x="1215.868966" xlink:href="#m2287ce0e1f" y="631.496842"/>
     <use style="fill:#74c265;stroke:#74c265;" x="1254.351724" xlink:href="#m2287ce0e1f" y="631.168893"/>
     <use style="fill:#74c265;stroke:#74c265;" x="1292.834483" xlink:href="#m2287ce0e1f" y="629.636406"/>
     <use style="fill:#74c265;stroke:#74c265;" x="1331.317241" xlink:href="#m2287ce0e1f" y="630.080487"/>
     <use style="fill:#74c265;stroke:#74c265;" x="1369.8" xlink:href="#m2287ce0e1f" y="633.040849"/>
    </g>
   </g>
   <g id="line2d_14">
    <path clip-path="url(#pb4452afc2b)" d="M 253.8 663.148757 
L 292.282759 1697.0204 
L 330.765517 1587.715248 
L 369.248276 1376.889816 
L 407.731034 1151.171199 
L 446.213793 1059.111773 
L 484.696552 993.180501 
L 523.17931 948.96355 
L 561.662069 805.420286 
L 600.144828 758.488712 
L 638.627586 732.407536 
L 677.110345 705.675172 
L 715.593103 719.520448 
L 754.075862 693.842724 
L 792.558621 682.630206 
L 831.041379 681.449875 
L 869.524138 674.503271 
L 908.006897 674.627291 
L 946.489655 670.295587 
L 984.972414 669.289553 
L 1023.455172 672.257325 
L 1061.937931 670.22339 
L 1100.42069 671.332438 
L 1138.903448 666.928396 
L 1177.386207 661.933584 
L 1215.868966 663.803022 
L 1254.351724 664.601622 
L 1292.834483 660.280651 
L 1331.317241 659.281021 
L 1369.8 660.249567 
" style="fill:none;stroke:#74c265;stroke-dasharray:5.55,2.4;stroke-dashoffset:0;stroke-width:1.5;"/>
   </g>
   <g id="line2d_15">
    <path clip-path="url(#pb4452afc2b)" d="M 253.8 591.995277 
L 292.282759 1687.070709 
L 330.765517 1541.196737 
L 369.248276 1303.288858 
L 407.731034 1032.565277 
L 446.213793 935.728817 
L 484.696552 888.105181 
L 523.17931 852.395781 
L 561.662069 691.478299 
L 600.144828 662.378248 
L 638.627586 656.306373 
L 677.110345 627.232955 
L 715.593103 641.429572 
L 754.075862 624.69835 
L 792.558621 617.417278 
L 831.041379 615.156576 
L 869.524138 607.356024 
L 908.006897 607.084415 
L 946.489655 601.802401 
L 984.972414 605.142222 
L 1023.455172 609.02766 
L 1061.937931 608.93819 
L 1100.42069 603.674444 
L 1138.903448 601.720224 
L 1177.386207 602.956848 
L 1215.868966 599.190662 
L 1254.351724 597.736164 
L 1292.834483 598.992161 
L 1331.317241 600.879953 
L 1369.8 605.83213 
" style="fill:none;stroke:#74c265;stroke-dasharray:5.55,2.4;stroke-dashoffset:0;stroke-width:1.5;"/>
   </g>
   <g id="line2d_16">
    <path clip-path="url(#pb4452afc2b)" d="M 253.8 568.361889 
L 292.282759 1677.134591 
L 330.765517 1668.713115 
L 369.248276 1564.062916 
L 407.731034 1386.627605 
L 446.213793 1191.713192 
L 484.696552 1108.331373 
L 523.17931 1037.445326 
L 561.662069 989.94782 
L 600.144828 1006.689707 
L 638.627586 926.952423 
L 677.110345 864.350959 
L 715.593103 861.994537 
L 754.075862 795.332609 
L 792.558621 702.444666 
L 831.041379 681.429862 
L 869.524138 687.976009 
L 908.006897 659.124797 
L 946.489655 639.973404 
L 984.972414 626.948287 
L 1023.455172 616.032597 
L 1061.937931 607.501426 
L 1100.42069 600.287194 
L 1138.903448 592.456742 
L 1177.386207 591.187141 
L 1215.868966 585.316589 
L 1254.351724 591.055099 
L 1292.834483 586.166648 
L 1331.317241 582.866737 
L 1369.8 581.334861 
" style="fill:none;stroke:#ff9933;stroke-linecap:square;stroke-width:4;"/>
    <defs>
     <path d="M 0 7.5 
C 1.989023 7.5 3.896849 6.709753 5.303301 5.303301 
C 6.709753 3.896849 7.5 1.989023 7.5 0 
C 7.5 -1.989023 6.709753 -3.896849 5.303301 -5.303301 
C 3.896849 -6.709753 1.989023 -7.5 0 -7.5 
C -1.989023 -7.5 -3.896849 -6.709753 -5.303301 -5.303301 
C -6.709753 -3.896849 -7.5 -1.989023 -7.5 0 
C -7.5 1.989023 -6.709753 3.896849 -5.303301 5.303301 
C -3.896849 6.709753 -1.989023 7.5 0 7.5 
z
" id="m9d282d6a90" style="stroke:#ff9933;"/>
    </defs>
    <g clip-path="url(#pb4452afc2b)">
     <use style="fill:#ff9933;stroke:#ff9933;" x="253.8" xlink:href="#m9d282d6a90" y="568.361889"/>
     <use style="fill:#ff9933;stroke:#ff9933;" x="292.282759" xlink:href="#m9d282d6a90" y="1677.134591"/>
     <use style="fill:#ff9933;stroke:#ff9933;" x="330.765517" xlink:href="#m9d282d6a90" y="1668.713115"/>
     <use style="fill:#ff9933;stroke:#ff9933;" x="369.248276" xlink:href="#m9d282d6a90" y="1564.062916"/>
     <use style="fill:#ff9933;stroke:#ff9933;" x="407.731034" xlink:href="#m9d282d6a90" y="1386.627605"/>
     <use style="fill:#ff9933;stroke:#ff9933;" x="446.213793" xlink:href="#m9d282d6a90" y="1191.713192"/>
     <use style="fill:#ff9933;stroke:#ff9933;" x="484.696552" xlink:href="#m9d282d6a90" y="1108.331373"/>
     <use style="fill:#ff9933;stroke:#ff9933;" x="523.17931" xlink:href="#m9d282d6a90" y="1037.445326"/>
     <use style="fill:#ff9933;stroke:#ff9933;" x="561.662069" xlink:href="#m9d282d6a90" y="989.94782"/>
     <use style="fill:#ff9933;stroke:#ff9933;" x="600.144828" xlink:href="#m9d282d6a90" y="1006.689707"/>
     <use style="fill:#ff9933;stroke:#ff9933;" x="638.627586" xlink:href="#m9d282d6a90" y="926.952423"/>
     <use style="fill:#ff9933;stroke:#ff9933;" x="677.110345" xlink:href="#m9d282d6a90" y="864.350959"/>
     <use style="fill:#ff9933;stroke:#ff9933;" x="715.593103" xlink:href="#m9d282d6a90" y="861.994537"/>
     <use style="fill:#ff9933;stroke:#ff9933;" x="754.075862" xlink:href="#m9d282d6a90" y="795.332609"/>
     <use style="fill:#ff9933;stroke:#ff9933;" x="792.558621" xlink:href="#m9d282d6a90" y="702.444666"/>
     <use style="fill:#ff9933;stroke:#ff9933;" x="831.041379" xlink:href="#m9d282d6a90" y="681.429862"/>
     <use style="fill:#ff9933;stroke:#ff9933;" x="869.524138" xlink:href="#m9d282d6a90" y="687.976009"/>
     <use style="fill:#ff9933;stroke:#ff9933;" x="908.006897" xlink:href="#m9d282d6a90" y="659.124797"/>
     <use style="fill:#ff9933;stroke:#ff9933;" x="946.489655" xlink:href="#m9d282d6a90" y="639.973404"/>
     <use style="fill:#ff9933;stroke:#ff9933;" x="984.972414" xlink:href="#m9d282d6a90" y="626.948287"/>
     <use style="fill:#ff9933;stroke:#ff9933;" x="1023.455172" xlink:href="#m9d282d6a90" y="616.032597"/>
     <use style="fill:#ff9933;stroke:#ff9933;" x="1061.937931" xlink:href="#m9d282d6a90" y="607.501426"/>
     <use style="fill:#ff9933;stroke:#ff9933;" x="1100.42069" xlink:href="#m9d282d6a90" y="600.287194"/>
     <use style="fill:#ff9933;stroke:#ff9933;" x="1138.903448" xlink:href="#m9d282d6a90" y="592.456742"/>
     <use style="fill:#ff9933;stroke:#ff9933;" x="1177.386207" xlink:href="#m9d282d6a90" y="591.187141"/>
     <use style="fill:#ff9933;stroke:#ff9933;" x="1215.868966" xlink:href="#m9d282d6a90" y="585.316589"/>
     <use style="fill:#ff9933;stroke:#ff9933;" x="1254.351724" xlink:href="#m9d282d6a90" y="591.055099"/>
     <use style="fill:#ff9933;stroke:#ff9933;" x="1292.834483" xlink:href="#m9d282d6a90" y="586.166648"/>
     <use style="fill:#ff9933;stroke:#ff9933;" x="1331.317241" xlink:href="#m9d282d6a90" y="582.866737"/>
     <use style="fill:#ff9933;stroke:#ff9933;" x="1369.8" xlink:href="#m9d282d6a90" y="581.334861"/>
    </g>
   </g>
   <g id="line2d_17">
    <path clip-path="url(#pb4452afc2b)" d="M 253.8 714.737163 
L 292.282759 1683.687792 
L 330.765517 1680.056482 
L 369.248276 1584.6051 
L 407.731034 1422.415185 
L 446.213793 1249.093589 
L 484.696552 1168.158212 
L 523.17931 1104.024146 
L 561.662069 1052.907636 
L 600.144828 1058.902834 
L 638.627586 981.559945 
L 677.110345 919.701747 
L 715.593103 913.673452 
L 754.075862 848.389398 
L 792.558621 751.36689 
L 831.041379 733.903944 
L 869.524138 760.307109 
L 908.006897 718.246289 
L 946.489655 697.246977 
L 984.972414 678.412478 
L 1023.455172 659.62521 
L 1061.937931 655.04546 
L 1100.42069 652.151695 
L 1138.903448 643.608172 
L 1177.386207 637.732639 
L 1215.868966 656.344273 
L 1254.351724 648.311331 
L 1292.834483 633.956287 
L 1331.317241 656.578031 
L 1369.8 647.728487 
" style="fill:none;stroke:#ff9933;stroke-dasharray:5.55,2.4;stroke-dashoffset:0;stroke-width:1.5;"/>
   </g>
   <g id="line2d_18">
    <path clip-path="url(#pb4452afc2b)" d="M 253.8 421.986615 
L 292.282759 1670.58139 
L 330.765517 1657.369749 
L 369.248276 1543.520733 
L 407.731034 1350.840026 
L 446.213793 1134.332795 
L 484.696552 1048.504533 
L 523.17931 970.866507 
L 561.662069 926.988003 
L 600.144828 954.47658 
L 638.627586 872.344901 
L 677.110345 809.00017 
L 715.593103 810.315622 
L 754.075862 742.275821 
L 792.558621 653.522443 
L 831.041379 628.955779 
L 869.524138 615.644908 
L 908.006897 600.003305 
L 946.489655 582.69983 
L 984.972414 575.484095 
L 1023.455172 572.439984 
L 1061.937931 559.957391 
L 1100.42069 548.422693 
L 1138.903448 541.305311 
L 1177.386207 544.641644 
L 1215.868966 514.288905 
L 1254.351724 533.798867 
L 1292.834483 538.377008 
L 1331.317241 509.155443 
L 1369.8 514.941234 
" style="fill:none;stroke:#ff9933;stroke-dasharray:5.55,2.4;stroke-dashoffset:0;stroke-width:1.5;"/>
   </g>
   <g id="line2d_19">
    <path clip-path="url(#pb4452afc2b)" d="M 253.8 611.962681 
L 292.282759 1677.717528 
L 330.765517 1623.278873 
L 369.248276 1351.001382 
L 407.731034 1199.413637 
L 446.213793 1139.967397 
L 484.696552 1086.567927 
L 523.17931 1087.723688 
L 561.662069 861.61377 
L 600.144828 792.132444 
L 638.627586 720.946697 
L 677.110345 686.756963 
L 715.593103 696.158027 
L 754.075862 670.182891 
L 792.558621 654.416923 
L 831.041379 643.540028 
L 869.524138 640.449513 
L 908.006897 642.322553 
L 946.489655 635.632005 
L 984.972414 635.898163 
L 1023.455172 633.80475 
L 1061.937931 636.114335 
L 1100.42069 629.817674 
L 1138.903448 625.643412 
L 1177.386207 623.496705 
L 1215.868966 624.733872 
L 1254.351724 622.095746 
L 1292.834483 619.585333 
L 1331.317241 617.192518 
L 1369.8 621.400785 
" style="fill:none;stroke:#d1aa9f;stroke-linecap:square;stroke-width:4;"/>
    <defs>
     <path d="M 0 7.5 
C 1.989023 7.5 3.896849 6.709753 5.303301 5.303301 
C 6.709753 3.896849 7.5 1.989023 7.5 0 
C 7.5 -1.989023 6.709753 -3.896849 5.303301 -5.303301 
C 3.896849 -6.709753 1.989023 -7.5 0 -7.5 
C -1.989023 -7.5 -3.896849 -6.709753 -5.303301 -5.303301 
C -6.709753 -3.896849 -7.5 -1.989023 -7.5 0 
C -7.5 1.989023 -6.709753 3.896849 -5.303301 5.303301 
C -3.896849 6.709753 -1.989023 7.5 0 7.5 
z
" id="m0bd4a0dddc" style="stroke:#d1aa9f;"/>
    </defs>
    <g clip-path="url(#pb4452afc2b)">
     <use style="fill:#d1aa9f;stroke:#d1aa9f;" x="253.8" xlink:href="#m0bd4a0dddc" y="611.962681"/>
     <use style="fill:#d1aa9f;stroke:#d1aa9f;" x="292.282759" xlink:href="#m0bd4a0dddc" y="1677.717528"/>
     <use style="fill:#d1aa9f;stroke:#d1aa9f;" x="330.765517" xlink:href="#m0bd4a0dddc" y="1623.278873"/>
     <use style="fill:#d1aa9f;stroke:#d1aa9f;" x="369.248276" xlink:href="#m0bd4a0dddc" y="1351.001382"/>
     <use style="fill:#d1aa9f;stroke:#d1aa9f;" x="407.731034" xlink:href="#m0bd4a0dddc" y="1199.413637"/>
     <use style="fill:#d1aa9f;stroke:#d1aa9f;" x="446.213793" xlink:href="#m0bd4a0dddc" y="1139.967397"/>
     <use style="fill:#d1aa9f;stroke:#d1aa9f;" x="484.696552" xlink:href="#m0bd4a0dddc" y="1086.567927"/>
     <use style="fill:#d1aa9f;stroke:#d1aa9f;" x="523.17931" xlink:href="#m0bd4a0dddc" y="1087.723688"/>
     <use style="fill:#d1aa9f;stroke:#d1aa9f;" x="561.662069" xlink:href="#m0bd4a0dddc" y="861.61377"/>
     <use style="fill:#d1aa9f;stroke:#d1aa9f;" x="600.144828" xlink:href="#m0bd4a0dddc" y="792.132444"/>
     <use style="fill:#d1aa9f;stroke:#d1aa9f;" x="638.627586" xlink:href="#m0bd4a0dddc" y="720.946697"/>
     <use style="fill:#d1aa9f;stroke:#d1aa9f;" x="677.110345" xlink:href="#m0bd4a0dddc" y="686.756963"/>
     <use style="fill:#d1aa9f;stroke:#d1aa9f;" x="715.593103" xlink:href="#m0bd4a0dddc" y="696.158027"/>
     <use style="fill:#d1aa9f;stroke:#d1aa9f;" x="754.075862" xlink:href="#m0bd4a0dddc" y="670.182891"/>
     <use style="fill:#d1aa9f;stroke:#d1aa9f;" x="792.558621" xlink:href="#m0bd4a0dddc" y="654.416923"/>
     <use style="fill:#d1aa9f;stroke:#d1aa9f;" x="831.041379" xlink:href="#m0bd4a0dddc" y="643.540028"/>
     <use style="fill:#d1aa9f;stroke:#d1aa9f;" x="869.524138" xlink:href="#m0bd4a0dddc" y="640.449513"/>
     <use style="fill:#d1aa9f;stroke:#d1aa9f;" x="908.006897" xlink:href="#m0bd4a0dddc" y="642.322553"/>
     <use style="fill:#d1aa9f;stroke:#d1aa9f;" x="946.489655" xlink:href="#m0bd4a0dddc" y="635.632005"/>
     <use style="fill:#d1aa9f;stroke:#d1aa9f;" x="984.972414" xlink:href="#m0bd4a0dddc" y="635.898163"/>
     <use style="fill:#d1aa9f;stroke:#d1aa9f;" x="1023.455172" xlink:href="#m0bd4a0dddc" y="633.80475"/>
     <use style="fill:#d1aa9f;stroke:#d1aa9f;" x="1061.937931" xlink:href="#m0bd4a0dddc" y="636.114335"/>
     <use style="fill:#d1aa9f;stroke:#d1aa9f;" x="1100.42069" xlink:href="#m0bd4a0dddc" y="629.817674"/>
     <use style="fill:#d1aa9f;stroke:#d1aa9f;" x="1138.903448" xlink:href="#m0bd4a0dddc" y="625.643412"/>
     <use style="fill:#d1aa9f;stroke:#d1aa9f;" x="1177.386207" xlink:href="#m0bd4a0dddc" y="623.496705"/>
     <use style="fill:#d1aa9f;stroke:#d1aa9f;" x="1215.868966" xlink:href="#m0bd4a0dddc" y="624.733872"/>
     <use style="fill:#d1aa9f;stroke:#d1aa9f;" x="1254.351724" xlink:href="#m0bd4a0dddc" y="622.095746"/>
     <use style="fill:#d1aa9f;stroke:#d1aa9f;" x="1292.834483" xlink:href="#m0bd4a0dddc" y="619.585333"/>
     <use style="fill:#d1aa9f;stroke:#d1aa9f;" x="1331.317241" xlink:href="#m0bd4a0dddc" y="617.192518"/>
     <use style="fill:#d1aa9f;stroke:#d1aa9f;" x="1369.8" xlink:href="#m0bd4a0dddc" y="621.400785"/>
    </g>
   </g>
   <g id="line2d_20">
    <path clip-path="url(#pb4452afc2b)" d="M 253.8 653.69578 
L 292.282759 1686.818696 
L 330.765517 1641.426958 
L 369.248276 1380.635643 
L 407.731034 1249.371623 
L 446.213793 1197.152263 
L 484.696552 1145.167193 
L 523.17931 1138.970642 
L 561.662069 917.877303 
L 600.144828 847.652845 
L 638.627586 763.616483 
L 677.110345 723.561042 
L 715.593103 739.447841 
L 754.075862 712.40537 
L 792.558621 699.161254 
L 831.041379 682.389956 
L 869.524138 675.802591 
L 908.006897 677.814925 
L 946.489655 670.592129 
L 984.972414 666.941899 
L 1023.455172 665.866368 
L 1061.937931 664.850578 
L 1100.42069 665.134567 
L 1138.903448 663.582258 
L 1177.386207 660.248091 
L 1215.868966 660.692644 
L 1254.351724 659.20529 
L 1292.834483 653.751888 
L 1331.317241 653.552619 
L 1369.8 653.502663 
" style="fill:none;stroke:#d1aa9f;stroke-dasharray:5.55,2.4;stroke-dashoffset:0;stroke-width:1.5;"/>
   </g>
   <g id="line2d_21">
    <path clip-path="url(#pb4452afc2b)" d="M 253.8 570.229581 
L 292.282759 1668.61636 
L 330.765517 1605.130788 
L 369.248276 1321.36712 
L 407.731034 1149.45565 
L 446.213793 1082.782531 
L 484.696552 1027.968662 
L 523.17931 1036.476734 
L 561.662069 805.350237 
L 600.144828 736.612044 
L 638.627586 678.276911 
L 677.110345 649.952885 
L 715.593103 652.868213 
L 754.075862 627.960412 
L 792.558621 609.672592 
L 831.041379 604.6901 
L 869.524138 605.096436 
L 908.006897 606.830182 
L 946.489655 600.671881 
L 984.972414 604.854428 
L 1023.455172 601.743133 
L 1061.937931 607.378093 
L 1100.42069 594.500781 
L 1138.903448 587.704566 
L 1177.386207 586.745319 
L 1215.868966 588.7751 
L 1254.351724 584.986202 
L 1292.834483 585.418779 
L 1331.317241 580.832417 
L 1369.8 589.298907 
" style="fill:none;stroke:#d1aa9f;stroke-dasharray:5.55,2.4;stroke-dashoffset:0;stroke-width:1.5;"/>
   </g>
   <g id="line2d_22">
    <path clip-path="url(#pb4452afc2b)" d="M 253.8 653.144362 
L 292.282759 1241.684742 
L 330.765517 768.863051 
L 369.248276 673.933239 
L 407.731034 656.838435 
L 446.213793 654.057536 
L 484.696552 655.443607 
L 523.17931 658.654582 
L 561.662069 658.077502 
L 600.144828 656.831578 
L 638.627586 656.988435 
L 677.110345 657.1559 
L 715.593103 656.40099 
L 754.075862 657.261459 
L 792.558621 657.223431 
L 831.041379 658.931276 
L 869.524138 654.798353 
L 908.006897 658.877032 
L 946.489655 658.291123 
L 984.972414 657.310535 
L 1023.455172 657.755422 
L 1061.937931 658.021981 
L 1100.42069 657.118327 
L 1138.903448 655.4034 
L 1177.386207 653.849354 
L 1215.868966 656.171066 
L 1254.351724 656.55545 
L 1292.834483 656.1753 
L 1331.317241 655.361086 
L 1369.8 656.348746 
" style="fill:none;stroke:#c54c36;stroke-linecap:square;stroke-width:4;"/>
    <defs>
     <path d="M 0 7.5 
C 1.989023 7.5 3.896849 6.709753 5.303301 5.303301 
C 6.709753 3.896849 7.5 1.989023 7.5 0 
C 7.5 -1.989023 6.709753 -3.896849 5.303301 -5.303301 
C 3.896849 -6.709753 1.989023 -7.5 0 -7.5 
C -1.989023 -7.5 -3.896849 -6.709753 -5.303301 -5.303301 
C -6.709753 -3.896849 -7.5 -1.989023 -7.5 0 
C -7.5 1.989023 -6.709753 3.896849 -5.303301 5.303301 
C -3.896849 6.709753 -1.989023 7.5 0 7.5 
z
" id="m9e39a06972" style="stroke:#c54c36;"/>
    </defs>
    <g clip-path="url(#pb4452afc2b)">
     <use style="fill:#c54c36;stroke:#c54c36;" x="253.8" xlink:href="#m9e39a06972" y="653.144362"/>
     <use style="fill:#c54c36;stroke:#c54c36;" x="292.282759" xlink:href="#m9e39a06972" y="1241.684742"/>
     <use style="fill:#c54c36;stroke:#c54c36;" x="330.765517" xlink:href="#m9e39a06972" y="768.863051"/>
     <use style="fill:#c54c36;stroke:#c54c36;" x="369.248276" xlink:href="#m9e39a06972" y="673.933239"/>
     <use style="fill:#c54c36;stroke:#c54c36;" x="407.731034" xlink:href="#m9e39a06972" y="656.838435"/>
     <use style="fill:#c54c36;stroke:#c54c36;" x="446.213793" xlink:href="#m9e39a06972" y="654.057536"/>
     <use style="fill:#c54c36;stroke:#c54c36;" x="484.696552" xlink:href="#m9e39a06972" y="655.443607"/>
     <use style="fill:#c54c36;stroke:#c54c36;" x="523.17931" xlink:href="#m9e39a06972" y="658.654582"/>
     <use style="fill:#c54c36;stroke:#c54c36;" x="561.662069" xlink:href="#m9e39a06972" y="658.077502"/>
     <use style="fill:#c54c36;stroke:#c54c36;" x="600.144828" xlink:href="#m9e39a06972" y="656.831578"/>
     <use style="fill:#c54c36;stroke:#c54c36;" x="638.627586" xlink:href="#m9e39a06972" y="656.988435"/>
     <use style="fill:#c54c36;stroke:#c54c36;" x="677.110345" xlink:href="#m9e39a06972" y="657.1559"/>
     <use style="fill:#c54c36;stroke:#c54c36;" x="715.593103" xlink:href="#m9e39a06972" y="656.40099"/>
     <use style="fill:#c54c36;stroke:#c54c36;" x="754.075862" xlink:href="#m9e39a06972" y="657.261459"/>
     <use style="fill:#c54c36;stroke:#c54c36;" x="792.558621" xlink:href="#m9e39a06972" y="657.223431"/>
     <use style="fill:#c54c36;stroke:#c54c36;" x="831.041379" xlink:href="#m9e39a06972" y="658.931276"/>
     <use style="fill:#c54c36;stroke:#c54c36;" x="869.524138" xlink:href="#m9e39a06972" y="654.798353"/>
     <use style="fill:#c54c36;stroke:#c54c36;" x="908.006897" xlink:href="#m9e39a06972" y="658.877032"/>
     <use style="fill:#c54c36;stroke:#c54c36;" x="946.489655" xlink:href="#m9e39a06972" y="658.291123"/>
     <use style="fill:#c54c36;stroke:#c54c36;" x="984.972414" xlink:href="#m9e39a06972" y="657.310535"/>
     <use style="fill:#c54c36;stroke:#c54c36;" x="1023.455172" xlink:href="#m9e39a06972" y="657.755422"/>
     <use style="fill:#c54c36;stroke:#c54c36;" x="1061.937931" xlink:href="#m9e39a06972" y="658.021981"/>
     <use style="fill:#c54c36;stroke:#c54c36;" x="1100.42069" xlink:href="#m9e39a06972" y="657.118327"/>
     <use style="fill:#c54c36;stroke:#c54c36;" x="1138.903448" xlink:href="#m9e39a06972" y="655.4034"/>
     <use style="fill:#c54c36;stroke:#c54c36;" x="1177.386207" xlink:href="#m9e39a06972" y="653.849354"/>
     <use style="fill:#c54c36;stroke:#c54c36;" x="1215.868966" xlink:href="#m9e39a06972" y="656.171066"/>
     <use style="fill:#c54c36;stroke:#c54c36;" x="1254.351724" xlink:href="#m9e39a06972" y="656.55545"/>
     <use style="fill:#c54c36;stroke:#c54c36;" x="1292.834483" xlink:href="#m9e39a06972" y="656.1753"/>
     <use style="fill:#c54c36;stroke:#c54c36;" x="1331.317241" xlink:href="#m9e39a06972" y="655.361086"/>
     <use style="fill:#c54c36;stroke:#c54c36;" x="1369.8" xlink:href="#m9e39a06972" y="656.348746"/>
    </g>
   </g>
   <g id="line2d_23">
    <path clip-path="url(#pb4452afc2b)" d="M 253.8 672.429703 
L 292.282759 1258.14839 
L 330.765517 810.738964 
L 369.248276 696.475335 
L 407.731034 673.42902 
L 446.213793 672.591131 
L 484.696552 672.46505 
L 523.17931 673.450193 
L 561.662069 671.965176 
L 600.144828 672.915792 
L 638.627586 674.442606 
L 677.110345 671.383444 
L 715.593103 673.383815 
L 754.075862 673.150609 
L 792.558621 673.784997 
L 831.041379 672.035081 
L 869.524138 671.709934 
L 908.006897 674.726909 
L 946.489655 673.476626 
L 984.972414 672.272315 
L 1023.455172 671.342604 
L 1061.937931 671.661732 
L 1100.42069 672.443037 
L 1138.903448 671.914364 
L 1177.386207 672.755103 
L 1215.868966 671.145066 
L 1254.351724 672.648758 
L 1292.834483 672.810801 
L 1331.317241 673.489839 
L 1369.8 672.301639 
" style="fill:none;stroke:#c54c36;stroke-dasharray:5.55,2.4;stroke-dashoffset:0;stroke-width:1.5;"/>
   </g>
   <g id="line2d_24">
    <path clip-path="url(#pb4452afc2b)" d="M 253.8 633.859021 
L 292.282759 1225.221094 
L 330.765517 726.987139 
L 369.248276 651.391143 
L 407.731034 640.24785 
L 446.213793 635.52394 
L 484.696552 638.422164 
L 523.17931 643.858971 
L 561.662069 644.189828 
L 600.144828 640.747365 
L 638.627586 639.534265 
L 677.110345 642.928357 
L 715.593103 639.418164 
L 754.075862 641.37231 
L 792.558621 640.661865 
L 831.041379 645.827471 
L 869.524138 637.886773 
L 908.006897 643.027156 
L 946.489655 643.10562 
L 984.972414 642.348754 
L 1023.455172 644.16824 
L 1061.937931 644.38223 
L 1100.42069 641.793618 
L 1138.903448 638.892436 
L 1177.386207 634.943606 
L 1215.868966 641.197065 
L 1254.351724 640.462141 
L 1292.834483 639.539799 
L 1331.317241 637.232332 
L 1369.8 640.395853 
" style="fill:none;stroke:#c54c36;stroke-dasharray:5.55,2.4;stroke-dashoffset:0;stroke-width:1.5;"/>
   </g>
   <g id="line2d_25">
    <path clip-path="url(#pb4452afc2b)" d="M 253.8 655.539481 
L 292.282759 655.919529 
L 330.765517 656.628953 
L 369.248276 656.460461 
L 407.731034 657.127394 
L 446.213793 657.5215 
L 484.696552 657.097394 
L 523.17931 657.844471 
L 561.662069 657.371864 
L 600.144828 656.881367 
L 638.627586 656.466068 
L 677.110345 656.787778 
L 715.593103 656.65996 
L 754.075862 657.835894 
L 792.558621 658.682056 
L 831.041379 659.541618 
L 869.524138 659.495249 
L 908.006897 658.8726 
L 946.489655 658.850567 
L 984.972414 659.001971 
L 1023.455172 659.151609 
L 1061.937931 659.793446 
L 1100.42069 659.605679 
L 1138.903448 659.470795 
L 1177.386207 659.184886 
L 1215.868966 659.799363 
L 1254.351724 659.22838 
L 1292.834483 658.843831 
L 1331.317241 658.19738 
L 1369.8 657.946519 
" style="fill:none;stroke:#000000;stroke-linecap:square;stroke-width:4;"/>
    <defs>
     <path d="M 0 7.5 
C 1.989023 7.5 3.896849 6.709753 5.303301 5.303301 
C 6.709753 3.896849 7.5 1.989023 7.5 0 
C 7.5 -1.989023 6.709753 -3.896849 5.303301 -5.303301 
C 3.896849 -6.709753 1.989023 -7.5 0 -7.5 
C -1.989023 -7.5 -3.896849 -6.709753 -5.303301 -5.303301 
C -6.709753 -3.896849 -7.5 -1.989023 -7.5 0 
C -7.5 1.989023 -6.709753 3.896849 -5.303301 5.303301 
C -3.896849 6.709753 -1.989023 7.5 0 7.5 
z
" id="mbbfafaf811" style="stroke:#000000;"/>
    </defs>
    <g clip-path="url(#pb4452afc2b)">
     <use style="stroke:#000000;" x="253.8" xlink:href="#mbbfafaf811" y="655.539481"/>
     <use style="stroke:#000000;" x="292.282759" xlink:href="#mbbfafaf811" y="655.919529"/>
     <use style="stroke:#000000;" x="330.765517" xlink:href="#mbbfafaf811" y="656.628953"/>
     <use style="stroke:#000000;" x="369.248276" xlink:href="#mbbfafaf811" y="656.460461"/>
     <use style="stroke:#000000;" x="407.731034" xlink:href="#mbbfafaf811" y="657.127394"/>
     <use style="stroke:#000000;" x="446.213793" xlink:href="#mbbfafaf811" y="657.5215"/>
     <use style="stroke:#000000;" x="484.696552" xlink:href="#mbbfafaf811" y="657.097394"/>
     <use style="stroke:#000000;" x="523.17931" xlink:href="#mbbfafaf811" y="657.844471"/>
     <use style="stroke:#000000;" x="561.662069" xlink:href="#mbbfafaf811" y="657.371864"/>
     <use style="stroke:#000000;" x="600.144828" xlink:href="#mbbfafaf811" y="656.881367"/>
     <use style="stroke:#000000;" x="638.627586" xlink:href="#mbbfafaf811" y="656.466068"/>
     <use style="stroke:#000000;" x="677.110345" xlink:href="#mbbfafaf811" y="656.787778"/>
     <use style="stroke:#000000;" x="715.593103" xlink:href="#mbbfafaf811" y="656.65996"/>
     <use style="stroke:#000000;" x="754.075862" xlink:href="#mbbfafaf811" y="657.835894"/>
     <use style="stroke:#000000;" x="792.558621" xlink:href="#mbbfafaf811" y="658.682056"/>
     <use style="stroke:#000000;" x="831.041379" xlink:href="#mbbfafaf811" y="659.541618"/>
     <use style="stroke:#000000;" x="869.524138" xlink:href="#mbbfafaf811" y="659.495249"/>
     <use style="stroke:#000000;" x="908.006897" xlink:href="#mbbfafaf811" y="658.8726"/>
     <use style="stroke:#000000;" x="946.489655" xlink:href="#mbbfafaf811" y="658.850567"/>
     <use style="stroke:#000000;" x="984.972414" xlink:href="#mbbfafaf811" y="659.001971"/>
     <use style="stroke:#000000;" x="1023.455172" xlink:href="#mbbfafaf811" y="659.151609"/>
     <use style="stroke:#000000;" x="1061.937931" xlink:href="#mbbfafaf811" y="659.793446"/>
     <use style="stroke:#000000;" x="1100.42069" xlink:href="#mbbfafaf811" y="659.605679"/>
     <use style="stroke:#000000;" x="1138.903448" xlink:href="#mbbfafaf811" y="659.470795"/>
     <use style="stroke:#000000;" x="1177.386207" xlink:href="#mbbfafaf811" y="659.184886"/>
     <use style="stroke:#000000;" x="1215.868966" xlink:href="#mbbfafaf811" y="659.799363"/>
     <use style="stroke:#000000;" x="1254.351724" xlink:href="#mbbfafaf811" y="659.22838"/>
     <use style="stroke:#000000;" x="1292.834483" xlink:href="#mbbfafaf811" y="658.843831"/>
     <use style="stroke:#000000;" x="1331.317241" xlink:href="#mbbfafaf811" y="658.19738"/>
     <use style="stroke:#000000;" x="1369.8" xlink:href="#mbbfafaf811" y="657.946519"/>
    </g>
   </g>
   <g id="line2d_26">
    <path clip-path="url(#pb4452afc2b)" d="M 253.8 673.1784 
L 292.282759 672.1185 
L 330.765517 671.589998 
L 369.248276 671.413258 
L 407.731034 671.246649 
L 446.213793 670.833838 
L 484.696552 671.196904 
L 523.17931 672.171181 
L 561.662069 672.229823 
L 600.144828 673.359402 
L 638.627586 673.683659 
L 677.110345 672.820385 
L 715.593103 673.329992 
L 754.075862 673.444958 
L 792.558621 673.716268 
L 831.041379 673.105326 
L 869.524138 672.329513 
L 908.006897 671.675125 
L 946.489655 672.139011 
L 984.972414 671.079565 
L 1023.455172 671.834538 
L 1061.937931 672.355032 
L 1100.42069 672.525517 
L 1138.903448 672.067161 
L 1177.386207 671.350094 
L 1215.868966 671.311637 
L 1254.351724 671.670395 
L 1292.834483 672.811551 
L 1331.317241 673.193437 
L 1369.8 673.860315 
" style="fill:none;stroke:#000000;stroke-dasharray:5.55,2.4;stroke-dashoffset:0;stroke-width:1.5;"/>
   </g>
   <g id="line2d_27">
    <path clip-path="url(#pb4452afc2b)" d="M 253.8 637.900561 
L 292.282759 639.720557 
L 330.765517 641.667909 
L 369.248276 641.507664 
L 407.731034 643.00814 
L 446.213793 644.209162 
L 484.696552 642.997884 
L 523.17931 643.517761 
L 561.662069 642.513906 
L 600.144828 640.403332 
L 638.627586 639.248478 
L 677.110345 640.755171 
L 715.593103 639.989929 
L 754.075862 642.226831 
L 792.558621 643.647844 
L 831.041379 645.97791 
L 869.524138 646.660986 
L 908.006897 646.070074 
L 946.489655 645.562123 
L 984.972414 646.924377 
L 1023.455172 646.46868 
L 1061.937931 647.23186 
L 1100.42069 646.685841 
L 1138.903448 646.874429 
L 1177.386207 647.019678 
L 1215.868966 648.287089 
L 1254.351724 646.786365 
L 1292.834483 644.87611 
L 1331.317241 643.201323 
L 1369.8 642.032723 
" style="fill:none;stroke:#000000;stroke-dasharray:5.55,2.4;stroke-dashoffset:0;stroke-width:1.5;"/>
   </g>
   <g id="patch_3">
    <path d="M 198 1732.5 
L 198 237.6 
" style="fill:none;stroke:#000000;stroke-linecap:square;stroke-linejoin:miter;stroke-width:0.8;"/>
   </g>
   <g id="patch_4">
    <path d="M 1425.6 1732.5 
L 1425.6 237.6 
" style="fill:none;stroke:#000000;stroke-linecap:square;stroke-linejoin:miter;stroke-width:0.8;"/>
   </g>
   <g id="patch_5">
    <path d="M 198 1732.5 
L 1425.6 1732.5 
" style="fill:none;stroke:#000000;stroke-linecap:square;stroke-linejoin:miter;stroke-width:0.8;"/>
   </g>
   <g id="patch_6">
    <path d="M 198 237.6 
L 1425.6 237.6 
" style="fill:none;stroke:#000000;stroke-linecap:square;stroke-linejoin:miter;stroke-width:0.8;"/>
   </g>
  </g>
 </g>
 <defs>
  <clipPath id="pb4452afc2b">
   <rect height="1494.9" width="1227.6" x="198" y="237.6"/>
  </clipPath>
 </defs>
</svg>
