<?xml version="1.0" encoding="utf-8" standalone="no"?>
<!DOCTYPE svg PUBLIC "-//W3C//DTD SVG 1.1//EN"
  "http://www.w3.org/Graphics/SVG/1.1/DTD/svg11.dtd">
<!-- Created with matplotlib (https://matplotlib.org/) -->
<svg height="1980pt" version="1.1" viewBox="0 0 1584 1980" width="1584pt" xmlns="http://www.w3.org/2000/svg" xmlns:xlink="http://www.w3.org/1999/xlink">
 <defs>
  <style type="text/css">
*{stroke-linecap:butt;stroke-linejoin:round;}
  </style>
 </defs>
 <g id="figure_1">
  <g id="patch_1">
   <path d="M 0 1980 
L 1584 1980 
L 1584 0 
L 0 0 
z
" style="fill:#ffffff;"/>
  </g>
  <g id="axes_1">
   <g id="patch_2">
    <path d="M 198 1732.5 
L 1425.6 1732.5 
L 1425.6 237.6 
L 198 237.6 
z
" style="fill:#ffffff;"/>
   </g>
   <g id="PolyCollection_1">
    <defs>
     <path d="M 253.8 -278.42946 
L 253.8 -240.574645 
L 292.282759 -1604.093845 
L 330.765517 -1565.434539 
L 369.248276 -1400.403894 
L 407.731034 -1066.46393 
L 446.213793 -883.850715 
L 484.696552 -789.369942 
L 523.17931 -748.321969 
L 561.662069 -344.858736 
L 600.144828 -302.457566 
L 638.627586 -269.05944 
L 677.110345 -242.463987 
L 715.593103 -255.335468 
L 754.075862 -236.819196 
L 792.558621 -240.331287 
L 831.041379 -234.925624 
L 869.524138 -242.014109 
L 908.006897 -242.860519 
L 946.489655 -243.488082 
L 984.972414 -244.460019 
L 1023.455172 -243.237996 
L 1061.937931 -241.823646 
L 1100.42069 -245.592328 
L 1138.903448 -244.221099 
L 1177.386207 -241.842345 
L 1215.868966 -234.524702 
L 1254.351724 -238.120942 
L 1292.834483 -239.679424 
L 1331.317241 -242.293736 
L 1369.8 -242.079425 
L 1369.8 -279.189621 
L 1369.8 -279.189621 
L 1331.317241 -275.604373 
L 1292.834483 -277.662466 
L 1254.351724 -284.85177 
L 1215.868966 -288.965312 
L 1177.386207 -281.572231 
L 1138.903448 -282.093295 
L 1100.42069 -279.561418 
L 1061.937931 -282.110503 
L 1023.455172 -281.799182 
L 984.972414 -276.411751 
L 946.489655 -281.336757 
L 908.006897 -291.086346 
L 869.524138 -289.572966 
L 831.041379 -310.539971 
L 792.558621 -304.457161 
L 754.075862 -344.932497 
L 715.593103 -407.431008 
L 677.110345 -363.02547 
L 638.627586 -441.586876 
L 600.144828 -518.770532 
L 561.662069 -671.60039 
L 523.17931 -996.276413 
L 484.696552 -1000.364625 
L 446.213793 -1101.677278 
L 407.731034 -1251.208309 
L 369.248276 -1471.922158 
L 330.765517 -1584.470874 
L 292.282759 -1605.172421 
L 253.8 -278.42946 
z
" id="mfc474ec595" style="stroke:#74c265;stroke-opacity:0.2;"/>
    </defs>
    <g clip-path="url(#pf36ce2eebc)">
     <use style="fill:#74c265;fill-opacity:0.2;stroke:#74c265;stroke-opacity:0.2;" x="0" xlink:href="#mfc474ec595" y="1980"/>
    </g>
   </g>
   <g id="PolyCollection_2">
    <defs>
     <path d="M 253.8 -296.686998 
L 253.8 -245.702774 
L 292.282759 -1602.301736 
L 330.765517 -1601.186898 
L 369.248276 -1566.428024 
L 407.731034 -1452.161881 
L 446.213793 -1224.014593 
L 484.696552 -1076.431872 
L 523.17931 -956.186673 
L 561.662069 -878.208695 
L 600.144828 -891.209049 
L 638.627586 -733.074448 
L 677.110345 -608.57393 
L 715.593103 -624.222538 
L 754.075862 -478.738109 
L 792.558621 -304.328853 
L 831.041379 -273.275033 
L 869.524138 -295.804219 
L 908.006897 -263.585852 
L 946.489655 -240.618256 
L 984.972414 -240.571049 
L 1023.455172 -240.080551 
L 1061.937931 -243.809468 
L 1100.42069 -242.078728 
L 1138.903448 -245.556226 
L 1177.386207 -244.228521 
L 1215.868966 -240.892303 
L 1254.351724 -244.037009 
L 1292.834483 -241.001784 
L 1331.317241 -237.286629 
L 1369.8 -244.69778 
L 1369.8 -276.584933 
L 1369.8 -276.584933 
L 1331.317241 -285.327391 
L 1292.834483 -276.373213 
L 1254.351724 -276.205893 
L 1215.868966 -280.516236 
L 1177.386207 -274.10936 
L 1138.903448 -271.955566 
L 1100.42069 -287.168842 
L 1061.937931 -279.728601 
L 1023.455172 -294.816538 
L 984.972414 -315.316399 
L 946.489655 -348.138329 
L 908.006897 -391.262603 
L 869.524138 -454.882497 
L 831.041379 -431.378398 
L 792.558621 -474.863847 
L 754.075862 -698.404189 
L 715.593103 -831.500884 
L 677.110345 -847.386221 
L 638.627586 -938.20763 
L 600.144828 -1077.169903 
L 561.662069 -1066.363648 
L 523.17931 -1144.83257 
L 484.696552 -1246.216375 
L 446.213793 -1335.499299 
L 407.731034 -1497.434686 
L 369.248276 -1581.846406 
L 330.765517 -1603.513387 
L 292.282759 -1603.760485 
L 253.8 -296.686998 
z
" id="me9bc3c31f5" style="stroke:#ff9933;stroke-opacity:0.2;"/>
    </defs>
    <g clip-path="url(#pf36ce2eebc)">
     <use style="fill:#ff9933;fill-opacity:0.2;stroke:#ff9933;stroke-opacity:0.2;" x="0" xlink:href="#me9bc3c31f5" y="1980"/>
    </g>
   </g>
   <g id="PolyCollection_3">
    <defs>
     <path d="M 253.8 -281.56509 
L 253.8 -241.423686 
L 292.282759 -1602.058924 
L 330.765517 -1587.799707 
L 369.248276 -1417.545541 
L 407.731034 -1238.822714 
L 446.213793 -1140.527227 
L 484.696552 -1065.530027 
L 523.17931 -1068.242223 
L 561.662069 -630.70644 
L 600.144828 -466.644203 
L 638.627586 -321.518033 
L 677.110345 -275.801591 
L 715.593103 -286.52444 
L 754.075862 -259.423122 
L 792.558621 -240.946444 
L 831.041379 -237.611448 
L 869.524138 -241.866334 
L 908.006897 -241.228562 
L 946.489655 -237.419939 
L 984.972414 -242.235664 
L 1023.455172 -242.559849 
L 1061.937931 -244.414082 
L 1100.42069 -238.499523 
L 1138.903448 -241.509847 
L 1177.386207 -235.235213 
L 1215.868966 -233.596964 
L 1254.351724 -241.400518 
L 1292.834483 -241.450948 
L 1331.317241 -240.898407 
L 1369.8 -241.883829 
L 1369.8 -279.915031 
L 1369.8 -279.915031 
L 1331.317241 -283.297573 
L 1292.834483 -282.821251 
L 1254.351724 -290.014339 
L 1215.868966 -294.470314 
L 1177.386207 -298.15939 
L 1138.903448 -290.345558 
L 1100.42069 -287.463968 
L 1061.937931 -281.931558 
L 1023.455172 -283.430934 
L 984.972414 -281.201893 
L 946.489655 -290.410638 
L 908.006897 -299.034887 
L 869.524138 -299.435403 
L 831.041379 -317.863672 
L 792.558621 -343.4546 
L 754.075862 -366.859129 
L 715.593103 -440.442664 
L 677.110345 -415.026982 
L 638.627586 -507.075081 
L 600.144828 -752.397949 
L 561.662069 -896.106466 
L 523.17931 -1245.664155 
L 484.696552 -1240.023238 
L 446.213793 -1293.461119 
L 407.731034 -1365.643804 
L 369.248276 -1467.632181 
L 330.765517 -1597.094807 
L 292.282759 -1604.19011 
L 253.8 -281.56509 
z
" id="m20822f6bae" style="stroke:#d1aa9f;stroke-opacity:0.2;"/>
    </defs>
    <g clip-path="url(#pf36ce2eebc)">
     <use style="fill:#d1aa9f;fill-opacity:0.2;stroke:#d1aa9f;stroke-opacity:0.2;" x="0" xlink:href="#m20822f6bae" y="1980"/>
    </g>
   </g>
   <g id="PolyCollection_4">
    <defs>
     <path d="M 253.8 -282.202241 
L 253.8 -242.530602 
L 292.282759 -1315.351304 
L 330.765517 -434.753273 
L 369.248276 -232.654536 
L 407.731034 -243.313436 
L 446.213793 -234.381357 
L 484.696552 -244.475386 
L 523.17931 -240.309331 
L 561.662069 -244.187908 
L 600.144828 -237.730044 
L 638.627586 -242.211153 
L 677.110345 -244.56383 
L 715.593103 -240.324429 
L 754.075862 -238.842676 
L 792.558621 -245.414111 
L 831.041379 -245.498776 
L 869.524138 -242.112875 
L 908.006897 -241.0862 
L 946.489655 -243.206704 
L 984.972414 -236.721703 
L 1023.455172 -244.786018 
L 1061.937931 -241.200468 
L 1100.42069 -244.455788 
L 1138.903448 -242.346097 
L 1177.386207 -237.314677 
L 1215.868966 -243.952922 
L 1254.351724 -242.606465 
L 1292.834483 -243.152146 
L 1331.317241 -240.80636 
L 1369.8 -241.440581 
L 1369.8 -277.013255 
L 1369.8 -277.013255 
L 1331.317241 -279.230846 
L 1292.834483 -275.402127 
L 1254.351724 -280.104058 
L 1215.868966 -275.970921 
L 1177.386207 -286.730207 
L 1138.903448 -276.337881 
L 1100.42069 -277.370075 
L 1061.937931 -279.657595 
L 1023.455172 -271.528151 
L 984.972414 -287.905085 
L 946.489655 -273.42464 
L 908.006897 -285.901098 
L 869.524138 -274.475678 
L 831.041379 -278.66178 
L 792.558621 -276.416884 
L 754.075862 -294.137413 
L 715.593103 -289.827002 
L 677.110345 -282.117631 
L 638.627586 -291.251798 
L 600.144828 -289.45716 
L 561.662069 -285.472088 
L 523.17931 -294.270479 
L 484.696552 -283.404391 
L 446.213793 -289.933384 
L 407.731034 -283.956418 
L 369.248276 -441.874448 
L 330.765517 -636.183509 
L 292.282759 -1345.177873 
L 253.8 -282.202241 
z
" id="mc7d0a5c9d2" style="stroke:#c54c36;stroke-opacity:0.2;"/>
    </defs>
    <g clip-path="url(#pf36ce2eebc)">
     <use style="fill:#c54c36;fill-opacity:0.2;stroke:#c54c36;stroke-opacity:0.2;" x="0" xlink:href="#mc7d0a5c9d2" y="1980"/>
    </g>
   </g>
   <g id="PolyCollection_5">
    <defs>
     <path d="M 253.8 -486.934979 
L 253.8 -173.812697 
L 292.282759 -206.707305 
L 330.765517 -235.905367 
L 369.248276 -242.287041 
L 407.731034 -240.715928 
L 446.213793 -241.173424 
L 484.696552 -244.069093 
L 523.17931 -243.268506 
L 561.662069 -242.482045 
L 600.144828 -242.868318 
L 638.627586 -245.747484 
L 677.110345 -245.93873 
L 715.593103 -246.716547 
L 754.075862 -245.37689 
L 792.558621 -246.105377 
L 831.041379 -244.548725 
L 869.524138 -245.549189 
L 908.006897 -244.845962 
L 946.489655 -245.514779 
L 984.972414 -244.30526 
L 1023.455172 -242.754085 
L 1061.937931 -240.605677 
L 1100.42069 -239.74876 
L 1138.903448 -239.371222 
L 1177.386207 -240.750663 
L 1215.868966 -241.771149 
L 1254.351724 -242.269182 
L 1292.834483 -243.916205 
L 1331.317241 -242.667262 
L 1369.8 -243.119784 
L 1369.8 -278.651833 
L 1369.8 -278.651833 
L 1331.317241 -284.131091 
L 1292.834483 -282.92045 
L 1254.351724 -286.291237 
L 1215.868966 -286.142002 
L 1177.386207 -284.807687 
L 1138.903448 -285.560388 
L 1100.42069 -284.080347 
L 1061.937931 -281.843101 
L 1023.455172 -278.00007 
L 984.972414 -280.466536 
L 946.489655 -276.105649 
L 908.006897 -272.401521 
L 869.524138 -277.435489 
L 831.041379 -278.440173 
L 792.558621 -273.123996 
L 754.075862 -274.4772 
L 715.593103 -274.706836 
L 677.110345 -279.334635 
L 638.627586 -280.661054 
L 600.144828 -288.852107 
L 561.662069 -286.636259 
L 523.17931 -287.768288 
L 484.696552 -288.389581 
L 446.213793 -295.016114 
L 407.731034 -292.97513 
L 369.248276 -293.69856 
L 330.765517 -320.257866 
L 292.282759 -397.471208 
L 253.8 -486.934979 
z
" id="md33e692a28" style="stroke:#000000;stroke-opacity:0.2;"/>
    </defs>
    <g clip-path="url(#pf36ce2eebc)">
     <use style="fill-opacity:0.2;stroke:#000000;stroke-opacity:0.2;" x="0" xlink:href="#md33e692a28" y="1980"/>
    </g>
   </g>
   <g id="matplotlib.axis_1">
    <g id="xtick_1">
     <g id="line2d_1">
      <defs>
       <path d="M 0 7 
L 0 -7 
" id="m07e53bfced" style="stroke:#000000;stroke-width:3.5;"/>
      </defs>
      <g>
       <use style="stroke:#000000;stroke-width:3.5;" x="253.8" xlink:href="#m07e53bfced" y="1732.5"/>
      </g>
     </g>
     <g id="text_1">
      <!-- 0 -->
      <defs>
       <path d="M 31.78125 3.421875 
Q 39.265625 3.421875 42.96875 11.625 
Q 46.6875 19.828125 46.6875 36.375 
Q 46.6875 52.984375 42.96875 61.1875 
Q 39.265625 69.390625 31.78125 69.390625 
Q 24.3125 69.390625 20.59375 61.1875 
Q 16.890625 52.984375 16.890625 36.375 
Q 16.890625 19.828125 20.59375 11.625 
Q 24.3125 3.421875 31.78125 3.421875 
z
M 31.78125 -1.421875 
Q 19.921875 -1.421875 13.25 8.53125 
Q 6.59375 18.5 6.59375 36.375 
Q 6.59375 54.296875 13.25 64.25 
Q 19.921875 74.21875 31.78125 74.21875 
Q 43.703125 74.21875 50.34375 64.25 
Q 56.984375 54.296875 56.984375 36.375 
Q 56.984375 18.5 50.34375 8.53125 
Q 43.703125 -1.421875 31.78125 -1.421875 
z
" id="DejaVuSerif-48"/>
      </defs>
      <g transform="translate(233.121875 1792.389844)scale(0.65 -0.65)">
       <use xlink:href="#DejaVuSerif-48"/>
      </g>
     </g>
    </g>
    <g id="xtick_2">
     <g id="line2d_2">
      <g>
       <use style="stroke:#000000;stroke-width:3.5;" x="638.627586" xlink:href="#m07e53bfced" y="1732.5"/>
      </g>
     </g>
     <g id="text_2">
      <!-- 10 -->
      <defs>
       <path d="M 14.203125 0 
L 14.203125 5.171875 
L 26.90625 5.171875 
L 26.90625 65.828125 
L 12.203125 56.296875 
L 12.203125 62.703125 
L 29.984375 74.21875 
L 36.71875 74.21875 
L 36.71875 5.171875 
L 49.421875 5.171875 
L 49.421875 0 
z
" id="DejaVuSerif-49"/>
      </defs>
      <g transform="translate(597.271336 1792.389844)scale(0.65 -0.65)">
       <use xlink:href="#DejaVuSerif-49"/>
       <use x="63.623047" xlink:href="#DejaVuSerif-48"/>
      </g>
     </g>
    </g>
    <g id="xtick_3">
     <g id="line2d_3">
      <g>
       <use style="stroke:#000000;stroke-width:3.5;" x="1023.455172" xlink:href="#m07e53bfced" y="1732.5"/>
      </g>
     </g>
     <g id="text_3">
      <!-- 20 -->
      <defs>
       <path d="M 12.796875 55.515625 
L 7.328125 55.515625 
L 7.328125 68.5 
Q 12.546875 71.296875 17.84375 72.75 
Q 23.140625 74.21875 28.21875 74.21875 
Q 39.59375 74.21875 46.1875 68.703125 
Q 52.78125 63.1875 52.78125 53.71875 
Q 52.78125 43.015625 37.84375 28.125 
Q 36.671875 27 36.078125 26.421875 
L 17.671875 8.015625 
L 48.09375 8.015625 
L 48.09375 17 
L 53.8125 17 
L 53.8125 0 
L 6.78125 0 
L 6.78125 5.328125 
L 28.90625 27.390625 
Q 36.234375 34.71875 39.359375 40.84375 
Q 42.484375 46.96875 42.484375 53.71875 
Q 42.484375 61.078125 38.640625 65.234375 
Q 34.8125 69.390625 28.078125 69.390625 
Q 21.09375 69.390625 17.28125 65.921875 
Q 13.484375 62.453125 12.796875 55.515625 
z
" id="DejaVuSerif-50"/>
      </defs>
      <g transform="translate(982.098922 1792.389844)scale(0.65 -0.65)">
       <use xlink:href="#DejaVuSerif-50"/>
       <use x="63.623047" xlink:href="#DejaVuSerif-48"/>
      </g>
     </g>
    </g>
    <g id="xtick_4">
     <g id="line2d_4">
      <g>
       <use style="stroke:#000000;stroke-width:3.5;" x="1408.282759" xlink:href="#m07e53bfced" y="1732.5"/>
      </g>
     </g>
     <g id="text_4">
      <!-- 30 -->
      <defs>
       <path d="M 9.71875 69.828125 
Q 15.4375 71.96875 20.671875 73.09375 
Q 25.921875 74.21875 30.515625 74.21875 
Q 41.21875 74.21875 47.21875 69.59375 
Q 53.21875 64.984375 53.21875 56.78125 
Q 53.21875 50.203125 49.0625 45.78125 
Q 44.921875 41.359375 37.3125 39.796875 
Q 46.296875 38.53125 51.25 33.28125 
Q 56.203125 28.03125 56.203125 19.671875 
Q 56.203125 9.46875 49.34375 4.015625 
Q 42.484375 -1.421875 29.59375 -1.421875 
Q 23.875 -1.421875 18.421875 -0.1875 
Q 12.984375 1.03125 7.625 3.515625 
L 7.625 17.671875 
L 13.09375 17.671875 
Q 13.578125 10.640625 17.828125 7.03125 
Q 22.078125 3.421875 29.78125 3.421875 
Q 37.25 3.421875 41.578125 7.734375 
Q 45.90625 12.0625 45.90625 19.578125 
Q 45.90625 28.171875 41.453125 32.59375 
Q 37.015625 37.015625 28.421875 37.015625 
L 23.78125 37.015625 
L 23.78125 42 
L 26.21875 42 
Q 34.765625 42 39.03125 45.53125 
Q 43.3125 49.078125 43.3125 56.203125 
Q 43.3125 62.59375 39.796875 65.984375 
Q 36.28125 69.390625 29.6875 69.390625 
Q 23.09375 69.390625 19.453125 66.265625 
Q 15.828125 63.140625 15.1875 56.984375 
L 9.71875 56.984375 
z
" id="DejaVuSerif-51"/>
      </defs>
      <g transform="translate(1366.926509 1792.389844)scale(0.65 -0.65)">
       <use xlink:href="#DejaVuSerif-51"/>
       <use x="63.623047" xlink:href="#DejaVuSerif-48"/>
      </g>
     </g>
    </g>
   </g>
   <g id="matplotlib.axis_2">
    <g id="ytick_1">
     <g id="line2d_5">
      <defs>
       <path d="M 7 0 
L -7 -0 
" id="m7394367156" style="stroke:#000000;stroke-width:3.5;"/>
      </defs>
      <g>
       <use style="stroke:#000000;stroke-width:3.5;" x="198" xlink:href="#m7394367156" y="1732.5"/>
      </g>
     </g>
     <g id="text_5">
      <!-- 0.0 -->
      <defs>
       <path d="M 9.421875 5.078125 
Q 9.421875 7.8125 11.28125 9.71875 
Q 13.140625 11.625 15.921875 11.625 
Q 18.609375 11.625 20.5 9.71875 
Q 22.40625 7.8125 22.40625 5.078125 
Q 22.40625 2.390625 20.5 0.484375 
Q 18.609375 -1.421875 15.921875 -1.421875 
Q 13.140625 -1.421875 11.28125 0.453125 
Q 9.421875 2.34375 9.421875 5.078125 
z
" id="DejaVuSerif-46"/>
      </defs>
      <g transform="translate(84.129688 1757.194922)scale(0.65 -0.65)">
       <use xlink:href="#DejaVuSerif-48"/>
       <use x="63.623047" xlink:href="#DejaVuSerif-46"/>
       <use x="95.410156" xlink:href="#DejaVuSerif-48"/>
      </g>
     </g>
    </g>
    <g id="ytick_2">
     <g id="line2d_6">
      <g>
       <use style="stroke:#000000;stroke-width:3.5;" x="198" xlink:href="#m7394367156" y="1460.7"/>
      </g>
     </g>
     <g id="text_6">
      <!-- 0.2 -->
      <g transform="translate(84.129688 1485.394922)scale(0.65 -0.65)">
       <use xlink:href="#DejaVuSerif-48"/>
       <use x="63.623047" xlink:href="#DejaVuSerif-46"/>
       <use x="95.410156" xlink:href="#DejaVuSerif-50"/>
      </g>
     </g>
    </g>
    <g id="ytick_3">
     <g id="line2d_7">
      <g>
       <use style="stroke:#000000;stroke-width:3.5;" x="198" xlink:href="#m7394367156" y="1188.9"/>
      </g>
     </g>
     <g id="text_7">
      <!-- 0.4 -->
      <defs>
       <path d="M 34.90625 24.703125 
L 34.90625 63.484375 
L 10.015625 24.703125 
z
M 56.390625 0 
L 23.1875 0 
L 23.1875 5.171875 
L 34.90625 5.171875 
L 34.90625 19.484375 
L 3.078125 19.484375 
L 3.078125 24.8125 
L 35.015625 74.21875 
L 44.671875 74.21875 
L 44.671875 24.703125 
L 58.59375 24.703125 
L 58.59375 19.484375 
L 44.671875 19.484375 
L 44.671875 5.171875 
L 56.390625 5.171875 
z
" id="DejaVuSerif-52"/>
      </defs>
      <g transform="translate(84.129688 1213.594922)scale(0.65 -0.65)">
       <use xlink:href="#DejaVuSerif-48"/>
       <use x="63.623047" xlink:href="#DejaVuSerif-46"/>
       <use x="95.410156" xlink:href="#DejaVuSerif-52"/>
      </g>
     </g>
    </g>
    <g id="ytick_4">
     <g id="line2d_8">
      <g>
       <use style="stroke:#000000;stroke-width:3.5;" x="198" xlink:href="#m7394367156" y="917.1"/>
      </g>
     </g>
     <g id="text_8">
      <!-- 0.6 -->
      <defs>
       <path d="M 32.71875 3.421875 
Q 39.59375 3.421875 43.296875 8.46875 
Q 47.015625 13.53125 47.015625 23 
Q 47.015625 32.46875 43.296875 37.515625 
Q 39.59375 42.578125 32.71875 42.578125 
Q 25.734375 42.578125 22.0625 37.6875 
Q 18.40625 32.8125 18.40625 23.578125 
Q 18.40625 13.875 22.109375 8.640625 
Q 25.828125 3.421875 32.71875 3.421875 
z
M 16.796875 40.140625 
Q 20.125 43.796875 24.3125 45.59375 
Q 28.515625 47.40625 33.796875 47.40625 
Q 44.671875 47.40625 51 40.859375 
Q 57.328125 34.328125 57.328125 23 
Q 57.328125 11.921875 50.515625 5.25 
Q 43.703125 -1.421875 32.328125 -1.421875 
Q 19.96875 -1.421875 13.328125 7.78125 
Q 6.6875 17 6.6875 34.078125 
Q 6.6875 53.21875 14.546875 63.71875 
Q 22.40625 74.21875 36.71875 74.21875 
Q 40.578125 74.21875 44.828125 73.484375 
Q 49.078125 72.75 53.515625 71.296875 
L 53.515625 59.28125 
L 48 59.28125 
Q 47.40625 64.203125 44.234375 66.796875 
Q 41.0625 69.390625 35.6875 69.390625 
Q 26.21875 69.390625 21.578125 62.203125 
Q 16.9375 55.03125 16.796875 40.140625 
z
" id="DejaVuSerif-54"/>
      </defs>
      <g transform="translate(84.129688 941.794922)scale(0.65 -0.65)">
       <use xlink:href="#DejaVuSerif-48"/>
       <use x="63.623047" xlink:href="#DejaVuSerif-46"/>
       <use x="95.410156" xlink:href="#DejaVuSerif-54"/>
      </g>
     </g>
    </g>
    <g id="ytick_5">
     <g id="line2d_9">
      <g>
       <use style="stroke:#000000;stroke-width:3.5;" x="198" xlink:href="#m7394367156" y="645.3"/>
      </g>
     </g>
     <g id="text_9">
      <!-- 0.8 -->
      <defs>
       <path d="M 46.578125 19.921875 
Q 46.578125 27.734375 42.6875 32.046875 
Q 38.8125 36.375 31.78125 36.375 
Q 24.75 36.375 20.875 32.046875 
Q 17 27.734375 17 19.921875 
Q 17 12.0625 20.875 7.734375 
Q 24.75 3.421875 31.78125 3.421875 
Q 38.8125 3.421875 42.6875 7.734375 
Q 46.578125 12.0625 46.578125 19.921875 
z
M 44.578125 55.328125 
Q 44.578125 61.96875 41.203125 65.671875 
Q 37.84375 69.390625 31.78125 69.390625 
Q 25.78125 69.390625 22.390625 65.671875 
Q 19 61.96875 19 55.328125 
Q 19 48.640625 22.390625 44.921875 
Q 25.78125 41.21875 31.78125 41.21875 
Q 37.84375 41.21875 41.203125 44.921875 
Q 44.578125 48.640625 44.578125 55.328125 
z
M 39.3125 38.8125 
Q 47.609375 37.703125 52.25 32.6875 
Q 56.890625 27.6875 56.890625 19.921875 
Q 56.890625 9.671875 50.390625 4.125 
Q 43.890625 -1.421875 31.78125 -1.421875 
Q 19.734375 -1.421875 13.203125 4.125 
Q 6.6875 9.671875 6.6875 19.921875 
Q 6.6875 27.6875 11.328125 32.6875 
Q 15.96875 37.703125 24.3125 38.8125 
Q 16.9375 40.140625 13 44.40625 
Q 9.078125 48.6875 9.078125 55.328125 
Q 9.078125 64.109375 15.125 69.15625 
Q 21.1875 74.21875 31.78125 74.21875 
Q 42.390625 74.21875 48.4375 69.15625 
Q 54.5 64.109375 54.5 55.328125 
Q 54.5 48.6875 50.5625 44.40625 
Q 46.625 40.140625 39.3125 38.8125 
z
" id="DejaVuSerif-56"/>
      </defs>
      <g transform="translate(84.129688 669.994922)scale(0.65 -0.65)">
       <use xlink:href="#DejaVuSerif-48"/>
       <use x="63.623047" xlink:href="#DejaVuSerif-46"/>
       <use x="95.410156" xlink:href="#DejaVuSerif-56"/>
      </g>
     </g>
    </g>
    <g id="ytick_6">
     <g id="line2d_10">
      <g>
       <use style="stroke:#000000;stroke-width:3.5;" x="198" xlink:href="#m7394367156" y="373.5"/>
      </g>
     </g>
     <g id="text_10">
      <!-- 1.0 -->
      <g transform="translate(84.129688 398.194922)scale(0.65 -0.65)">
       <use xlink:href="#DejaVuSerif-49"/>
       <use x="63.623047" xlink:href="#DejaVuSerif-46"/>
       <use x="95.410156" xlink:href="#DejaVuSerif-48"/>
      </g>
     </g>
    </g>
   </g>
   <g id="line2d_11">
    <path clip-path="url(#pf36ce2eebc)" d="M 253.8 1720.497948 
L 292.282759 375.366867 
L 330.765517 405.047294 
L 369.248276 543.836974 
L 407.731034 821.16388 
L 446.213793 987.236003 
L 484.696552 1085.132716 
L 523.17931 1107.700809 
L 561.662069 1471.770437 
L 600.144828 1569.385951 
L 638.627586 1624.676842 
L 677.110345 1677.255271 
L 715.593103 1648.616762 
L 754.075862 1689.124154 
L 792.558621 1707.605776 
L 831.041379 1707.267202 
L 869.524138 1714.206462 
L 908.006897 1713.026567 
L 946.489655 1717.587581 
L 984.972414 1719.564115 
L 1023.455172 1717.481411 
L 1061.937931 1718.032925 
L 1100.42069 1717.423127 
L 1138.903448 1716.842803 
L 1177.386207 1718.292712 
L 1215.868966 1718.254993 
L 1254.351724 1718.513644 
L 1292.834483 1721.329055 
L 1331.317241 1721.050945 
L 1369.8 1719.365477 
" style="fill:none;stroke:#74c265;stroke-linecap:square;stroke-width:4;"/>
    <defs>
     <path d="M 0 7.5 
C 1.989023 7.5 3.896849 6.709753 5.303301 5.303301 
C 6.709753 3.896849 7.5 1.989023 7.5 0 
C 7.5 -1.989023 6.709753 -3.896849 5.303301 -5.303301 
C 3.896849 -6.709753 1.989023 -7.5 0 -7.5 
C -1.989023 -7.5 -3.896849 -6.709753 -5.303301 -5.303301 
C -6.709753 -3.896849 -7.5 -1.989023 -7.5 0 
C -7.5 1.989023 -6.709753 3.896849 -5.303301 5.303301 
C -3.896849 6.709753 -1.989023 7.5 0 7.5 
z
" id="m415a13f7c8" style="stroke:#74c265;"/>
    </defs>
    <g clip-path="url(#pf36ce2eebc)">
     <use style="fill:#74c265;stroke:#74c265;" x="253.8" xlink:href="#m415a13f7c8" y="1720.497948"/>
     <use style="fill:#74c265;stroke:#74c265;" x="292.282759" xlink:href="#m415a13f7c8" y="375.366867"/>
     <use style="fill:#74c265;stroke:#74c265;" x="330.765517" xlink:href="#m415a13f7c8" y="405.047294"/>
     <use style="fill:#74c265;stroke:#74c265;" x="369.248276" xlink:href="#m415a13f7c8" y="543.836974"/>
     <use style="fill:#74c265;stroke:#74c265;" x="407.731034" xlink:href="#m415a13f7c8" y="821.16388"/>
     <use style="fill:#74c265;stroke:#74c265;" x="446.213793" xlink:href="#m415a13f7c8" y="987.236003"/>
     <use style="fill:#74c265;stroke:#74c265;" x="484.696552" xlink:href="#m415a13f7c8" y="1085.132716"/>
     <use style="fill:#74c265;stroke:#74c265;" x="523.17931" xlink:href="#m415a13f7c8" y="1107.700809"/>
     <use style="fill:#74c265;stroke:#74c265;" x="561.662069" xlink:href="#m415a13f7c8" y="1471.770437"/>
     <use style="fill:#74c265;stroke:#74c265;" x="600.144828" xlink:href="#m415a13f7c8" y="1569.385951"/>
     <use style="fill:#74c265;stroke:#74c265;" x="638.627586" xlink:href="#m415a13f7c8" y="1624.676842"/>
     <use style="fill:#74c265;stroke:#74c265;" x="677.110345" xlink:href="#m415a13f7c8" y="1677.255271"/>
     <use style="fill:#74c265;stroke:#74c265;" x="715.593103" xlink:href="#m415a13f7c8" y="1648.616762"/>
     <use style="fill:#74c265;stroke:#74c265;" x="754.075862" xlink:href="#m415a13f7c8" y="1689.124154"/>
     <use style="fill:#74c265;stroke:#74c265;" x="792.558621" xlink:href="#m415a13f7c8" y="1707.605776"/>
     <use style="fill:#74c265;stroke:#74c265;" x="831.041379" xlink:href="#m415a13f7c8" y="1707.267202"/>
     <use style="fill:#74c265;stroke:#74c265;" x="869.524138" xlink:href="#m415a13f7c8" y="1714.206462"/>
     <use style="fill:#74c265;stroke:#74c265;" x="908.006897" xlink:href="#m415a13f7c8" y="1713.026567"/>
     <use style="fill:#74c265;stroke:#74c265;" x="946.489655" xlink:href="#m415a13f7c8" y="1717.587581"/>
     <use style="fill:#74c265;stroke:#74c265;" x="984.972414" xlink:href="#m415a13f7c8" y="1719.564115"/>
     <use style="fill:#74c265;stroke:#74c265;" x="1023.455172" xlink:href="#m415a13f7c8" y="1717.481411"/>
     <use style="fill:#74c265;stroke:#74c265;" x="1061.937931" xlink:href="#m415a13f7c8" y="1718.032925"/>
     <use style="fill:#74c265;stroke:#74c265;" x="1100.42069" xlink:href="#m415a13f7c8" y="1717.423127"/>
     <use style="fill:#74c265;stroke:#74c265;" x="1138.903448" xlink:href="#m415a13f7c8" y="1716.842803"/>
     <use style="fill:#74c265;stroke:#74c265;" x="1177.386207" xlink:href="#m415a13f7c8" y="1718.292712"/>
     <use style="fill:#74c265;stroke:#74c265;" x="1215.868966" xlink:href="#m415a13f7c8" y="1718.254993"/>
     <use style="fill:#74c265;stroke:#74c265;" x="1254.351724" xlink:href="#m415a13f7c8" y="1718.513644"/>
     <use style="fill:#74c265;stroke:#74c265;" x="1292.834483" xlink:href="#m415a13f7c8" y="1721.329055"/>
     <use style="fill:#74c265;stroke:#74c265;" x="1331.317241" xlink:href="#m415a13f7c8" y="1721.050945"/>
     <use style="fill:#74c265;stroke:#74c265;" x="1369.8" xlink:href="#m415a13f7c8" y="1719.365477"/>
    </g>
   </g>
   <g id="line2d_12">
    <path clip-path="url(#pf36ce2eebc)" d="M 253.8 1739.425355 
L 292.282759 375.906155 
L 330.765517 414.565461 
L 369.248276 579.596106 
L 407.731034 913.53607 
L 446.213793 1096.149285 
L 484.696552 1190.630058 
L 523.17931 1231.678031 
L 561.662069 1635.141264 
L 600.144828 1677.542434 
L 638.627586 1710.94056 
L 677.110345 1737.536013 
L 715.593103 1724.664532 
L 754.075862 1743.180804 
L 792.558621 1739.668713 
L 831.041379 1745.074376 
L 869.524138 1737.985891 
L 908.006897 1737.139481 
L 946.489655 1736.511918 
L 984.972414 1735.539981 
L 1023.455172 1736.762004 
L 1061.937931 1738.176354 
L 1100.42069 1734.407672 
L 1138.903448 1735.778901 
L 1177.386207 1738.157655 
L 1215.868966 1745.475298 
L 1254.351724 1741.879058 
L 1292.834483 1740.320576 
L 1331.317241 1737.706264 
L 1369.8 1737.920575 
" style="fill:none;stroke:#74c265;stroke-dasharray:5.55,2.4;stroke-dashoffset:0;stroke-width:1.5;"/>
   </g>
   <g id="line2d_13">
    <path clip-path="url(#pf36ce2eebc)" d="M 253.8 1701.57054 
L 292.282759 374.827579 
L 330.765517 395.529126 
L 369.248276 508.077842 
L 407.731034 728.791691 
L 446.213793 878.322722 
L 484.696552 979.635375 
L 523.17931 983.723587 
L 561.662069 1308.39961 
L 600.144828 1461.229468 
L 638.627586 1538.413124 
L 677.110345 1616.97453 
L 715.593103 1572.568992 
L 754.075862 1635.067503 
L 792.558621 1675.542839 
L 831.041379 1669.460029 
L 869.524138 1690.427034 
L 908.006897 1688.913654 
L 946.489655 1698.663243 
L 984.972414 1703.588249 
L 1023.455172 1698.200818 
L 1061.937931 1697.889497 
L 1100.42069 1700.438582 
L 1138.903448 1697.906705 
L 1177.386207 1698.427769 
L 1215.868966 1691.034688 
L 1254.351724 1695.14823 
L 1292.834483 1702.337534 
L 1331.317241 1704.395627 
L 1369.8 1700.810379 
" style="fill:none;stroke:#74c265;stroke-dasharray:5.55,2.4;stroke-dashoffset:0;stroke-width:1.5;"/>
   </g>
   <g id="line2d_14">
    <path clip-path="url(#pf36ce2eebc)" d="M 253.8 1708.805114 
L 292.282759 376.96889 
L 330.765517 377.649858 
L 369.248276 405.862785 
L 407.731034 505.201717 
L 446.213793 700.243054 
L 484.696552 818.675876 
L 523.17931 929.490379 
L 561.662069 1007.713829 
L 600.144828 995.810524 
L 638.627586 1144.358961 
L 677.110345 1252.019924 
L 715.593103 1252.138289 
L 754.075862 1391.428851 
L 792.558621 1590.40365 
L 831.041379 1627.673285 
L 869.524138 1604.656642 
L 908.006897 1652.575773 
L 946.489655 1685.621708 
L 984.972414 1702.056276 
L 1023.455172 1712.551455 
L 1061.937931 1718.230966 
L 1100.42069 1715.376215 
L 1138.903448 1721.244104 
L 1177.386207 1720.83106 
L 1215.868966 1719.295731 
L 1254.351724 1719.878549 
L 1292.834483 1721.312501 
L 1331.317241 1718.69299 
L 1369.8 1719.358644 
" style="fill:none;stroke:#ff9933;stroke-linecap:square;stroke-width:4;"/>
    <defs>
     <path d="M 0 7.5 
C 1.989023 7.5 3.896849 6.709753 5.303301 5.303301 
C 6.709753 3.896849 7.5 1.989023 7.5 0 
C 7.5 -1.989023 6.709753 -3.896849 5.303301 -5.303301 
C 3.896849 -6.709753 1.989023 -7.5 0 -7.5 
C -1.989023 -7.5 -3.896849 -6.709753 -5.303301 -5.303301 
C -6.709753 -3.896849 -7.5 -1.989023 -7.5 0 
C -7.5 1.989023 -6.709753 3.896849 -5.303301 5.303301 
C -3.896849 6.709753 -1.989023 7.5 0 7.5 
z
" id="m535aff4ab2" style="stroke:#ff9933;"/>
    </defs>
    <g clip-path="url(#pf36ce2eebc)">
     <use style="fill:#ff9933;stroke:#ff9933;" x="253.8" xlink:href="#m535aff4ab2" y="1708.805114"/>
     <use style="fill:#ff9933;stroke:#ff9933;" x="292.282759" xlink:href="#m535aff4ab2" y="376.96889"/>
     <use style="fill:#ff9933;stroke:#ff9933;" x="330.765517" xlink:href="#m535aff4ab2" y="377.649858"/>
     <use style="fill:#ff9933;stroke:#ff9933;" x="369.248276" xlink:href="#m535aff4ab2" y="405.862785"/>
     <use style="fill:#ff9933;stroke:#ff9933;" x="407.731034" xlink:href="#m535aff4ab2" y="505.201717"/>
     <use style="fill:#ff9933;stroke:#ff9933;" x="446.213793" xlink:href="#m535aff4ab2" y="700.243054"/>
     <use style="fill:#ff9933;stroke:#ff9933;" x="484.696552" xlink:href="#m535aff4ab2" y="818.675876"/>
     <use style="fill:#ff9933;stroke:#ff9933;" x="523.17931" xlink:href="#m535aff4ab2" y="929.490379"/>
     <use style="fill:#ff9933;stroke:#ff9933;" x="561.662069" xlink:href="#m535aff4ab2" y="1007.713829"/>
     <use style="fill:#ff9933;stroke:#ff9933;" x="600.144828" xlink:href="#m535aff4ab2" y="995.810524"/>
     <use style="fill:#ff9933;stroke:#ff9933;" x="638.627586" xlink:href="#m535aff4ab2" y="1144.358961"/>
     <use style="fill:#ff9933;stroke:#ff9933;" x="677.110345" xlink:href="#m535aff4ab2" y="1252.019924"/>
     <use style="fill:#ff9933;stroke:#ff9933;" x="715.593103" xlink:href="#m535aff4ab2" y="1252.138289"/>
     <use style="fill:#ff9933;stroke:#ff9933;" x="754.075862" xlink:href="#m535aff4ab2" y="1391.428851"/>
     <use style="fill:#ff9933;stroke:#ff9933;" x="792.558621" xlink:href="#m535aff4ab2" y="1590.40365"/>
     <use style="fill:#ff9933;stroke:#ff9933;" x="831.041379" xlink:href="#m535aff4ab2" y="1627.673285"/>
     <use style="fill:#ff9933;stroke:#ff9933;" x="869.524138" xlink:href="#m535aff4ab2" y="1604.656642"/>
     <use style="fill:#ff9933;stroke:#ff9933;" x="908.006897" xlink:href="#m535aff4ab2" y="1652.575773"/>
     <use style="fill:#ff9933;stroke:#ff9933;" x="946.489655" xlink:href="#m535aff4ab2" y="1685.621708"/>
     <use style="fill:#ff9933;stroke:#ff9933;" x="984.972414" xlink:href="#m535aff4ab2" y="1702.056276"/>
     <use style="fill:#ff9933;stroke:#ff9933;" x="1023.455172" xlink:href="#m535aff4ab2" y="1712.551455"/>
     <use style="fill:#ff9933;stroke:#ff9933;" x="1061.937931" xlink:href="#m535aff4ab2" y="1718.230966"/>
     <use style="fill:#ff9933;stroke:#ff9933;" x="1100.42069" xlink:href="#m535aff4ab2" y="1715.376215"/>
     <use style="fill:#ff9933;stroke:#ff9933;" x="1138.903448" xlink:href="#m535aff4ab2" y="1721.244104"/>
     <use style="fill:#ff9933;stroke:#ff9933;" x="1177.386207" xlink:href="#m535aff4ab2" y="1720.83106"/>
     <use style="fill:#ff9933;stroke:#ff9933;" x="1215.868966" xlink:href="#m535aff4ab2" y="1719.295731"/>
     <use style="fill:#ff9933;stroke:#ff9933;" x="1254.351724" xlink:href="#m535aff4ab2" y="1719.878549"/>
     <use style="fill:#ff9933;stroke:#ff9933;" x="1292.834483" xlink:href="#m535aff4ab2" y="1721.312501"/>
     <use style="fill:#ff9933;stroke:#ff9933;" x="1331.317241" xlink:href="#m535aff4ab2" y="1718.69299"/>
     <use style="fill:#ff9933;stroke:#ff9933;" x="1369.8" xlink:href="#m535aff4ab2" y="1719.358644"/>
    </g>
   </g>
   <g id="line2d_15">
    <path clip-path="url(#pf36ce2eebc)" d="M 253.8 1734.297226 
L 292.282759 377.698264 
L 330.765517 378.813102 
L 369.248276 413.571976 
L 407.731034 527.838119 
L 446.213793 755.985407 
L 484.696552 903.568128 
L 523.17931 1023.813327 
L 561.662069 1101.791305 
L 600.144828 1088.790951 
L 638.627586 1246.925552 
L 677.110345 1371.42607 
L 715.593103 1355.777462 
L 754.075862 1501.261891 
L 792.558621 1675.671147 
L 831.041379 1706.724967 
L 869.524138 1684.195781 
L 908.006897 1716.414148 
L 946.489655 1739.381744 
L 984.972414 1739.428951 
L 1023.455172 1739.919449 
L 1061.937931 1736.190532 
L 1100.42069 1737.921272 
L 1138.903448 1734.443774 
L 1177.386207 1735.771479 
L 1215.868966 1739.107697 
L 1254.351724 1735.962991 
L 1292.834483 1738.998216 
L 1331.317241 1742.713371 
L 1369.8 1735.30222 
" style="fill:none;stroke:#ff9933;stroke-dasharray:5.55,2.4;stroke-dashoffset:0;stroke-width:1.5;"/>
   </g>
   <g id="line2d_16">
    <path clip-path="url(#pf36ce2eebc)" d="M 253.8 1683.313002 
L 292.282759 376.239515 
L 330.765517 376.486613 
L 369.248276 398.153594 
L 407.731034 482.565314 
L 446.213793 644.500701 
L 484.696552 733.783625 
L 523.17931 835.16743 
L 561.662069 913.636352 
L 600.144828 902.830097 
L 638.627586 1041.79237 
L 677.110345 1132.613779 
L 715.593103 1148.499116 
L 754.075862 1281.595811 
L 792.558621 1505.136153 
L 831.041379 1548.621602 
L 869.524138 1525.117503 
L 908.006897 1588.737397 
L 946.489655 1631.861671 
L 984.972414 1664.683601 
L 1023.455172 1685.183462 
L 1061.937931 1700.271399 
L 1100.42069 1692.831158 
L 1138.903448 1708.044434 
L 1177.386207 1705.89064 
L 1215.868966 1699.483764 
L 1254.351724 1703.794107 
L 1292.834483 1703.626787 
L 1331.317241 1694.672609 
L 1369.8 1703.415067 
" style="fill:none;stroke:#ff9933;stroke-dasharray:5.55,2.4;stroke-dashoffset:0;stroke-width:1.5;"/>
   </g>
   <g id="line2d_17">
    <path clip-path="url(#pf36ce2eebc)" d="M 253.8 1718.505612 
L 292.282759 376.875483 
L 330.765517 387.552743 
L 369.248276 537.411139 
L 407.731034 677.766741 
L 446.213793 763.005827 
L 484.696552 827.223368 
L 523.17931 823.046811 
L 561.662069 1216.593547 
L 600.144828 1370.478924 
L 638.627586 1565.703443 
L 677.110345 1634.585714 
L 715.593103 1616.516448 
L 754.075862 1666.858874 
L 792.558621 1687.799478 
L 831.041379 1702.26244 
L 869.524138 1709.349132 
L 908.006897 1709.868276 
L 946.489655 1716.084711 
L 984.972414 1718.281221 
L 1023.455172 1717.004609 
L 1061.937931 1716.82718 
L 1100.42069 1717.018255 
L 1138.903448 1714.072297 
L 1177.386207 1713.302698 
L 1215.868966 1715.966361 
L 1254.351724 1714.292572 
L 1292.834483 1717.863901 
L 1331.317241 1717.90201 
L 1369.8 1719.10057 
" style="fill:none;stroke:#d1aa9f;stroke-linecap:square;stroke-width:4;"/>
    <defs>
     <path d="M 0 7.5 
C 1.989023 7.5 3.896849 6.709753 5.303301 5.303301 
C 6.709753 3.896849 7.5 1.989023 7.5 0 
C 7.5 -1.989023 6.709753 -3.896849 5.303301 -5.303301 
C 3.896849 -6.709753 1.989023 -7.5 0 -7.5 
C -1.989023 -7.5 -3.896849 -6.709753 -5.303301 -5.303301 
C -6.709753 -3.896849 -7.5 -1.989023 -7.5 0 
C -7.5 1.989023 -6.709753 3.896849 -5.303301 5.303301 
C -3.896849 6.709753 -1.989023 7.5 0 7.5 
z
" id="mb5ca6e881a" style="stroke:#d1aa9f;"/>
    </defs>
    <g clip-path="url(#pf36ce2eebc)">
     <use style="fill:#d1aa9f;stroke:#d1aa9f;" x="253.8" xlink:href="#mb5ca6e881a" y="1718.505612"/>
     <use style="fill:#d1aa9f;stroke:#d1aa9f;" x="292.282759" xlink:href="#mb5ca6e881a" y="376.875483"/>
     <use style="fill:#d1aa9f;stroke:#d1aa9f;" x="330.765517" xlink:href="#mb5ca6e881a" y="387.552743"/>
     <use style="fill:#d1aa9f;stroke:#d1aa9f;" x="369.248276" xlink:href="#mb5ca6e881a" y="537.411139"/>
     <use style="fill:#d1aa9f;stroke:#d1aa9f;" x="407.731034" xlink:href="#mb5ca6e881a" y="677.766741"/>
     <use style="fill:#d1aa9f;stroke:#d1aa9f;" x="446.213793" xlink:href="#mb5ca6e881a" y="763.005827"/>
     <use style="fill:#d1aa9f;stroke:#d1aa9f;" x="484.696552" xlink:href="#mb5ca6e881a" y="827.223368"/>
     <use style="fill:#d1aa9f;stroke:#d1aa9f;" x="523.17931" xlink:href="#mb5ca6e881a" y="823.046811"/>
     <use style="fill:#d1aa9f;stroke:#d1aa9f;" x="561.662069" xlink:href="#mb5ca6e881a" y="1216.593547"/>
     <use style="fill:#d1aa9f;stroke:#d1aa9f;" x="600.144828" xlink:href="#mb5ca6e881a" y="1370.478924"/>
     <use style="fill:#d1aa9f;stroke:#d1aa9f;" x="638.627586" xlink:href="#mb5ca6e881a" y="1565.703443"/>
     <use style="fill:#d1aa9f;stroke:#d1aa9f;" x="677.110345" xlink:href="#mb5ca6e881a" y="1634.585714"/>
     <use style="fill:#d1aa9f;stroke:#d1aa9f;" x="715.593103" xlink:href="#mb5ca6e881a" y="1616.516448"/>
     <use style="fill:#d1aa9f;stroke:#d1aa9f;" x="754.075862" xlink:href="#mb5ca6e881a" y="1666.858874"/>
     <use style="fill:#d1aa9f;stroke:#d1aa9f;" x="792.558621" xlink:href="#mb5ca6e881a" y="1687.799478"/>
     <use style="fill:#d1aa9f;stroke:#d1aa9f;" x="831.041379" xlink:href="#mb5ca6e881a" y="1702.26244"/>
     <use style="fill:#d1aa9f;stroke:#d1aa9f;" x="869.524138" xlink:href="#mb5ca6e881a" y="1709.349132"/>
     <use style="fill:#d1aa9f;stroke:#d1aa9f;" x="908.006897" xlink:href="#mb5ca6e881a" y="1709.868276"/>
     <use style="fill:#d1aa9f;stroke:#d1aa9f;" x="946.489655" xlink:href="#mb5ca6e881a" y="1716.084711"/>
     <use style="fill:#d1aa9f;stroke:#d1aa9f;" x="984.972414" xlink:href="#mb5ca6e881a" y="1718.281221"/>
     <use style="fill:#d1aa9f;stroke:#d1aa9f;" x="1023.455172" xlink:href="#mb5ca6e881a" y="1717.004609"/>
     <use style="fill:#d1aa9f;stroke:#d1aa9f;" x="1061.937931" xlink:href="#mb5ca6e881a" y="1716.82718"/>
     <use style="fill:#d1aa9f;stroke:#d1aa9f;" x="1100.42069" xlink:href="#mb5ca6e881a" y="1717.018255"/>
     <use style="fill:#d1aa9f;stroke:#d1aa9f;" x="1138.903448" xlink:href="#mb5ca6e881a" y="1714.072297"/>
     <use style="fill:#d1aa9f;stroke:#d1aa9f;" x="1177.386207" xlink:href="#mb5ca6e881a" y="1713.302698"/>
     <use style="fill:#d1aa9f;stroke:#d1aa9f;" x="1215.868966" xlink:href="#mb5ca6e881a" y="1715.966361"/>
     <use style="fill:#d1aa9f;stroke:#d1aa9f;" x="1254.351724" xlink:href="#mb5ca6e881a" y="1714.292572"/>
     <use style="fill:#d1aa9f;stroke:#d1aa9f;" x="1292.834483" xlink:href="#mb5ca6e881a" y="1717.863901"/>
     <use style="fill:#d1aa9f;stroke:#d1aa9f;" x="1331.317241" xlink:href="#mb5ca6e881a" y="1717.90201"/>
     <use style="fill:#d1aa9f;stroke:#d1aa9f;" x="1369.8" xlink:href="#mb5ca6e881a" y="1719.10057"/>
    </g>
   </g>
   <g id="line2d_18">
    <path clip-path="url(#pf36ce2eebc)" d="M 253.8 1738.576314 
L 292.282759 377.941076 
L 330.765517 392.200293 
L 369.248276 562.454459 
L 407.731034 741.177286 
L 446.213793 839.472773 
L 484.696552 914.469973 
L 523.17931 911.757777 
L 561.662069 1349.29356 
L 600.144828 1513.355797 
L 638.627586 1658.481967 
L 677.110345 1704.198409 
L 715.593103 1693.47556 
L 754.075862 1720.576878 
L 792.558621 1739.053556 
L 831.041379 1742.388552 
L 869.524138 1738.133666 
L 908.006897 1738.771438 
L 946.489655 1742.580061 
L 984.972414 1737.764336 
L 1023.455172 1737.440151 
L 1061.937931 1735.585918 
L 1100.42069 1741.500477 
L 1138.903448 1738.490153 
L 1177.386207 1744.764787 
L 1215.868966 1746.403036 
L 1254.351724 1738.599482 
L 1292.834483 1738.549052 
L 1331.317241 1739.101593 
L 1369.8 1738.116171 
" style="fill:none;stroke:#d1aa9f;stroke-dasharray:5.55,2.4;stroke-dashoffset:0;stroke-width:1.5;"/>
   </g>
   <g id="line2d_19">
    <path clip-path="url(#pf36ce2eebc)" d="M 253.8 1698.43491 
L 292.282759 375.80989 
L 330.765517 382.905193 
L 369.248276 512.367819 
L 407.731034 614.356196 
L 446.213793 686.538881 
L 484.696552 739.976762 
L 523.17931 734.335845 
L 561.662069 1083.893534 
L 600.144828 1227.602051 
L 638.627586 1472.924919 
L 677.110345 1564.973018 
L 715.593103 1539.557336 
L 754.075862 1613.140871 
L 792.558621 1636.5454 
L 831.041379 1662.136328 
L 869.524138 1680.564597 
L 908.006897 1680.965113 
L 946.489655 1689.589362 
L 984.972414 1698.798107 
L 1023.455172 1696.569066 
L 1061.937931 1698.068442 
L 1100.42069 1692.536032 
L 1138.903448 1689.654442 
L 1177.386207 1681.84061 
L 1215.868966 1685.529686 
L 1254.351724 1689.985661 
L 1292.834483 1697.178749 
L 1331.317241 1696.702427 
L 1369.8 1700.084969 
" style="fill:none;stroke:#d1aa9f;stroke-dasharray:5.55,2.4;stroke-dashoffset:0;stroke-width:1.5;"/>
   </g>
   <g id="line2d_20">
    <path clip-path="url(#pf36ce2eebc)" d="M 253.8 1717.633578 
L 292.282759 649.735411 
L 330.765517 1444.531609 
L 369.248276 1642.735508 
L 407.731034 1716.365073 
L 446.213793 1717.842629 
L 484.696552 1716.060112 
L 523.17931 1712.710095 
L 561.662069 1715.170002 
L 600.144828 1716.406398 
L 638.627586 1713.268525 
L 677.110345 1716.659269 
L 715.593103 1714.924284 
L 754.075862 1713.509956 
L 792.558621 1719.084503 
L 831.041379 1717.919722 
L 869.524138 1721.705724 
L 908.006897 1716.506351 
L 946.489655 1721.684328 
L 984.972414 1717.686606 
L 1023.455172 1721.842916 
L 1061.937931 1719.570969 
L 1100.42069 1719.087069 
L 1138.903448 1720.658011 
L 1177.386207 1717.977558 
L 1215.868966 1720.038078 
L 1254.351724 1718.644739 
L 1292.834483 1720.722864 
L 1331.317241 1719.981397 
L 1369.8 1720.773082 
" style="fill:none;stroke:#c54c36;stroke-linecap:square;stroke-width:4;"/>
    <defs>
     <path d="M 0 7.5 
C 1.989023 7.5 3.896849 6.709753 5.303301 5.303301 
C 6.709753 3.896849 7.5 1.989023 7.5 0 
C 7.5 -1.989023 6.709753 -3.896849 5.303301 -5.303301 
C 3.896849 -6.709753 1.989023 -7.5 0 -7.5 
C -1.989023 -7.5 -3.896849 -6.709753 -5.303301 -5.303301 
C -6.709753 -3.896849 -7.5 -1.989023 -7.5 0 
C -7.5 1.989023 -6.709753 3.896849 -5.303301 5.303301 
C -3.896849 6.709753 -1.989023 7.5 0 7.5 
z
" id="mb2cd0e97cd" style="stroke:#c54c36;"/>
    </defs>
    <g clip-path="url(#pf36ce2eebc)">
     <use style="fill:#c54c36;stroke:#c54c36;" x="253.8" xlink:href="#mb2cd0e97cd" y="1717.633578"/>
     <use style="fill:#c54c36;stroke:#c54c36;" x="292.282759" xlink:href="#mb2cd0e97cd" y="649.735411"/>
     <use style="fill:#c54c36;stroke:#c54c36;" x="330.765517" xlink:href="#mb2cd0e97cd" y="1444.531609"/>
     <use style="fill:#c54c36;stroke:#c54c36;" x="369.248276" xlink:href="#mb2cd0e97cd" y="1642.735508"/>
     <use style="fill:#c54c36;stroke:#c54c36;" x="407.731034" xlink:href="#mb2cd0e97cd" y="1716.365073"/>
     <use style="fill:#c54c36;stroke:#c54c36;" x="446.213793" xlink:href="#mb2cd0e97cd" y="1717.842629"/>
     <use style="fill:#c54c36;stroke:#c54c36;" x="484.696552" xlink:href="#mb2cd0e97cd" y="1716.060112"/>
     <use style="fill:#c54c36;stroke:#c54c36;" x="523.17931" xlink:href="#mb2cd0e97cd" y="1712.710095"/>
     <use style="fill:#c54c36;stroke:#c54c36;" x="561.662069" xlink:href="#mb2cd0e97cd" y="1715.170002"/>
     <use style="fill:#c54c36;stroke:#c54c36;" x="600.144828" xlink:href="#mb2cd0e97cd" y="1716.406398"/>
     <use style="fill:#c54c36;stroke:#c54c36;" x="638.627586" xlink:href="#mb2cd0e97cd" y="1713.268525"/>
     <use style="fill:#c54c36;stroke:#c54c36;" x="677.110345" xlink:href="#mb2cd0e97cd" y="1716.659269"/>
     <use style="fill:#c54c36;stroke:#c54c36;" x="715.593103" xlink:href="#mb2cd0e97cd" y="1714.924284"/>
     <use style="fill:#c54c36;stroke:#c54c36;" x="754.075862" xlink:href="#mb2cd0e97cd" y="1713.509956"/>
     <use style="fill:#c54c36;stroke:#c54c36;" x="792.558621" xlink:href="#mb2cd0e97cd" y="1719.084503"/>
     <use style="fill:#c54c36;stroke:#c54c36;" x="831.041379" xlink:href="#mb2cd0e97cd" y="1717.919722"/>
     <use style="fill:#c54c36;stroke:#c54c36;" x="869.524138" xlink:href="#mb2cd0e97cd" y="1721.705724"/>
     <use style="fill:#c54c36;stroke:#c54c36;" x="908.006897" xlink:href="#mb2cd0e97cd" y="1716.506351"/>
     <use style="fill:#c54c36;stroke:#c54c36;" x="946.489655" xlink:href="#mb2cd0e97cd" y="1721.684328"/>
     <use style="fill:#c54c36;stroke:#c54c36;" x="984.972414" xlink:href="#mb2cd0e97cd" y="1717.686606"/>
     <use style="fill:#c54c36;stroke:#c54c36;" x="1023.455172" xlink:href="#mb2cd0e97cd" y="1721.842916"/>
     <use style="fill:#c54c36;stroke:#c54c36;" x="1061.937931" xlink:href="#mb2cd0e97cd" y="1719.570969"/>
     <use style="fill:#c54c36;stroke:#c54c36;" x="1100.42069" xlink:href="#mb2cd0e97cd" y="1719.087069"/>
     <use style="fill:#c54c36;stroke:#c54c36;" x="1138.903448" xlink:href="#mb2cd0e97cd" y="1720.658011"/>
     <use style="fill:#c54c36;stroke:#c54c36;" x="1177.386207" xlink:href="#mb2cd0e97cd" y="1717.977558"/>
     <use style="fill:#c54c36;stroke:#c54c36;" x="1215.868966" xlink:href="#mb2cd0e97cd" y="1720.038078"/>
     <use style="fill:#c54c36;stroke:#c54c36;" x="1254.351724" xlink:href="#mb2cd0e97cd" y="1718.644739"/>
     <use style="fill:#c54c36;stroke:#c54c36;" x="1292.834483" xlink:href="#mb2cd0e97cd" y="1720.722864"/>
     <use style="fill:#c54c36;stroke:#c54c36;" x="1331.317241" xlink:href="#mb2cd0e97cd" y="1719.981397"/>
     <use style="fill:#c54c36;stroke:#c54c36;" x="1369.8" xlink:href="#mb2cd0e97cd" y="1720.773082"/>
    </g>
   </g>
   <g id="line2d_21">
    <path clip-path="url(#pf36ce2eebc)" d="M 253.8 1737.469398 
L 292.282759 664.648696 
L 330.765517 1545.246727 
L 369.248276 1747.345464 
L 407.731034 1736.686564 
L 446.213793 1745.618643 
L 484.696552 1735.524614 
L 523.17931 1739.690669 
L 561.662069 1735.812092 
L 600.144828 1742.269956 
L 638.627586 1737.788847 
L 677.110345 1735.43617 
L 715.593103 1739.675571 
L 754.075862 1741.157324 
L 792.558621 1734.585889 
L 831.041379 1734.501224 
L 869.524138 1737.887125 
L 908.006897 1738.9138 
L 946.489655 1736.793296 
L 984.972414 1743.278297 
L 1023.455172 1735.213982 
L 1061.937931 1738.799532 
L 1100.42069 1735.544212 
L 1138.903448 1737.653903 
L 1177.386207 1742.685323 
L 1215.868966 1736.047078 
L 1254.351724 1737.393535 
L 1292.834483 1736.847854 
L 1331.317241 1739.19364 
L 1369.8 1738.559419 
" style="fill:none;stroke:#c54c36;stroke-dasharray:5.55,2.4;stroke-dashoffset:0;stroke-width:1.5;"/>
   </g>
   <g id="line2d_22">
    <path clip-path="url(#pf36ce2eebc)" d="M 253.8 1697.797759 
L 292.282759 634.822127 
L 330.765517 1343.816491 
L 369.248276 1538.125552 
L 407.731034 1696.043582 
L 446.213793 1690.066616 
L 484.696552 1696.595609 
L 523.17931 1685.729521 
L 561.662069 1694.527912 
L 600.144828 1690.54284 
L 638.627586 1688.748202 
L 677.110345 1697.882369 
L 715.593103 1690.172998 
L 754.075862 1685.862587 
L 792.558621 1703.583116 
L 831.041379 1701.33822 
L 869.524138 1705.524322 
L 908.006897 1694.098902 
L 946.489655 1706.57536 
L 984.972414 1692.094915 
L 1023.455172 1708.471849 
L 1061.937931 1700.342405 
L 1100.42069 1702.629925 
L 1138.903448 1703.662119 
L 1177.386207 1693.269793 
L 1215.868966 1704.029079 
L 1254.351724 1699.895942 
L 1292.834483 1704.597873 
L 1331.317241 1700.769154 
L 1369.8 1702.986745 
" style="fill:none;stroke:#c54c36;stroke-dasharray:5.55,2.4;stroke-dashoffset:0;stroke-width:1.5;"/>
   </g>
   <g id="line2d_23">
    <path clip-path="url(#pf36ce2eebc)" d="M 253.8 1649.626162 
L 292.282759 1677.910743 
L 330.765517 1701.918383 
L 369.248276 1712.007199 
L 407.731034 1713.154471 
L 446.213793 1711.905231 
L 484.696552 1713.770663 
L 523.17931 1714.481603 
L 561.662069 1715.440848 
L 600.144828 1714.139788 
L 638.627586 1716.795731 
L 677.110345 1717.363317 
L 715.593103 1719.288309 
L 754.075862 1720.072955 
L 792.558621 1720.385313 
L 831.041379 1718.505551 
L 869.524138 1718.507661 
L 908.006897 1721.376259 
L 946.489655 1719.189786 
L 984.972414 1717.614102 
L 1023.455172 1719.622922 
L 1061.937931 1718.775611 
L 1100.42069 1718.085447 
L 1138.903448 1717.534195 
L 1177.386207 1717.220825 
L 1215.868966 1716.043425 
L 1254.351724 1715.719791 
L 1292.834483 1716.581673 
L 1331.317241 1716.600823 
L 1369.8 1719.114191 
" style="fill:none;stroke:#000000;stroke-linecap:square;stroke-width:4;"/>
    <defs>
     <path d="M 0 7.5 
C 1.989023 7.5 3.896849 6.709753 5.303301 5.303301 
C 6.709753 3.896849 7.5 1.989023 7.5 0 
C 7.5 -1.989023 6.709753 -3.896849 5.303301 -5.303301 
C 3.896849 -6.709753 1.989023 -7.5 0 -7.5 
C -1.989023 -7.5 -3.896849 -6.709753 -5.303301 -5.303301 
C -6.709753 -3.896849 -7.5 -1.989023 -7.5 0 
C -7.5 1.989023 -6.709753 3.896849 -5.303301 5.303301 
C -3.896849 6.709753 -1.989023 7.5 0 7.5 
z
" id="m59d20a7d35" style="stroke:#000000;"/>
    </defs>
    <g clip-path="url(#pf36ce2eebc)">
     <use style="stroke:#000000;" x="253.8" xlink:href="#m59d20a7d35" y="1649.626162"/>
     <use style="stroke:#000000;" x="292.282759" xlink:href="#m59d20a7d35" y="1677.910743"/>
     <use style="stroke:#000000;" x="330.765517" xlink:href="#m59d20a7d35" y="1701.918383"/>
     <use style="stroke:#000000;" x="369.248276" xlink:href="#m59d20a7d35" y="1712.007199"/>
     <use style="stroke:#000000;" x="407.731034" xlink:href="#m59d20a7d35" y="1713.154471"/>
     <use style="stroke:#000000;" x="446.213793" xlink:href="#m59d20a7d35" y="1711.905231"/>
     <use style="stroke:#000000;" x="484.696552" xlink:href="#m59d20a7d35" y="1713.770663"/>
     <use style="stroke:#000000;" x="523.17931" xlink:href="#m59d20a7d35" y="1714.481603"/>
     <use style="stroke:#000000;" x="561.662069" xlink:href="#m59d20a7d35" y="1715.440848"/>
     <use style="stroke:#000000;" x="600.144828" xlink:href="#m59d20a7d35" y="1714.139788"/>
     <use style="stroke:#000000;" x="638.627586" xlink:href="#m59d20a7d35" y="1716.795731"/>
     <use style="stroke:#000000;" x="677.110345" xlink:href="#m59d20a7d35" y="1717.363317"/>
     <use style="stroke:#000000;" x="715.593103" xlink:href="#m59d20a7d35" y="1719.288309"/>
     <use style="stroke:#000000;" x="754.075862" xlink:href="#m59d20a7d35" y="1720.072955"/>
     <use style="stroke:#000000;" x="792.558621" xlink:href="#m59d20a7d35" y="1720.385313"/>
     <use style="stroke:#000000;" x="831.041379" xlink:href="#m59d20a7d35" y="1718.505551"/>
     <use style="stroke:#000000;" x="869.524138" xlink:href="#m59d20a7d35" y="1718.507661"/>
     <use style="stroke:#000000;" x="908.006897" xlink:href="#m59d20a7d35" y="1721.376259"/>
     <use style="stroke:#000000;" x="946.489655" xlink:href="#m59d20a7d35" y="1719.189786"/>
     <use style="stroke:#000000;" x="984.972414" xlink:href="#m59d20a7d35" y="1717.614102"/>
     <use style="stroke:#000000;" x="1023.455172" xlink:href="#m59d20a7d35" y="1719.622922"/>
     <use style="stroke:#000000;" x="1061.937931" xlink:href="#m59d20a7d35" y="1718.775611"/>
     <use style="stroke:#000000;" x="1100.42069" xlink:href="#m59d20a7d35" y="1718.085447"/>
     <use style="stroke:#000000;" x="1138.903448" xlink:href="#m59d20a7d35" y="1717.534195"/>
     <use style="stroke:#000000;" x="1177.386207" xlink:href="#m59d20a7d35" y="1717.220825"/>
     <use style="stroke:#000000;" x="1215.868966" xlink:href="#m59d20a7d35" y="1716.043425"/>
     <use style="stroke:#000000;" x="1254.351724" xlink:href="#m59d20a7d35" y="1715.719791"/>
     <use style="stroke:#000000;" x="1292.834483" xlink:href="#m59d20a7d35" y="1716.581673"/>
     <use style="stroke:#000000;" x="1331.317241" xlink:href="#m59d20a7d35" y="1716.600823"/>
     <use style="stroke:#000000;" x="1369.8" xlink:href="#m59d20a7d35" y="1719.114191"/>
    </g>
   </g>
   <g id="line2d_24">
    <path clip-path="url(#pf36ce2eebc)" d="M 253.8 1806.187303 
L 292.282759 1773.292695 
L 330.765517 1744.094633 
L 369.248276 1737.712959 
L 407.731034 1739.284072 
L 446.213793 1738.826576 
L 484.696552 1735.930907 
L 523.17931 1736.731494 
L 561.662069 1737.517955 
L 600.144828 1737.131682 
L 638.627586 1734.252516 
L 677.110345 1734.06127 
L 715.593103 1733.283453 
L 754.075862 1734.62311 
L 792.558621 1733.894623 
L 831.041379 1735.451275 
L 869.524138 1734.450811 
L 908.006897 1735.154038 
L 946.489655 1734.485221 
L 984.972414 1735.69474 
L 1023.455172 1737.245915 
L 1061.937931 1739.394323 
L 1100.42069 1740.25124 
L 1138.903448 1740.628778 
L 1177.386207 1739.249337 
L 1215.868966 1738.228851 
L 1254.351724 1737.730818 
L 1292.834483 1736.083795 
L 1331.317241 1737.332738 
L 1369.8 1736.880216 
" style="fill:none;stroke:#000000;stroke-dasharray:5.55,2.4;stroke-dashoffset:0;stroke-width:1.5;"/>
   </g>
   <g id="line2d_25">
    <path clip-path="url(#pf36ce2eebc)" d="M 253.8 1493.065021 
L 292.282759 1582.528792 
L 330.765517 1659.742134 
L 369.248276 1686.30144 
L 407.731034 1687.02487 
L 446.213793 1684.983886 
L 484.696552 1691.610419 
L 523.17931 1692.231712 
L 561.662069 1693.363741 
L 600.144828 1691.147893 
L 638.627586 1699.338946 
L 677.110345 1700.665365 
L 715.593103 1705.293164 
L 754.075862 1705.5228 
L 792.558621 1706.876004 
L 831.041379 1701.559827 
L 869.524138 1702.564511 
L 908.006897 1707.598479 
L 946.489655 1703.894351 
L 984.972414 1699.533464 
L 1023.455172 1701.99993 
L 1061.937931 1698.156899 
L 1100.42069 1695.919653 
L 1138.903448 1694.439612 
L 1177.386207 1695.192313 
L 1215.868966 1693.857998 
L 1254.351724 1693.708763 
L 1292.834483 1697.07955 
L 1331.317241 1695.868909 
L 1369.8 1701.348167 
" style="fill:none;stroke:#000000;stroke-dasharray:5.55,2.4;stroke-dashoffset:0;stroke-width:1.5;"/>
   </g>
   <g id="patch_3">
    <path d="M 198 1732.5 
L 198 237.6 
" style="fill:none;stroke:#000000;stroke-linecap:square;stroke-linejoin:miter;stroke-width:0.8;"/>
   </g>
   <g id="patch_4">
    <path d="M 1425.6 1732.5 
L 1425.6 237.6 
" style="fill:none;stroke:#000000;stroke-linecap:square;stroke-linejoin:miter;stroke-width:0.8;"/>
   </g>
   <g id="patch_5">
    <path d="M 198 1732.5 
L 1425.6 1732.5 
" style="fill:none;stroke:#000000;stroke-linecap:square;stroke-linejoin:miter;stroke-width:0.8;"/>
   </g>
   <g id="patch_6">
    <path d="M 198 237.6 
L 1425.6 237.6 
" style="fill:none;stroke:#000000;stroke-linecap:square;stroke-linejoin:miter;stroke-width:0.8;"/>
   </g>
  </g>
 </g>
 <defs>
  <clipPath id="pf36ce2eebc">
   <rect height="1494.9" width="1227.6" x="198" y="237.6"/>
  </clipPath>
 </defs>
</svg>
