<?xml version="1.0" encoding="utf-8" standalone="no"?>
<!DOCTYPE svg PUBLIC "-//W3C//DTD SVG 1.1//EN"
  "http://www.w3.org/Graphics/SVG/1.1/DTD/svg11.dtd">
<!-- Created with matplotlib (https://matplotlib.org/) -->
<svg height="1980pt" version="1.1" viewBox="0 0 1584 1980" width="1584pt" xmlns="http://www.w3.org/2000/svg" xmlns:xlink="http://www.w3.org/1999/xlink">
 <defs>
  <style type="text/css">
*{stroke-linecap:butt;stroke-linejoin:round;}
  </style>
 </defs>
 <g id="figure_1">
  <g id="patch_1">
   <path d="M 0 1980 
L 1584 1980 
L 1584 0 
L 0 0 
z
" style="fill:#ffffff;"/>
  </g>
  <g id="axes_1">
   <g id="patch_2">
    <path d="M 198 1732.5 
L 1425.6 1732.5 
L 1425.6 237.6 
L 198 237.6 
z
" style="fill:#ffffff;"/>
   </g>
   <g id="PolyCollection_1">
    <defs>
     <path d="M 253.8 -1446.008169 
L 253.8 -1310.333992 
L 292.282759 -448.022149 
L 330.765517 -602.905133 
L 369.248276 -699.867914 
L 407.731034 -704.150731 
L 446.213793 -761.803864 
L 484.696552 -839.378143 
L 523.17931 -1011.959924 
L 561.662069 -1050.182115 
L 600.144828 -1176.001377 
L 638.627586 -1199.335368 
L 677.110345 -1220.979435 
L 715.593103 -1267.101795 
L 754.075862 -1294.424998 
L 792.558621 -1306.204249 
L 831.041379 -1306.972045 
L 869.524138 -1307.78936 
L 908.006897 -1311.578942 
L 946.489655 -1311.009904 
L 984.972414 -1319.381208 
L 1023.455172 -1321.034261 
L 1061.937931 -1322.554817 
L 1100.42069 -1320.495445 
L 1138.903448 -1322.675888 
L 1177.386207 -1324.961042 
L 1215.868966 -1320.132963 
L 1254.351724 -1321.769623 
L 1292.834483 -1314.480545 
L 1331.317241 -1321.990832 
L 1369.8 -1317.122045 
L 1369.8 -1404.527322 
L 1369.8 -1404.527322 
L 1331.317241 -1406.931715 
L 1292.834483 -1413.22009 
L 1254.351724 -1401.245855 
L 1215.868966 -1392.84267 
L 1177.386207 -1394.471582 
L 1138.903448 -1395.594827 
L 1100.42069 -1395.09408 
L 1061.937931 -1392.050984 
L 1023.455172 -1388.312129 
L 984.972414 -1388.476512 
L 946.489655 -1388.487829 
L 908.006897 -1385.043981 
L 869.524138 -1384.921243 
L 831.041379 -1376.520799 
L 792.558621 -1372.814511 
L 754.075862 -1361.335021 
L 715.593103 -1335.597659 
L 677.110345 -1295.862128 
L 638.627586 -1275.141465 
L 600.144828 -1263.146875 
L 561.662069 -1145.499168 
L 523.17931 -1115.585746 
L 484.696552 -965.848817 
L 446.213793 -873.037665 
L 407.731034 -799.573095 
L 369.248276 -780.61214 
L 330.765517 -653.962019 
L 292.282759 -475.455643 
L 253.8 -1446.008169 
z
" id="m8a95045246" style="stroke:#74c265;stroke-opacity:0.2;"/>
    </defs>
    <g clip-path="url(#p4f7f4d76fb)">
     <use style="fill:#74c265;fill-opacity:0.2;stroke:#74c265;stroke-opacity:0.2;" x="0" xlink:href="#m8a95045246" y="1980"/>
    </g>
   </g>
   <g id="PolyCollection_2">
    <defs>
     <path d="M 253.8 -1518.706915 
L 253.8 -1342.775631 
L 292.282759 -994.045106 
L 330.765517 -601.060492 
L 369.248276 -477.674022 
L 407.731034 -607.682505 
L 446.213793 -766.202793 
L 484.696552 -905.694298 
L 523.17931 -1021.723559 
L 561.662069 -1110.878659 
L 600.144828 -1160.877963 
L 638.627586 -1196.418193 
L 677.110345 -1232.019024 
L 715.593103 -1274.813299 
L 754.075862 -1298.124202 
L 792.558621 -1309.34046 
L 831.041379 -1323.716147 
L 869.524138 -1349.531814 
L 908.006897 -1345.90019 
L 946.489655 -1351.728652 
L 984.972414 -1349.002037 
L 1023.455172 -1347.102533 
L 1061.937931 -1355.004301 
L 1100.42069 -1349.046649 
L 1138.903448 -1354.046449 
L 1177.386207 -1355.550275 
L 1215.868966 -1364.338286 
L 1254.351724 -1353.745931 
L 1292.834483 -1355.788185 
L 1331.317241 -1344.378774 
L 1369.8 -1354.254255 
L 1369.8 -1463.842273 
L 1369.8 -1463.842273 
L 1331.317241 -1480.983572 
L 1292.834483 -1479.838702 
L 1254.351724 -1480.085941 
L 1215.868966 -1475.271753 
L 1177.386207 -1468.671913 
L 1138.903448 -1473.216022 
L 1100.42069 -1463.645079 
L 1061.937931 -1468.952253 
L 1023.455172 -1457.011727 
L 984.972414 -1477.406568 
L 946.489655 -1463.406161 
L 908.006897 -1471.816438 
L 869.524138 -1460.281048 
L 831.041379 -1443.498009 
L 792.558621 -1446.594637 
L 754.075862 -1420.18747 
L 715.593103 -1385.646187 
L 677.110345 -1333.337029 
L 638.627586 -1306.0987 
L 600.144828 -1277.046723 
L 561.662069 -1221.147141 
L 523.17931 -1142.266176 
L 484.696552 -1043.176855 
L 446.213793 -893.94191 
L 407.731034 -675.687803 
L 369.248276 -521.390448 
L 330.765517 -665.110199 
L 292.282759 -1129.270102 
L 253.8 -1518.706915 
z
" id="m4ba4cade1d" style="stroke:#ff9933;stroke-opacity:0.2;"/>
    </defs>
    <g clip-path="url(#p4f7f4d76fb)">
     <use style="fill:#ff9933;fill-opacity:0.2;stroke:#ff9933;stroke-opacity:0.2;" x="0" xlink:href="#m4ba4cade1d" y="1980"/>
    </g>
   </g>
   <g id="PolyCollection_3">
    <defs>
     <path d="M 253.8 -1425.571153 
L 253.8 -1319.487157 
L 292.282759 -298.966565 
L 330.765517 -483.331021 
L 369.248276 -623.178155 
L 407.731034 -666.084652 
L 446.213793 -783.028961 
L 484.696552 -936.034977 
L 523.17931 -1003.22766 
L 561.662069 -1132.683176 
L 600.144828 -1180.736477 
L 638.627586 -1237.805155 
L 677.110345 -1262.471568 
L 715.593103 -1283.591798 
L 754.075862 -1302.877033 
L 792.558621 -1306.180346 
L 831.041379 -1308.080011 
L 869.524138 -1312.180373 
L 908.006897 -1314.078779 
L 946.489655 -1315.846241 
L 984.972414 -1319.138421 
L 1023.455172 -1322.070842 
L 1061.937931 -1323.401813 
L 1100.42069 -1320.595353 
L 1138.903448 -1321.149548 
L 1177.386207 -1323.611101 
L 1215.868966 -1316.498348 
L 1254.351724 -1316.518844 
L 1292.834483 -1314.075491 
L 1331.317241 -1321.312926 
L 1369.8 -1318.991628 
L 1369.8 -1395.526941 
L 1369.8 -1395.526941 
L 1331.317241 -1395.254948 
L 1292.834483 -1403.617611 
L 1254.351724 -1398.924632 
L 1215.868966 -1398.559332 
L 1177.386207 -1393.790165 
L 1138.903448 -1390.189042 
L 1100.42069 -1387.269927 
L 1061.937931 -1382.247296 
L 1023.455172 -1380.225727 
L 984.972414 -1386.608337 
L 946.489655 -1385.147529 
L 908.006897 -1382.980452 
L 869.524138 -1382.336268 
L 831.041379 -1376.587942 
L 792.558621 -1373.484399 
L 754.075862 -1376.185283 
L 715.593103 -1357.003715 
L 677.110345 -1335.344405 
L 638.627586 -1313.228922 
L 600.144828 -1273.629535 
L 561.662069 -1227.71509 
L 523.17931 -1107.889487 
L 484.696552 -1061.427574 
L 446.213793 -892.405299 
L 407.731034 -731.143642 
L 369.248276 -679.584685 
L 330.765517 -523.537176 
L 292.282759 -322.771373 
L 253.8 -1425.571153 
z
" id="m86e2c6d652" style="stroke:#d1aa9f;stroke-opacity:0.2;"/>
    </defs>
    <g clip-path="url(#p4f7f4d76fb)">
     <use style="fill:#d1aa9f;fill-opacity:0.2;stroke:#d1aa9f;stroke-opacity:0.2;" x="0" xlink:href="#m86e2c6d652" y="1980"/>
    </g>
   </g>
   <g id="PolyCollection_4">
    <defs>
     <path d="M 253.8 -1343.453069 
L 253.8 -1309.002998 
L 292.282759 -494.20404 
L 330.765517 -1267.491253 
L 369.248276 -1307.458042 
L 407.731034 -1310.061043 
L 446.213793 -1307.985771 
L 484.696552 -1308.208916 
L 523.17931 -1308.746165 
L 561.662069 -1308.698834 
L 600.144828 -1307.733978 
L 638.627586 -1305.660119 
L 677.110345 -1308.573806 
L 715.593103 -1306.219212 
L 754.075862 -1306.729611 
L 792.558621 -1307.582584 
L 831.041379 -1308.671383 
L 869.524138 -1308.072283 
L 908.006897 -1306.611285 
L 946.489655 -1307.766713 
L 984.972414 -1308.855174 
L 1023.455172 -1307.539923 
L 1061.937931 -1308.456263 
L 1100.42069 -1308.463919 
L 1138.903448 -1308.63743 
L 1177.386207 -1307.612868 
L 1215.868966 -1308.64341 
L 1254.351724 -1307.795262 
L 1292.834483 -1306.463728 
L 1331.317241 -1306.418554 
L 1369.8 -1307.650599 
L 1369.8 -1338.256816 
L 1369.8 -1338.256816 
L 1331.317241 -1342.663758 
L 1292.834483 -1340.887584 
L 1254.351724 -1338.22386 
L 1215.868966 -1339.130552 
L 1177.386207 -1343.517428 
L 1138.903448 -1341.204019 
L 1100.42069 -1336.429088 
L 1061.937931 -1337.231721 
L 1023.455172 -1337.488392 
L 984.972414 -1336.79425 
L 946.489655 -1335.999268 
L 908.006897 -1336.393744 
L 869.524138 -1342.728589 
L 831.041379 -1335.952685 
L 792.558621 -1338.77543 
L 754.075862 -1337.086306 
L 715.593103 -1339.96262 
L 677.110345 -1335.512981 
L 638.627586 -1342.768779 
L 600.144828 -1337.770406 
L 561.662069 -1338.988333 
L 523.17931 -1338.373382 
L 484.696552 -1341.778816 
L 446.213793 -1344.932124 
L 407.731034 -1342.348309 
L 369.248276 -1341.821671 
L 330.765517 -1324.798438 
L 292.282759 -523.488702 
L 253.8 -1343.453069 
z
" id="m45b278670a" style="stroke:#c54c36;stroke-opacity:0.2;"/>
    </defs>
    <g clip-path="url(#p4f7f4d76fb)">
     <use style="fill:#c54c36;fill-opacity:0.2;stroke:#c54c36;stroke-opacity:0.2;" x="0" xlink:href="#m45b278670a" y="1980"/>
    </g>
   </g>
   <g id="PolyCollection_5">
    <defs>
     <path d="M 253.8 -1338.997619 
L 253.8 -1308.264623 
L 292.282759 -1307.214408 
L 330.765517 -1307.604838 
L 369.248276 -1306.24754 
L 407.731034 -1306.342906 
L 446.213793 -1306.929947 
L 484.696552 -1307.663213 
L 523.17931 -1307.471144 
L 561.662069 -1307.038437 
L 600.144828 -1307.495044 
L 638.627586 -1307.32729 
L 677.110345 -1307.447764 
L 715.593103 -1306.525523 
L 754.075862 -1307.795456 
L 792.558621 -1307.766834 
L 831.041379 -1308.04358 
L 869.524138 -1307.800699 
L 908.006897 -1308.041617 
L 946.489655 -1307.925795 
L 984.972414 -1308.252663 
L 1023.455172 -1307.773087 
L 1061.937931 -1307.613252 
L 1100.42069 -1308.139867 
L 1138.903448 -1308.357456 
L 1177.386207 -1308.638651 
L 1215.868966 -1307.996906 
L 1254.351724 -1307.803969 
L 1292.834483 -1307.301515 
L 1331.317241 -1307.257533 
L 1369.8 -1305.42083 
L 1369.8 -1340.228878 
L 1369.8 -1340.228878 
L 1331.317241 -1337.357685 
L 1292.834483 -1335.221797 
L 1254.351724 -1333.600002 
L 1215.868966 -1332.138124 
L 1177.386207 -1332.816814 
L 1138.903448 -1332.502239 
L 1100.42069 -1331.463947 
L 1061.937931 -1330.824191 
L 1023.455172 -1332.607729 
L 984.972414 -1333.713738 
L 946.489655 -1334.601802 
L 908.006897 -1335.107519 
L 869.524138 -1334.418917 
L 831.041379 -1333.360138 
L 792.558621 -1334.300378 
L 754.075862 -1335.859437 
L 715.593103 -1339.260356 
L 677.110345 -1336.400692 
L 638.627586 -1337.142485 
L 600.144828 -1337.84565 
L 561.662069 -1338.063127 
L 523.17931 -1338.831904 
L 484.696552 -1339.587787 
L 446.213793 -1338.9873 
L 407.731034 -1339.408466 
L 369.248276 -1340.502016 
L 330.765517 -1337.729433 
L 292.282759 -1337.52085 
L 253.8 -1338.997619 
z
" id="m8161d9959a" style="stroke:#000000;stroke-opacity:0.2;"/>
    </defs>
    <g clip-path="url(#p4f7f4d76fb)">
     <use style="fill-opacity:0.2;stroke:#000000;stroke-opacity:0.2;" x="0" xlink:href="#m8161d9959a" y="1980"/>
    </g>
   </g>
   <g id="matplotlib.axis_1">
    <g id="xtick_1">
     <g id="line2d_1">
      <defs>
       <path d="M 0 7 
L 0 -7 
" id="me1cc74c543" style="stroke:#000000;stroke-width:3.5;"/>
      </defs>
      <g>
       <use style="stroke:#000000;stroke-width:3.5;" x="253.8" xlink:href="#me1cc74c543" y="1732.5"/>
      </g>
     </g>
     <g id="text_1">
      <!-- 0 -->
      <defs>
       <path d="M 31.78125 3.421875 
Q 39.265625 3.421875 42.96875 11.625 
Q 46.6875 19.828125 46.6875 36.375 
Q 46.6875 52.984375 42.96875 61.1875 
Q 39.265625 69.390625 31.78125 69.390625 
Q 24.3125 69.390625 20.59375 61.1875 
Q 16.890625 52.984375 16.890625 36.375 
Q 16.890625 19.828125 20.59375 11.625 
Q 24.3125 3.421875 31.78125 3.421875 
z
M 31.78125 -1.421875 
Q 19.921875 -1.421875 13.25 8.53125 
Q 6.59375 18.5 6.59375 36.375 
Q 6.59375 54.296875 13.25 64.25 
Q 19.921875 74.21875 31.78125 74.21875 
Q 43.703125 74.21875 50.34375 64.25 
Q 56.984375 54.296875 56.984375 36.375 
Q 56.984375 18.5 50.34375 8.53125 
Q 43.703125 -1.421875 31.78125 -1.421875 
z
" id="DejaVuSerif-48"/>
      </defs>
      <g transform="translate(233.121875 1792.389844)scale(0.65 -0.65)">
       <use xlink:href="#DejaVuSerif-48"/>
      </g>
     </g>
    </g>
    <g id="xtick_2">
     <g id="line2d_2">
      <g>
       <use style="stroke:#000000;stroke-width:3.5;" x="638.627586" xlink:href="#me1cc74c543" y="1732.5"/>
      </g>
     </g>
     <g id="text_2">
      <!-- 10 -->
      <defs>
       <path d="M 14.203125 0 
L 14.203125 5.171875 
L 26.90625 5.171875 
L 26.90625 65.828125 
L 12.203125 56.296875 
L 12.203125 62.703125 
L 29.984375 74.21875 
L 36.71875 74.21875 
L 36.71875 5.171875 
L 49.421875 5.171875 
L 49.421875 0 
z
" id="DejaVuSerif-49"/>
      </defs>
      <g transform="translate(597.271336 1792.389844)scale(0.65 -0.65)">
       <use xlink:href="#DejaVuSerif-49"/>
       <use x="63.623047" xlink:href="#DejaVuSerif-48"/>
      </g>
     </g>
    </g>
    <g id="xtick_3">
     <g id="line2d_3">
      <g>
       <use style="stroke:#000000;stroke-width:3.5;" x="1023.455172" xlink:href="#me1cc74c543" y="1732.5"/>
      </g>
     </g>
     <g id="text_3">
      <!-- 20 -->
      <defs>
       <path d="M 12.796875 55.515625 
L 7.328125 55.515625 
L 7.328125 68.5 
Q 12.546875 71.296875 17.84375 72.75 
Q 23.140625 74.21875 28.21875 74.21875 
Q 39.59375 74.21875 46.1875 68.703125 
Q 52.78125 63.1875 52.78125 53.71875 
Q 52.78125 43.015625 37.84375 28.125 
Q 36.671875 27 36.078125 26.421875 
L 17.671875 8.015625 
L 48.09375 8.015625 
L 48.09375 17 
L 53.8125 17 
L 53.8125 0 
L 6.78125 0 
L 6.78125 5.328125 
L 28.90625 27.390625 
Q 36.234375 34.71875 39.359375 40.84375 
Q 42.484375 46.96875 42.484375 53.71875 
Q 42.484375 61.078125 38.640625 65.234375 
Q 34.8125 69.390625 28.078125 69.390625 
Q 21.09375 69.390625 17.28125 65.921875 
Q 13.484375 62.453125 12.796875 55.515625 
z
" id="DejaVuSerif-50"/>
      </defs>
      <g transform="translate(982.098922 1792.389844)scale(0.65 -0.65)">
       <use xlink:href="#DejaVuSerif-50"/>
       <use x="63.623047" xlink:href="#DejaVuSerif-48"/>
      </g>
     </g>
    </g>
    <g id="xtick_4">
     <g id="line2d_4">
      <g>
       <use style="stroke:#000000;stroke-width:3.5;" x="1408.282759" xlink:href="#me1cc74c543" y="1732.5"/>
      </g>
     </g>
     <g id="text_4">
      <!-- 30 -->
      <defs>
       <path d="M 9.71875 69.828125 
Q 15.4375 71.96875 20.671875 73.09375 
Q 25.921875 74.21875 30.515625 74.21875 
Q 41.21875 74.21875 47.21875 69.59375 
Q 53.21875 64.984375 53.21875 56.78125 
Q 53.21875 50.203125 49.0625 45.78125 
Q 44.921875 41.359375 37.3125 39.796875 
Q 46.296875 38.53125 51.25 33.28125 
Q 56.203125 28.03125 56.203125 19.671875 
Q 56.203125 9.46875 49.34375 4.015625 
Q 42.484375 -1.421875 29.59375 -1.421875 
Q 23.875 -1.421875 18.421875 -0.1875 
Q 12.984375 1.03125 7.625 3.515625 
L 7.625 17.671875 
L 13.09375 17.671875 
Q 13.578125 10.640625 17.828125 7.03125 
Q 22.078125 3.421875 29.78125 3.421875 
Q 37.25 3.421875 41.578125 7.734375 
Q 45.90625 12.0625 45.90625 19.578125 
Q 45.90625 28.171875 41.453125 32.59375 
Q 37.015625 37.015625 28.421875 37.015625 
L 23.78125 37.015625 
L 23.78125 42 
L 26.21875 42 
Q 34.765625 42 39.03125 45.53125 
Q 43.3125 49.078125 43.3125 56.203125 
Q 43.3125 62.59375 39.796875 65.984375 
Q 36.28125 69.390625 29.6875 69.390625 
Q 23.09375 69.390625 19.453125 66.265625 
Q 15.828125 63.140625 15.1875 56.984375 
L 9.71875 56.984375 
z
" id="DejaVuSerif-51"/>
      </defs>
      <g transform="translate(1366.926509 1792.389844)scale(0.65 -0.65)">
       <use xlink:href="#DejaVuSerif-51"/>
       <use x="63.623047" xlink:href="#DejaVuSerif-48"/>
      </g>
     </g>
    </g>
   </g>
   <g id="matplotlib.axis_2">
    <g id="ytick_1">
     <g id="line2d_5">
      <defs>
       <path d="M 7 0 
L -7 -0 
" id="m8b8b82838b" style="stroke:#000000;stroke-width:3.5;"/>
      </defs>
      <g>
       <use style="stroke:#000000;stroke-width:3.5;" x="198" xlink:href="#m8b8b82838b" y="1732.5"/>
      </g>
     </g>
     <g id="text_5">
      <!-- 0 -->
      <g transform="translate(146.14375 1757.194922)scale(0.65 -0.65)">
       <use xlink:href="#DejaVuSerif-48"/>
      </g>
     </g>
    </g>
    <g id="ytick_2">
     <g id="line2d_6">
      <g>
       <use style="stroke:#000000;stroke-width:3.5;" x="198" xlink:href="#m8b8b82838b" y="1518.942857"/>
      </g>
     </g>
     <g id="text_6">
      <!-- 1 -->
      <g transform="translate(146.14375 1543.637779)scale(0.65 -0.65)">
       <use xlink:href="#DejaVuSerif-49"/>
      </g>
     </g>
    </g>
    <g id="ytick_3">
     <g id="line2d_7">
      <g>
       <use style="stroke:#000000;stroke-width:3.5;" x="198" xlink:href="#m8b8b82838b" y="1305.385714"/>
      </g>
     </g>
     <g id="text_7">
      <!-- 2 -->
      <g transform="translate(146.14375 1330.080636)scale(0.65 -0.65)">
       <use xlink:href="#DejaVuSerif-50"/>
      </g>
     </g>
    </g>
    <g id="ytick_4">
     <g id="line2d_8">
      <g>
       <use style="stroke:#000000;stroke-width:3.5;" x="198" xlink:href="#m8b8b82838b" y="1091.828571"/>
      </g>
     </g>
     <g id="text_8">
      <!-- 3 -->
      <g transform="translate(146.14375 1116.523493)scale(0.65 -0.65)">
       <use xlink:href="#DejaVuSerif-51"/>
      </g>
     </g>
    </g>
    <g id="ytick_5">
     <g id="line2d_9">
      <g>
       <use style="stroke:#000000;stroke-width:3.5;" x="198" xlink:href="#m8b8b82838b" y="878.271429"/>
      </g>
     </g>
     <g id="text_9">
      <!-- 4 -->
      <defs>
       <path d="M 34.90625 24.703125 
L 34.90625 63.484375 
L 10.015625 24.703125 
z
M 56.390625 0 
L 23.1875 0 
L 23.1875 5.171875 
L 34.90625 5.171875 
L 34.90625 19.484375 
L 3.078125 19.484375 
L 3.078125 24.8125 
L 35.015625 74.21875 
L 44.671875 74.21875 
L 44.671875 24.703125 
L 58.59375 24.703125 
L 58.59375 19.484375 
L 44.671875 19.484375 
L 44.671875 5.171875 
L 56.390625 5.171875 
z
" id="DejaVuSerif-52"/>
      </defs>
      <g transform="translate(146.14375 902.96635)scale(0.65 -0.65)">
       <use xlink:href="#DejaVuSerif-52"/>
      </g>
     </g>
    </g>
    <g id="ytick_6">
     <g id="line2d_10">
      <g>
       <use style="stroke:#000000;stroke-width:3.5;" x="198" xlink:href="#m8b8b82838b" y="664.714286"/>
      </g>
     </g>
     <g id="text_10">
      <!-- 5 -->
      <defs>
       <path d="M 50.296875 72.90625 
L 50.296875 64.890625 
L 16.890625 64.890625 
L 16.890625 44 
Q 19.4375 45.75 22.828125 46.625 
Q 26.21875 47.515625 30.421875 47.515625 
Q 42.234375 47.515625 49.0625 40.96875 
Q 55.90625 34.421875 55.90625 23.09375 
Q 55.90625 11.53125 49 5.046875 
Q 42.09375 -1.421875 29.59375 -1.421875 
Q 24.5625 -1.421875 19.28125 -0.1875 
Q 14.015625 1.03125 8.5 3.515625 
L 8.5 17.671875 
L 14.015625 17.671875 
Q 14.453125 10.75 18.421875 7.078125 
Q 22.40625 3.421875 29.59375 3.421875 
Q 37.3125 3.421875 41.453125 8.5 
Q 45.609375 13.578125 45.609375 23.09375 
Q 45.609375 32.5625 41.484375 37.609375 
Q 37.359375 42.671875 29.59375 42.671875 
Q 25.203125 42.671875 21.84375 41.109375 
Q 18.5 39.546875 15.921875 36.28125 
L 11.71875 36.28125 
L 11.71875 72.90625 
z
" id="DejaVuSerif-53"/>
      </defs>
      <g transform="translate(146.14375 689.409208)scale(0.65 -0.65)">
       <use xlink:href="#DejaVuSerif-53"/>
      </g>
     </g>
    </g>
    <g id="ytick_7">
     <g id="line2d_11">
      <g>
       <use style="stroke:#000000;stroke-width:3.5;" x="198" xlink:href="#m8b8b82838b" y="451.157143"/>
      </g>
     </g>
     <g id="text_11">
      <!-- 6 -->
      <defs>
       <path d="M 32.71875 3.421875 
Q 39.59375 3.421875 43.296875 8.46875 
Q 47.015625 13.53125 47.015625 23 
Q 47.015625 32.46875 43.296875 37.515625 
Q 39.59375 42.578125 32.71875 42.578125 
Q 25.734375 42.578125 22.0625 37.6875 
Q 18.40625 32.8125 18.40625 23.578125 
Q 18.40625 13.875 22.109375 8.640625 
Q 25.828125 3.421875 32.71875 3.421875 
z
M 16.796875 40.140625 
Q 20.125 43.796875 24.3125 45.59375 
Q 28.515625 47.40625 33.796875 47.40625 
Q 44.671875 47.40625 51 40.859375 
Q 57.328125 34.328125 57.328125 23 
Q 57.328125 11.921875 50.515625 5.25 
Q 43.703125 -1.421875 32.328125 -1.421875 
Q 19.96875 -1.421875 13.328125 7.78125 
Q 6.6875 17 6.6875 34.078125 
Q 6.6875 53.21875 14.546875 63.71875 
Q 22.40625 74.21875 36.71875 74.21875 
Q 40.578125 74.21875 44.828125 73.484375 
Q 49.078125 72.75 53.515625 71.296875 
L 53.515625 59.28125 
L 48 59.28125 
Q 47.40625 64.203125 44.234375 66.796875 
Q 41.0625 69.390625 35.6875 69.390625 
Q 26.21875 69.390625 21.578125 62.203125 
Q 16.9375 55.03125 16.796875 40.140625 
z
" id="DejaVuSerif-54"/>
      </defs>
      <g transform="translate(146.14375 475.852065)scale(0.65 -0.65)">
       <use xlink:href="#DejaVuSerif-54"/>
      </g>
     </g>
    </g>
    <g id="ytick_8">
     <g id="line2d_12">
      <g>
       <use style="stroke:#000000;stroke-width:3.5;" x="198" xlink:href="#m8b8b82838b" y="237.6"/>
      </g>
     </g>
     <g id="text_12">
      <!-- 7 -->
      <defs>
       <path d="M 56.390625 67.921875 
L 27.875 0 
L 20.609375 0 
L 47.796875 64.890625 
L 14.109375 64.890625 
L 14.109375 55.90625 
L 8.40625 55.90625 
L 8.40625 72.90625 
L 56.390625 72.90625 
z
" id="DejaVuSerif-55"/>
      </defs>
      <g transform="translate(146.14375 262.294922)scale(0.65 -0.65)">
       <use xlink:href="#DejaVuSerif-55"/>
      </g>
     </g>
    </g>
   </g>
   <g id="line2d_13">
    <path clip-path="url(#p4f7f4d76fb)" d="M 253.8 601.828919 
L 292.282759 1518.261104 
L 330.765517 1351.566424 
L 369.248276 1239.759973 
L 407.731034 1228.138087 
L 446.213793 1162.579235 
L 484.696552 1077.38652 
L 523.17931 916.227165 
L 561.662069 882.159358 
L 600.144828 760.425874 
L 638.627586 742.761584 
L 677.110345 721.579218 
L 715.593103 678.650273 
L 754.075862 652.11999 
L 792.558621 640.49062 
L 831.041379 638.253578 
L 869.524138 633.644699 
L 908.006897 631.688538 
L 946.489655 630.251134 
L 984.972414 626.07114 
L 1023.455172 625.326805 
L 1061.937931 622.6971 
L 1100.42069 622.205237 
L 1138.903448 620.864643 
L 1177.386207 620.283688 
L 1215.868966 623.512184 
L 1254.351724 618.492261 
L 1292.834483 616.149682 
L 1331.317241 615.538726 
L 1369.8 619.175317 
" style="fill:none;stroke:#74c265;stroke-linecap:square;stroke-width:4;"/>
    <defs>
     <path d="M 0 7.5 
C 1.989023 7.5 3.896849 6.709753 5.303301 5.303301 
C 6.709753 3.896849 7.5 1.989023 7.5 0 
C 7.5 -1.989023 6.709753 -3.896849 5.303301 -5.303301 
C 3.896849 -6.709753 1.989023 -7.5 0 -7.5 
C -1.989023 -7.5 -3.896849 -6.709753 -5.303301 -5.303301 
C -6.709753 -3.896849 -7.5 -1.989023 -7.5 0 
C -7.5 1.989023 -6.709753 3.896849 -5.303301 5.303301 
C -3.896849 6.709753 -1.989023 7.5 0 7.5 
z
" id="m24252bf849" style="stroke:#74c265;"/>
    </defs>
    <g clip-path="url(#p4f7f4d76fb)">
     <use style="fill:#74c265;stroke:#74c265;" x="253.8" xlink:href="#m24252bf849" y="601.828919"/>
     <use style="fill:#74c265;stroke:#74c265;" x="292.282759" xlink:href="#m24252bf849" y="1518.261104"/>
     <use style="fill:#74c265;stroke:#74c265;" x="330.765517" xlink:href="#m24252bf849" y="1351.566424"/>
     <use style="fill:#74c265;stroke:#74c265;" x="369.248276" xlink:href="#m24252bf849" y="1239.759973"/>
     <use style="fill:#74c265;stroke:#74c265;" x="407.731034" xlink:href="#m24252bf849" y="1228.138087"/>
     <use style="fill:#74c265;stroke:#74c265;" x="446.213793" xlink:href="#m24252bf849" y="1162.579235"/>
     <use style="fill:#74c265;stroke:#74c265;" x="484.696552" xlink:href="#m24252bf849" y="1077.38652"/>
     <use style="fill:#74c265;stroke:#74c265;" x="523.17931" xlink:href="#m24252bf849" y="916.227165"/>
     <use style="fill:#74c265;stroke:#74c265;" x="561.662069" xlink:href="#m24252bf849" y="882.159358"/>
     <use style="fill:#74c265;stroke:#74c265;" x="600.144828" xlink:href="#m24252bf849" y="760.425874"/>
     <use style="fill:#74c265;stroke:#74c265;" x="638.627586" xlink:href="#m24252bf849" y="742.761584"/>
     <use style="fill:#74c265;stroke:#74c265;" x="677.110345" xlink:href="#m24252bf849" y="721.579218"/>
     <use style="fill:#74c265;stroke:#74c265;" x="715.593103" xlink:href="#m24252bf849" y="678.650273"/>
     <use style="fill:#74c265;stroke:#74c265;" x="754.075862" xlink:href="#m24252bf849" y="652.11999"/>
     <use style="fill:#74c265;stroke:#74c265;" x="792.558621" xlink:href="#m24252bf849" y="640.49062"/>
     <use style="fill:#74c265;stroke:#74c265;" x="831.041379" xlink:href="#m24252bf849" y="638.253578"/>
     <use style="fill:#74c265;stroke:#74c265;" x="869.524138" xlink:href="#m24252bf849" y="633.644699"/>
     <use style="fill:#74c265;stroke:#74c265;" x="908.006897" xlink:href="#m24252bf849" y="631.688538"/>
     <use style="fill:#74c265;stroke:#74c265;" x="946.489655" xlink:href="#m24252bf849" y="630.251134"/>
     <use style="fill:#74c265;stroke:#74c265;" x="984.972414" xlink:href="#m24252bf849" y="626.07114"/>
     <use style="fill:#74c265;stroke:#74c265;" x="1023.455172" xlink:href="#m24252bf849" y="625.326805"/>
     <use style="fill:#74c265;stroke:#74c265;" x="1061.937931" xlink:href="#m24252bf849" y="622.6971"/>
     <use style="fill:#74c265;stroke:#74c265;" x="1100.42069" xlink:href="#m24252bf849" y="622.205237"/>
     <use style="fill:#74c265;stroke:#74c265;" x="1138.903448" xlink:href="#m24252bf849" y="620.864643"/>
     <use style="fill:#74c265;stroke:#74c265;" x="1177.386207" xlink:href="#m24252bf849" y="620.283688"/>
     <use style="fill:#74c265;stroke:#74c265;" x="1215.868966" xlink:href="#m24252bf849" y="623.512184"/>
     <use style="fill:#74c265;stroke:#74c265;" x="1254.351724" xlink:href="#m24252bf849" y="618.492261"/>
     <use style="fill:#74c265;stroke:#74c265;" x="1292.834483" xlink:href="#m24252bf849" y="616.149682"/>
     <use style="fill:#74c265;stroke:#74c265;" x="1331.317241" xlink:href="#m24252bf849" y="615.538726"/>
     <use style="fill:#74c265;stroke:#74c265;" x="1369.8" xlink:href="#m24252bf849" y="619.175317"/>
    </g>
   </g>
   <g id="line2d_14">
    <path clip-path="url(#p4f7f4d76fb)" d="M 253.8 669.666008 
L 292.282759 1531.977851 
L 330.765517 1377.094867 
L 369.248276 1280.132086 
L 407.731034 1275.849269 
L 446.213793 1218.196136 
L 484.696552 1140.621857 
L 523.17931 968.040076 
L 561.662069 929.817885 
L 600.144828 803.998623 
L 638.627586 780.664632 
L 677.110345 759.020565 
L 715.593103 712.898205 
L 754.075862 685.575002 
L 792.558621 673.795751 
L 831.041379 673.027955 
L 869.524138 672.21064 
L 908.006897 668.421058 
L 946.489655 668.990096 
L 984.972414 660.618792 
L 1023.455172 658.965739 
L 1061.937931 657.445183 
L 1100.42069 659.504555 
L 1138.903448 657.324112 
L 1177.386207 655.038958 
L 1215.868966 659.867037 
L 1254.351724 658.230377 
L 1292.834483 665.519455 
L 1331.317241 658.009168 
L 1369.8 662.877955 
" style="fill:none;stroke:#74c265;stroke-dasharray:5.55,2.4;stroke-dashoffset:0;stroke-width:1.5;"/>
   </g>
   <g id="line2d_15">
    <path clip-path="url(#p4f7f4d76fb)" d="M 253.8 533.991831 
L 292.282759 1504.544357 
L 330.765517 1326.037981 
L 369.248276 1199.38786 
L 407.731034 1180.426905 
L 446.213793 1106.962335 
L 484.696552 1014.151183 
L 523.17931 864.414254 
L 561.662069 834.500832 
L 600.144828 716.853125 
L 638.627586 704.858535 
L 677.110345 684.137872 
L 715.593103 644.402341 
L 754.075862 618.664979 
L 792.558621 607.185489 
L 831.041379 603.479201 
L 869.524138 595.078757 
L 908.006897 594.956019 
L 946.489655 591.512171 
L 984.972414 591.523488 
L 1023.455172 591.687871 
L 1061.937931 587.949016 
L 1100.42069 584.90592 
L 1138.903448 584.405173 
L 1177.386207 585.528418 
L 1215.868966 587.15733 
L 1254.351724 578.754145 
L 1292.834483 566.77991 
L 1331.317241 573.068285 
L 1369.8 575.472678 
" style="fill:none;stroke:#74c265;stroke-dasharray:5.55,2.4;stroke-dashoffset:0;stroke-width:1.5;"/>
   </g>
   <g id="line2d_16">
    <path clip-path="url(#p4f7f4d76fb)" d="M 253.8 549.258727 
L 292.282759 918.342396 
L 330.765517 1346.914655 
L 369.248276 1480.467765 
L 407.731034 1338.314846 
L 446.213793 1149.927649 
L 484.696552 1005.564424 
L 523.17931 898.005132 
L 561.662069 813.9871 
L 600.144828 761.037657 
L 638.627586 728.741554 
L 677.110345 697.321974 
L 715.593103 649.770257 
L 754.075862 620.844164 
L 792.558621 602.032452 
L 831.041379 596.392922 
L 869.524138 575.093569 
L 908.006897 571.141686 
L 946.489655 572.432593 
L 984.972414 566.795697 
L 1023.455172 577.94287 
L 1061.937931 568.021723 
L 1100.42069 573.654136 
L 1138.903448 566.368765 
L 1177.386207 567.888906 
L 1215.868966 560.19498 
L 1254.351724 563.084064 
L 1292.834483 562.186556 
L 1331.317241 567.318827 
L 1369.8 570.951736 
" style="fill:none;stroke:#ff9933;stroke-linecap:square;stroke-width:4;"/>
    <defs>
     <path d="M 0 7.5 
C 1.989023 7.5 3.896849 6.709753 5.303301 5.303301 
C 6.709753 3.896849 7.5 1.989023 7.5 0 
C 7.5 -1.989023 6.709753 -3.896849 5.303301 -5.303301 
C 3.896849 -6.709753 1.989023 -7.5 0 -7.5 
C -1.989023 -7.5 -3.896849 -6.709753 -5.303301 -5.303301 
C -6.709753 -3.896849 -7.5 -1.989023 -7.5 0 
C -7.5 1.989023 -6.709753 3.896849 -5.303301 5.303301 
C -3.896849 6.709753 -1.989023 7.5 0 7.5 
z
" id="m0fddaa7751" style="stroke:#ff9933;"/>
    </defs>
    <g clip-path="url(#p4f7f4d76fb)">
     <use style="fill:#ff9933;stroke:#ff9933;" x="253.8" xlink:href="#m0fddaa7751" y="549.258727"/>
     <use style="fill:#ff9933;stroke:#ff9933;" x="292.282759" xlink:href="#m0fddaa7751" y="918.342396"/>
     <use style="fill:#ff9933;stroke:#ff9933;" x="330.765517" xlink:href="#m0fddaa7751" y="1346.914655"/>
     <use style="fill:#ff9933;stroke:#ff9933;" x="369.248276" xlink:href="#m0fddaa7751" y="1480.467765"/>
     <use style="fill:#ff9933;stroke:#ff9933;" x="407.731034" xlink:href="#m0fddaa7751" y="1338.314846"/>
     <use style="fill:#ff9933;stroke:#ff9933;" x="446.213793" xlink:href="#m0fddaa7751" y="1149.927649"/>
     <use style="fill:#ff9933;stroke:#ff9933;" x="484.696552" xlink:href="#m0fddaa7751" y="1005.564424"/>
     <use style="fill:#ff9933;stroke:#ff9933;" x="523.17931" xlink:href="#m0fddaa7751" y="898.005132"/>
     <use style="fill:#ff9933;stroke:#ff9933;" x="561.662069" xlink:href="#m0fddaa7751" y="813.9871"/>
     <use style="fill:#ff9933;stroke:#ff9933;" x="600.144828" xlink:href="#m0fddaa7751" y="761.037657"/>
     <use style="fill:#ff9933;stroke:#ff9933;" x="638.627586" xlink:href="#m0fddaa7751" y="728.741554"/>
     <use style="fill:#ff9933;stroke:#ff9933;" x="677.110345" xlink:href="#m0fddaa7751" y="697.321974"/>
     <use style="fill:#ff9933;stroke:#ff9933;" x="715.593103" xlink:href="#m0fddaa7751" y="649.770257"/>
     <use style="fill:#ff9933;stroke:#ff9933;" x="754.075862" xlink:href="#m0fddaa7751" y="620.844164"/>
     <use style="fill:#ff9933;stroke:#ff9933;" x="792.558621" xlink:href="#m0fddaa7751" y="602.032452"/>
     <use style="fill:#ff9933;stroke:#ff9933;" x="831.041379" xlink:href="#m0fddaa7751" y="596.392922"/>
     <use style="fill:#ff9933;stroke:#ff9933;" x="869.524138" xlink:href="#m0fddaa7751" y="575.093569"/>
     <use style="fill:#ff9933;stroke:#ff9933;" x="908.006897" xlink:href="#m0fddaa7751" y="571.141686"/>
     <use style="fill:#ff9933;stroke:#ff9933;" x="946.489655" xlink:href="#m0fddaa7751" y="572.432593"/>
     <use style="fill:#ff9933;stroke:#ff9933;" x="984.972414" xlink:href="#m0fddaa7751" y="566.795697"/>
     <use style="fill:#ff9933;stroke:#ff9933;" x="1023.455172" xlink:href="#m0fddaa7751" y="577.94287"/>
     <use style="fill:#ff9933;stroke:#ff9933;" x="1061.937931" xlink:href="#m0fddaa7751" y="568.021723"/>
     <use style="fill:#ff9933;stroke:#ff9933;" x="1100.42069" xlink:href="#m0fddaa7751" y="573.654136"/>
     <use style="fill:#ff9933;stroke:#ff9933;" x="1138.903448" xlink:href="#m0fddaa7751" y="566.368765"/>
     <use style="fill:#ff9933;stroke:#ff9933;" x="1177.386207" xlink:href="#m0fddaa7751" y="567.888906"/>
     <use style="fill:#ff9933;stroke:#ff9933;" x="1215.868966" xlink:href="#m0fddaa7751" y="560.19498"/>
     <use style="fill:#ff9933;stroke:#ff9933;" x="1254.351724" xlink:href="#m0fddaa7751" y="563.084064"/>
     <use style="fill:#ff9933;stroke:#ff9933;" x="1292.834483" xlink:href="#m0fddaa7751" y="562.186556"/>
     <use style="fill:#ff9933;stroke:#ff9933;" x="1331.317241" xlink:href="#m0fddaa7751" y="567.318827"/>
     <use style="fill:#ff9933;stroke:#ff9933;" x="1369.8" xlink:href="#m0fddaa7751" y="570.951736"/>
    </g>
   </g>
   <g id="line2d_17">
    <path clip-path="url(#p4f7f4d76fb)" d="M 253.8 637.224369 
L 292.282759 985.954894 
L 330.765517 1378.939508 
L 369.248276 1502.325978 
L 407.731034 1372.317495 
L 446.213793 1213.797207 
L 484.696552 1074.305702 
L 523.17931 958.276441 
L 561.662069 869.121341 
L 600.144828 819.122037 
L 638.627586 783.581807 
L 677.110345 747.980976 
L 715.593103 705.186701 
L 754.075862 681.875798 
L 792.558621 670.65954 
L 831.041379 656.283853 
L 869.524138 630.468186 
L 908.006897 634.09981 
L 946.489655 628.271348 
L 984.972414 630.997963 
L 1023.455172 632.897467 
L 1061.937931 624.995699 
L 1100.42069 630.953351 
L 1138.903448 625.953551 
L 1177.386207 624.449725 
L 1215.868966 615.661714 
L 1254.351724 626.254069 
L 1292.834483 624.211815 
L 1331.317241 635.621226 
L 1369.8 625.745745 
" style="fill:none;stroke:#ff9933;stroke-dasharray:5.55,2.4;stroke-dashoffset:0;stroke-width:1.5;"/>
   </g>
   <g id="line2d_18">
    <path clip-path="url(#p4f7f4d76fb)" d="M 253.8 461.293085 
L 292.282759 850.729898 
L 330.765517 1314.889801 
L 369.248276 1458.609552 
L 407.731034 1304.312197 
L 446.213793 1086.05809 
L 484.696552 936.823145 
L 523.17931 837.733824 
L 561.662069 758.852859 
L 600.144828 702.953277 
L 638.627586 673.9013 
L 677.110345 646.662971 
L 715.593103 594.353813 
L 754.075862 559.81253 
L 792.558621 533.405363 
L 831.041379 536.501991 
L 869.524138 519.718952 
L 908.006897 508.183562 
L 946.489655 516.593839 
L 984.972414 502.593432 
L 1023.455172 522.988273 
L 1061.937931 511.047747 
L 1100.42069 516.354921 
L 1138.903448 506.783978 
L 1177.386207 511.328087 
L 1215.868966 504.728247 
L 1254.351724 499.914059 
L 1292.834483 500.161298 
L 1331.317241 499.016428 
L 1369.8 516.157727 
" style="fill:none;stroke:#ff9933;stroke-dasharray:5.55,2.4;stroke-dashoffset:0;stroke-width:1.5;"/>
   </g>
   <g id="line2d_19">
    <path clip-path="url(#p4f7f4d76fb)" d="M 253.8 607.470845 
L 292.282759 1669.131031 
L 330.765517 1476.565902 
L 369.248276 1328.61858 
L 407.731034 1281.385853 
L 446.213793 1142.28287 
L 484.696552 981.268724 
L 523.17931 924.441427 
L 561.662069 799.800867 
L 600.144828 752.816994 
L 638.627586 704.482961 
L 677.110345 681.092014 
L 715.593103 659.702243 
L 754.075862 640.468842 
L 792.558621 640.167627 
L 831.041379 637.666024 
L 869.524138 632.74168 
L 908.006897 631.470385 
L 946.489655 629.503115 
L 984.972414 627.126621 
L 1023.455172 628.851716 
L 1061.937931 627.175445 
L 1100.42069 626.06736 
L 1138.903448 624.330705 
L 1177.386207 621.299367 
L 1215.868966 622.47116 
L 1254.351724 622.278262 
L 1292.834483 621.153449 
L 1331.317241 621.716063 
L 1369.8 622.740716 
" style="fill:none;stroke:#d1aa9f;stroke-linecap:square;stroke-width:4;"/>
    <defs>
     <path d="M 0 7.5 
C 1.989023 7.5 3.896849 6.709753 5.303301 5.303301 
C 6.709753 3.896849 7.5 1.989023 7.5 0 
C 7.5 -1.989023 6.709753 -3.896849 5.303301 -5.303301 
C 3.896849 -6.709753 1.989023 -7.5 0 -7.5 
C -1.989023 -7.5 -3.896849 -6.709753 -5.303301 -5.303301 
C -6.709753 -3.896849 -7.5 -1.989023 -7.5 0 
C -7.5 1.989023 -6.709753 3.896849 -5.303301 5.303301 
C -3.896849 6.709753 -1.989023 7.5 0 7.5 
z
" id="m086e959056" style="stroke:#d1aa9f;"/>
    </defs>
    <g clip-path="url(#p4f7f4d76fb)">
     <use style="fill:#d1aa9f;stroke:#d1aa9f;" x="253.8" xlink:href="#m086e959056" y="607.470845"/>
     <use style="fill:#d1aa9f;stroke:#d1aa9f;" x="292.282759" xlink:href="#m086e959056" y="1669.131031"/>
     <use style="fill:#d1aa9f;stroke:#d1aa9f;" x="330.765517" xlink:href="#m086e959056" y="1476.565902"/>
     <use style="fill:#d1aa9f;stroke:#d1aa9f;" x="369.248276" xlink:href="#m086e959056" y="1328.61858"/>
     <use style="fill:#d1aa9f;stroke:#d1aa9f;" x="407.731034" xlink:href="#m086e959056" y="1281.385853"/>
     <use style="fill:#d1aa9f;stroke:#d1aa9f;" x="446.213793" xlink:href="#m086e959056" y="1142.28287"/>
     <use style="fill:#d1aa9f;stroke:#d1aa9f;" x="484.696552" xlink:href="#m086e959056" y="981.268724"/>
     <use style="fill:#d1aa9f;stroke:#d1aa9f;" x="523.17931" xlink:href="#m086e959056" y="924.441427"/>
     <use style="fill:#d1aa9f;stroke:#d1aa9f;" x="561.662069" xlink:href="#m086e959056" y="799.800867"/>
     <use style="fill:#d1aa9f;stroke:#d1aa9f;" x="600.144828" xlink:href="#m086e959056" y="752.816994"/>
     <use style="fill:#d1aa9f;stroke:#d1aa9f;" x="638.627586" xlink:href="#m086e959056" y="704.482961"/>
     <use style="fill:#d1aa9f;stroke:#d1aa9f;" x="677.110345" xlink:href="#m086e959056" y="681.092014"/>
     <use style="fill:#d1aa9f;stroke:#d1aa9f;" x="715.593103" xlink:href="#m086e959056" y="659.702243"/>
     <use style="fill:#d1aa9f;stroke:#d1aa9f;" x="754.075862" xlink:href="#m086e959056" y="640.468842"/>
     <use style="fill:#d1aa9f;stroke:#d1aa9f;" x="792.558621" xlink:href="#m086e959056" y="640.167627"/>
     <use style="fill:#d1aa9f;stroke:#d1aa9f;" x="831.041379" xlink:href="#m086e959056" y="637.666024"/>
     <use style="fill:#d1aa9f;stroke:#d1aa9f;" x="869.524138" xlink:href="#m086e959056" y="632.74168"/>
     <use style="fill:#d1aa9f;stroke:#d1aa9f;" x="908.006897" xlink:href="#m086e959056" y="631.470385"/>
     <use style="fill:#d1aa9f;stroke:#d1aa9f;" x="946.489655" xlink:href="#m086e959056" y="629.503115"/>
     <use style="fill:#d1aa9f;stroke:#d1aa9f;" x="984.972414" xlink:href="#m086e959056" y="627.126621"/>
     <use style="fill:#d1aa9f;stroke:#d1aa9f;" x="1023.455172" xlink:href="#m086e959056" y="628.851716"/>
     <use style="fill:#d1aa9f;stroke:#d1aa9f;" x="1061.937931" xlink:href="#m086e959056" y="627.175445"/>
     <use style="fill:#d1aa9f;stroke:#d1aa9f;" x="1100.42069" xlink:href="#m086e959056" y="626.06736"/>
     <use style="fill:#d1aa9f;stroke:#d1aa9f;" x="1138.903448" xlink:href="#m086e959056" y="624.330705"/>
     <use style="fill:#d1aa9f;stroke:#d1aa9f;" x="1177.386207" xlink:href="#m086e959056" y="621.299367"/>
     <use style="fill:#d1aa9f;stroke:#d1aa9f;" x="1215.868966" xlink:href="#m086e959056" y="622.47116"/>
     <use style="fill:#d1aa9f;stroke:#d1aa9f;" x="1254.351724" xlink:href="#m086e959056" y="622.278262"/>
     <use style="fill:#d1aa9f;stroke:#d1aa9f;" x="1292.834483" xlink:href="#m086e959056" y="621.153449"/>
     <use style="fill:#d1aa9f;stroke:#d1aa9f;" x="1331.317241" xlink:href="#m086e959056" y="621.716063"/>
     <use style="fill:#d1aa9f;stroke:#d1aa9f;" x="1369.8" xlink:href="#m086e959056" y="622.740716"/>
    </g>
   </g>
   <g id="line2d_20">
    <path clip-path="url(#p4f7f4d76fb)" d="M 253.8 660.512843 
L 292.282759 1681.033435 
L 330.765517 1496.668979 
L 369.248276 1356.821845 
L 407.731034 1313.915348 
L 446.213793 1196.971039 
L 484.696552 1043.965023 
L 523.17931 976.77234 
L 561.662069 847.316824 
L 600.144828 799.263523 
L 638.627586 742.194845 
L 677.110345 717.528432 
L 715.593103 696.408202 
L 754.075862 677.122967 
L 792.558621 673.819654 
L 831.041379 671.919989 
L 869.524138 667.819627 
L 908.006897 665.921221 
L 946.489655 664.153759 
L 984.972414 660.861579 
L 1023.455172 657.929158 
L 1061.937931 656.598187 
L 1100.42069 659.404647 
L 1138.903448 658.850452 
L 1177.386207 656.388899 
L 1215.868966 663.501652 
L 1254.351724 663.481156 
L 1292.834483 665.924509 
L 1331.317241 658.687074 
L 1369.8 661.008372 
" style="fill:none;stroke:#d1aa9f;stroke-dasharray:5.55,2.4;stroke-dashoffset:0;stroke-width:1.5;"/>
   </g>
   <g id="line2d_21">
    <path clip-path="url(#p4f7f4d76fb)" d="M 253.8 554.428847 
L 292.282759 1657.228627 
L 330.765517 1456.462824 
L 369.248276 1300.415315 
L 407.731034 1248.856358 
L 446.213793 1087.594701 
L 484.696552 918.572426 
L 523.17931 872.110513 
L 561.662069 752.28491 
L 600.144828 706.370465 
L 638.627586 666.771078 
L 677.110345 644.655595 
L 715.593103 622.996285 
L 754.075862 603.814717 
L 792.558621 606.515601 
L 831.041379 603.412058 
L 869.524138 597.663732 
L 908.006897 597.019548 
L 946.489655 594.852471 
L 984.972414 593.391663 
L 1023.455172 599.774273 
L 1061.937931 597.752704 
L 1100.42069 592.730073 
L 1138.903448 589.810958 
L 1177.386207 586.209835 
L 1215.868966 581.440668 
L 1254.351724 581.075368 
L 1292.834483 576.382389 
L 1331.317241 584.745052 
L 1369.8 584.473059 
" style="fill:none;stroke:#d1aa9f;stroke-dasharray:5.55,2.4;stroke-dashoffset:0;stroke-width:1.5;"/>
   </g>
   <g id="line2d_22">
    <path clip-path="url(#p4f7f4d76fb)" d="M 253.8 653.771966 
L 292.282759 1471.153629 
L 330.765517 683.855154 
L 369.248276 655.360143 
L 407.731034 653.795324 
L 446.213793 653.541052 
L 484.696552 655.006134 
L 523.17931 656.440227 
L 561.662069 656.156417 
L 600.144828 657.247808 
L 638.627586 655.785551 
L 677.110345 657.956606 
L 715.593103 656.909084 
L 754.075862 658.092041 
L 792.558621 656.820993 
L 831.041379 657.687966 
L 869.524138 654.599564 
L 908.006897 658.497485 
L 946.489655 658.117009 
L 984.972414 657.175288 
L 1023.455172 657.485842 
L 1061.937931 657.156008 
L 1100.42069 657.553497 
L 1138.903448 655.079276 
L 1177.386207 654.434852 
L 1215.868966 656.113019 
L 1254.351724 656.990439 
L 1292.834483 656.324344 
L 1331.317241 655.458844 
L 1369.8 657.046292 
" style="fill:none;stroke:#c54c36;stroke-linecap:square;stroke-width:4;"/>
    <defs>
     <path d="M 0 7.5 
C 1.989023 7.5 3.896849 6.709753 5.303301 5.303301 
C 6.709753 3.896849 7.5 1.989023 7.5 0 
C 7.5 -1.989023 6.709753 -3.896849 5.303301 -5.303301 
C 3.896849 -6.709753 1.989023 -7.5 0 -7.5 
C -1.989023 -7.5 -3.896849 -6.709753 -5.303301 -5.303301 
C -6.709753 -3.896849 -7.5 -1.989023 -7.5 0 
C -7.5 1.989023 -6.709753 3.896849 -5.303301 5.303301 
C -3.896849 6.709753 -1.989023 7.5 0 7.5 
z
" id="m53a7cc0184" style="stroke:#c54c36;"/>
    </defs>
    <g clip-path="url(#p4f7f4d76fb)">
     <use style="fill:#c54c36;stroke:#c54c36;" x="253.8" xlink:href="#m53a7cc0184" y="653.771966"/>
     <use style="fill:#c54c36;stroke:#c54c36;" x="292.282759" xlink:href="#m53a7cc0184" y="1471.153629"/>
     <use style="fill:#c54c36;stroke:#c54c36;" x="330.765517" xlink:href="#m53a7cc0184" y="683.855154"/>
     <use style="fill:#c54c36;stroke:#c54c36;" x="369.248276" xlink:href="#m53a7cc0184" y="655.360143"/>
     <use style="fill:#c54c36;stroke:#c54c36;" x="407.731034" xlink:href="#m53a7cc0184" y="653.795324"/>
     <use style="fill:#c54c36;stroke:#c54c36;" x="446.213793" xlink:href="#m53a7cc0184" y="653.541052"/>
     <use style="fill:#c54c36;stroke:#c54c36;" x="484.696552" xlink:href="#m53a7cc0184" y="655.006134"/>
     <use style="fill:#c54c36;stroke:#c54c36;" x="523.17931" xlink:href="#m53a7cc0184" y="656.440227"/>
     <use style="fill:#c54c36;stroke:#c54c36;" x="561.662069" xlink:href="#m53a7cc0184" y="656.156417"/>
     <use style="fill:#c54c36;stroke:#c54c36;" x="600.144828" xlink:href="#m53a7cc0184" y="657.247808"/>
     <use style="fill:#c54c36;stroke:#c54c36;" x="638.627586" xlink:href="#m53a7cc0184" y="655.785551"/>
     <use style="fill:#c54c36;stroke:#c54c36;" x="677.110345" xlink:href="#m53a7cc0184" y="657.956606"/>
     <use style="fill:#c54c36;stroke:#c54c36;" x="715.593103" xlink:href="#m53a7cc0184" y="656.909084"/>
     <use style="fill:#c54c36;stroke:#c54c36;" x="754.075862" xlink:href="#m53a7cc0184" y="658.092041"/>
     <use style="fill:#c54c36;stroke:#c54c36;" x="792.558621" xlink:href="#m53a7cc0184" y="656.820993"/>
     <use style="fill:#c54c36;stroke:#c54c36;" x="831.041379" xlink:href="#m53a7cc0184" y="657.687966"/>
     <use style="fill:#c54c36;stroke:#c54c36;" x="869.524138" xlink:href="#m53a7cc0184" y="654.599564"/>
     <use style="fill:#c54c36;stroke:#c54c36;" x="908.006897" xlink:href="#m53a7cc0184" y="658.497485"/>
     <use style="fill:#c54c36;stroke:#c54c36;" x="946.489655" xlink:href="#m53a7cc0184" y="658.117009"/>
     <use style="fill:#c54c36;stroke:#c54c36;" x="984.972414" xlink:href="#m53a7cc0184" y="657.175288"/>
     <use style="fill:#c54c36;stroke:#c54c36;" x="1023.455172" xlink:href="#m53a7cc0184" y="657.485842"/>
     <use style="fill:#c54c36;stroke:#c54c36;" x="1061.937931" xlink:href="#m53a7cc0184" y="657.156008"/>
     <use style="fill:#c54c36;stroke:#c54c36;" x="1100.42069" xlink:href="#m53a7cc0184" y="657.553497"/>
     <use style="fill:#c54c36;stroke:#c54c36;" x="1138.903448" xlink:href="#m53a7cc0184" y="655.079276"/>
     <use style="fill:#c54c36;stroke:#c54c36;" x="1177.386207" xlink:href="#m53a7cc0184" y="654.434852"/>
     <use style="fill:#c54c36;stroke:#c54c36;" x="1215.868966" xlink:href="#m53a7cc0184" y="656.113019"/>
     <use style="fill:#c54c36;stroke:#c54c36;" x="1254.351724" xlink:href="#m53a7cc0184" y="656.990439"/>
     <use style="fill:#c54c36;stroke:#c54c36;" x="1292.834483" xlink:href="#m53a7cc0184" y="656.324344"/>
     <use style="fill:#c54c36;stroke:#c54c36;" x="1331.317241" xlink:href="#m53a7cc0184" y="655.458844"/>
     <use style="fill:#c54c36;stroke:#c54c36;" x="1369.8" xlink:href="#m53a7cc0184" y="657.046292"/>
    </g>
   </g>
   <g id="line2d_23">
    <path clip-path="url(#p4f7f4d76fb)" d="M 253.8 670.997002 
L 292.282759 1485.79596 
L 330.765517 712.508747 
L 369.248276 672.541958 
L 407.731034 669.938957 
L 446.213793 672.014229 
L 484.696552 671.791084 
L 523.17931 671.253835 
L 561.662069 671.301166 
L 600.144828 672.266022 
L 638.627586 674.339881 
L 677.110345 671.426194 
L 715.593103 673.780788 
L 754.075862 673.270389 
L 792.558621 672.417416 
L 831.041379 671.328617 
L 869.524138 671.927717 
L 908.006897 673.388715 
L 946.489655 672.233287 
L 984.972414 671.144826 
L 1023.455172 672.460077 
L 1061.937931 671.543737 
L 1100.42069 671.536081 
L 1138.903448 671.36257 
L 1177.386207 672.387132 
L 1215.868966 671.35659 
L 1254.351724 672.204738 
L 1292.834483 673.536272 
L 1331.317241 673.581446 
L 1369.8 672.349401 
" style="fill:none;stroke:#c54c36;stroke-dasharray:5.55,2.4;stroke-dashoffset:0;stroke-width:1.5;"/>
   </g>
   <g id="line2d_24">
    <path clip-path="url(#p4f7f4d76fb)" d="M 253.8 636.546931 
L 292.282759 1456.511298 
L 330.765517 655.201562 
L 369.248276 638.178329 
L 407.731034 637.651691 
L 446.213793 635.067876 
L 484.696552 638.221184 
L 523.17931 641.626618 
L 561.662069 641.011667 
L 600.144828 642.229594 
L 638.627586 637.231221 
L 677.110345 644.487019 
L 715.593103 640.03738 
L 754.075862 642.913694 
L 792.558621 641.22457 
L 831.041379 644.047315 
L 869.524138 637.271411 
L 908.006897 643.606256 
L 946.489655 644.000732 
L 984.972414 643.20575 
L 1023.455172 642.511608 
L 1061.937931 642.768279 
L 1100.42069 643.570912 
L 1138.903448 638.795981 
L 1177.386207 636.482572 
L 1215.868966 640.869448 
L 1254.351724 641.77614 
L 1292.834483 639.112416 
L 1331.317241 637.336242 
L 1369.8 641.743184 
" style="fill:none;stroke:#c54c36;stroke-dasharray:5.55,2.4;stroke-dashoffset:0;stroke-width:1.5;"/>
   </g>
   <g id="line2d_25">
    <path clip-path="url(#p4f7f4d76fb)" d="M 253.8 656.368879 
L 292.282759 657.632371 
L 330.765517 657.332865 
L 369.248276 656.625222 
L 407.731034 657.124314 
L 446.213793 657.041376 
L 484.696552 656.3745 
L 523.17931 656.848476 
L 561.662069 657.449218 
L 600.144828 657.329653 
L 638.627586 657.765113 
L 677.110345 658.075772 
L 715.593103 657.107061 
L 754.075862 658.172553 
L 792.558621 658.966394 
L 831.041379 659.298141 
L 869.524138 658.890192 
L 908.006897 658.425432 
L 946.489655 658.736201 
L 984.972414 659.0168 
L 1023.455172 659.809592 
L 1061.937931 660.781278 
L 1100.42069 660.198093 
L 1138.903448 659.570153 
L 1177.386207 659.272268 
L 1215.868966 659.932485 
L 1254.351724 659.298014 
L 1292.834483 658.738344 
L 1331.317241 657.692391 
L 1369.8 657.175146 
" style="fill:none;stroke:#000000;stroke-linecap:square;stroke-width:4;"/>
    <defs>
     <path d="M 0 7.5 
C 1.989023 7.5 3.896849 6.709753 5.303301 5.303301 
C 6.709753 3.896849 7.5 1.989023 7.5 0 
C 7.5 -1.989023 6.709753 -3.896849 5.303301 -5.303301 
C 3.896849 -6.709753 1.989023 -7.5 0 -7.5 
C -1.989023 -7.5 -3.896849 -6.709753 -5.303301 -5.303301 
C -6.709753 -3.896849 -7.5 -1.989023 -7.5 0 
C -7.5 1.989023 -6.709753 3.896849 -5.303301 5.303301 
C -3.896849 6.709753 -1.989023 7.5 0 7.5 
z
" id="m8bb1bfc5f0" style="stroke:#000000;"/>
    </defs>
    <g clip-path="url(#p4f7f4d76fb)">
     <use style="stroke:#000000;" x="253.8" xlink:href="#m8bb1bfc5f0" y="656.368879"/>
     <use style="stroke:#000000;" x="292.282759" xlink:href="#m8bb1bfc5f0" y="657.632371"/>
     <use style="stroke:#000000;" x="330.765517" xlink:href="#m8bb1bfc5f0" y="657.332865"/>
     <use style="stroke:#000000;" x="369.248276" xlink:href="#m8bb1bfc5f0" y="656.625222"/>
     <use style="stroke:#000000;" x="407.731034" xlink:href="#m8bb1bfc5f0" y="657.124314"/>
     <use style="stroke:#000000;" x="446.213793" xlink:href="#m8bb1bfc5f0" y="657.041376"/>
     <use style="stroke:#000000;" x="484.696552" xlink:href="#m8bb1bfc5f0" y="656.3745"/>
     <use style="stroke:#000000;" x="523.17931" xlink:href="#m8bb1bfc5f0" y="656.848476"/>
     <use style="stroke:#000000;" x="561.662069" xlink:href="#m8bb1bfc5f0" y="657.449218"/>
     <use style="stroke:#000000;" x="600.144828" xlink:href="#m8bb1bfc5f0" y="657.329653"/>
     <use style="stroke:#000000;" x="638.627586" xlink:href="#m8bb1bfc5f0" y="657.765113"/>
     <use style="stroke:#000000;" x="677.110345" xlink:href="#m8bb1bfc5f0" y="658.075772"/>
     <use style="stroke:#000000;" x="715.593103" xlink:href="#m8bb1bfc5f0" y="657.107061"/>
     <use style="stroke:#000000;" x="754.075862" xlink:href="#m8bb1bfc5f0" y="658.172553"/>
     <use style="stroke:#000000;" x="792.558621" xlink:href="#m8bb1bfc5f0" y="658.966394"/>
     <use style="stroke:#000000;" x="831.041379" xlink:href="#m8bb1bfc5f0" y="659.298141"/>
     <use style="stroke:#000000;" x="869.524138" xlink:href="#m8bb1bfc5f0" y="658.890192"/>
     <use style="stroke:#000000;" x="908.006897" xlink:href="#m8bb1bfc5f0" y="658.425432"/>
     <use style="stroke:#000000;" x="946.489655" xlink:href="#m8bb1bfc5f0" y="658.736201"/>
     <use style="stroke:#000000;" x="984.972414" xlink:href="#m8bb1bfc5f0" y="659.0168"/>
     <use style="stroke:#000000;" x="1023.455172" xlink:href="#m8bb1bfc5f0" y="659.809592"/>
     <use style="stroke:#000000;" x="1061.937931" xlink:href="#m8bb1bfc5f0" y="660.781278"/>
     <use style="stroke:#000000;" x="1100.42069" xlink:href="#m8bb1bfc5f0" y="660.198093"/>
     <use style="stroke:#000000;" x="1138.903448" xlink:href="#m8bb1bfc5f0" y="659.570153"/>
     <use style="stroke:#000000;" x="1177.386207" xlink:href="#m8bb1bfc5f0" y="659.272268"/>
     <use style="stroke:#000000;" x="1215.868966" xlink:href="#m8bb1bfc5f0" y="659.932485"/>
     <use style="stroke:#000000;" x="1254.351724" xlink:href="#m8bb1bfc5f0" y="659.298014"/>
     <use style="stroke:#000000;" x="1292.834483" xlink:href="#m8bb1bfc5f0" y="658.738344"/>
     <use style="stroke:#000000;" x="1331.317241" xlink:href="#m8bb1bfc5f0" y="657.692391"/>
     <use style="stroke:#000000;" x="1369.8" xlink:href="#m8bb1bfc5f0" y="657.175146"/>
    </g>
   </g>
   <g id="line2d_26">
    <path clip-path="url(#p4f7f4d76fb)" d="M 253.8 671.735377 
L 292.282759 672.785592 
L 330.765517 672.395162 
L 369.248276 673.75246 
L 407.731034 673.657094 
L 446.213793 673.070053 
L 484.696552 672.336787 
L 523.17931 672.528856 
L 561.662069 672.961563 
L 600.144828 672.504956 
L 638.627586 672.67271 
L 677.110345 672.552236 
L 715.593103 673.474477 
L 754.075862 672.204544 
L 792.558621 672.233166 
L 831.041379 671.95642 
L 869.524138 672.199301 
L 908.006897 671.958383 
L 946.489655 672.074205 
L 984.972414 671.747337 
L 1023.455172 672.226913 
L 1061.937931 672.386748 
L 1100.42069 671.860133 
L 1138.903448 671.642544 
L 1177.386207 671.361349 
L 1215.868966 672.003094 
L 1254.351724 672.196031 
L 1292.834483 672.698485 
L 1331.317241 672.742467 
L 1369.8 674.57917 
" style="fill:none;stroke:#000000;stroke-dasharray:5.55,2.4;stroke-dashoffset:0;stroke-width:1.5;"/>
   </g>
   <g id="line2d_27">
    <path clip-path="url(#p4f7f4d76fb)" d="M 253.8 641.002381 
L 292.282759 642.47915 
L 330.765517 642.270567 
L 369.248276 639.497984 
L 407.731034 640.591534 
L 446.213793 641.0127 
L 484.696552 640.412213 
L 523.17931 641.168096 
L 561.662069 641.936873 
L 600.144828 642.15435 
L 638.627586 642.857515 
L 677.110345 643.599308 
L 715.593103 640.739644 
L 754.075862 644.140563 
L 792.558621 645.699622 
L 831.041379 646.639862 
L 869.524138 645.581083 
L 908.006897 644.892481 
L 946.489655 645.398198 
L 984.972414 646.286262 
L 1023.455172 647.392271 
L 1061.937931 649.175809 
L 1100.42069 648.536053 
L 1138.903448 647.497761 
L 1177.386207 647.183186 
L 1215.868966 647.861876 
L 1254.351724 646.399998 
L 1292.834483 644.778203 
L 1331.317241 642.642315 
L 1369.8 639.771122 
" style="fill:none;stroke:#000000;stroke-dasharray:5.55,2.4;stroke-dashoffset:0;stroke-width:1.5;"/>
   </g>
   <g id="patch_3">
    <path d="M 198 1732.5 
L 198 237.6 
" style="fill:none;stroke:#000000;stroke-linecap:square;stroke-linejoin:miter;stroke-width:0.8;"/>
   </g>
   <g id="patch_4">
    <path d="M 1425.6 1732.5 
L 1425.6 237.6 
" style="fill:none;stroke:#000000;stroke-linecap:square;stroke-linejoin:miter;stroke-width:0.8;"/>
   </g>
   <g id="patch_5">
    <path d="M 198 1732.5 
L 1425.6 1732.5 
" style="fill:none;stroke:#000000;stroke-linecap:square;stroke-linejoin:miter;stroke-width:0.8;"/>
   </g>
   <g id="patch_6">
    <path d="M 198 237.6 
L 1425.6 237.6 
" style="fill:none;stroke:#000000;stroke-linecap:square;stroke-linejoin:miter;stroke-width:0.8;"/>
   </g>
  </g>
 </g>
 <defs>
  <clipPath id="p4f7f4d76fb">
   <rect height="1494.9" width="1227.6" x="198" y="237.6"/>
  </clipPath>
 </defs>
</svg>
