<?xml version="1.0" encoding="utf-8" standalone="no"?>
<!DOCTYPE svg PUBLIC "-//W3C//DTD SVG 1.1//EN"
  "http://www.w3.org/Graphics/SVG/1.1/DTD/svg11.dtd">
<!-- Created with matplotlib (https://matplotlib.org/) -->
<svg height="1980pt" version="1.1" viewBox="0 0 1584 1980" width="1584pt" xmlns="http://www.w3.org/2000/svg" xmlns:xlink="http://www.w3.org/1999/xlink">
 <defs>
  <style type="text/css">
*{stroke-linecap:butt;stroke-linejoin:round;}
  </style>
 </defs>
 <g id="figure_1">
  <g id="patch_1">
   <path d="M 0 1980 
L 1584 1980 
L 1584 0 
L 0 0 
z
" style="fill:#ffffff;"/>
  </g>
  <g id="axes_1">
   <g id="patch_2">
    <path d="M 198 1732.5 
L 1425.6 1732.5 
L 1425.6 237.6 
L 198 237.6 
z
" style="fill:#ffffff;"/>
   </g>
   <g id="PolyCollection_1">
    <defs>
     <path d="M 253.8 -274.748435 
L 253.8 -242.579338 
L 292.282759 -1546.090804 
L 330.765517 -1412.990647 
L 369.248276 -1269.731442 
L 407.731034 -1245.429606 
L 446.213793 -1147.530592 
L 484.696552 -991.998269 
L 523.17931 -716.202896 
L 561.662069 -657.487342 
L 600.144828 -404.178503 
L 638.627586 -364.698193 
L 677.110345 -319.29177 
L 715.593103 -255.645258 
L 754.075862 -242.663252 
L 792.558621 -242.228052 
L 831.041379 -241.741151 
L 869.524138 -246.034274 
L 908.006897 -238.865482 
L 946.489655 -243.283632 
L 984.972414 -244.323244 
L 1023.455172 -244.852533 
L 1061.937931 -244.257349 
L 1100.42069 -244.006086 
L 1138.903448 -243.821076 
L 1177.386207 -240.154719 
L 1215.868966 -244.401615 
L 1254.351724 -244.653555 
L 1292.834483 -241.382482 
L 1331.317241 -243.135702 
L 1369.8 -243.766612 
L 1369.8 -275.758039 
L 1369.8 -275.758039 
L 1331.317241 -275.407173 
L 1292.834483 -274.315259 
L 1254.351724 -275.274657 
L 1215.868966 -272.215001 
L 1177.386207 -282.039309 
L 1138.903448 -280.028375 
L 1100.42069 -275.553741 
L 1061.937931 -274.072603 
L 1023.455172 -273.902339 
L 984.972414 -277.067765 
L 946.489655 -286.531927 
L 908.006897 -286.322002 
L 869.524138 -280.875253 
L 831.041379 -287.529293 
L 792.558621 -290.456739 
L 754.075862 -310.442341 
L 715.593103 -366.01416 
L 677.110345 -480.952341 
L 638.627586 -529.365434 
L 600.144828 -576.72559 
L 561.662069 -847.785451 
L 523.17931 -917.278507 
L 484.696552 -1201.030931 
L 446.213793 -1297.984926 
L 407.731034 -1362.405562 
L 369.248276 -1365.519357 
L 330.765517 -1458.577135 
L 292.282759 -1559.618382 
L 253.8 -274.748435 
z
" id="m12819fea74" style="stroke:#74c265;stroke-opacity:0.2;"/>
    </defs>
    <g clip-path="url(#p0323754a00)">
     <use style="fill:#74c265;fill-opacity:0.2;stroke:#74c265;stroke-opacity:0.2;" x="0" xlink:href="#m12819fea74" y="1980"/>
    </g>
   </g>
   <g id="PolyCollection_2">
    <defs>
     <path d="M 253.8 -284.417611 
L 253.8 -239.277039 
L 292.282759 -747.813083 
L 330.765517 -1413.619774 
L 369.248276 -1523.591962 
L 407.731034 -1396.084515 
L 446.213793 -1136.197602 
L 484.696552 -878.034655 
L 523.17931 -673.426611 
L 561.662069 -529.338656 
L 600.144828 -431.058167 
L 638.627586 -360.209015 
L 677.110345 -308.292162 
L 715.593103 -256.401723 
L 754.075862 -245.130981 
L 792.558621 -240.583393 
L 831.041379 -236.356138 
L 869.524138 -244.20635 
L 908.006897 -243.561165 
L 946.489655 -244.00463 
L 984.972414 -243.57545 
L 1023.455172 -246.70951 
L 1061.937931 -244.625647 
L 1100.42069 -243.573907 
L 1138.903448 -240.04304 
L 1177.386207 -240.988033 
L 1215.868966 -244.405489 
L 1254.351724 -243.916206 
L 1292.834483 -244.833657 
L 1331.317241 -242.453721 
L 1369.8 -240.982918 
L 1369.8 -275.589509 
L 1369.8 -275.589509 
L 1331.317241 -280.636646 
L 1292.834483 -280.732849 
L 1254.351724 -279.403606 
L 1215.868966 -272.147554 
L 1177.386207 -280.980242 
L 1138.903448 -280.93551 
L 1100.42069 -278.966393 
L 1061.937931 -277.001281 
L 1023.455172 -275.416193 
L 984.972414 -281.209944 
L 946.489655 -283.083721 
L 908.006897 -282.601507 
L 869.524138 -278.081952 
L 831.041379 -300.84044 
L 792.558621 -308.078232 
L 754.075862 -331.285908 
L 715.593103 -373.359366 
L 677.110345 -462.767851 
L 638.627586 -552.059882 
L 600.144828 -623.142013 
L 561.662069 -723.519946 
L 523.17931 -897.669379 
L 484.696552 -1092.140385 
L 446.213793 -1283.365727 
L 407.731034 -1455.414808 
L 369.248276 -1545.191287 
L 330.765517 -1460.757315 
L 292.282759 -941.364977 
L 253.8 -284.417611 
z
" id="m9d40eb1540" style="stroke:#ff9933;stroke-opacity:0.2;"/>
    </defs>
    <g clip-path="url(#p0323754a00)">
     <use style="fill:#ff9933;fill-opacity:0.2;stroke:#ff9933;stroke-opacity:0.2;" x="0" xlink:href="#m9d40eb1540" y="1980"/>
    </g>
   </g>
   <g id="PolyCollection_3">
    <defs>
     <path d="M 253.8 -271.97899 
L 253.8 -244.616192 
L 292.282759 -1600.102534 
L 330.765517 -1519.779567 
L 369.248276 -1391.458122 
L 407.731034 -1333.124177 
L 446.213793 -1126.853404 
L 484.696552 -826.532405 
L 523.17931 -734.858097 
L 561.662069 -477.297587 
L 600.144828 -368.796767 
L 638.627586 -283.163347 
L 677.110345 -257.493796 
L 715.593103 -245.853671 
L 754.075862 -243.055983 
L 792.558621 -242.592086 
L 831.041379 -242.40735 
L 869.524138 -243.72022 
L 908.006897 -244.976965 
L 946.489655 -245.867257 
L 984.972414 -243.81974 
L 1023.455172 -244.070149 
L 1061.937931 -244.079961 
L 1100.42069 -243.701763 
L 1138.903448 -242.38398 
L 1177.386207 -241.35801 
L 1215.868966 -243.837873 
L 1254.351724 -243.290963 
L 1292.834483 -243.675379 
L 1331.317241 -243.489751 
L 1369.8 -243.727629 
L 1369.8 -279.240154 
L 1369.8 -279.240154 
L 1331.317241 -277.718197 
L 1292.834483 -278.887721 
L 1254.351724 -279.818765 
L 1215.868966 -273.488558 
L 1177.386207 -278.960721 
L 1138.903448 -277.475705 
L 1100.42069 -273.924857 
L 1061.937931 -272.624028 
L 1023.455172 -274.706468 
L 984.972414 -280.754616 
L 946.489655 -277.042375 
L 908.006897 -275.617422 
L 869.524138 -281.334724 
L 831.041379 -285.688028 
L 792.558621 -285.843748 
L 754.075862 -295.684162 
L 715.593103 -331.68023 
L 677.110345 -375.06303 
L 638.627586 -437.523467 
L 600.144828 -569.787419 
L 561.662069 -676.681374 
L 523.17931 -949.202901 
L 484.696552 -1069.240455 
L 446.213793 -1278.73607 
L 407.731034 -1401.891858 
L 369.248276 -1442.931518 
L 330.765517 -1542.788201 
L 292.282759 -1603.769855 
L 253.8 -271.97899 
z
" id="md4582eb970" style="stroke:#d1aa9f;stroke-opacity:0.2;"/>
    </defs>
    <g clip-path="url(#p0323754a00)">
     <use style="fill:#d1aa9f;fill-opacity:0.2;stroke:#d1aa9f;stroke-opacity:0.2;" x="0" xlink:href="#md4582eb970" y="1980"/>
    </g>
   </g>
   <g id="PolyCollection_4">
    <defs>
     <path d="M 253.8 -283.933701 
L 253.8 -243.384743 
L 292.282759 -1518.915824 
L 330.765517 -272.597908 
L 369.248276 -230.827808 
L 407.731034 -237.474499 
L 446.213793 -237.832161 
L 484.696552 -243.260217 
L 523.17931 -243.709837 
L 561.662069 -243.542213 
L 600.144828 -241.735086 
L 638.627586 -243.675338 
L 677.110345 -245.315269 
L 715.593103 -241.276459 
L 754.075862 -239.958015 
L 792.558621 -243.990467 
L 831.041379 -244.122443 
L 869.524138 -241.904478 
L 908.006897 -240.457886 
L 946.489655 -241.199299 
L 984.972414 -238.323419 
L 1023.455172 -244.411338 
L 1061.937931 -243.298749 
L 1100.42069 -242.145842 
L 1138.903448 -242.604629 
L 1177.386207 -240.449123 
L 1215.868966 -243.353228 
L 1254.351724 -242.100677 
L 1292.834483 -245.000266 
L 1331.317241 -245.207436 
L 1369.8 -242.66653 
L 1369.8 -273.625741 
L 1369.8 -273.625741 
L 1331.317241 -275.398828 
L 1292.834483 -273.63974 
L 1254.351724 -280.548239 
L 1215.868966 -277.652267 
L 1177.386207 -285.027693 
L 1138.903448 -279.424344 
L 1100.42069 -277.272548 
L 1061.937931 -279.310143 
L 1023.455172 -278.131969 
L 984.972414 -284.966278 
L 946.489655 -276.434796 
L 908.006897 -283.52941 
L 869.524138 -272.700448 
L 831.041379 -278.256425 
L 792.558621 -274.682635 
L 754.075862 -289.666843 
L 715.593103 -284.367993 
L 677.110345 -276.038082 
L 638.627586 -288.147409 
L 600.144828 -279.891793 
L 561.662069 -279.547652 
L 523.17931 -278.212771 
L 484.696552 -281.095105 
L 446.213793 -291.921598 
L 407.731034 -290.320563 
L 369.248276 -309.402049 
L 330.765517 -405.010599 
L 292.282759 -1537.718624 
L 253.8 -283.933701 
z
" id="m42ca6da219" style="stroke:#c54c36;stroke-opacity:0.2;"/>
    </defs>
    <g clip-path="url(#p0323754a00)">
     <use style="fill:#c54c36;fill-opacity:0.2;stroke:#c54c36;stroke-opacity:0.2;" x="0" xlink:href="#m42ca6da219" y="1980"/>
    </g>
   </g>
   <g id="PolyCollection_5">
    <defs>
     <path d="M 253.8 -559.266979 
L 253.8 -223.272674 
L 292.282759 -322.599774 
L 330.765517 -345.967764 
L 369.248276 -306.33026 
L 407.731034 -294.661711 
L 446.213793 -271.550049 
L 484.696552 -253.852698 
L 523.17931 -243.488992 
L 561.662069 -236.224229 
L 600.144828 -233.060477 
L 638.627586 -241.580231 
L 677.110345 -241.616537 
L 715.593103 -242.730707 
L 754.075862 -243.942734 
L 792.558621 -242.639163 
L 831.041379 -245.737342 
L 869.524138 -243.132459 
L 908.006897 -241.417581 
L 946.489655 -242.196002 
L 984.972414 -242.788899 
L 1023.455172 -244.722212 
L 1061.937931 -245.129587 
L 1100.42069 -245.328998 
L 1138.903448 -245.822687 
L 1177.386207 -242.27287 
L 1215.868966 -240.614078 
L 1254.351724 -240.462652 
L 1292.834483 -244.439012 
L 1331.317241 -242.076011 
L 1369.8 -242.620027 
L 1369.8 -276.595129 
L 1369.8 -276.595129 
L 1331.317241 -276.190315 
L 1292.834483 -277.72803 
L 1254.351724 -279.922803 
L 1215.868966 -281.337243 
L 1177.386207 -279.656954 
L 1138.903448 -274.268545 
L 1100.42069 -271.901026 
L 1061.937931 -274.276139 
L 1023.455172 -272.478039 
L 984.972414 -277.463135 
L 946.489655 -273.549998 
L 908.006897 -279.417559 
L 869.524138 -278.827012 
L 831.041379 -274.978043 
L 792.558621 -284.52938 
L 754.075862 -281.059321 
L 715.593103 -286.885362 
L 677.110345 -295.292313 
L 638.627586 -301.556425 
L 600.144828 -330.204162 
L 561.662069 -355.619434 
L 523.17931 -372.806648 
L 484.696552 -402.583366 
L 446.213793 -433.726289 
L 407.731034 -467.620022 
L 369.248276 -512.286311 
L 330.765517 -587.057076 
L 292.282759 -599.208476 
L 253.8 -559.266979 
z
" id="m4ba57b0d78" style="stroke:#000000;stroke-opacity:0.2;"/>
    </defs>
    <g clip-path="url(#p0323754a00)">
     <use style="fill-opacity:0.2;stroke:#000000;stroke-opacity:0.2;" x="0" xlink:href="#m4ba57b0d78" y="1980"/>
    </g>
   </g>
   <g id="matplotlib.axis_1">
    <g id="xtick_1">
     <g id="line2d_1">
      <defs>
       <path d="M 0 7 
L 0 -7 
" id="md96ced4047" style="stroke:#000000;stroke-width:3.5;"/>
      </defs>
      <g>
       <use style="stroke:#000000;stroke-width:3.5;" x="253.8" xlink:href="#md96ced4047" y="1732.5"/>
      </g>
     </g>
     <g id="text_1">
      <!-- 0 -->
      <defs>
       <path d="M 31.78125 3.421875 
Q 39.265625 3.421875 42.96875 11.625 
Q 46.6875 19.828125 46.6875 36.375 
Q 46.6875 52.984375 42.96875 61.1875 
Q 39.265625 69.390625 31.78125 69.390625 
Q 24.3125 69.390625 20.59375 61.1875 
Q 16.890625 52.984375 16.890625 36.375 
Q 16.890625 19.828125 20.59375 11.625 
Q 24.3125 3.421875 31.78125 3.421875 
z
M 31.78125 -1.421875 
Q 19.921875 -1.421875 13.25 8.53125 
Q 6.59375 18.5 6.59375 36.375 
Q 6.59375 54.296875 13.25 64.25 
Q 19.921875 74.21875 31.78125 74.21875 
Q 43.703125 74.21875 50.34375 64.25 
Q 56.984375 54.296875 56.984375 36.375 
Q 56.984375 18.5 50.34375 8.53125 
Q 43.703125 -1.421875 31.78125 -1.421875 
z
" id="DejaVuSerif-48"/>
      </defs>
      <g transform="translate(233.121875 1792.389844)scale(0.65 -0.65)">
       <use xlink:href="#DejaVuSerif-48"/>
      </g>
     </g>
    </g>
    <g id="xtick_2">
     <g id="line2d_2">
      <g>
       <use style="stroke:#000000;stroke-width:3.5;" x="638.627586" xlink:href="#md96ced4047" y="1732.5"/>
      </g>
     </g>
     <g id="text_2">
      <!-- 10 -->
      <defs>
       <path d="M 14.203125 0 
L 14.203125 5.171875 
L 26.90625 5.171875 
L 26.90625 65.828125 
L 12.203125 56.296875 
L 12.203125 62.703125 
L 29.984375 74.21875 
L 36.71875 74.21875 
L 36.71875 5.171875 
L 49.421875 5.171875 
L 49.421875 0 
z
" id="DejaVuSerif-49"/>
      </defs>
      <g transform="translate(597.271336 1792.389844)scale(0.65 -0.65)">
       <use xlink:href="#DejaVuSerif-49"/>
       <use x="63.623047" xlink:href="#DejaVuSerif-48"/>
      </g>
     </g>
    </g>
    <g id="xtick_3">
     <g id="line2d_3">
      <g>
       <use style="stroke:#000000;stroke-width:3.5;" x="1023.455172" xlink:href="#md96ced4047" y="1732.5"/>
      </g>
     </g>
     <g id="text_3">
      <!-- 20 -->
      <defs>
       <path d="M 12.796875 55.515625 
L 7.328125 55.515625 
L 7.328125 68.5 
Q 12.546875 71.296875 17.84375 72.75 
Q 23.140625 74.21875 28.21875 74.21875 
Q 39.59375 74.21875 46.1875 68.703125 
Q 52.78125 63.1875 52.78125 53.71875 
Q 52.78125 43.015625 37.84375 28.125 
Q 36.671875 27 36.078125 26.421875 
L 17.671875 8.015625 
L 48.09375 8.015625 
L 48.09375 17 
L 53.8125 17 
L 53.8125 0 
L 6.78125 0 
L 6.78125 5.328125 
L 28.90625 27.390625 
Q 36.234375 34.71875 39.359375 40.84375 
Q 42.484375 46.96875 42.484375 53.71875 
Q 42.484375 61.078125 38.640625 65.234375 
Q 34.8125 69.390625 28.078125 69.390625 
Q 21.09375 69.390625 17.28125 65.921875 
Q 13.484375 62.453125 12.796875 55.515625 
z
" id="DejaVuSerif-50"/>
      </defs>
      <g transform="translate(982.098922 1792.389844)scale(0.65 -0.65)">
       <use xlink:href="#DejaVuSerif-50"/>
       <use x="63.623047" xlink:href="#DejaVuSerif-48"/>
      </g>
     </g>
    </g>
    <g id="xtick_4">
     <g id="line2d_4">
      <g>
       <use style="stroke:#000000;stroke-width:3.5;" x="1408.282759" xlink:href="#md96ced4047" y="1732.5"/>
      </g>
     </g>
     <g id="text_4">
      <!-- 30 -->
      <defs>
       <path d="M 9.71875 69.828125 
Q 15.4375 71.96875 20.671875 73.09375 
Q 25.921875 74.21875 30.515625 74.21875 
Q 41.21875 74.21875 47.21875 69.59375 
Q 53.21875 64.984375 53.21875 56.78125 
Q 53.21875 50.203125 49.0625 45.78125 
Q 44.921875 41.359375 37.3125 39.796875 
Q 46.296875 38.53125 51.25 33.28125 
Q 56.203125 28.03125 56.203125 19.671875 
Q 56.203125 9.46875 49.34375 4.015625 
Q 42.484375 -1.421875 29.59375 -1.421875 
Q 23.875 -1.421875 18.421875 -0.1875 
Q 12.984375 1.03125 7.625 3.515625 
L 7.625 17.671875 
L 13.09375 17.671875 
Q 13.578125 10.640625 17.828125 7.03125 
Q 22.078125 3.421875 29.78125 3.421875 
Q 37.25 3.421875 41.578125 7.734375 
Q 45.90625 12.0625 45.90625 19.578125 
Q 45.90625 28.171875 41.453125 32.59375 
Q 37.015625 37.015625 28.421875 37.015625 
L 23.78125 37.015625 
L 23.78125 42 
L 26.21875 42 
Q 34.765625 42 39.03125 45.53125 
Q 43.3125 49.078125 43.3125 56.203125 
Q 43.3125 62.59375 39.796875 65.984375 
Q 36.28125 69.390625 29.6875 69.390625 
Q 23.09375 69.390625 19.453125 66.265625 
Q 15.828125 63.140625 15.1875 56.984375 
L 9.71875 56.984375 
z
" id="DejaVuSerif-51"/>
      </defs>
      <g transform="translate(1366.926509 1792.389844)scale(0.65 -0.65)">
       <use xlink:href="#DejaVuSerif-51"/>
       <use x="63.623047" xlink:href="#DejaVuSerif-48"/>
      </g>
     </g>
    </g>
   </g>
   <g id="matplotlib.axis_2">
    <g id="ytick_1">
     <g id="line2d_5">
      <defs>
       <path d="M 7 0 
L -7 -0 
" id="me0497a0d43" style="stroke:#000000;stroke-width:3.5;"/>
      </defs>
      <g>
       <use style="stroke:#000000;stroke-width:3.5;" x="198" xlink:href="#me0497a0d43" y="1732.5"/>
      </g>
     </g>
     <g id="text_5">
      <!-- 0.0 -->
      <defs>
       <path d="M 9.421875 5.078125 
Q 9.421875 7.8125 11.28125 9.71875 
Q 13.140625 11.625 15.921875 11.625 
Q 18.609375 11.625 20.5 9.71875 
Q 22.40625 7.8125 22.40625 5.078125 
Q 22.40625 2.390625 20.5 0.484375 
Q 18.609375 -1.421875 15.921875 -1.421875 
Q 13.140625 -1.421875 11.28125 0.453125 
Q 9.421875 2.34375 9.421875 5.078125 
z
" id="DejaVuSerif-46"/>
      </defs>
      <g transform="translate(84.129688 1757.194922)scale(0.65 -0.65)">
       <use xlink:href="#DejaVuSerif-48"/>
       <use x="63.623047" xlink:href="#DejaVuSerif-46"/>
       <use x="95.410156" xlink:href="#DejaVuSerif-48"/>
      </g>
     </g>
    </g>
    <g id="ytick_2">
     <g id="line2d_6">
      <g>
       <use style="stroke:#000000;stroke-width:3.5;" x="198" xlink:href="#me0497a0d43" y="1460.7"/>
      </g>
     </g>
     <g id="text_6">
      <!-- 0.2 -->
      <g transform="translate(84.129688 1485.394922)scale(0.65 -0.65)">
       <use xlink:href="#DejaVuSerif-48"/>
       <use x="63.623047" xlink:href="#DejaVuSerif-46"/>
       <use x="95.410156" xlink:href="#DejaVuSerif-50"/>
      </g>
     </g>
    </g>
    <g id="ytick_3">
     <g id="line2d_7">
      <g>
       <use style="stroke:#000000;stroke-width:3.5;" x="198" xlink:href="#me0497a0d43" y="1188.9"/>
      </g>
     </g>
     <g id="text_7">
      <!-- 0.4 -->
      <defs>
       <path d="M 34.90625 24.703125 
L 34.90625 63.484375 
L 10.015625 24.703125 
z
M 56.390625 0 
L 23.1875 0 
L 23.1875 5.171875 
L 34.90625 5.171875 
L 34.90625 19.484375 
L 3.078125 19.484375 
L 3.078125 24.8125 
L 35.015625 74.21875 
L 44.671875 74.21875 
L 44.671875 24.703125 
L 58.59375 24.703125 
L 58.59375 19.484375 
L 44.671875 19.484375 
L 44.671875 5.171875 
L 56.390625 5.171875 
z
" id="DejaVuSerif-52"/>
      </defs>
      <g transform="translate(84.129688 1213.594922)scale(0.65 -0.65)">
       <use xlink:href="#DejaVuSerif-48"/>
       <use x="63.623047" xlink:href="#DejaVuSerif-46"/>
       <use x="95.410156" xlink:href="#DejaVuSerif-52"/>
      </g>
     </g>
    </g>
    <g id="ytick_4">
     <g id="line2d_8">
      <g>
       <use style="stroke:#000000;stroke-width:3.5;" x="198" xlink:href="#me0497a0d43" y="917.1"/>
      </g>
     </g>
     <g id="text_8">
      <!-- 0.6 -->
      <defs>
       <path d="M 32.71875 3.421875 
Q 39.59375 3.421875 43.296875 8.46875 
Q 47.015625 13.53125 47.015625 23 
Q 47.015625 32.46875 43.296875 37.515625 
Q 39.59375 42.578125 32.71875 42.578125 
Q 25.734375 42.578125 22.0625 37.6875 
Q 18.40625 32.8125 18.40625 23.578125 
Q 18.40625 13.875 22.109375 8.640625 
Q 25.828125 3.421875 32.71875 3.421875 
z
M 16.796875 40.140625 
Q 20.125 43.796875 24.3125 45.59375 
Q 28.515625 47.40625 33.796875 47.40625 
Q 44.671875 47.40625 51 40.859375 
Q 57.328125 34.328125 57.328125 23 
Q 57.328125 11.921875 50.515625 5.25 
Q 43.703125 -1.421875 32.328125 -1.421875 
Q 19.96875 -1.421875 13.328125 7.78125 
Q 6.6875 17 6.6875 34.078125 
Q 6.6875 53.21875 14.546875 63.71875 
Q 22.40625 74.21875 36.71875 74.21875 
Q 40.578125 74.21875 44.828125 73.484375 
Q 49.078125 72.75 53.515625 71.296875 
L 53.515625 59.28125 
L 48 59.28125 
Q 47.40625 64.203125 44.234375 66.796875 
Q 41.0625 69.390625 35.6875 69.390625 
Q 26.21875 69.390625 21.578125 62.203125 
Q 16.9375 55.03125 16.796875 40.140625 
z
" id="DejaVuSerif-54"/>
      </defs>
      <g transform="translate(84.129688 941.794922)scale(0.65 -0.65)">
       <use xlink:href="#DejaVuSerif-48"/>
       <use x="63.623047" xlink:href="#DejaVuSerif-46"/>
       <use x="95.410156" xlink:href="#DejaVuSerif-54"/>
      </g>
     </g>
    </g>
    <g id="ytick_5">
     <g id="line2d_9">
      <g>
       <use style="stroke:#000000;stroke-width:3.5;" x="198" xlink:href="#me0497a0d43" y="645.3"/>
      </g>
     </g>
     <g id="text_9">
      <!-- 0.8 -->
      <defs>
       <path d="M 46.578125 19.921875 
Q 46.578125 27.734375 42.6875 32.046875 
Q 38.8125 36.375 31.78125 36.375 
Q 24.75 36.375 20.875 32.046875 
Q 17 27.734375 17 19.921875 
Q 17 12.0625 20.875 7.734375 
Q 24.75 3.421875 31.78125 3.421875 
Q 38.8125 3.421875 42.6875 7.734375 
Q 46.578125 12.0625 46.578125 19.921875 
z
M 44.578125 55.328125 
Q 44.578125 61.96875 41.203125 65.671875 
Q 37.84375 69.390625 31.78125 69.390625 
Q 25.78125 69.390625 22.390625 65.671875 
Q 19 61.96875 19 55.328125 
Q 19 48.640625 22.390625 44.921875 
Q 25.78125 41.21875 31.78125 41.21875 
Q 37.84375 41.21875 41.203125 44.921875 
Q 44.578125 48.640625 44.578125 55.328125 
z
M 39.3125 38.8125 
Q 47.609375 37.703125 52.25 32.6875 
Q 56.890625 27.6875 56.890625 19.921875 
Q 56.890625 9.671875 50.390625 4.125 
Q 43.890625 -1.421875 31.78125 -1.421875 
Q 19.734375 -1.421875 13.203125 4.125 
Q 6.6875 9.671875 6.6875 19.921875 
Q 6.6875 27.6875 11.328125 32.6875 
Q 15.96875 37.703125 24.3125 38.8125 
Q 16.9375 40.140625 13 44.40625 
Q 9.078125 48.6875 9.078125 55.328125 
Q 9.078125 64.109375 15.125 69.15625 
Q 21.1875 74.21875 31.78125 74.21875 
Q 42.390625 74.21875 48.4375 69.15625 
Q 54.5 64.109375 54.5 55.328125 
Q 54.5 48.6875 50.5625 44.40625 
Q 46.625 40.140625 39.3125 38.8125 
z
" id="DejaVuSerif-56"/>
      </defs>
      <g transform="translate(84.129688 669.994922)scale(0.65 -0.65)">
       <use xlink:href="#DejaVuSerif-48"/>
       <use x="63.623047" xlink:href="#DejaVuSerif-46"/>
       <use x="95.410156" xlink:href="#DejaVuSerif-56"/>
      </g>
     </g>
    </g>
    <g id="ytick_6">
     <g id="line2d_10">
      <g>
       <use style="stroke:#000000;stroke-width:3.5;" x="198" xlink:href="#me0497a0d43" y="373.5"/>
      </g>
     </g>
     <g id="text_10">
      <!-- 1.0 -->
      <g transform="translate(84.129688 398.194922)scale(0.65 -0.65)">
       <use xlink:href="#DejaVuSerif-49"/>
       <use x="63.623047" xlink:href="#DejaVuSerif-46"/>
       <use x="95.410156" xlink:href="#DejaVuSerif-48"/>
      </g>
     </g>
    </g>
   </g>
   <g id="line2d_11">
    <path clip-path="url(#p0323754a00)" d="M 253.8 1721.336113 
L 292.282759 427.145407 
L 330.765517 544.216109 
L 369.248276 662.374601 
L 407.731034 676.082416 
L 446.213793 757.242241 
L 484.696552 883.4854 
L 523.17931 1163.259298 
L 561.662069 1227.363604 
L 600.144828 1489.547953 
L 638.627586 1532.968187 
L 677.110345 1579.877944 
L 715.593103 1669.170291 
L 754.075862 1703.447204 
L 792.558621 1713.657605 
L 831.041379 1715.364778 
L 869.524138 1716.545237 
L 908.006897 1717.406258 
L 946.489655 1715.092221 
L 984.972414 1719.304495 
L 1023.455172 1720.622564 
L 1061.937931 1720.835024 
L 1100.42069 1720.220087 
L 1138.903448 1718.075274 
L 1177.386207 1718.902986 
L 1215.868966 1721.691692 
L 1254.351724 1720.035894 
L 1292.834483 1722.15113 
L 1331.317241 1720.728563 
L 1369.8 1720.237675 
" style="fill:none;stroke:#74c265;stroke-linecap:square;stroke-width:4;"/>
    <defs>
     <path d="M 0 7.5 
C 1.989023 7.5 3.896849 6.709753 5.303301 5.303301 
C 6.709753 3.896849 7.5 1.989023 7.5 0 
C 7.5 -1.989023 6.709753 -3.896849 5.303301 -5.303301 
C 3.896849 -6.709753 1.989023 -7.5 0 -7.5 
C -1.989023 -7.5 -3.896849 -6.709753 -5.303301 -5.303301 
C -6.709753 -3.896849 -7.5 -1.989023 -7.5 0 
C -7.5 1.989023 -6.709753 3.896849 -5.303301 5.303301 
C -3.896849 6.709753 -1.989023 7.5 0 7.5 
z
" id="md67b817b90" style="stroke:#74c265;"/>
    </defs>
    <g clip-path="url(#p0323754a00)">
     <use style="fill:#74c265;stroke:#74c265;" x="253.8" xlink:href="#md67b817b90" y="1721.336113"/>
     <use style="fill:#74c265;stroke:#74c265;" x="292.282759" xlink:href="#md67b817b90" y="427.145407"/>
     <use style="fill:#74c265;stroke:#74c265;" x="330.765517" xlink:href="#md67b817b90" y="544.216109"/>
     <use style="fill:#74c265;stroke:#74c265;" x="369.248276" xlink:href="#md67b817b90" y="662.374601"/>
     <use style="fill:#74c265;stroke:#74c265;" x="407.731034" xlink:href="#md67b817b90" y="676.082416"/>
     <use style="fill:#74c265;stroke:#74c265;" x="446.213793" xlink:href="#md67b817b90" y="757.242241"/>
     <use style="fill:#74c265;stroke:#74c265;" x="484.696552" xlink:href="#md67b817b90" y="883.4854"/>
     <use style="fill:#74c265;stroke:#74c265;" x="523.17931" xlink:href="#md67b817b90" y="1163.259298"/>
     <use style="fill:#74c265;stroke:#74c265;" x="561.662069" xlink:href="#md67b817b90" y="1227.363604"/>
     <use style="fill:#74c265;stroke:#74c265;" x="600.144828" xlink:href="#md67b817b90" y="1489.547953"/>
     <use style="fill:#74c265;stroke:#74c265;" x="638.627586" xlink:href="#md67b817b90" y="1532.968187"/>
     <use style="fill:#74c265;stroke:#74c265;" x="677.110345" xlink:href="#md67b817b90" y="1579.877944"/>
     <use style="fill:#74c265;stroke:#74c265;" x="715.593103" xlink:href="#md67b817b90" y="1669.170291"/>
     <use style="fill:#74c265;stroke:#74c265;" x="754.075862" xlink:href="#md67b817b90" y="1703.447204"/>
     <use style="fill:#74c265;stroke:#74c265;" x="792.558621" xlink:href="#md67b817b90" y="1713.657605"/>
     <use style="fill:#74c265;stroke:#74c265;" x="831.041379" xlink:href="#md67b817b90" y="1715.364778"/>
     <use style="fill:#74c265;stroke:#74c265;" x="869.524138" xlink:href="#md67b817b90" y="1716.545237"/>
     <use style="fill:#74c265;stroke:#74c265;" x="908.006897" xlink:href="#md67b817b90" y="1717.406258"/>
     <use style="fill:#74c265;stroke:#74c265;" x="946.489655" xlink:href="#md67b817b90" y="1715.092221"/>
     <use style="fill:#74c265;stroke:#74c265;" x="984.972414" xlink:href="#md67b817b90" y="1719.304495"/>
     <use style="fill:#74c265;stroke:#74c265;" x="1023.455172" xlink:href="#md67b817b90" y="1720.622564"/>
     <use style="fill:#74c265;stroke:#74c265;" x="1061.937931" xlink:href="#md67b817b90" y="1720.835024"/>
     <use style="fill:#74c265;stroke:#74c265;" x="1100.42069" xlink:href="#md67b817b90" y="1720.220087"/>
     <use style="fill:#74c265;stroke:#74c265;" x="1138.903448" xlink:href="#md67b817b90" y="1718.075274"/>
     <use style="fill:#74c265;stroke:#74c265;" x="1177.386207" xlink:href="#md67b817b90" y="1718.902986"/>
     <use style="fill:#74c265;stroke:#74c265;" x="1215.868966" xlink:href="#md67b817b90" y="1721.691692"/>
     <use style="fill:#74c265;stroke:#74c265;" x="1254.351724" xlink:href="#md67b817b90" y="1720.035894"/>
     <use style="fill:#74c265;stroke:#74c265;" x="1292.834483" xlink:href="#md67b817b90" y="1722.15113"/>
     <use style="fill:#74c265;stroke:#74c265;" x="1331.317241" xlink:href="#md67b817b90" y="1720.728563"/>
     <use style="fill:#74c265;stroke:#74c265;" x="1369.8" xlink:href="#md67b817b90" y="1720.237675"/>
    </g>
   </g>
   <g id="line2d_12">
    <path clip-path="url(#p0323754a00)" d="M 253.8 1737.420662 
L 292.282759 433.909196 
L 330.765517 567.009353 
L 369.248276 710.268558 
L 407.731034 734.570394 
L 446.213793 832.469408 
L 484.696552 988.001731 
L 523.17931 1263.797104 
L 561.662069 1322.512658 
L 600.144828 1575.821497 
L 638.627586 1615.301807 
L 677.110345 1660.70823 
L 715.593103 1724.354742 
L 754.075862 1737.336748 
L 792.558621 1737.771948 
L 831.041379 1738.258849 
L 869.524138 1733.965726 
L 908.006897 1741.134518 
L 946.489655 1736.716368 
L 984.972414 1735.676756 
L 1023.455172 1735.147467 
L 1061.937931 1735.742651 
L 1100.42069 1735.993914 
L 1138.903448 1736.178924 
L 1177.386207 1739.845281 
L 1215.868966 1735.598385 
L 1254.351724 1735.346445 
L 1292.834483 1738.617518 
L 1331.317241 1736.864298 
L 1369.8 1736.233388 
" style="fill:none;stroke:#74c265;stroke-dasharray:5.55,2.4;stroke-dashoffset:0;stroke-width:1.5;"/>
   </g>
   <g id="line2d_13">
    <path clip-path="url(#p0323754a00)" d="M 253.8 1705.251565 
L 292.282759 420.381618 
L 330.765517 521.422865 
L 369.248276 614.480643 
L 407.731034 617.594438 
L 446.213793 682.015074 
L 484.696552 778.969069 
L 523.17931 1062.721493 
L 561.662069 1132.214549 
L 600.144828 1403.27441 
L 638.627586 1450.634566 
L 677.110345 1499.047659 
L 715.593103 1613.98584 
L 754.075862 1669.557659 
L 792.558621 1689.543261 
L 831.041379 1692.470707 
L 869.524138 1699.124747 
L 908.006897 1693.677998 
L 946.489655 1693.468073 
L 984.972414 1702.932235 
L 1023.455172 1706.097661 
L 1061.937931 1705.927397 
L 1100.42069 1704.446259 
L 1138.903448 1699.971625 
L 1177.386207 1697.960691 
L 1215.868966 1707.784999 
L 1254.351724 1704.725343 
L 1292.834483 1705.684741 
L 1331.317241 1704.592827 
L 1369.8 1704.241961 
" style="fill:none;stroke:#74c265;stroke-dasharray:5.55,2.4;stroke-dashoffset:0;stroke-width:1.5;"/>
   </g>
   <g id="line2d_14">
    <path clip-path="url(#p0323754a00)" d="M 253.8 1718.152675 
L 292.282759 1135.41097 
L 330.765517 542.811455 
L 369.248276 445.608375 
L 407.731034 554.250338 
L 446.213793 770.218335 
L 484.696552 994.91248 
L 523.17931 1194.452005 
L 561.662069 1353.570699 
L 600.144828 1452.89991 
L 638.627586 1523.865552 
L 677.110345 1594.469993 
L 715.593103 1665.119455 
L 754.075862 1691.791555 
L 792.558621 1705.669187 
L 831.041379 1711.401711 
L 869.524138 1718.855849 
L 908.006897 1716.918664 
L 946.489655 1716.455825 
L 984.972414 1717.607303 
L 1023.455172 1718.937149 
L 1061.937931 1719.186536 
L 1100.42069 1718.72985 
L 1138.903448 1719.510725 
L 1177.386207 1719.015863 
L 1215.868966 1721.723478 
L 1254.351724 1718.340094 
L 1292.834483 1717.216747 
L 1331.317241 1718.454816 
L 1369.8 1721.713786 
" style="fill:none;stroke:#ff9933;stroke-linecap:square;stroke-width:4;"/>
    <defs>
     <path d="M 0 7.5 
C 1.989023 7.5 3.896849 6.709753 5.303301 5.303301 
C 6.709753 3.896849 7.5 1.989023 7.5 0 
C 7.5 -1.989023 6.709753 -3.896849 5.303301 -5.303301 
C 3.896849 -6.709753 1.989023 -7.5 0 -7.5 
C -1.989023 -7.5 -3.896849 -6.709753 -5.303301 -5.303301 
C -6.709753 -3.896849 -7.5 -1.989023 -7.5 0 
C -7.5 1.989023 -6.709753 3.896849 -5.303301 5.303301 
C -3.896849 6.709753 -1.989023 7.5 0 7.5 
z
" id="m6e9cdc08a4" style="stroke:#ff9933;"/>
    </defs>
    <g clip-path="url(#p0323754a00)">
     <use style="fill:#ff9933;stroke:#ff9933;" x="253.8" xlink:href="#m6e9cdc08a4" y="1718.152675"/>
     <use style="fill:#ff9933;stroke:#ff9933;" x="292.282759" xlink:href="#m6e9cdc08a4" y="1135.41097"/>
     <use style="fill:#ff9933;stroke:#ff9933;" x="330.765517" xlink:href="#m6e9cdc08a4" y="542.811455"/>
     <use style="fill:#ff9933;stroke:#ff9933;" x="369.248276" xlink:href="#m6e9cdc08a4" y="445.608375"/>
     <use style="fill:#ff9933;stroke:#ff9933;" x="407.731034" xlink:href="#m6e9cdc08a4" y="554.250338"/>
     <use style="fill:#ff9933;stroke:#ff9933;" x="446.213793" xlink:href="#m6e9cdc08a4" y="770.218335"/>
     <use style="fill:#ff9933;stroke:#ff9933;" x="484.696552" xlink:href="#m6e9cdc08a4" y="994.91248"/>
     <use style="fill:#ff9933;stroke:#ff9933;" x="523.17931" xlink:href="#m6e9cdc08a4" y="1194.452005"/>
     <use style="fill:#ff9933;stroke:#ff9933;" x="561.662069" xlink:href="#m6e9cdc08a4" y="1353.570699"/>
     <use style="fill:#ff9933;stroke:#ff9933;" x="600.144828" xlink:href="#m6e9cdc08a4" y="1452.89991"/>
     <use style="fill:#ff9933;stroke:#ff9933;" x="638.627586" xlink:href="#m6e9cdc08a4" y="1523.865552"/>
     <use style="fill:#ff9933;stroke:#ff9933;" x="677.110345" xlink:href="#m6e9cdc08a4" y="1594.469993"/>
     <use style="fill:#ff9933;stroke:#ff9933;" x="715.593103" xlink:href="#m6e9cdc08a4" y="1665.119455"/>
     <use style="fill:#ff9933;stroke:#ff9933;" x="754.075862" xlink:href="#m6e9cdc08a4" y="1691.791555"/>
     <use style="fill:#ff9933;stroke:#ff9933;" x="792.558621" xlink:href="#m6e9cdc08a4" y="1705.669187"/>
     <use style="fill:#ff9933;stroke:#ff9933;" x="831.041379" xlink:href="#m6e9cdc08a4" y="1711.401711"/>
     <use style="fill:#ff9933;stroke:#ff9933;" x="869.524138" xlink:href="#m6e9cdc08a4" y="1718.855849"/>
     <use style="fill:#ff9933;stroke:#ff9933;" x="908.006897" xlink:href="#m6e9cdc08a4" y="1716.918664"/>
     <use style="fill:#ff9933;stroke:#ff9933;" x="946.489655" xlink:href="#m6e9cdc08a4" y="1716.455825"/>
     <use style="fill:#ff9933;stroke:#ff9933;" x="984.972414" xlink:href="#m6e9cdc08a4" y="1717.607303"/>
     <use style="fill:#ff9933;stroke:#ff9933;" x="1023.455172" xlink:href="#m6e9cdc08a4" y="1718.937149"/>
     <use style="fill:#ff9933;stroke:#ff9933;" x="1061.937931" xlink:href="#m6e9cdc08a4" y="1719.186536"/>
     <use style="fill:#ff9933;stroke:#ff9933;" x="1100.42069" xlink:href="#m6e9cdc08a4" y="1718.72985"/>
     <use style="fill:#ff9933;stroke:#ff9933;" x="1138.903448" xlink:href="#m6e9cdc08a4" y="1719.510725"/>
     <use style="fill:#ff9933;stroke:#ff9933;" x="1177.386207" xlink:href="#m6e9cdc08a4" y="1719.015863"/>
     <use style="fill:#ff9933;stroke:#ff9933;" x="1215.868966" xlink:href="#m6e9cdc08a4" y="1721.723478"/>
     <use style="fill:#ff9933;stroke:#ff9933;" x="1254.351724" xlink:href="#m6e9cdc08a4" y="1718.340094"/>
     <use style="fill:#ff9933;stroke:#ff9933;" x="1292.834483" xlink:href="#m6e9cdc08a4" y="1717.216747"/>
     <use style="fill:#ff9933;stroke:#ff9933;" x="1331.317241" xlink:href="#m6e9cdc08a4" y="1718.454816"/>
     <use style="fill:#ff9933;stroke:#ff9933;" x="1369.8" xlink:href="#m6e9cdc08a4" y="1721.713786"/>
    </g>
   </g>
   <g id="line2d_15">
    <path clip-path="url(#p0323754a00)" d="M 253.8 1740.722961 
L 292.282759 1232.186917 
L 330.765517 566.380226 
L 369.248276 456.408038 
L 407.731034 583.915485 
L 446.213793 843.802398 
L 484.696552 1101.965345 
L 523.17931 1306.573389 
L 561.662069 1450.661344 
L 600.144828 1548.941833 
L 638.627586 1619.790985 
L 677.110345 1671.707838 
L 715.593103 1723.598277 
L 754.075862 1734.869019 
L 792.558621 1739.416607 
L 831.041379 1743.643862 
L 869.524138 1735.79365 
L 908.006897 1736.438835 
L 946.489655 1735.99537 
L 984.972414 1736.42455 
L 1023.455172 1733.29049 
L 1061.937931 1735.374353 
L 1100.42069 1736.426093 
L 1138.903448 1739.95696 
L 1177.386207 1739.011967 
L 1215.868966 1735.594511 
L 1254.351724 1736.083794 
L 1292.834483 1735.166343 
L 1331.317241 1737.546279 
L 1369.8 1739.017082 
" style="fill:none;stroke:#ff9933;stroke-dasharray:5.55,2.4;stroke-dashoffset:0;stroke-width:1.5;"/>
   </g>
   <g id="line2d_16">
    <path clip-path="url(#p0323754a00)" d="M 253.8 1695.582389 
L 292.282759 1038.635023 
L 330.765517 519.242685 
L 369.248276 434.808713 
L 407.731034 524.585192 
L 446.213793 696.634273 
L 484.696552 887.859615 
L 523.17931 1082.330621 
L 561.662069 1256.480054 
L 600.144828 1356.857987 
L 638.627586 1427.940118 
L 677.110345 1517.232149 
L 715.593103 1606.640634 
L 754.075862 1648.714092 
L 792.558621 1671.921768 
L 831.041379 1679.15956 
L 869.524138 1701.918048 
L 908.006897 1697.398493 
L 946.489655 1696.916279 
L 984.972414 1698.790056 
L 1023.455172 1704.583807 
L 1061.937931 1702.998719 
L 1100.42069 1701.033607 
L 1138.903448 1699.06449 
L 1177.386207 1699.019758 
L 1215.868966 1707.852446 
L 1254.351724 1700.596394 
L 1292.834483 1699.267151 
L 1331.317241 1699.363354 
L 1369.8 1704.410491 
" style="fill:none;stroke:#ff9933;stroke-dasharray:5.55,2.4;stroke-dashoffset:0;stroke-width:1.5;"/>
   </g>
   <g id="line2d_17">
    <path clip-path="url(#p0323754a00)" d="M 253.8 1721.702409 
L 292.282759 378.063805 
L 330.765517 448.716116 
L 369.248276 562.80518 
L 407.731034 612.491983 
L 446.213793 777.205263 
L 484.696552 1032.11357 
L 523.17931 1137.969501 
L 561.662069 1403.01052 
L 600.144828 1510.707907 
L 638.627586 1619.656593 
L 677.110345 1663.721587 
L 715.593103 1691.233049 
L 754.075862 1710.629928 
L 792.558621 1715.782083 
L 831.041379 1715.952311 
L 869.524138 1717.472528 
L 908.006897 1719.702807 
L 946.489655 1718.545184 
L 984.972414 1717.712822 
L 1023.455172 1720.611691 
L 1061.937931 1721.648006 
L 1100.42069 1721.18669 
L 1138.903448 1720.070158 
L 1177.386207 1719.840634 
L 1215.868966 1721.336784 
L 1254.351724 1718.445136 
L 1292.834483 1718.71845 
L 1331.317241 1719.396026 
L 1369.8 1718.516108 
" style="fill:none;stroke:#d1aa9f;stroke-linecap:square;stroke-width:4;"/>
    <defs>
     <path d="M 0 7.5 
C 1.989023 7.5 3.896849 6.709753 5.303301 5.303301 
C 6.709753 3.896849 7.5 1.989023 7.5 0 
C 7.5 -1.989023 6.709753 -3.896849 5.303301 -5.303301 
C 3.896849 -6.709753 1.989023 -7.5 0 -7.5 
C -1.989023 -7.5 -3.896849 -6.709753 -5.303301 -5.303301 
C -6.709753 -3.896849 -7.5 -1.989023 -7.5 0 
C -7.5 1.989023 -6.709753 3.896849 -5.303301 5.303301 
C -3.896849 6.709753 -1.989023 7.5 0 7.5 
z
" id="m4c63ee0dfe" style="stroke:#d1aa9f;"/>
    </defs>
    <g clip-path="url(#p0323754a00)">
     <use style="fill:#d1aa9f;stroke:#d1aa9f;" x="253.8" xlink:href="#m4c63ee0dfe" y="1721.702409"/>
     <use style="fill:#d1aa9f;stroke:#d1aa9f;" x="292.282759" xlink:href="#m4c63ee0dfe" y="378.063805"/>
     <use style="fill:#d1aa9f;stroke:#d1aa9f;" x="330.765517" xlink:href="#m4c63ee0dfe" y="448.716116"/>
     <use style="fill:#d1aa9f;stroke:#d1aa9f;" x="369.248276" xlink:href="#m4c63ee0dfe" y="562.80518"/>
     <use style="fill:#d1aa9f;stroke:#d1aa9f;" x="407.731034" xlink:href="#m4c63ee0dfe" y="612.491983"/>
     <use style="fill:#d1aa9f;stroke:#d1aa9f;" x="446.213793" xlink:href="#m4c63ee0dfe" y="777.205263"/>
     <use style="fill:#d1aa9f;stroke:#d1aa9f;" x="484.696552" xlink:href="#m4c63ee0dfe" y="1032.11357"/>
     <use style="fill:#d1aa9f;stroke:#d1aa9f;" x="523.17931" xlink:href="#m4c63ee0dfe" y="1137.969501"/>
     <use style="fill:#d1aa9f;stroke:#d1aa9f;" x="561.662069" xlink:href="#m4c63ee0dfe" y="1403.01052"/>
     <use style="fill:#d1aa9f;stroke:#d1aa9f;" x="600.144828" xlink:href="#m4c63ee0dfe" y="1510.707907"/>
     <use style="fill:#d1aa9f;stroke:#d1aa9f;" x="638.627586" xlink:href="#m4c63ee0dfe" y="1619.656593"/>
     <use style="fill:#d1aa9f;stroke:#d1aa9f;" x="677.110345" xlink:href="#m4c63ee0dfe" y="1663.721587"/>
     <use style="fill:#d1aa9f;stroke:#d1aa9f;" x="715.593103" xlink:href="#m4c63ee0dfe" y="1691.233049"/>
     <use style="fill:#d1aa9f;stroke:#d1aa9f;" x="754.075862" xlink:href="#m4c63ee0dfe" y="1710.629928"/>
     <use style="fill:#d1aa9f;stroke:#d1aa9f;" x="792.558621" xlink:href="#m4c63ee0dfe" y="1715.782083"/>
     <use style="fill:#d1aa9f;stroke:#d1aa9f;" x="831.041379" xlink:href="#m4c63ee0dfe" y="1715.952311"/>
     <use style="fill:#d1aa9f;stroke:#d1aa9f;" x="869.524138" xlink:href="#m4c63ee0dfe" y="1717.472528"/>
     <use style="fill:#d1aa9f;stroke:#d1aa9f;" x="908.006897" xlink:href="#m4c63ee0dfe" y="1719.702807"/>
     <use style="fill:#d1aa9f;stroke:#d1aa9f;" x="946.489655" xlink:href="#m4c63ee0dfe" y="1718.545184"/>
     <use style="fill:#d1aa9f;stroke:#d1aa9f;" x="984.972414" xlink:href="#m4c63ee0dfe" y="1717.712822"/>
     <use style="fill:#d1aa9f;stroke:#d1aa9f;" x="1023.455172" xlink:href="#m4c63ee0dfe" y="1720.611691"/>
     <use style="fill:#d1aa9f;stroke:#d1aa9f;" x="1061.937931" xlink:href="#m4c63ee0dfe" y="1721.648006"/>
     <use style="fill:#d1aa9f;stroke:#d1aa9f;" x="1100.42069" xlink:href="#m4c63ee0dfe" y="1721.18669"/>
     <use style="fill:#d1aa9f;stroke:#d1aa9f;" x="1138.903448" xlink:href="#m4c63ee0dfe" y="1720.070158"/>
     <use style="fill:#d1aa9f;stroke:#d1aa9f;" x="1177.386207" xlink:href="#m4c63ee0dfe" y="1719.840634"/>
     <use style="fill:#d1aa9f;stroke:#d1aa9f;" x="1215.868966" xlink:href="#m4c63ee0dfe" y="1721.336784"/>
     <use style="fill:#d1aa9f;stroke:#d1aa9f;" x="1254.351724" xlink:href="#m4c63ee0dfe" y="1718.445136"/>
     <use style="fill:#d1aa9f;stroke:#d1aa9f;" x="1292.834483" xlink:href="#m4c63ee0dfe" y="1718.71845"/>
     <use style="fill:#d1aa9f;stroke:#d1aa9f;" x="1331.317241" xlink:href="#m4c63ee0dfe" y="1719.396026"/>
     <use style="fill:#d1aa9f;stroke:#d1aa9f;" x="1369.8" xlink:href="#m4c63ee0dfe" y="1718.516108"/>
    </g>
   </g>
   <g id="line2d_18">
    <path clip-path="url(#p0323754a00)" d="M 253.8 1735.383808 
L 292.282759 379.897466 
L 330.765517 460.220433 
L 369.248276 588.541878 
L 407.731034 646.875823 
L 446.213793 853.146596 
L 484.696552 1153.467595 
L 523.17931 1245.141903 
L 561.662069 1502.702413 
L 600.144828 1611.203233 
L 638.627586 1696.836653 
L 677.110345 1722.506204 
L 715.593103 1734.146329 
L 754.075862 1736.944017 
L 792.558621 1737.407914 
L 831.041379 1737.59265 
L 869.524138 1736.27978 
L 908.006897 1735.023035 
L 946.489655 1734.132743 
L 984.972414 1736.18026 
L 1023.455172 1735.929851 
L 1061.937931 1735.920039 
L 1100.42069 1736.298237 
L 1138.903448 1737.61602 
L 1177.386207 1738.64199 
L 1215.868966 1736.162127 
L 1254.351724 1736.709037 
L 1292.834483 1736.324621 
L 1331.317241 1736.510249 
L 1369.8 1736.272371 
" style="fill:none;stroke:#d1aa9f;stroke-dasharray:5.55,2.4;stroke-dashoffset:0;stroke-width:1.5;"/>
   </g>
   <g id="line2d_19">
    <path clip-path="url(#p0323754a00)" d="M 253.8 1708.02101 
L 292.282759 376.230145 
L 330.765517 437.211799 
L 369.248276 537.068482 
L 407.731034 578.108142 
L 446.213793 701.26393 
L 484.696552 910.759545 
L 523.17931 1030.797099 
L 561.662069 1303.318626 
L 600.144828 1410.212581 
L 638.627586 1542.476533 
L 677.110345 1604.93697 
L 715.593103 1648.31977 
L 754.075862 1684.315838 
L 792.558621 1694.156252 
L 831.041379 1694.311972 
L 869.524138 1698.665276 
L 908.006897 1704.382578 
L 946.489655 1702.957625 
L 984.972414 1699.245384 
L 1023.455172 1705.293532 
L 1061.937931 1707.375972 
L 1100.42069 1706.075143 
L 1138.903448 1702.524295 
L 1177.386207 1701.039279 
L 1215.868966 1706.511442 
L 1254.351724 1700.181235 
L 1292.834483 1701.112279 
L 1331.317241 1702.281803 
L 1369.8 1700.759846 
" style="fill:none;stroke:#d1aa9f;stroke-dasharray:5.55,2.4;stroke-dashoffset:0;stroke-width:1.5;"/>
   </g>
   <g id="line2d_20">
    <path clip-path="url(#p0323754a00)" d="M 253.8 1716.340778 
L 292.282759 451.682776 
L 330.765517 1641.195746 
L 369.248276 1709.885072 
L 407.731034 1716.102469 
L 446.213793 1715.123121 
L 484.696552 1717.822339 
L 523.17931 1719.038696 
L 561.662069 1718.455068 
L 600.144828 1719.18656 
L 638.627586 1714.088626 
L 677.110345 1719.323325 
L 715.593103 1717.177774 
L 754.075862 1715.187571 
L 792.558621 1720.663449 
L 831.041379 1718.810566 
L 869.524138 1722.697537 
L 908.006897 1718.006352 
L 946.489655 1721.182952 
L 984.972414 1718.355151 
L 1023.455172 1718.728346 
L 1061.937931 1718.695554 
L 1100.42069 1720.290805 
L 1138.903448 1718.985513 
L 1177.386207 1717.261592 
L 1215.868966 1719.497252 
L 1254.351724 1718.675542 
L 1292.834483 1720.679997 
L 1331.317241 1719.696868 
L 1369.8 1721.853865 
" style="fill:none;stroke:#c54c36;stroke-linecap:square;stroke-width:4;"/>
    <defs>
     <path d="M 0 7.5 
C 1.989023 7.5 3.896849 6.709753 5.303301 5.303301 
C 6.709753 3.896849 7.5 1.989023 7.5 0 
C 7.5 -1.989023 6.709753 -3.896849 5.303301 -5.303301 
C 3.896849 -6.709753 1.989023 -7.5 0 -7.5 
C -1.989023 -7.5 -3.896849 -6.709753 -5.303301 -5.303301 
C -6.709753 -3.896849 -7.5 -1.989023 -7.5 0 
C -7.5 1.989023 -6.709753 3.896849 -5.303301 5.303301 
C -3.896849 6.709753 -1.989023 7.5 0 7.5 
z
" id="m89691727e5" style="stroke:#c54c36;"/>
    </defs>
    <g clip-path="url(#p0323754a00)">
     <use style="fill:#c54c36;stroke:#c54c36;" x="253.8" xlink:href="#m89691727e5" y="1716.340778"/>
     <use style="fill:#c54c36;stroke:#c54c36;" x="292.282759" xlink:href="#m89691727e5" y="451.682776"/>
     <use style="fill:#c54c36;stroke:#c54c36;" x="330.765517" xlink:href="#m89691727e5" y="1641.195746"/>
     <use style="fill:#c54c36;stroke:#c54c36;" x="369.248276" xlink:href="#m89691727e5" y="1709.885072"/>
     <use style="fill:#c54c36;stroke:#c54c36;" x="407.731034" xlink:href="#m89691727e5" y="1716.102469"/>
     <use style="fill:#c54c36;stroke:#c54c36;" x="446.213793" xlink:href="#m89691727e5" y="1715.123121"/>
     <use style="fill:#c54c36;stroke:#c54c36;" x="484.696552" xlink:href="#m89691727e5" y="1717.822339"/>
     <use style="fill:#c54c36;stroke:#c54c36;" x="523.17931" xlink:href="#m89691727e5" y="1719.038696"/>
     <use style="fill:#c54c36;stroke:#c54c36;" x="561.662069" xlink:href="#m89691727e5" y="1718.455068"/>
     <use style="fill:#c54c36;stroke:#c54c36;" x="600.144828" xlink:href="#m89691727e5" y="1719.18656"/>
     <use style="fill:#c54c36;stroke:#c54c36;" x="638.627586" xlink:href="#m89691727e5" y="1714.088626"/>
     <use style="fill:#c54c36;stroke:#c54c36;" x="677.110345" xlink:href="#m89691727e5" y="1719.323325"/>
     <use style="fill:#c54c36;stroke:#c54c36;" x="715.593103" xlink:href="#m89691727e5" y="1717.177774"/>
     <use style="fill:#c54c36;stroke:#c54c36;" x="754.075862" xlink:href="#m89691727e5" y="1715.187571"/>
     <use style="fill:#c54c36;stroke:#c54c36;" x="792.558621" xlink:href="#m89691727e5" y="1720.663449"/>
     <use style="fill:#c54c36;stroke:#c54c36;" x="831.041379" xlink:href="#m89691727e5" y="1718.810566"/>
     <use style="fill:#c54c36;stroke:#c54c36;" x="869.524138" xlink:href="#m89691727e5" y="1722.697537"/>
     <use style="fill:#c54c36;stroke:#c54c36;" x="908.006897" xlink:href="#m89691727e5" y="1718.006352"/>
     <use style="fill:#c54c36;stroke:#c54c36;" x="946.489655" xlink:href="#m89691727e5" y="1721.182952"/>
     <use style="fill:#c54c36;stroke:#c54c36;" x="984.972414" xlink:href="#m89691727e5" y="1718.355151"/>
     <use style="fill:#c54c36;stroke:#c54c36;" x="1023.455172" xlink:href="#m89691727e5" y="1718.728346"/>
     <use style="fill:#c54c36;stroke:#c54c36;" x="1061.937931" xlink:href="#m89691727e5" y="1718.695554"/>
     <use style="fill:#c54c36;stroke:#c54c36;" x="1100.42069" xlink:href="#m89691727e5" y="1720.290805"/>
     <use style="fill:#c54c36;stroke:#c54c36;" x="1138.903448" xlink:href="#m89691727e5" y="1718.985513"/>
     <use style="fill:#c54c36;stroke:#c54c36;" x="1177.386207" xlink:href="#m89691727e5" y="1717.261592"/>
     <use style="fill:#c54c36;stroke:#c54c36;" x="1215.868966" xlink:href="#m89691727e5" y="1719.497252"/>
     <use style="fill:#c54c36;stroke:#c54c36;" x="1254.351724" xlink:href="#m89691727e5" y="1718.675542"/>
     <use style="fill:#c54c36;stroke:#c54c36;" x="1292.834483" xlink:href="#m89691727e5" y="1720.679997"/>
     <use style="fill:#c54c36;stroke:#c54c36;" x="1331.317241" xlink:href="#m89691727e5" y="1719.696868"/>
     <use style="fill:#c54c36;stroke:#c54c36;" x="1369.8" xlink:href="#m89691727e5" y="1721.853865"/>
    </g>
   </g>
   <g id="line2d_21">
    <path clip-path="url(#p0323754a00)" d="M 253.8 1736.615257 
L 292.282759 461.084176 
L 330.765517 1707.402092 
L 369.248276 1749.172192 
L 407.731034 1742.525501 
L 446.213793 1742.167839 
L 484.696552 1736.739783 
L 523.17931 1736.290163 
L 561.662069 1736.457787 
L 600.144828 1738.264914 
L 638.627586 1736.324662 
L 677.110345 1734.684731 
L 715.593103 1738.723541 
L 754.075862 1740.041985 
L 792.558621 1736.009533 
L 831.041379 1735.877557 
L 869.524138 1738.095522 
L 908.006897 1739.542114 
L 946.489655 1738.800701 
L 984.972414 1741.676581 
L 1023.455172 1735.588662 
L 1061.937931 1736.701251 
L 1100.42069 1737.854158 
L 1138.903448 1737.395371 
L 1177.386207 1739.550877 
L 1215.868966 1736.646772 
L 1254.351724 1737.899323 
L 1292.834483 1734.999734 
L 1331.317241 1734.792564 
L 1369.8 1737.33347 
" style="fill:none;stroke:#c54c36;stroke-dasharray:5.55,2.4;stroke-dashoffset:0;stroke-width:1.5;"/>
   </g>
   <g id="line2d_22">
    <path clip-path="url(#p0323754a00)" d="M 253.8 1696.066299 
L 292.282759 442.281376 
L 330.765517 1574.989401 
L 369.248276 1670.597951 
L 407.731034 1689.679437 
L 446.213793 1688.078402 
L 484.696552 1698.904895 
L 523.17931 1701.787229 
L 561.662069 1700.452348 
L 600.144828 1700.108207 
L 638.627586 1691.852591 
L 677.110345 1703.961918 
L 715.593103 1695.632007 
L 754.075862 1690.333157 
L 792.558621 1705.317365 
L 831.041379 1701.743575 
L 869.524138 1707.299552 
L 908.006897 1696.47059 
L 946.489655 1703.565204 
L 984.972414 1695.033722 
L 1023.455172 1701.868031 
L 1061.937931 1700.689857 
L 1100.42069 1702.727452 
L 1138.903448 1700.575656 
L 1177.386207 1694.972307 
L 1215.868966 1702.347733 
L 1254.351724 1699.451761 
L 1292.834483 1706.36026 
L 1331.317241 1704.601172 
L 1369.8 1706.374259 
" style="fill:none;stroke:#c54c36;stroke-dasharray:5.55,2.4;stroke-dashoffset:0;stroke-width:1.5;"/>
   </g>
   <g id="line2d_23">
    <path clip-path="url(#p0323754a00)" d="M 253.8 1588.730174 
L 292.282759 1519.095875 
L 330.765517 1513.48758 
L 369.248276 1570.691714 
L 407.731034 1598.859133 
L 446.213793 1627.361831 
L 484.696552 1651.781968 
L 523.17931 1671.85218 
L 561.662069 1684.078169 
L 600.144828 1698.36768 
L 638.627586 1708.431672 
L 677.110345 1711.545575 
L 715.593103 1715.191966 
L 754.075862 1717.498972 
L 792.558621 1716.415729 
L 831.041379 1719.642308 
L 869.524138 1719.020265 
L 908.006897 1719.58243 
L 946.489655 1722.127 
L 984.972414 1719.873983 
L 1023.455172 1721.399874 
L 1061.937931 1720.297137 
L 1100.42069 1721.384988 
L 1138.903448 1719.954384 
L 1177.386207 1719.035088 
L 1215.868966 1719.02434 
L 1254.351724 1719.807273 
L 1292.834483 1718.916479 
L 1331.317241 1720.866837 
L 1369.8 1720.392422 
" style="fill:none;stroke:#000000;stroke-linecap:square;stroke-width:4;"/>
    <defs>
     <path d="M 0 7.5 
C 1.989023 7.5 3.896849 6.709753 5.303301 5.303301 
C 6.709753 3.896849 7.5 1.989023 7.5 0 
C 7.5 -1.989023 6.709753 -3.896849 5.303301 -5.303301 
C 3.896849 -6.709753 1.989023 -7.5 0 -7.5 
C -1.989023 -7.5 -3.896849 -6.709753 -5.303301 -5.303301 
C -6.709753 -3.896849 -7.5 -1.989023 -7.5 0 
C -7.5 1.989023 -6.709753 3.896849 -5.303301 5.303301 
C -3.896849 6.709753 -1.989023 7.5 0 7.5 
z
" id="me5bb5e5732" style="stroke:#000000;"/>
    </defs>
    <g clip-path="url(#p0323754a00)">
     <use style="stroke:#000000;" x="253.8" xlink:href="#me5bb5e5732" y="1588.730174"/>
     <use style="stroke:#000000;" x="292.282759" xlink:href="#me5bb5e5732" y="1519.095875"/>
     <use style="stroke:#000000;" x="330.765517" xlink:href="#me5bb5e5732" y="1513.48758"/>
     <use style="stroke:#000000;" x="369.248276" xlink:href="#me5bb5e5732" y="1570.691714"/>
     <use style="stroke:#000000;" x="407.731034" xlink:href="#me5bb5e5732" y="1598.859133"/>
     <use style="stroke:#000000;" x="446.213793" xlink:href="#me5bb5e5732" y="1627.361831"/>
     <use style="stroke:#000000;" x="484.696552" xlink:href="#me5bb5e5732" y="1651.781968"/>
     <use style="stroke:#000000;" x="523.17931" xlink:href="#me5bb5e5732" y="1671.85218"/>
     <use style="stroke:#000000;" x="561.662069" xlink:href="#me5bb5e5732" y="1684.078169"/>
     <use style="stroke:#000000;" x="600.144828" xlink:href="#me5bb5e5732" y="1698.36768"/>
     <use style="stroke:#000000;" x="638.627586" xlink:href="#me5bb5e5732" y="1708.431672"/>
     <use style="stroke:#000000;" x="677.110345" xlink:href="#me5bb5e5732" y="1711.545575"/>
     <use style="stroke:#000000;" x="715.593103" xlink:href="#me5bb5e5732" y="1715.191966"/>
     <use style="stroke:#000000;" x="754.075862" xlink:href="#me5bb5e5732" y="1717.498972"/>
     <use style="stroke:#000000;" x="792.558621" xlink:href="#me5bb5e5732" y="1716.415729"/>
     <use style="stroke:#000000;" x="831.041379" xlink:href="#me5bb5e5732" y="1719.642308"/>
     <use style="stroke:#000000;" x="869.524138" xlink:href="#me5bb5e5732" y="1719.020265"/>
     <use style="stroke:#000000;" x="908.006897" xlink:href="#me5bb5e5732" y="1719.58243"/>
     <use style="stroke:#000000;" x="946.489655" xlink:href="#me5bb5e5732" y="1722.127"/>
     <use style="stroke:#000000;" x="984.972414" xlink:href="#me5bb5e5732" y="1719.873983"/>
     <use style="stroke:#000000;" x="1023.455172" xlink:href="#me5bb5e5732" y="1721.399874"/>
     <use style="stroke:#000000;" x="1061.937931" xlink:href="#me5bb5e5732" y="1720.297137"/>
     <use style="stroke:#000000;" x="1100.42069" xlink:href="#me5bb5e5732" y="1721.384988"/>
     <use style="stroke:#000000;" x="1138.903448" xlink:href="#me5bb5e5732" y="1719.954384"/>
     <use style="stroke:#000000;" x="1177.386207" xlink:href="#me5bb5e5732" y="1719.035088"/>
     <use style="stroke:#000000;" x="1215.868966" xlink:href="#me5bb5e5732" y="1719.02434"/>
     <use style="stroke:#000000;" x="1254.351724" xlink:href="#me5bb5e5732" y="1719.807273"/>
     <use style="stroke:#000000;" x="1292.834483" xlink:href="#me5bb5e5732" y="1718.916479"/>
     <use style="stroke:#000000;" x="1331.317241" xlink:href="#me5bb5e5732" y="1720.866837"/>
     <use style="stroke:#000000;" x="1369.8" xlink:href="#me5bb5e5732" y="1720.392422"/>
    </g>
   </g>
   <g id="line2d_24">
    <path clip-path="url(#p0323754a00)" d="M 253.8 1756.727326 
L 292.282759 1657.400226 
L 330.765517 1634.032236 
L 369.248276 1673.66974 
L 407.731034 1685.338289 
L 446.213793 1708.449951 
L 484.696552 1726.147302 
L 523.17931 1736.511008 
L 561.662069 1743.775771 
L 600.144828 1746.939523 
L 638.627586 1738.419769 
L 677.110345 1738.383463 
L 715.593103 1737.269293 
L 754.075862 1736.057266 
L 792.558621 1737.360837 
L 831.041379 1734.262658 
L 869.524138 1736.867541 
L 908.006897 1738.582419 
L 946.489655 1737.803998 
L 984.972414 1737.211101 
L 1023.455172 1735.277788 
L 1061.937931 1734.870413 
L 1100.42069 1734.671002 
L 1138.903448 1734.177313 
L 1177.386207 1737.72713 
L 1215.868966 1739.385922 
L 1254.351724 1739.537348 
L 1292.834483 1735.560988 
L 1331.317241 1737.923989 
L 1369.8 1737.379973 
" style="fill:none;stroke:#000000;stroke-dasharray:5.55,2.4;stroke-dashoffset:0;stroke-width:1.5;"/>
   </g>
   <g id="line2d_25">
    <path clip-path="url(#p0323754a00)" d="M 253.8 1420.733021 
L 292.282759 1380.791524 
L 330.765517 1392.942924 
L 369.248276 1467.713689 
L 407.731034 1512.379978 
L 446.213793 1546.273711 
L 484.696552 1577.416634 
L 523.17931 1607.193352 
L 561.662069 1624.380566 
L 600.144828 1649.795838 
L 638.627586 1678.443575 
L 677.110345 1684.707687 
L 715.593103 1693.114638 
L 754.075862 1698.940679 
L 792.558621 1695.47062 
L 831.041379 1705.021957 
L 869.524138 1701.172988 
L 908.006897 1700.582441 
L 946.489655 1706.450002 
L 984.972414 1702.536865 
L 1023.455172 1707.521961 
L 1061.937931 1705.723861 
L 1100.42069 1708.098974 
L 1138.903448 1705.731455 
L 1177.386207 1700.343046 
L 1215.868966 1698.662757 
L 1254.351724 1700.077197 
L 1292.834483 1702.27197 
L 1331.317241 1703.809685 
L 1369.8 1703.404871 
" style="fill:none;stroke:#000000;stroke-dasharray:5.55,2.4;stroke-dashoffset:0;stroke-width:1.5;"/>
   </g>
   <g id="patch_3">
    <path d="M 198 1732.5 
L 198 237.6 
" style="fill:none;stroke:#000000;stroke-linecap:square;stroke-linejoin:miter;stroke-width:0.8;"/>
   </g>
   <g id="patch_4">
    <path d="M 1425.6 1732.5 
L 1425.6 237.6 
" style="fill:none;stroke:#000000;stroke-linecap:square;stroke-linejoin:miter;stroke-width:0.8;"/>
   </g>
   <g id="patch_5">
    <path d="M 198 1732.5 
L 1425.6 1732.5 
" style="fill:none;stroke:#000000;stroke-linecap:square;stroke-linejoin:miter;stroke-width:0.8;"/>
   </g>
   <g id="patch_6">
    <path d="M 198 237.6 
L 1425.6 237.6 
" style="fill:none;stroke:#000000;stroke-linecap:square;stroke-linejoin:miter;stroke-width:0.8;"/>
   </g>
  </g>
 </g>
 <defs>
  <clipPath id="p0323754a00">
   <rect height="1494.9" width="1227.6" x="198" y="237.6"/>
  </clipPath>
 </defs>
</svg>
