<?xml version="1.0" encoding="utf-8" standalone="no"?>
<!DOCTYPE svg PUBLIC "-//W3C//DTD SVG 1.1//EN"
  "http://www.w3.org/Graphics/SVG/1.1/DTD/svg11.dtd">
<!-- Created with matplotlib (https://matplotlib.org/) -->
<svg height="1980pt" version="1.1" viewBox="0 0 1584 1980" width="1584pt" xmlns="http://www.w3.org/2000/svg" xmlns:xlink="http://www.w3.org/1999/xlink">
 <defs>
  <style type="text/css">
*{stroke-linecap:butt;stroke-linejoin:round;}
  </style>
 </defs>
 <g id="figure_1">
  <g id="patch_1">
   <path d="M 0 1980 
L 1584 1980 
L 1584 0 
L 0 0 
z
" style="fill:#ffffff;"/>
  </g>
  <g id="axes_1">
   <g id="patch_2">
    <path d="M 198 1732.5 
L 1425.6 1732.5 
L 1425.6 237.6 
L 198 237.6 
z
" style="fill:#ffffff;"/>
   </g>
   <g id="PolyCollection_1">
    <defs>
     <path d="M 253.8 -1606.5 
L 253.8 -1606.5 
L 292.282759 -1606.485059 
L 330.765517 -1605.960335 
L 369.248276 -1597.22793 
L 407.731034 -1571.478467 
L 446.213793 -1274.307789 
L 484.696552 -1183.120829 
L 523.17931 -899.092532 
L 561.662069 -847.871276 
L 600.144828 -775.923856 
L 638.627586 -613.364825 
L 677.110345 -519.784175 
L 715.593103 -513.026267 
L 754.075862 -409.289041 
L 792.558621 -341.305004 
L 831.041379 -287.9562 
L 869.524138 -285.018834 
L 908.006897 -254.847366 
L 946.489655 -242.591945 
L 984.972414 -241.807683 
L 1023.455172 -241.76811 
L 1061.937931 -242.657737 
L 1100.42069 -243.438017 
L 1138.903448 -243.012976 
L 1177.386207 -242.298702 
L 1215.868966 -239.889694 
L 1254.351724 -237.872991 
L 1292.834483 -240.210815 
L 1331.317241 -244.178596 
L 1369.8 -242.46823 
L 1369.8 -281.906442 
L 1369.8 -281.906442 
L 1331.317241 -280.104772 
L 1292.834483 -279.628527 
L 1254.351724 -283.171713 
L 1215.868966 -287.205511 
L 1177.386207 -282.387197 
L 1138.903448 -278.475657 
L 1100.42069 -279.397322 
L 1061.937931 -282.159821 
L 1023.455172 -294.870297 
L 984.972414 -303.817203 
L 946.489655 -322.000942 
L 908.006897 -366.975875 
L 869.524138 -424.544409 
L 831.041379 -442.119225 
L 792.558621 -534.01394 
L 754.075862 -653.203846 
L 715.593103 -754.375575 
L 677.110345 -778.285873 
L 638.627586 -862.731331 
L 600.144828 -1013.187754 
L 561.662069 -1065.076855 
L 523.17931 -1111.398775 
L 484.696552 -1330.040543 
L 446.213793 -1430.70371 
L 407.731034 -1587.663993 
L 369.248276 -1602.643849 
L 330.765517 -1606.243967 
L 292.282759 -1606.494003 
L 253.8 -1606.5 
z
" id="ma22a79b7ff" style="stroke:#74c265;stroke-opacity:0.2;"/>
    </defs>
    <g clip-path="url(#p95353897be)">
     <use style="fill:#74c265;fill-opacity:0.2;stroke:#74c265;stroke-opacity:0.2;" x="0" xlink:href="#ma22a79b7ff" y="1980"/>
    </g>
   </g>
   <g id="PolyCollection_2">
    <defs>
     <path d="M 253.8 -1606.5 
L 253.8 -1606.5 
L 292.282759 -1606.485678 
L 330.765517 -1605.984523 
L 369.248276 -1598.497984 
L 407.731034 -1571.619226 
L 446.213793 -1305.46339 
L 484.696552 -1192.291462 
L 523.17931 -892.475247 
L 561.662069 -853.260982 
L 600.144828 -763.008085 
L 638.627586 -611.498921 
L 677.110345 -503.399897 
L 715.593103 -443.423428 
L 754.075862 -407.834657 
L 792.558621 -329.598269 
L 831.041379 -283.385205 
L 869.524138 -281.389102 
L 908.006897 -255.29787 
L 946.489655 -242.06254 
L 984.972414 -240.038961 
L 1023.455172 -240.972363 
L 1061.937931 -243.547243 
L 1100.42069 -243.043895 
L 1138.903448 -241.920786 
L 1177.386207 -242.252471 
L 1215.868966 -239.209589 
L 1254.351724 -238.605967 
L 1292.834483 -242.017558 
L 1331.317241 -244.63984 
L 1369.8 -244.133268 
L 1369.8 -278.006765 
L 1369.8 -278.006765 
L 1331.317241 -278.707287 
L 1292.834483 -278.871708 
L 1254.351724 -284.686622 
L 1215.868966 -290.110926 
L 1177.386207 -282.282053 
L 1138.903448 -280.436457 
L 1100.42069 -284.244308 
L 1061.937931 -285.981441 
L 1023.455172 -295.421342 
L 984.972414 -300.764797 
L 946.489655 -322.990805 
L 908.006897 -371.736213 
L 869.524138 -418.53928 
L 831.041379 -432.817149 
L 792.558621 -521.916506 
L 754.075862 -649.197694 
L 715.593103 -686.260873 
L 677.110345 -755.604941 
L 638.627586 -863.082839 
L 600.144828 -1009.280025 
L 561.662069 -1076.143739 
L 523.17931 -1104.460799 
L 484.696552 -1336.003018 
L 446.213793 -1437.541447 
L 407.731034 -1588.436099 
L 369.248276 -1602.435462 
L 330.765517 -1606.256276 
L 292.282759 -1606.495114 
L 253.8 -1606.5 
z
" id="m659e7c9631" style="stroke:#ff9933;stroke-opacity:0.2;"/>
    </defs>
    <g clip-path="url(#p95353897be)">
     <use style="fill:#ff9933;fill-opacity:0.2;stroke:#ff9933;stroke-opacity:0.2;" x="0" xlink:href="#m659e7c9631" y="1980"/>
    </g>
   </g>
   <g id="PolyCollection_3">
    <defs>
     <path d="M 253.8 -1606.5 
L 253.8 -1606.5 
L 292.282759 -1606.487068 
L 330.765517 -1606.088581 
L 369.248276 -1598.645864 
L 407.731034 -1573.387568 
L 446.213793 -1293.276077 
L 484.696552 -1210.253327 
L 523.17931 -871.639743 
L 561.662069 -838.061472 
L 600.144828 -757.454047 
L 638.627586 -594.077206 
L 677.110345 -520.365245 
L 715.593103 -435.948582 
L 754.075862 -385.092026 
L 792.558621 -313.8631 
L 831.041379 -274.712754 
L 869.524138 -266.240235 
L 908.006897 -248.055097 
L 946.489655 -241.547054 
L 984.972414 -239.362911 
L 1023.455172 -240.297493 
L 1061.937931 -242.943776 
L 1100.42069 -243.615038 
L 1138.903448 -243.029621 
L 1177.386207 -240.590302 
L 1215.868966 -242.776614 
L 1254.351724 -238.155001 
L 1292.834483 -240.789299 
L 1331.317241 -243.410188 
L 1369.8 -243.467758 
L 1369.8 -278.847027 
L 1369.8 -278.847027 
L 1331.317241 -278.713688 
L 1292.834483 -279.261608 
L 1254.351724 -283.575471 
L 1215.868966 -283.769591 
L 1177.386207 -282.35972 
L 1138.903448 -278.238113 
L 1100.42069 -284.164745 
L 1061.937931 -288.05293 
L 1023.455172 -298.836154 
L 984.972414 -296.127231 
L 946.489655 -308.585704 
L 908.006897 -346.153843 
L 869.524138 -382.45663 
L 831.041379 -414.77909 
L 792.558621 -502.610878 
L 754.075862 -608.009562 
L 715.593103 -679.953269 
L 677.110345 -790.798561 
L 638.627586 -844.347513 
L 600.144828 -1001.683064 
L 561.662069 -1061.495453 
L 523.17931 -1081.762035 
L 484.696552 -1350.964769 
L 446.213793 -1436.830186 
L 407.731034 -1590.370985 
L 369.248276 -1602.760951 
L 330.765517 -1606.299847 
L 292.282759 -1606.495472 
L 253.8 -1606.5 
z
" id="m2e25b6a1db" style="stroke:#d1aa9f;stroke-opacity:0.2;"/>
    </defs>
    <g clip-path="url(#p95353897be)">
     <use style="fill:#d1aa9f;fill-opacity:0.2;stroke:#d1aa9f;stroke-opacity:0.2;" x="0" xlink:href="#m2e25b6a1db" y="1980"/>
    </g>
   </g>
   <g id="PolyCollection_4">
    <defs>
     <path d="M 253.8 -1606.5 
L 253.8 -1606.5 
L 292.282759 -1606.489754 
L 330.765517 -1606.192317 
L 369.248276 -1603.206655 
L 407.731034 -1571.358003 
L 446.213793 -1345.935847 
L 484.696552 -1034.578201 
L 523.17931 -829.312444 
L 561.662069 -572.1257 
L 600.144828 -547.659931 
L 638.627586 -334.695625 
L 677.110345 -265.531088 
L 715.593103 -253.54008 
L 754.075862 -247.906734 
L 792.558621 -240.660225 
L 831.041379 -243.864205 
L 869.524138 -243.340086 
L 908.006897 -247.404255 
L 946.489655 -243.515211 
L 984.972414 -243.926866 
L 1023.455172 -241.109026 
L 1061.937931 -243.397483 
L 1100.42069 -243.198706 
L 1138.903448 -245.602312 
L 1177.386207 -244.490649 
L 1215.868966 -242.346932 
L 1254.351724 -243.403798 
L 1292.834483 -236.735037 
L 1331.317241 -239.630373 
L 1369.8 -243.172957 
L 1369.8 -277.642951 
L 1369.8 -277.642951 
L 1331.317241 -282.806982 
L 1292.834483 -285.909309 
L 1254.351724 -274.723999 
L 1215.868966 -286.701952 
L 1177.386207 -279.382556 
L 1138.903448 -276.814263 
L 1100.42069 -275.619643 
L 1061.937931 -279.451732 
L 1023.455172 -276.547197 
L 984.972414 -276.728129 
L 946.489655 -278.183652 
L 908.006897 -273.305157 
L 869.524138 -284.10868 
L 831.041379 -285.107031 
L 792.558621 -310.503448 
L 754.075862 -335.262546 
L 715.593103 -377.295687 
L 677.110345 -386.635303 
L 638.627586 -532.044587 
L 600.144828 -793.13349 
L 561.662069 -797.259869 
L 523.17931 -1039.799988 
L 484.696552 -1240.795438 
L 446.213793 -1437.878113 
L 407.731034 -1585.7454 
L 369.248276 -1604.798028 
L 330.765517 -1606.35352 
L 292.282759 -1606.496364 
L 253.8 -1606.5 
z
" id="mc92dbcb7b2" style="stroke:#005394;stroke-opacity:0.2;"/>
    </defs>
    <g clip-path="url(#p95353897be)">
     <use style="fill:#005394;fill-opacity:0.2;stroke:#005394;stroke-opacity:0.2;" x="0" xlink:href="#mc92dbcb7b2" y="1980"/>
    </g>
   </g>
   <g id="PolyCollection_5">
    <defs>
     <path d="M 253.8 -1606.5 
L 253.8 -1606.5 
L 292.282759 -1606.489914 
L 330.765517 -1606.234401 
L 369.248276 -1576.712576 
L 407.731034 -1000.098715 
L 446.213793 -259.035775 
L 484.696552 -241.949879 
L 523.17931 -242.300911 
L 561.662069 -243.59557 
L 600.144828 -239.202352 
L 638.627586 -241.936574 
L 677.110345 -240.368133 
L 715.593103 -241.96479 
L 754.075862 -244.976934 
L 792.558621 -239.871907 
L 831.041379 -239.056997 
L 869.524138 -242.201763 
L 908.006897 -241.852407 
L 946.489655 -245.02027 
L 984.972414 -243.080356 
L 1023.455172 -242.383809 
L 1061.937931 -241.240668 
L 1100.42069 -243.720987 
L 1138.903448 -243.870287 
L 1177.386207 -236.550584 
L 1215.868966 -241.29829 
L 1254.351724 -243.829283 
L 1292.834483 -241.7727 
L 1331.317241 -237.448154 
L 1369.8 -242.79582 
L 1369.8 -279.47686 
L 1369.8 -279.47686 
L 1331.317241 -282.007802 
L 1292.834483 -279.3044 
L 1254.351724 -276.71669 
L 1215.868966 -286.743146 
L 1177.386207 -286.567929 
L 1138.903448 -273.930813 
L 1100.42069 -280.211193 
L 1061.937931 -280.987336 
L 1023.455172 -280.412213 
L 984.972414 -272.767469 
L 946.489655 -270.780578 
L 908.006897 -278.804799 
L 869.524138 -280.431334 
L 831.041379 -286.828983 
L 792.558621 -286.24662 
L 754.075862 -275.807732 
L 715.593103 -286.694261 
L 677.110345 -285.257239 
L 638.627586 -282.263342 
L 600.144828 -283.647683 
L 561.662069 -276.378332 
L 523.17931 -275.872857 
L 484.696552 -282.185957 
L 446.213793 -373.730743 
L 407.731034 -1257.378472 
L 369.248276 -1583.016749 
L 330.765517 -1606.277986 
L 292.282759 -1606.492906 
L 253.8 -1606.5 
z
" id="m0ae1b5d5d6" style="stroke:#c54c36;stroke-opacity:0.2;"/>
    </defs>
    <g clip-path="url(#p95353897be)">
     <use style="fill:#c54c36;fill-opacity:0.2;stroke:#c54c36;stroke-opacity:0.2;" x="0" xlink:href="#m0ae1b5d5d6" y="1980"/>
    </g>
   </g>
   <g id="matplotlib.axis_1">
    <g id="xtick_1">
     <g id="line2d_1">
      <defs>
       <path d="M 0 7 
L 0 -7 
" id="m710e73d6cf" style="stroke:#000000;stroke-width:3.5;"/>
      </defs>
      <g>
       <use style="stroke:#000000;stroke-width:3.5;" x="253.8" xlink:href="#m710e73d6cf" y="1732.5"/>
      </g>
     </g>
     <g id="text_1">
      <!-- 0 -->
      <defs>
       <path d="M 31.78125 3.421875 
Q 39.265625 3.421875 42.96875 11.625 
Q 46.6875 19.828125 46.6875 36.375 
Q 46.6875 52.984375 42.96875 61.1875 
Q 39.265625 69.390625 31.78125 69.390625 
Q 24.3125 69.390625 20.59375 61.1875 
Q 16.890625 52.984375 16.890625 36.375 
Q 16.890625 19.828125 20.59375 11.625 
Q 24.3125 3.421875 31.78125 3.421875 
z
M 31.78125 -1.421875 
Q 19.921875 -1.421875 13.25 8.53125 
Q 6.59375 18.5 6.59375 36.375 
Q 6.59375 54.296875 13.25 64.25 
Q 19.921875 74.21875 31.78125 74.21875 
Q 43.703125 74.21875 50.34375 64.25 
Q 56.984375 54.296875 56.984375 36.375 
Q 56.984375 18.5 50.34375 8.53125 
Q 43.703125 -1.421875 31.78125 -1.421875 
z
" id="DejaVuSerif-48"/>
      </defs>
      <g transform="translate(233.121875 1792.389844)scale(0.65 -0.65)">
       <use xlink:href="#DejaVuSerif-48"/>
      </g>
     </g>
    </g>
    <g id="xtick_2">
     <g id="line2d_2">
      <g>
       <use style="stroke:#000000;stroke-width:3.5;" x="638.627586" xlink:href="#m710e73d6cf" y="1732.5"/>
      </g>
     </g>
     <g id="text_2">
      <!-- 10 -->
      <defs>
       <path d="M 14.203125 0 
L 14.203125 5.171875 
L 26.90625 5.171875 
L 26.90625 65.828125 
L 12.203125 56.296875 
L 12.203125 62.703125 
L 29.984375 74.21875 
L 36.71875 74.21875 
L 36.71875 5.171875 
L 49.421875 5.171875 
L 49.421875 0 
z
" id="DejaVuSerif-49"/>
      </defs>
      <g transform="translate(597.271336 1792.389844)scale(0.65 -0.65)">
       <use xlink:href="#DejaVuSerif-49"/>
       <use x="63.623047" xlink:href="#DejaVuSerif-48"/>
      </g>
     </g>
    </g>
    <g id="xtick_3">
     <g id="line2d_3">
      <g>
       <use style="stroke:#000000;stroke-width:3.5;" x="1023.455172" xlink:href="#m710e73d6cf" y="1732.5"/>
      </g>
     </g>
     <g id="text_3">
      <!-- 20 -->
      <defs>
       <path d="M 12.796875 55.515625 
L 7.328125 55.515625 
L 7.328125 68.5 
Q 12.546875 71.296875 17.84375 72.75 
Q 23.140625 74.21875 28.21875 74.21875 
Q 39.59375 74.21875 46.1875 68.703125 
Q 52.78125 63.1875 52.78125 53.71875 
Q 52.78125 43.015625 37.84375 28.125 
Q 36.671875 27 36.078125 26.421875 
L 17.671875 8.015625 
L 48.09375 8.015625 
L 48.09375 17 
L 53.8125 17 
L 53.8125 0 
L 6.78125 0 
L 6.78125 5.328125 
L 28.90625 27.390625 
Q 36.234375 34.71875 39.359375 40.84375 
Q 42.484375 46.96875 42.484375 53.71875 
Q 42.484375 61.078125 38.640625 65.234375 
Q 34.8125 69.390625 28.078125 69.390625 
Q 21.09375 69.390625 17.28125 65.921875 
Q 13.484375 62.453125 12.796875 55.515625 
z
" id="DejaVuSerif-50"/>
      </defs>
      <g transform="translate(982.098922 1792.389844)scale(0.65 -0.65)">
       <use xlink:href="#DejaVuSerif-50"/>
       <use x="63.623047" xlink:href="#DejaVuSerif-48"/>
      </g>
     </g>
    </g>
    <g id="xtick_4">
     <g id="line2d_4">
      <g>
       <use style="stroke:#000000;stroke-width:3.5;" x="1408.282759" xlink:href="#m710e73d6cf" y="1732.5"/>
      </g>
     </g>
     <g id="text_4">
      <!-- 30 -->
      <defs>
       <path d="M 9.71875 69.828125 
Q 15.4375 71.96875 20.671875 73.09375 
Q 25.921875 74.21875 30.515625 74.21875 
Q 41.21875 74.21875 47.21875 69.59375 
Q 53.21875 64.984375 53.21875 56.78125 
Q 53.21875 50.203125 49.0625 45.78125 
Q 44.921875 41.359375 37.3125 39.796875 
Q 46.296875 38.53125 51.25 33.28125 
Q 56.203125 28.03125 56.203125 19.671875 
Q 56.203125 9.46875 49.34375 4.015625 
Q 42.484375 -1.421875 29.59375 -1.421875 
Q 23.875 -1.421875 18.421875 -0.1875 
Q 12.984375 1.03125 7.625 3.515625 
L 7.625 17.671875 
L 13.09375 17.671875 
Q 13.578125 10.640625 17.828125 7.03125 
Q 22.078125 3.421875 29.78125 3.421875 
Q 37.25 3.421875 41.578125 7.734375 
Q 45.90625 12.0625 45.90625 19.578125 
Q 45.90625 28.171875 41.453125 32.59375 
Q 37.015625 37.015625 28.421875 37.015625 
L 23.78125 37.015625 
L 23.78125 42 
L 26.21875 42 
Q 34.765625 42 39.03125 45.53125 
Q 43.3125 49.078125 43.3125 56.203125 
Q 43.3125 62.59375 39.796875 65.984375 
Q 36.28125 69.390625 29.6875 69.390625 
Q 23.09375 69.390625 19.453125 66.265625 
Q 15.828125 63.140625 15.1875 56.984375 
L 9.71875 56.984375 
z
" id="DejaVuSerif-51"/>
      </defs>
      <g transform="translate(1366.926509 1792.389844)scale(0.65 -0.65)">
       <use xlink:href="#DejaVuSerif-51"/>
       <use x="63.623047" xlink:href="#DejaVuSerif-48"/>
      </g>
     </g>
    </g>
   </g>
   <g id="matplotlib.axis_2">
    <g id="ytick_1">
     <g id="line2d_5">
      <defs>
       <path d="M 7 0 
L -7 -0 
" id="m26d4a368d3" style="stroke:#000000;stroke-width:3.5;"/>
      </defs>
      <g>
       <use style="stroke:#000000;stroke-width:3.5;" x="198" xlink:href="#m26d4a368d3" y="1732.5"/>
      </g>
     </g>
     <g id="text_5">
      <!-- 0.0 -->
      <defs>
       <path d="M 9.421875 5.078125 
Q 9.421875 7.8125 11.28125 9.71875 
Q 13.140625 11.625 15.921875 11.625 
Q 18.609375 11.625 20.5 9.71875 
Q 22.40625 7.8125 22.40625 5.078125 
Q 22.40625 2.390625 20.5 0.484375 
Q 18.609375 -1.421875 15.921875 -1.421875 
Q 13.140625 -1.421875 11.28125 0.453125 
Q 9.421875 2.34375 9.421875 5.078125 
z
" id="DejaVuSerif-46"/>
      </defs>
      <g transform="translate(84.129688 1757.194922)scale(0.65 -0.65)">
       <use xlink:href="#DejaVuSerif-48"/>
       <use x="63.623047" xlink:href="#DejaVuSerif-46"/>
       <use x="95.410156" xlink:href="#DejaVuSerif-48"/>
      </g>
     </g>
    </g>
    <g id="ytick_2">
     <g id="line2d_6">
      <g>
       <use style="stroke:#000000;stroke-width:3.5;" x="198" xlink:href="#m26d4a368d3" y="1460.7"/>
      </g>
     </g>
     <g id="text_6">
      <!-- 0.2 -->
      <g transform="translate(84.129688 1485.394922)scale(0.65 -0.65)">
       <use xlink:href="#DejaVuSerif-48"/>
       <use x="63.623047" xlink:href="#DejaVuSerif-46"/>
       <use x="95.410156" xlink:href="#DejaVuSerif-50"/>
      </g>
     </g>
    </g>
    <g id="ytick_3">
     <g id="line2d_7">
      <g>
       <use style="stroke:#000000;stroke-width:3.5;" x="198" xlink:href="#m26d4a368d3" y="1188.9"/>
      </g>
     </g>
     <g id="text_7">
      <!-- 0.4 -->
      <defs>
       <path d="M 34.90625 24.703125 
L 34.90625 63.484375 
L 10.015625 24.703125 
z
M 56.390625 0 
L 23.1875 0 
L 23.1875 5.171875 
L 34.90625 5.171875 
L 34.90625 19.484375 
L 3.078125 19.484375 
L 3.078125 24.8125 
L 35.015625 74.21875 
L 44.671875 74.21875 
L 44.671875 24.703125 
L 58.59375 24.703125 
L 58.59375 19.484375 
L 44.671875 19.484375 
L 44.671875 5.171875 
L 56.390625 5.171875 
z
" id="DejaVuSerif-52"/>
      </defs>
      <g transform="translate(84.129688 1213.594922)scale(0.65 -0.65)">
       <use xlink:href="#DejaVuSerif-48"/>
       <use x="63.623047" xlink:href="#DejaVuSerif-46"/>
       <use x="95.410156" xlink:href="#DejaVuSerif-52"/>
      </g>
     </g>
    </g>
    <g id="ytick_4">
     <g id="line2d_8">
      <g>
       <use style="stroke:#000000;stroke-width:3.5;" x="198" xlink:href="#m26d4a368d3" y="917.1"/>
      </g>
     </g>
     <g id="text_8">
      <!-- 0.6 -->
      <defs>
       <path d="M 32.71875 3.421875 
Q 39.59375 3.421875 43.296875 8.46875 
Q 47.015625 13.53125 47.015625 23 
Q 47.015625 32.46875 43.296875 37.515625 
Q 39.59375 42.578125 32.71875 42.578125 
Q 25.734375 42.578125 22.0625 37.6875 
Q 18.40625 32.8125 18.40625 23.578125 
Q 18.40625 13.875 22.109375 8.640625 
Q 25.828125 3.421875 32.71875 3.421875 
z
M 16.796875 40.140625 
Q 20.125 43.796875 24.3125 45.59375 
Q 28.515625 47.40625 33.796875 47.40625 
Q 44.671875 47.40625 51 40.859375 
Q 57.328125 34.328125 57.328125 23 
Q 57.328125 11.921875 50.515625 5.25 
Q 43.703125 -1.421875 32.328125 -1.421875 
Q 19.96875 -1.421875 13.328125 7.78125 
Q 6.6875 17 6.6875 34.078125 
Q 6.6875 53.21875 14.546875 63.71875 
Q 22.40625 74.21875 36.71875 74.21875 
Q 40.578125 74.21875 44.828125 73.484375 
Q 49.078125 72.75 53.515625 71.296875 
L 53.515625 59.28125 
L 48 59.28125 
Q 47.40625 64.203125 44.234375 66.796875 
Q 41.0625 69.390625 35.6875 69.390625 
Q 26.21875 69.390625 21.578125 62.203125 
Q 16.9375 55.03125 16.796875 40.140625 
z
" id="DejaVuSerif-54"/>
      </defs>
      <g transform="translate(84.129688 941.794922)scale(0.65 -0.65)">
       <use xlink:href="#DejaVuSerif-48"/>
       <use x="63.623047" xlink:href="#DejaVuSerif-46"/>
       <use x="95.410156" xlink:href="#DejaVuSerif-54"/>
      </g>
     </g>
    </g>
    <g id="ytick_5">
     <g id="line2d_9">
      <g>
       <use style="stroke:#000000;stroke-width:3.5;" x="198" xlink:href="#m26d4a368d3" y="645.3"/>
      </g>
     </g>
     <g id="text_9">
      <!-- 0.8 -->
      <defs>
       <path d="M 46.578125 19.921875 
Q 46.578125 27.734375 42.6875 32.046875 
Q 38.8125 36.375 31.78125 36.375 
Q 24.75 36.375 20.875 32.046875 
Q 17 27.734375 17 19.921875 
Q 17 12.0625 20.875 7.734375 
Q 24.75 3.421875 31.78125 3.421875 
Q 38.8125 3.421875 42.6875 7.734375 
Q 46.578125 12.0625 46.578125 19.921875 
z
M 44.578125 55.328125 
Q 44.578125 61.96875 41.203125 65.671875 
Q 37.84375 69.390625 31.78125 69.390625 
Q 25.78125 69.390625 22.390625 65.671875 
Q 19 61.96875 19 55.328125 
Q 19 48.640625 22.390625 44.921875 
Q 25.78125 41.21875 31.78125 41.21875 
Q 37.84375 41.21875 41.203125 44.921875 
Q 44.578125 48.640625 44.578125 55.328125 
z
M 39.3125 38.8125 
Q 47.609375 37.703125 52.25 32.6875 
Q 56.890625 27.6875 56.890625 19.921875 
Q 56.890625 9.671875 50.390625 4.125 
Q 43.890625 -1.421875 31.78125 -1.421875 
Q 19.734375 -1.421875 13.203125 4.125 
Q 6.6875 9.671875 6.6875 19.921875 
Q 6.6875 27.6875 11.328125 32.6875 
Q 15.96875 37.703125 24.3125 38.8125 
Q 16.9375 40.140625 13 44.40625 
Q 9.078125 48.6875 9.078125 55.328125 
Q 9.078125 64.109375 15.125 69.15625 
Q 21.1875 74.21875 31.78125 74.21875 
Q 42.390625 74.21875 48.4375 69.15625 
Q 54.5 64.109375 54.5 55.328125 
Q 54.5 48.6875 50.5625 44.40625 
Q 46.625 40.140625 39.3125 38.8125 
z
" id="DejaVuSerif-56"/>
      </defs>
      <g transform="translate(84.129688 669.994922)scale(0.65 -0.65)">
       <use xlink:href="#DejaVuSerif-48"/>
       <use x="63.623047" xlink:href="#DejaVuSerif-46"/>
       <use x="95.410156" xlink:href="#DejaVuSerif-56"/>
      </g>
     </g>
    </g>
    <g id="ytick_6">
     <g id="line2d_10">
      <g>
       <use style="stroke:#000000;stroke-width:3.5;" x="198" xlink:href="#m26d4a368d3" y="373.5"/>
      </g>
     </g>
     <g id="text_10">
      <!-- 1.0 -->
      <g transform="translate(84.129688 398.194922)scale(0.65 -0.65)">
       <use xlink:href="#DejaVuSerif-49"/>
       <use x="63.623047" xlink:href="#DejaVuSerif-46"/>
       <use x="95.410156" xlink:href="#DejaVuSerif-48"/>
      </g>
     </g>
    </g>
   </g>
   <g id="line2d_11">
    <path clip-path="url(#p95353897be)" d="M 253.8 373.5 
L 292.282759 373.510469 
L 330.765517 373.897849 
L 369.248276 380.064111 
L 407.731034 400.42877 
L 446.213793 627.494251 
L 484.696552 723.419314 
L 523.17931 974.754347 
L 561.662069 1023.525934 
L 600.144828 1085.444195 
L 638.627586 1241.951922 
L 677.110345 1330.964976 
L 715.593103 1346.299079 
L 754.075862 1448.753557 
L 792.558621 1542.340528 
L 831.041379 1614.962287 
L 869.524138 1625.218378 
L 908.006897 1669.08838 
L 946.489655 1697.703557 
L 984.972414 1707.187557 
L 1023.455172 1711.680796 
L 1061.937931 1717.591221 
L 1100.42069 1718.58233 
L 1138.903448 1719.255684 
L 1177.386207 1717.657051 
L 1215.868966 1716.452397 
L 1254.351724 1719.477648 
L 1292.834483 1720.080329 
L 1331.317241 1717.858316 
L 1369.8 1717.812664 
" style="fill:none;stroke:#74c265;stroke-linecap:square;stroke-width:4;"/>
    <defs>
     <path d="M 0 7.5 
C 1.989023 7.5 3.896849 6.709753 5.303301 5.303301 
C 6.709753 3.896849 7.5 1.989023 7.5 0 
C 7.5 -1.989023 6.709753 -3.896849 5.303301 -5.303301 
C 3.896849 -6.709753 1.989023 -7.5 0 -7.5 
C -1.989023 -7.5 -3.896849 -6.709753 -5.303301 -5.303301 
C -6.709753 -3.896849 -7.5 -1.989023 -7.5 0 
C -7.5 1.989023 -6.709753 3.896849 -5.303301 5.303301 
C -3.896849 6.709753 -1.989023 7.5 0 7.5 
z
" id="me8f0a1cfa8" style="stroke:#74c265;"/>
    </defs>
    <g clip-path="url(#p95353897be)">
     <use style="fill:#74c265;stroke:#74c265;" x="253.8" xlink:href="#me8f0a1cfa8" y="373.5"/>
     <use style="fill:#74c265;stroke:#74c265;" x="292.282759" xlink:href="#me8f0a1cfa8" y="373.510469"/>
     <use style="fill:#74c265;stroke:#74c265;" x="330.765517" xlink:href="#me8f0a1cfa8" y="373.897849"/>
     <use style="fill:#74c265;stroke:#74c265;" x="369.248276" xlink:href="#me8f0a1cfa8" y="380.064111"/>
     <use style="fill:#74c265;stroke:#74c265;" x="407.731034" xlink:href="#me8f0a1cfa8" y="400.42877"/>
     <use style="fill:#74c265;stroke:#74c265;" x="446.213793" xlink:href="#me8f0a1cfa8" y="627.494251"/>
     <use style="fill:#74c265;stroke:#74c265;" x="484.696552" xlink:href="#me8f0a1cfa8" y="723.419314"/>
     <use style="fill:#74c265;stroke:#74c265;" x="523.17931" xlink:href="#me8f0a1cfa8" y="974.754347"/>
     <use style="fill:#74c265;stroke:#74c265;" x="561.662069" xlink:href="#me8f0a1cfa8" y="1023.525934"/>
     <use style="fill:#74c265;stroke:#74c265;" x="600.144828" xlink:href="#me8f0a1cfa8" y="1085.444195"/>
     <use style="fill:#74c265;stroke:#74c265;" x="638.627586" xlink:href="#me8f0a1cfa8" y="1241.951922"/>
     <use style="fill:#74c265;stroke:#74c265;" x="677.110345" xlink:href="#me8f0a1cfa8" y="1330.964976"/>
     <use style="fill:#74c265;stroke:#74c265;" x="715.593103" xlink:href="#me8f0a1cfa8" y="1346.299079"/>
     <use style="fill:#74c265;stroke:#74c265;" x="754.075862" xlink:href="#me8f0a1cfa8" y="1448.753557"/>
     <use style="fill:#74c265;stroke:#74c265;" x="792.558621" xlink:href="#me8f0a1cfa8" y="1542.340528"/>
     <use style="fill:#74c265;stroke:#74c265;" x="831.041379" xlink:href="#me8f0a1cfa8" y="1614.962287"/>
     <use style="fill:#74c265;stroke:#74c265;" x="869.524138" xlink:href="#me8f0a1cfa8" y="1625.218378"/>
     <use style="fill:#74c265;stroke:#74c265;" x="908.006897" xlink:href="#me8f0a1cfa8" y="1669.08838"/>
     <use style="fill:#74c265;stroke:#74c265;" x="946.489655" xlink:href="#me8f0a1cfa8" y="1697.703557"/>
     <use style="fill:#74c265;stroke:#74c265;" x="984.972414" xlink:href="#me8f0a1cfa8" y="1707.187557"/>
     <use style="fill:#74c265;stroke:#74c265;" x="1023.455172" xlink:href="#me8f0a1cfa8" y="1711.680796"/>
     <use style="fill:#74c265;stroke:#74c265;" x="1061.937931" xlink:href="#me8f0a1cfa8" y="1717.591221"/>
     <use style="fill:#74c265;stroke:#74c265;" x="1100.42069" xlink:href="#me8f0a1cfa8" y="1718.58233"/>
     <use style="fill:#74c265;stroke:#74c265;" x="1138.903448" xlink:href="#me8f0a1cfa8" y="1719.255684"/>
     <use style="fill:#74c265;stroke:#74c265;" x="1177.386207" xlink:href="#me8f0a1cfa8" y="1717.657051"/>
     <use style="fill:#74c265;stroke:#74c265;" x="1215.868966" xlink:href="#me8f0a1cfa8" y="1716.452397"/>
     <use style="fill:#74c265;stroke:#74c265;" x="1254.351724" xlink:href="#me8f0a1cfa8" y="1719.477648"/>
     <use style="fill:#74c265;stroke:#74c265;" x="1292.834483" xlink:href="#me8f0a1cfa8" y="1720.080329"/>
     <use style="fill:#74c265;stroke:#74c265;" x="1331.317241" xlink:href="#me8f0a1cfa8" y="1717.858316"/>
     <use style="fill:#74c265;stroke:#74c265;" x="1369.8" xlink:href="#me8f0a1cfa8" y="1717.812664"/>
    </g>
   </g>
   <g id="line2d_12">
    <path clip-path="url(#p95353897be)" d="M 253.8 373.5 
L 292.282759 373.514941 
L 330.765517 374.039665 
L 369.248276 382.77207 
L 407.731034 408.521533 
L 446.213793 705.692211 
L 484.696552 796.879171 
L 523.17931 1080.907468 
L 561.662069 1132.128724 
L 600.144828 1204.076144 
L 638.627586 1366.635175 
L 677.110345 1460.215825 
L 715.593103 1466.973733 
L 754.075862 1570.710959 
L 792.558621 1638.694996 
L 831.041379 1692.0438 
L 869.524138 1694.981166 
L 908.006897 1725.152634 
L 946.489655 1737.408055 
L 984.972414 1738.192317 
L 1023.455172 1738.23189 
L 1061.937931 1737.342263 
L 1100.42069 1736.561983 
L 1138.903448 1736.987024 
L 1177.386207 1737.701298 
L 1215.868966 1740.110306 
L 1254.351724 1742.127009 
L 1292.834483 1739.789185 
L 1331.317241 1735.821404 
L 1369.8 1737.53177 
" style="fill:none;stroke:#74c265;stroke-dasharray:5.55,2.4;stroke-dashoffset:0;stroke-width:1.5;"/>
   </g>
   <g id="line2d_13">
    <path clip-path="url(#p95353897be)" d="M 253.8 373.5 
L 292.282759 373.505997 
L 330.765517 373.756033 
L 369.248276 377.356151 
L 407.731034 392.336007 
L 446.213793 549.29629 
L 484.696552 649.959457 
L 523.17931 868.601225 
L 561.662069 914.923145 
L 600.144828 966.812246 
L 638.627586 1117.268669 
L 677.110345 1201.714127 
L 715.593103 1225.624425 
L 754.075862 1326.796154 
L 792.558621 1445.98606 
L 831.041379 1537.880775 
L 869.524138 1555.455591 
L 908.006897 1613.024125 
L 946.489655 1657.999058 
L 984.972414 1676.182797 
L 1023.455172 1685.129703 
L 1061.937931 1697.840179 
L 1100.42069 1700.602678 
L 1138.903448 1701.524343 
L 1177.386207 1697.612803 
L 1215.868966 1692.794489 
L 1254.351724 1696.828287 
L 1292.834483 1700.371473 
L 1331.317241 1699.895228 
L 1369.8 1698.093558 
" style="fill:none;stroke:#74c265;stroke-dasharray:5.55,2.4;stroke-dashoffset:0;stroke-width:1.5;"/>
   </g>
   <g id="line2d_14">
    <path clip-path="url(#p95353897be)" d="M 253.8 373.5 
L 292.282759 373.509604 
L 330.765517 373.8796 
L 369.248276 379.533277 
L 407.731034 399.972338 
L 446.213793 608.497581 
L 484.696552 715.85276 
L 523.17931 981.531977 
L 561.662069 1015.29764 
L 600.144828 1093.855945 
L 638.627586 1242.70912 
L 677.110345 1350.497581 
L 715.593103 1415.157849 
L 754.075862 1451.483824 
L 792.558621 1554.242613 
L 831.041379 1621.898823 
L 869.524138 1630.035809 
L 908.006897 1666.482958 
L 946.489655 1697.473327 
L 984.972414 1709.598121 
L 1023.455172 1711.803147 
L 1061.937931 1715.235658 
L 1100.42069 1716.355899 
L 1138.903448 1718.821379 
L 1177.386207 1717.732738 
L 1215.868966 1715.339743 
L 1254.351724 1718.353705 
L 1292.834483 1719.555367 
L 1331.317241 1718.326437 
L 1369.8 1718.929984 
" style="fill:none;stroke:#ff9933;stroke-linecap:square;stroke-width:4;"/>
    <defs>
     <path d="M 0 7.5 
C 1.989023 7.5 3.896849 6.709753 5.303301 5.303301 
C 6.709753 3.896849 7.5 1.989023 7.5 0 
C 7.5 -1.989023 6.709753 -3.896849 5.303301 -5.303301 
C 3.896849 -6.709753 1.989023 -7.5 0 -7.5 
C -1.989023 -7.5 -3.896849 -6.709753 -5.303301 -5.303301 
C -6.709753 -3.896849 -7.5 -1.989023 -7.5 0 
C -7.5 1.989023 -6.709753 3.896849 -5.303301 5.303301 
C -3.896849 6.709753 -1.989023 7.5 0 7.5 
z
" id="m63529ce922" style="stroke:#ff9933;"/>
    </defs>
    <g clip-path="url(#p95353897be)">
     <use style="fill:#ff9933;stroke:#ff9933;" x="253.8" xlink:href="#m63529ce922" y="373.5"/>
     <use style="fill:#ff9933;stroke:#ff9933;" x="292.282759" xlink:href="#m63529ce922" y="373.509604"/>
     <use style="fill:#ff9933;stroke:#ff9933;" x="330.765517" xlink:href="#m63529ce922" y="373.8796"/>
     <use style="fill:#ff9933;stroke:#ff9933;" x="369.248276" xlink:href="#m63529ce922" y="379.533277"/>
     <use style="fill:#ff9933;stroke:#ff9933;" x="407.731034" xlink:href="#m63529ce922" y="399.972338"/>
     <use style="fill:#ff9933;stroke:#ff9933;" x="446.213793" xlink:href="#m63529ce922" y="608.497581"/>
     <use style="fill:#ff9933;stroke:#ff9933;" x="484.696552" xlink:href="#m63529ce922" y="715.85276"/>
     <use style="fill:#ff9933;stroke:#ff9933;" x="523.17931" xlink:href="#m63529ce922" y="981.531977"/>
     <use style="fill:#ff9933;stroke:#ff9933;" x="561.662069" xlink:href="#m63529ce922" y="1015.29764"/>
     <use style="fill:#ff9933;stroke:#ff9933;" x="600.144828" xlink:href="#m63529ce922" y="1093.855945"/>
     <use style="fill:#ff9933;stroke:#ff9933;" x="638.627586" xlink:href="#m63529ce922" y="1242.70912"/>
     <use style="fill:#ff9933;stroke:#ff9933;" x="677.110345" xlink:href="#m63529ce922" y="1350.497581"/>
     <use style="fill:#ff9933;stroke:#ff9933;" x="715.593103" xlink:href="#m63529ce922" y="1415.157849"/>
     <use style="fill:#ff9933;stroke:#ff9933;" x="754.075862" xlink:href="#m63529ce922" y="1451.483824"/>
     <use style="fill:#ff9933;stroke:#ff9933;" x="792.558621" xlink:href="#m63529ce922" y="1554.242613"/>
     <use style="fill:#ff9933;stroke:#ff9933;" x="831.041379" xlink:href="#m63529ce922" y="1621.898823"/>
     <use style="fill:#ff9933;stroke:#ff9933;" x="869.524138" xlink:href="#m63529ce922" y="1630.035809"/>
     <use style="fill:#ff9933;stroke:#ff9933;" x="908.006897" xlink:href="#m63529ce922" y="1666.482958"/>
     <use style="fill:#ff9933;stroke:#ff9933;" x="946.489655" xlink:href="#m63529ce922" y="1697.473327"/>
     <use style="fill:#ff9933;stroke:#ff9933;" x="984.972414" xlink:href="#m63529ce922" y="1709.598121"/>
     <use style="fill:#ff9933;stroke:#ff9933;" x="1023.455172" xlink:href="#m63529ce922" y="1711.803147"/>
     <use style="fill:#ff9933;stroke:#ff9933;" x="1061.937931" xlink:href="#m63529ce922" y="1715.235658"/>
     <use style="fill:#ff9933;stroke:#ff9933;" x="1100.42069" xlink:href="#m63529ce922" y="1716.355899"/>
     <use style="fill:#ff9933;stroke:#ff9933;" x="1138.903448" xlink:href="#m63529ce922" y="1718.821379"/>
     <use style="fill:#ff9933;stroke:#ff9933;" x="1177.386207" xlink:href="#m63529ce922" y="1717.732738"/>
     <use style="fill:#ff9933;stroke:#ff9933;" x="1215.868966" xlink:href="#m63529ce922" y="1715.339743"/>
     <use style="fill:#ff9933;stroke:#ff9933;" x="1254.351724" xlink:href="#m63529ce922" y="1718.353705"/>
     <use style="fill:#ff9933;stroke:#ff9933;" x="1292.834483" xlink:href="#m63529ce922" y="1719.555367"/>
     <use style="fill:#ff9933;stroke:#ff9933;" x="1331.317241" xlink:href="#m63529ce922" y="1718.326437"/>
     <use style="fill:#ff9933;stroke:#ff9933;" x="1369.8" xlink:href="#m63529ce922" y="1718.929984"/>
    </g>
   </g>
   <g id="line2d_15">
    <path clip-path="url(#p95353897be)" d="M 253.8 373.5 
L 292.282759 373.514322 
L 330.765517 374.015477 
L 369.248276 381.502016 
L 407.731034 408.380774 
L 446.213793 674.53661 
L 484.696552 787.708538 
L 523.17931 1087.524753 
L 561.662069 1126.739018 
L 600.144828 1216.991915 
L 638.627586 1368.501079 
L 677.110345 1476.600103 
L 715.593103 1536.576572 
L 754.075862 1572.165343 
L 792.558621 1650.401731 
L 831.041379 1696.614795 
L 869.524138 1698.610898 
L 908.006897 1724.70213 
L 946.489655 1737.93746 
L 984.972414 1739.961039 
L 1023.455172 1739.027637 
L 1061.937931 1736.452757 
L 1100.42069 1736.956105 
L 1138.903448 1738.079214 
L 1177.386207 1737.747529 
L 1215.868966 1740.790411 
L 1254.351724 1741.394033 
L 1292.834483 1737.982442 
L 1331.317241 1735.36016 
L 1369.8 1735.866732 
" style="fill:none;stroke:#ff9933;stroke-dasharray:5.55,2.4;stroke-dashoffset:0;stroke-width:1.5;"/>
   </g>
   <g id="line2d_16">
    <path clip-path="url(#p95353897be)" d="M 253.8 373.5 
L 292.282759 373.504886 
L 330.765517 373.743724 
L 369.248276 377.564538 
L 407.731034 391.563901 
L 446.213793 542.458553 
L 484.696552 643.996982 
L 523.17931 875.539201 
L 561.662069 903.856261 
L 600.144828 970.719975 
L 638.627586 1116.917161 
L 677.110345 1224.395059 
L 715.593103 1293.739127 
L 754.075862 1330.802306 
L 792.558621 1458.083494 
L 831.041379 1547.182851 
L 869.524138 1561.46072 
L 908.006897 1608.263787 
L 946.489655 1657.009195 
L 984.972414 1679.235203 
L 1023.455172 1684.578658 
L 1061.937931 1694.018559 
L 1100.42069 1695.755692 
L 1138.903448 1699.563543 
L 1177.386207 1697.717947 
L 1215.868966 1689.889074 
L 1254.351724 1695.313378 
L 1292.834483 1701.128292 
L 1331.317241 1701.292713 
L 1369.8 1701.993235 
" style="fill:none;stroke:#ff9933;stroke-dasharray:5.55,2.4;stroke-dashoffset:0;stroke-width:1.5;"/>
   </g>
   <g id="line2d_17">
    <path clip-path="url(#p95353897be)" d="M 253.8 373.5 
L 292.282759 373.50873 
L 330.765517 373.805786 
L 369.248276 379.296593 
L 407.731034 398.120724 
L 446.213793 614.946869 
L 484.696552 699.390952 
L 523.17931 1003.299111 
L 561.662069 1030.221538 
L 600.144828 1100.431444 
L 638.627586 1260.787641 
L 677.110345 1324.418097 
L 715.593103 1422.049075 
L 754.075862 1483.449206 
L 792.558621 1571.763011 
L 831.041379 1635.254078 
L 869.524138 1655.651567 
L 908.006897 1682.89553 
L 946.489655 1704.933621 
L 984.972414 1712.254929 
L 1023.455172 1710.433176 
L 1061.937931 1714.501647 
L 1100.42069 1716.110108 
L 1138.903448 1719.366133 
L 1177.386207 1718.524989 
L 1215.868966 1716.726898 
L 1254.351724 1719.134764 
L 1292.834483 1719.974547 
L 1331.317241 1718.938062 
L 1369.8 1718.842607 
" style="fill:none;stroke:#d1aa9f;stroke-linecap:square;stroke-width:4;"/>
    <defs>
     <path d="M 0 7.5 
C 1.989023 7.5 3.896849 6.709753 5.303301 5.303301 
C 6.709753 3.896849 7.5 1.989023 7.5 0 
C 7.5 -1.989023 6.709753 -3.896849 5.303301 -5.303301 
C 3.896849 -6.709753 1.989023 -7.5 0 -7.5 
C -1.989023 -7.5 -3.896849 -6.709753 -5.303301 -5.303301 
C -6.709753 -3.896849 -7.5 -1.989023 -7.5 0 
C -7.5 1.989023 -6.709753 3.896849 -5.303301 5.303301 
C -3.896849 6.709753 -1.989023 7.5 0 7.5 
z
" id="md1d95bf288" style="stroke:#d1aa9f;"/>
    </defs>
    <g clip-path="url(#p95353897be)">
     <use style="fill:#d1aa9f;stroke:#d1aa9f;" x="253.8" xlink:href="#md1d95bf288" y="373.5"/>
     <use style="fill:#d1aa9f;stroke:#d1aa9f;" x="292.282759" xlink:href="#md1d95bf288" y="373.50873"/>
     <use style="fill:#d1aa9f;stroke:#d1aa9f;" x="330.765517" xlink:href="#md1d95bf288" y="373.805786"/>
     <use style="fill:#d1aa9f;stroke:#d1aa9f;" x="369.248276" xlink:href="#md1d95bf288" y="379.296593"/>
     <use style="fill:#d1aa9f;stroke:#d1aa9f;" x="407.731034" xlink:href="#md1d95bf288" y="398.120724"/>
     <use style="fill:#d1aa9f;stroke:#d1aa9f;" x="446.213793" xlink:href="#md1d95bf288" y="614.946869"/>
     <use style="fill:#d1aa9f;stroke:#d1aa9f;" x="484.696552" xlink:href="#md1d95bf288" y="699.390952"/>
     <use style="fill:#d1aa9f;stroke:#d1aa9f;" x="523.17931" xlink:href="#md1d95bf288" y="1003.299111"/>
     <use style="fill:#d1aa9f;stroke:#d1aa9f;" x="561.662069" xlink:href="#md1d95bf288" y="1030.221538"/>
     <use style="fill:#d1aa9f;stroke:#d1aa9f;" x="600.144828" xlink:href="#md1d95bf288" y="1100.431444"/>
     <use style="fill:#d1aa9f;stroke:#d1aa9f;" x="638.627586" xlink:href="#md1d95bf288" y="1260.787641"/>
     <use style="fill:#d1aa9f;stroke:#d1aa9f;" x="677.110345" xlink:href="#md1d95bf288" y="1324.418097"/>
     <use style="fill:#d1aa9f;stroke:#d1aa9f;" x="715.593103" xlink:href="#md1d95bf288" y="1422.049075"/>
     <use style="fill:#d1aa9f;stroke:#d1aa9f;" x="754.075862" xlink:href="#md1d95bf288" y="1483.449206"/>
     <use style="fill:#d1aa9f;stroke:#d1aa9f;" x="792.558621" xlink:href="#md1d95bf288" y="1571.763011"/>
     <use style="fill:#d1aa9f;stroke:#d1aa9f;" x="831.041379" xlink:href="#md1d95bf288" y="1635.254078"/>
     <use style="fill:#d1aa9f;stroke:#d1aa9f;" x="869.524138" xlink:href="#md1d95bf288" y="1655.651567"/>
     <use style="fill:#d1aa9f;stroke:#d1aa9f;" x="908.006897" xlink:href="#md1d95bf288" y="1682.89553"/>
     <use style="fill:#d1aa9f;stroke:#d1aa9f;" x="946.489655" xlink:href="#md1d95bf288" y="1704.933621"/>
     <use style="fill:#d1aa9f;stroke:#d1aa9f;" x="984.972414" xlink:href="#md1d95bf288" y="1712.254929"/>
     <use style="fill:#d1aa9f;stroke:#d1aa9f;" x="1023.455172" xlink:href="#md1d95bf288" y="1710.433176"/>
     <use style="fill:#d1aa9f;stroke:#d1aa9f;" x="1061.937931" xlink:href="#md1d95bf288" y="1714.501647"/>
     <use style="fill:#d1aa9f;stroke:#d1aa9f;" x="1100.42069" xlink:href="#md1d95bf288" y="1716.110108"/>
     <use style="fill:#d1aa9f;stroke:#d1aa9f;" x="1138.903448" xlink:href="#md1d95bf288" y="1719.366133"/>
     <use style="fill:#d1aa9f;stroke:#d1aa9f;" x="1177.386207" xlink:href="#md1d95bf288" y="1718.524989"/>
     <use style="fill:#d1aa9f;stroke:#d1aa9f;" x="1215.868966" xlink:href="#md1d95bf288" y="1716.726898"/>
     <use style="fill:#d1aa9f;stroke:#d1aa9f;" x="1254.351724" xlink:href="#md1d95bf288" y="1719.134764"/>
     <use style="fill:#d1aa9f;stroke:#d1aa9f;" x="1292.834483" xlink:href="#md1d95bf288" y="1719.974547"/>
     <use style="fill:#d1aa9f;stroke:#d1aa9f;" x="1331.317241" xlink:href="#md1d95bf288" y="1718.938062"/>
     <use style="fill:#d1aa9f;stroke:#d1aa9f;" x="1369.8" xlink:href="#md1d95bf288" y="1718.842607"/>
    </g>
   </g>
   <g id="line2d_18">
    <path clip-path="url(#p95353897be)" d="M 253.8 373.5 
L 292.282759 373.512932 
L 330.765517 373.911419 
L 369.248276 381.354136 
L 407.731034 406.612432 
L 446.213793 686.723923 
L 484.696552 769.746673 
L 523.17931 1108.360257 
L 561.662069 1141.938528 
L 600.144828 1222.545953 
L 638.627586 1385.922794 
L 677.110345 1459.634755 
L 715.593103 1544.051418 
L 754.075862 1594.907974 
L 792.558621 1666.1369 
L 831.041379 1705.287246 
L 869.524138 1713.759765 
L 908.006897 1731.944903 
L 946.489655 1738.452946 
L 984.972414 1740.637089 
L 1023.455172 1739.702507 
L 1061.937931 1737.056224 
L 1100.42069 1736.384962 
L 1138.903448 1736.970379 
L 1177.386207 1739.409698 
L 1215.868966 1737.223386 
L 1254.351724 1741.844999 
L 1292.834483 1739.210701 
L 1331.317241 1736.589812 
L 1369.8 1736.532242 
" style="fill:none;stroke:#d1aa9f;stroke-dasharray:5.55,2.4;stroke-dashoffset:0;stroke-width:1.5;"/>
   </g>
   <g id="line2d_19">
    <path clip-path="url(#p95353897be)" d="M 253.8 373.5 
L 292.282759 373.504528 
L 330.765517 373.700153 
L 369.248276 377.239049 
L 407.731034 389.629015 
L 446.213793 543.169814 
L 484.696552 629.035231 
L 523.17931 898.237965 
L 561.662069 918.504547 
L 600.144828 978.316936 
L 638.627586 1135.652487 
L 677.110345 1189.201439 
L 715.593103 1300.046731 
L 754.075862 1371.990438 
L 792.558621 1477.389122 
L 831.041379 1565.22091 
L 869.524138 1597.54337 
L 908.006897 1633.846157 
L 946.489655 1671.414296 
L 984.972414 1683.872769 
L 1023.455172 1681.163846 
L 1061.937931 1691.94707 
L 1100.42069 1695.835255 
L 1138.903448 1701.761887 
L 1177.386207 1697.64028 
L 1215.868966 1696.230409 
L 1254.351724 1696.424529 
L 1292.834483 1700.738392 
L 1331.317241 1701.286312 
L 1369.8 1701.152973 
" style="fill:none;stroke:#d1aa9f;stroke-dasharray:5.55,2.4;stroke-dashoffset:0;stroke-width:1.5;"/>
   </g>
   <g id="line2d_20">
    <path clip-path="url(#p95353897be)" d="M 253.8 373.5 
L 292.282759 373.506941 
L 330.765517 373.727081 
L 369.248276 375.997658 
L 407.731034 401.448299 
L 446.213793 588.09302 
L 484.696552 842.313181 
L 523.17931 1045.443784 
L 561.662069 1295.307216 
L 600.144828 1309.603289 
L 638.627586 1546.629894 
L 677.110345 1653.916805 
L 715.593103 1664.582117 
L 754.075862 1688.41536 
L 792.558621 1704.418164 
L 831.041379 1715.514382 
L 869.524138 1716.275617 
L 908.006897 1719.645294 
L 946.489655 1719.150568 
L 984.972414 1719.672503 
L 1023.455172 1721.171889 
L 1061.937931 1718.575392 
L 1100.42069 1720.590825 
L 1138.903448 1718.791713 
L 1177.386207 1718.063398 
L 1215.868966 1715.475558 
L 1254.351724 1720.936102 
L 1292.834483 1718.677827 
L 1331.317241 1718.781323 
L 1369.8 1719.592046 
" style="fill:none;stroke:#005394;stroke-linecap:square;stroke-width:4;"/>
    <defs>
     <path d="M 0 7.5 
C 1.989023 7.5 3.896849 6.709753 5.303301 5.303301 
C 6.709753 3.896849 7.5 1.989023 7.5 0 
C 7.5 -1.989023 6.709753 -3.896849 5.303301 -5.303301 
C 3.896849 -6.709753 1.989023 -7.5 0 -7.5 
C -1.989023 -7.5 -3.896849 -6.709753 -5.303301 -5.303301 
C -6.709753 -3.896849 -7.5 -1.989023 -7.5 0 
C -7.5 1.989023 -6.709753 3.896849 -5.303301 5.303301 
C -3.896849 6.709753 -1.989023 7.5 0 7.5 
z
" id="m1102fb8509" style="stroke:#005394;"/>
    </defs>
    <g clip-path="url(#p95353897be)">
     <use style="fill:#005394;stroke:#005394;" x="253.8" xlink:href="#m1102fb8509" y="373.5"/>
     <use style="fill:#005394;stroke:#005394;" x="292.282759" xlink:href="#m1102fb8509" y="373.506941"/>
     <use style="fill:#005394;stroke:#005394;" x="330.765517" xlink:href="#m1102fb8509" y="373.727081"/>
     <use style="fill:#005394;stroke:#005394;" x="369.248276" xlink:href="#m1102fb8509" y="375.997658"/>
     <use style="fill:#005394;stroke:#005394;" x="407.731034" xlink:href="#m1102fb8509" y="401.448299"/>
     <use style="fill:#005394;stroke:#005394;" x="446.213793" xlink:href="#m1102fb8509" y="588.09302"/>
     <use style="fill:#005394;stroke:#005394;" x="484.696552" xlink:href="#m1102fb8509" y="842.313181"/>
     <use style="fill:#005394;stroke:#005394;" x="523.17931" xlink:href="#m1102fb8509" y="1045.443784"/>
     <use style="fill:#005394;stroke:#005394;" x="561.662069" xlink:href="#m1102fb8509" y="1295.307216"/>
     <use style="fill:#005394;stroke:#005394;" x="600.144828" xlink:href="#m1102fb8509" y="1309.603289"/>
     <use style="fill:#005394;stroke:#005394;" x="638.627586" xlink:href="#m1102fb8509" y="1546.629894"/>
     <use style="fill:#005394;stroke:#005394;" x="677.110345" xlink:href="#m1102fb8509" y="1653.916805"/>
     <use style="fill:#005394;stroke:#005394;" x="715.593103" xlink:href="#m1102fb8509" y="1664.582117"/>
     <use style="fill:#005394;stroke:#005394;" x="754.075862" xlink:href="#m1102fb8509" y="1688.41536"/>
     <use style="fill:#005394;stroke:#005394;" x="792.558621" xlink:href="#m1102fb8509" y="1704.418164"/>
     <use style="fill:#005394;stroke:#005394;" x="831.041379" xlink:href="#m1102fb8509" y="1715.514382"/>
     <use style="fill:#005394;stroke:#005394;" x="869.524138" xlink:href="#m1102fb8509" y="1716.275617"/>
     <use style="fill:#005394;stroke:#005394;" x="908.006897" xlink:href="#m1102fb8509" y="1719.645294"/>
     <use style="fill:#005394;stroke:#005394;" x="946.489655" xlink:href="#m1102fb8509" y="1719.150568"/>
     <use style="fill:#005394;stroke:#005394;" x="984.972414" xlink:href="#m1102fb8509" y="1719.672503"/>
     <use style="fill:#005394;stroke:#005394;" x="1023.455172" xlink:href="#m1102fb8509" y="1721.171889"/>
     <use style="fill:#005394;stroke:#005394;" x="1061.937931" xlink:href="#m1102fb8509" y="1718.575392"/>
     <use style="fill:#005394;stroke:#005394;" x="1100.42069" xlink:href="#m1102fb8509" y="1720.590825"/>
     <use style="fill:#005394;stroke:#005394;" x="1138.903448" xlink:href="#m1102fb8509" y="1718.791713"/>
     <use style="fill:#005394;stroke:#005394;" x="1177.386207" xlink:href="#m1102fb8509" y="1718.063398"/>
     <use style="fill:#005394;stroke:#005394;" x="1215.868966" xlink:href="#m1102fb8509" y="1715.475558"/>
     <use style="fill:#005394;stroke:#005394;" x="1254.351724" xlink:href="#m1102fb8509" y="1720.936102"/>
     <use style="fill:#005394;stroke:#005394;" x="1292.834483" xlink:href="#m1102fb8509" y="1718.677827"/>
     <use style="fill:#005394;stroke:#005394;" x="1331.317241" xlink:href="#m1102fb8509" y="1718.781323"/>
     <use style="fill:#005394;stroke:#005394;" x="1369.8" xlink:href="#m1102fb8509" y="1719.592046"/>
    </g>
   </g>
   <g id="line2d_21">
    <path clip-path="url(#p95353897be)" d="M 253.8 373.5 
L 292.282759 373.510246 
L 330.765517 373.807683 
L 369.248276 376.793345 
L 407.731034 408.641997 
L 446.213793 634.064153 
L 484.696552 945.421799 
L 523.17931 1150.687556 
L 561.662069 1407.8743 
L 600.144828 1432.340069 
L 638.627586 1645.304375 
L 677.110345 1714.468912 
L 715.593103 1726.45992 
L 754.075862 1732.093266 
L 792.558621 1739.339775 
L 831.041379 1736.135795 
L 869.524138 1736.659914 
L 908.006897 1732.595745 
L 946.489655 1736.484789 
L 984.972414 1736.073134 
L 1023.455172 1738.890974 
L 1061.937931 1736.602517 
L 1100.42069 1736.801294 
L 1138.903448 1734.397688 
L 1177.386207 1735.509351 
L 1215.868966 1737.653068 
L 1254.351724 1736.596202 
L 1292.834483 1743.264963 
L 1331.317241 1740.369627 
L 1369.8 1736.827043 
" style="fill:none;stroke:#005394;stroke-dasharray:5.55,2.4;stroke-dashoffset:0;stroke-width:1.5;"/>
   </g>
   <g id="line2d_22">
    <path clip-path="url(#p95353897be)" d="M 253.8 373.5 
L 292.282759 373.503636 
L 330.765517 373.64648 
L 369.248276 375.201972 
L 407.731034 394.2546 
L 446.213793 542.121887 
L 484.696552 739.204562 
L 523.17931 940.200012 
L 561.662069 1182.740131 
L 600.144828 1186.86651 
L 638.627586 1447.955413 
L 677.110345 1593.364697 
L 715.593103 1602.704313 
L 754.075862 1644.737454 
L 792.558621 1669.496552 
L 831.041379 1694.892969 
L 869.524138 1695.89132 
L 908.006897 1706.694843 
L 946.489655 1701.816348 
L 984.972414 1703.271871 
L 1023.455172 1703.452803 
L 1061.937931 1700.548268 
L 1100.42069 1704.380357 
L 1138.903448 1703.185737 
L 1177.386207 1700.617444 
L 1215.868966 1693.298048 
L 1254.351724 1705.276001 
L 1292.834483 1694.090691 
L 1331.317241 1697.193018 
L 1369.8 1702.357049 
" style="fill:none;stroke:#005394;stroke-dasharray:5.55,2.4;stroke-dashoffset:0;stroke-width:1.5;"/>
   </g>
   <g id="line2d_23">
    <path clip-path="url(#p95353897be)" d="M 253.8 373.5 
L 292.282759 373.50859 
L 330.765517 373.743806 
L 369.248276 400.135338 
L 407.731034 851.261406 
L 446.213793 1663.616741 
L 484.696552 1717.932082 
L 523.17931 1720.913116 
L 561.662069 1720.013049 
L 600.144828 1718.574982 
L 638.627586 1717.900042 
L 677.110345 1717.187314 
L 715.593103 1715.670475 
L 754.075862 1719.607667 
L 792.558621 1716.940737 
L 831.041379 1717.05701 
L 869.524138 1718.683452 
L 908.006897 1719.671397 
L 946.489655 1722.099576 
L 984.972414 1722.076087 
L 1023.455172 1718.601989 
L 1061.937931 1718.885998 
L 1100.42069 1718.03391 
L 1138.903448 1721.09945 
L 1177.386207 1718.440744 
L 1215.868966 1715.979282 
L 1254.351724 1719.727013 
L 1292.834483 1719.46145 
L 1331.317241 1720.272022 
L 1369.8 1718.86366 
" style="fill:none;stroke:#c54c36;stroke-linecap:square;stroke-width:4;"/>
    <defs>
     <path d="M 0 7.5 
C 1.989023 7.5 3.896849 6.709753 5.303301 5.303301 
C 6.709753 3.896849 7.5 1.989023 7.5 0 
C 7.5 -1.989023 6.709753 -3.896849 5.303301 -5.303301 
C 3.896849 -6.709753 1.989023 -7.5 0 -7.5 
C -1.989023 -7.5 -3.896849 -6.709753 -5.303301 -5.303301 
C -6.709753 -3.896849 -7.5 -1.989023 -7.5 0 
C -7.5 1.989023 -6.709753 3.896849 -5.303301 5.303301 
C -3.896849 6.709753 -1.989023 7.5 0 7.5 
z
" id="m1b13d28d04" style="stroke:#c54c36;"/>
    </defs>
    <g clip-path="url(#p95353897be)">
     <use style="fill:#c54c36;stroke:#c54c36;" x="253.8" xlink:href="#m1b13d28d04" y="373.5"/>
     <use style="fill:#c54c36;stroke:#c54c36;" x="292.282759" xlink:href="#m1b13d28d04" y="373.50859"/>
     <use style="fill:#c54c36;stroke:#c54c36;" x="330.765517" xlink:href="#m1b13d28d04" y="373.743806"/>
     <use style="fill:#c54c36;stroke:#c54c36;" x="369.248276" xlink:href="#m1b13d28d04" y="400.135338"/>
     <use style="fill:#c54c36;stroke:#c54c36;" x="407.731034" xlink:href="#m1b13d28d04" y="851.261406"/>
     <use style="fill:#c54c36;stroke:#c54c36;" x="446.213793" xlink:href="#m1b13d28d04" y="1663.616741"/>
     <use style="fill:#c54c36;stroke:#c54c36;" x="484.696552" xlink:href="#m1b13d28d04" y="1717.932082"/>
     <use style="fill:#c54c36;stroke:#c54c36;" x="523.17931" xlink:href="#m1b13d28d04" y="1720.913116"/>
     <use style="fill:#c54c36;stroke:#c54c36;" x="561.662069" xlink:href="#m1b13d28d04" y="1720.013049"/>
     <use style="fill:#c54c36;stroke:#c54c36;" x="600.144828" xlink:href="#m1b13d28d04" y="1718.574982"/>
     <use style="fill:#c54c36;stroke:#c54c36;" x="638.627586" xlink:href="#m1b13d28d04" y="1717.900042"/>
     <use style="fill:#c54c36;stroke:#c54c36;" x="677.110345" xlink:href="#m1b13d28d04" y="1717.187314"/>
     <use style="fill:#c54c36;stroke:#c54c36;" x="715.593103" xlink:href="#m1b13d28d04" y="1715.670475"/>
     <use style="fill:#c54c36;stroke:#c54c36;" x="754.075862" xlink:href="#m1b13d28d04" y="1719.607667"/>
     <use style="fill:#c54c36;stroke:#c54c36;" x="792.558621" xlink:href="#m1b13d28d04" y="1716.940737"/>
     <use style="fill:#c54c36;stroke:#c54c36;" x="831.041379" xlink:href="#m1b13d28d04" y="1717.05701"/>
     <use style="fill:#c54c36;stroke:#c54c36;" x="869.524138" xlink:href="#m1b13d28d04" y="1718.683452"/>
     <use style="fill:#c54c36;stroke:#c54c36;" x="908.006897" xlink:href="#m1b13d28d04" y="1719.671397"/>
     <use style="fill:#c54c36;stroke:#c54c36;" x="946.489655" xlink:href="#m1b13d28d04" y="1722.099576"/>
     <use style="fill:#c54c36;stroke:#c54c36;" x="984.972414" xlink:href="#m1b13d28d04" y="1722.076087"/>
     <use style="fill:#c54c36;stroke:#c54c36;" x="1023.455172" xlink:href="#m1b13d28d04" y="1718.601989"/>
     <use style="fill:#c54c36;stroke:#c54c36;" x="1061.937931" xlink:href="#m1b13d28d04" y="1718.885998"/>
     <use style="fill:#c54c36;stroke:#c54c36;" x="1100.42069" xlink:href="#m1b13d28d04" y="1718.03391"/>
     <use style="fill:#c54c36;stroke:#c54c36;" x="1138.903448" xlink:href="#m1b13d28d04" y="1721.09945"/>
     <use style="fill:#c54c36;stroke:#c54c36;" x="1177.386207" xlink:href="#m1b13d28d04" y="1718.440744"/>
     <use style="fill:#c54c36;stroke:#c54c36;" x="1215.868966" xlink:href="#m1b13d28d04" y="1715.979282"/>
     <use style="fill:#c54c36;stroke:#c54c36;" x="1254.351724" xlink:href="#m1b13d28d04" y="1719.727013"/>
     <use style="fill:#c54c36;stroke:#c54c36;" x="1292.834483" xlink:href="#m1b13d28d04" y="1719.46145"/>
     <use style="fill:#c54c36;stroke:#c54c36;" x="1331.317241" xlink:href="#m1b13d28d04" y="1720.272022"/>
     <use style="fill:#c54c36;stroke:#c54c36;" x="1369.8" xlink:href="#m1b13d28d04" y="1718.86366"/>
    </g>
   </g>
   <g id="line2d_24">
    <path clip-path="url(#p95353897be)" d="M 253.8 373.5 
L 292.282759 373.510086 
L 330.765517 373.765599 
L 369.248276 403.287424 
L 407.731034 979.901285 
L 446.213793 1720.964225 
L 484.696552 1738.050121 
L 523.17931 1737.699089 
L 561.662069 1736.40443 
L 600.144828 1740.797648 
L 638.627586 1738.063426 
L 677.110345 1739.631867 
L 715.593103 1738.03521 
L 754.075862 1735.023066 
L 792.558621 1740.128093 
L 831.041379 1740.943003 
L 869.524138 1737.798237 
L 908.006897 1738.147593 
L 946.489655 1734.97973 
L 984.972414 1736.919644 
L 1023.455172 1737.616191 
L 1061.937931 1738.759332 
L 1100.42069 1736.279013 
L 1138.903448 1736.129713 
L 1177.386207 1743.449416 
L 1215.868966 1738.70171 
L 1254.351724 1736.170717 
L 1292.834483 1738.2273 
L 1331.317241 1742.551846 
L 1369.8 1737.20418 
" style="fill:none;stroke:#c54c36;stroke-dasharray:5.55,2.4;stroke-dashoffset:0;stroke-width:1.5;"/>
   </g>
   <g id="line2d_25">
    <path clip-path="url(#p95353897be)" d="M 253.8 373.5 
L 292.282759 373.507094 
L 330.765517 373.722014 
L 369.248276 396.983251 
L 407.731034 722.621528 
L 446.213793 1606.269257 
L 484.696552 1697.814043 
L 523.17931 1704.127143 
L 561.662069 1703.621668 
L 600.144828 1696.352317 
L 638.627586 1697.736658 
L 677.110345 1694.742761 
L 715.593103 1693.305739 
L 754.075862 1704.192268 
L 792.558621 1693.75338 
L 831.041379 1693.171017 
L 869.524138 1699.568666 
L 908.006897 1701.195201 
L 946.489655 1709.219422 
L 984.972414 1707.232531 
L 1023.455172 1699.587787 
L 1061.937931 1699.012664 
L 1100.42069 1699.788807 
L 1138.903448 1706.069187 
L 1177.386207 1693.432071 
L 1215.868966 1693.256854 
L 1254.351724 1703.28331 
L 1292.834483 1700.6956 
L 1331.317241 1697.992198 
L 1369.8 1700.52314 
" style="fill:none;stroke:#c54c36;stroke-dasharray:5.55,2.4;stroke-dashoffset:0;stroke-width:1.5;"/>
   </g>
   <g id="patch_3">
    <path d="M 198 1732.5 
L 198 237.6 
" style="fill:none;stroke:#000000;stroke-linecap:square;stroke-linejoin:miter;stroke-width:0.8;"/>
   </g>
   <g id="patch_4">
    <path d="M 1425.6 1732.5 
L 1425.6 237.6 
" style="fill:none;stroke:#000000;stroke-linecap:square;stroke-linejoin:miter;stroke-width:0.8;"/>
   </g>
   <g id="patch_5">
    <path d="M 198 1732.5 
L 1425.6 1732.5 
" style="fill:none;stroke:#000000;stroke-linecap:square;stroke-linejoin:miter;stroke-width:0.8;"/>
   </g>
   <g id="patch_6">
    <path d="M 198 237.6 
L 1425.6 237.6 
" style="fill:none;stroke:#000000;stroke-linecap:square;stroke-linejoin:miter;stroke-width:0.8;"/>
   </g>
  </g>
 </g>
 <defs>
  <clipPath id="p95353897be">
   <rect height="1494.9" width="1227.6" x="198" y="237.6"/>
  </clipPath>
 </defs>
</svg>
