<?xml version="1.0" encoding="utf-8" standalone="no"?>
<!DOCTYPE svg PUBLIC "-//W3C//DTD SVG 1.1//EN"
  "http://www.w3.org/Graphics/SVG/1.1/DTD/svg11.dtd">
<!-- Created with matplotlib (https://matplotlib.org/) -->
<svg height="1980pt" version="1.1" viewBox="0 0 1584 1980" width="1584pt" xmlns="http://www.w3.org/2000/svg" xmlns:xlink="http://www.w3.org/1999/xlink">
 <defs>
  <style type="text/css">
*{stroke-linecap:butt;stroke-linejoin:round;}
  </style>
 </defs>
 <g id="figure_1">
  <g id="patch_1">
   <path d="M 0 1980 
L 1584 1980 
L 1584 0 
L 0 0 
z
" style="fill:#ffffff;"/>
  </g>
  <g id="axes_1">
   <g id="patch_2">
    <path d="M 198 1732.5 
L 1425.6 1732.5 
L 1425.6 237.6 
L 198 237.6 
z
" style="fill:#ffffff;"/>
   </g>
   <g id="PolyCollection_1">
    <defs>
     <path d="M 253.8 -247.510242 
L 253.8 -247.507493 
L 292.282759 -280.133682 
L 330.765517 -288.35422 
L 369.248276 -370.319819 
L 407.731034 -632.827995 
L 446.213793 -764.845778 
L 484.696552 -898.717442 
L 523.17931 -1056.450043 
L 561.662069 -1159.709964 
L 600.144828 -1204.825179 
L 638.627586 -1246.82052 
L 677.110345 -1295.957059 
L 715.593103 -1348.922032 
L 754.075862 -1357.754232 
L 792.558621 -1381.707908 
L 831.041379 -1394.849375 
L 869.524138 -1427.195184 
L 908.006897 -1409.60004 
L 946.489655 -1413.194939 
L 984.972414 -1429.487578 
L 1023.455172 -1408.602622 
L 1061.937931 -1433.411635 
L 1100.42069 -1437.899613 
L 1138.903448 -1421.419433 
L 1177.386207 -1417.723302 
L 1215.868966 -1431.450814 
L 1254.351724 -1428.442414 
L 1292.834483 -1422.874744 
L 1331.317241 -1390.761488 
L 1369.8 -1417.612987 
L 1369.8 -1592.024374 
L 1369.8 -1592.024374 
L 1331.317241 -1634.007748 
L 1292.834483 -1611.85837 
L 1254.351724 -1620.841118 
L 1215.868966 -1615.820613 
L 1177.386207 -1612.416752 
L 1138.903448 -1614.803237 
L 1100.42069 -1599.129278 
L 1061.937931 -1601.841199 
L 1023.455172 -1601.017952 
L 984.972414 -1606.018437 
L 946.489655 -1596.481526 
L 908.006897 -1584.714714 
L 869.524138 -1581.060425 
L 831.041379 -1584.924048 
L 792.558621 -1558.182976 
L 754.075862 -1543.990796 
L 715.593103 -1492.035595 
L 677.110345 -1454.068393 
L 638.627586 -1408.549339 
L 600.144828 -1390.207521 
L 561.662069 -1317.521246 
L 523.17931 -1209.873475 
L 484.696552 -1063.592616 
L 446.213793 -932.700838 
L 407.731034 -738.148091 
L 369.248276 -425.857673 
L 330.765517 -318.686823 
L 292.282759 -296.381632 
L 253.8 -247.510242 
z
" id="m2a168475ca" style="stroke:#74c265;stroke-opacity:0.2;"/>
    </defs>
    <g clip-path="url(#pa3bd70f7af)">
     <use style="fill:#74c265;fill-opacity:0.2;stroke:#74c265;stroke-opacity:0.2;" x="0" xlink:href="#m2a168475ca" y="1980"/>
    </g>
   </g>
   <g id="PolyCollection_2">
    <defs>
     <path d="M 253.8 -247.509727 
L 253.8 -247.507076 
L 292.282759 -289.500263 
L 330.765517 -293.109905 
L 369.248276 -366.095565 
L 407.731034 -590.96256 
L 446.213793 -719.820032 
L 484.696552 -857.485436 
L 523.17931 -1016.680997 
L 561.662069 -1096.482911 
L 600.144828 -1186.904536 
L 638.627586 -1234.36978 
L 677.110345 -1273.717788 
L 715.593103 -1307.822714 
L 754.075862 -1331.365269 
L 792.558621 -1358.020072 
L 831.041379 -1391.381488 
L 869.524138 -1414.459487 
L 908.006897 -1405.673809 
L 946.489655 -1413.047751 
L 984.972414 -1435.893578 
L 1023.455172 -1421.275253 
L 1061.937931 -1439.532402 
L 1100.42069 -1430.599051 
L 1138.903448 -1438.184984 
L 1177.386207 -1430.012749 
L 1215.868966 -1431.215087 
L 1254.351724 -1433.389869 
L 1292.834483 -1419.876422 
L 1331.317241 -1410.149395 
L 1369.8 -1417.171162 
L 1369.8 -1616.971971 
L 1369.8 -1616.971971 
L 1331.317241 -1615.849828 
L 1292.834483 -1621.754861 
L 1254.351724 -1622.789001 
L 1215.868966 -1603.634019 
L 1177.386207 -1613.98542 
L 1138.903448 -1607.121497 
L 1100.42069 -1610.414035 
L 1061.937931 -1619.247437 
L 1023.455172 -1609.937102 
L 984.972414 -1609.650147 
L 946.489655 -1587.033741 
L 908.006897 -1585.729627 
L 869.524138 -1590.705211 
L 831.041379 -1579.420733 
L 792.558621 -1540.11715 
L 754.075862 -1511.997392 
L 715.593103 -1470.519769 
L 677.110345 -1415.168108 
L 638.627586 -1403.760504 
L 600.144828 -1352.164376 
L 561.662069 -1261.885293 
L 523.17931 -1166.530658 
L 484.696552 -1011.458477 
L 446.213793 -873.233705 
L 407.731034 -690.39099 
L 369.248276 -416.404315 
L 330.765517 -347.665121 
L 292.282759 -315.201136 
L 253.8 -247.509727 
z
" id="m7739446ad9" style="stroke:#ff9933;stroke-opacity:0.2;"/>
    </defs>
    <g clip-path="url(#pa3bd70f7af)">
     <use style="fill:#ff9933;fill-opacity:0.2;stroke:#ff9933;stroke-opacity:0.2;" x="0" xlink:href="#m7739446ad9" y="1980"/>
    </g>
   </g>
   <g id="PolyCollection_3">
    <defs>
     <path d="M 253.8 -247.509064 
L 253.8 -247.50659 
L 292.282759 -268.351481 
L 330.765517 -274.487537 
L 369.248276 -348.185222 
L 407.731034 -568.071209 
L 446.213793 -703.082119 
L 484.696552 -850.297785 
L 523.17931 -1022.380405 
L 561.662069 -1105.401004 
L 600.144828 -1192.075424 
L 638.627586 -1240.700553 
L 677.110345 -1282.8287 
L 715.593103 -1309.004419 
L 754.075862 -1329.324285 
L 792.558621 -1354.011428 
L 831.041379 -1393.89938 
L 869.524138 -1406.396025 
L 908.006897 -1404.930902 
L 946.489655 -1417.34278 
L 984.972414 -1422.58378 
L 1023.455172 -1425.860624 
L 1061.937931 -1452.31312 
L 1100.42069 -1445.86784 
L 1138.903448 -1447.847944 
L 1177.386207 -1436.760188 
L 1215.868966 -1449.304545 
L 1254.351724 -1449.325328 
L 1292.834483 -1428.160704 
L 1331.317241 -1424.862181 
L 1369.8 -1427.973804 
L 1369.8 -1625.870908 
L 1369.8 -1625.870908 
L 1331.317241 -1616.61433 
L 1292.834483 -1633.913615 
L 1254.351724 -1629.709547 
L 1215.868966 -1615.250624 
L 1177.386207 -1636.110443 
L 1138.903448 -1634.69019 
L 1100.42069 -1621.120079 
L 1061.937931 -1621.803664 
L 1023.455172 -1599.743468 
L 984.972414 -1618.998102 
L 946.489655 -1584.593866 
L 908.006897 -1604.479782 
L 869.524138 -1614.980196 
L 831.041379 -1596.317256 
L 792.558621 -1549.053987 
L 754.075862 -1501.393642 
L 715.593103 -1471.826771 
L 677.110345 -1423.253563 
L 638.627586 -1414.041282 
L 600.144828 -1361.086016 
L 561.662069 -1260.355393 
L 523.17931 -1165.955977 
L 484.696552 -1003.454473 
L 446.213793 -848.836561 
L 407.731034 -654.914453 
L 369.248276 -420.901146 
L 330.765517 -346.421383 
L 292.282759 -304.315444 
L 253.8 -247.509064 
z
" id="mb1a8c750c1" style="stroke:#d1aa9f;stroke-opacity:0.2;"/>
    </defs>
    <g clip-path="url(#pa3bd70f7af)">
     <use style="fill:#d1aa9f;fill-opacity:0.2;stroke:#d1aa9f;stroke-opacity:0.2;" x="0" xlink:href="#mb1a8c750c1" y="1980"/>
    </g>
   </g>
   <g id="PolyCollection_4">
    <defs>
     <path d="M 253.8 -247.506438 
L 253.8 -247.504505 
L 292.282759 -264.247093 
L 330.765517 -273.373321 
L 369.248276 -325.877964 
L 407.731034 -504.397465 
L 446.213793 -678.19927 
L 484.696552 -909.087403 
L 523.17931 -1087.154395 
L 561.662069 -1175.161646 
L 600.144828 -1244.052902 
L 638.627586 -1275.145947 
L 677.110345 -1304.235058 
L 715.593103 -1325.43365 
L 754.075862 -1345.88741 
L 792.558621 -1355.733175 
L 831.041379 -1373.611075 
L 869.524138 -1390.294415 
L 908.006897 -1384.630228 
L 946.489655 -1388.901413 
L 984.972414 -1400.57823 
L 1023.455172 -1394.043537 
L 1061.937931 -1413.705272 
L 1100.42069 -1396.983463 
L 1138.903448 -1412.547816 
L 1177.386207 -1405.178827 
L 1215.868966 -1411.109125 
L 1254.351724 -1414.049514 
L 1292.834483 -1401.684802 
L 1331.317241 -1389.453235 
L 1369.8 -1397.678659 
L 1369.8 -1563.016748 
L 1369.8 -1563.016748 
L 1331.317241 -1566.804782 
L 1292.834483 -1559.913018 
L 1254.351724 -1560.116698 
L 1215.868966 -1546.735544 
L 1177.386207 -1559.663325 
L 1138.903448 -1553.450972 
L 1100.42069 -1572.845636 
L 1061.937931 -1555.534062 
L 1023.455172 -1549.673327 
L 984.972414 -1557.474961 
L 946.489655 -1547.621239 
L 908.006897 -1544.838899 
L 869.524138 -1547.831463 
L 831.041379 -1537.259458 
L 792.558621 -1511.759551 
L 754.075862 -1499.955623 
L 715.593103 -1477.660824 
L 677.110345 -1451.579911 
L 638.627586 -1424.122018 
L 600.144828 -1401.607222 
L 561.662069 -1319.085978 
L 523.17931 -1231.283177 
L 484.696552 -1045.522775 
L 446.213793 -779.69421 
L 407.731034 -569.831495 
L 369.248276 -375.208496 
L 330.765517 -316.965153 
L 292.282759 -289.626376 
L 253.8 -247.506438 
z
" id="mcde925c49e" style="stroke:#005394;stroke-opacity:0.2;"/>
    </defs>
    <g clip-path="url(#pa3bd70f7af)">
     <use style="fill:#005394;fill-opacity:0.2;stroke:#005394;stroke-opacity:0.2;" x="0" xlink:href="#mcde925c49e" y="1980"/>
    </g>
   </g>
   <g id="PolyCollection_5">
    <defs>
     <path d="M 253.8 -247.517385 
L 253.8 -247.514667 
L 292.282759 -266.216309 
L 330.765517 -274.837767 
L 369.248276 -371.715406 
L 407.731034 -747.579953 
L 446.213793 -1049.772027 
L 484.696552 -1226.865352 
L 523.17931 -1307.934234 
L 561.662069 -1329.102039 
L 600.144828 -1330.275636 
L 638.627586 -1323.986955 
L 677.110345 -1322.97838 
L 715.593103 -1321.55898 
L 754.075862 -1323.920008 
L 792.558621 -1318.551759 
L 831.041379 -1327.337694 
L 869.524138 -1327.06452 
L 908.006897 -1326.842282 
L 946.489655 -1329.738872 
L 984.972414 -1332.913494 
L 1023.455172 -1326.793195 
L 1061.937931 -1326.576142 
L 1100.42069 -1331.521728 
L 1138.903448 -1334.399697 
L 1177.386207 -1332.662874 
L 1215.868966 -1330.423994 
L 1254.351724 -1332.73509 
L 1292.834483 -1331.437918 
L 1331.317241 -1329.472278 
L 1369.8 -1326.59011 
L 1369.8 -1403.829482 
L 1369.8 -1403.829482 
L 1331.317241 -1404.599543 
L 1292.834483 -1409.254534 
L 1254.351724 -1406.911273 
L 1215.868966 -1408.740418 
L 1177.386207 -1407.545019 
L 1138.903448 -1411.406136 
L 1100.42069 -1412.096943 
L 1061.937931 -1406.208072 
L 1023.455172 -1405.630401 
L 984.972414 -1399.73378 
L 946.489655 -1403.351124 
L 908.006897 -1409.690213 
L 869.524138 -1418.324414 
L 831.041379 -1411.282594 
L 792.558621 -1410.513217 
L 754.075862 -1400.514191 
L 715.593103 -1397.995778 
L 677.110345 -1409.267228 
L 638.627586 -1400.239146 
L 600.144828 -1401.629263 
L 561.662069 -1400.226556 
L 523.17931 -1380.545614 
L 484.696552 -1327.229023 
L 446.213793 -1175.081041 
L 407.731034 -814.654159 
L 369.248276 -406.8275 
L 330.765517 -298.026429 
L 292.282759 -284.325632 
L 253.8 -247.517385 
z
" id="m1c1d143b0e" style="stroke:#c54c36;stroke-opacity:0.2;"/>
    </defs>
    <g clip-path="url(#pa3bd70f7af)">
     <use style="fill:#c54c36;fill-opacity:0.2;stroke:#c54c36;stroke-opacity:0.2;" x="0" xlink:href="#m1c1d143b0e" y="1980"/>
    </g>
   </g>
   <g id="matplotlib.axis_1">
    <g id="xtick_1">
     <g id="line2d_1">
      <defs>
       <path d="M 0 7 
L 0 -7 
" id="mbd46bb7465" style="stroke:#000000;stroke-width:3.5;"/>
      </defs>
      <g>
       <use style="stroke:#000000;stroke-width:3.5;" x="253.8" xlink:href="#mbd46bb7465" y="1732.5"/>
      </g>
     </g>
     <g id="text_1">
      <!-- 0 -->
      <defs>
       <path d="M 31.78125 3.421875 
Q 39.265625 3.421875 42.96875 11.625 
Q 46.6875 19.828125 46.6875 36.375 
Q 46.6875 52.984375 42.96875 61.1875 
Q 39.265625 69.390625 31.78125 69.390625 
Q 24.3125 69.390625 20.59375 61.1875 
Q 16.890625 52.984375 16.890625 36.375 
Q 16.890625 19.828125 20.59375 11.625 
Q 24.3125 3.421875 31.78125 3.421875 
z
M 31.78125 -1.421875 
Q 19.921875 -1.421875 13.25 8.53125 
Q 6.59375 18.5 6.59375 36.375 
Q 6.59375 54.296875 13.25 64.25 
Q 19.921875 74.21875 31.78125 74.21875 
Q 43.703125 74.21875 50.34375 64.25 
Q 56.984375 54.296875 56.984375 36.375 
Q 56.984375 18.5 50.34375 8.53125 
Q 43.703125 -1.421875 31.78125 -1.421875 
z
" id="DejaVuSerif-48"/>
      </defs>
      <g transform="translate(233.121875 1792.389844)scale(0.65 -0.65)">
       <use xlink:href="#DejaVuSerif-48"/>
      </g>
     </g>
    </g>
    <g id="xtick_2">
     <g id="line2d_2">
      <g>
       <use style="stroke:#000000;stroke-width:3.5;" x="638.627586" xlink:href="#mbd46bb7465" y="1732.5"/>
      </g>
     </g>
     <g id="text_2">
      <!-- 10 -->
      <defs>
       <path d="M 14.203125 0 
L 14.203125 5.171875 
L 26.90625 5.171875 
L 26.90625 65.828125 
L 12.203125 56.296875 
L 12.203125 62.703125 
L 29.984375 74.21875 
L 36.71875 74.21875 
L 36.71875 5.171875 
L 49.421875 5.171875 
L 49.421875 0 
z
" id="DejaVuSerif-49"/>
      </defs>
      <g transform="translate(597.271336 1792.389844)scale(0.65 -0.65)">
       <use xlink:href="#DejaVuSerif-49"/>
       <use x="63.623047" xlink:href="#DejaVuSerif-48"/>
      </g>
     </g>
    </g>
    <g id="xtick_3">
     <g id="line2d_3">
      <g>
       <use style="stroke:#000000;stroke-width:3.5;" x="1023.455172" xlink:href="#mbd46bb7465" y="1732.5"/>
      </g>
     </g>
     <g id="text_3">
      <!-- 20 -->
      <defs>
       <path d="M 12.796875 55.515625 
L 7.328125 55.515625 
L 7.328125 68.5 
Q 12.546875 71.296875 17.84375 72.75 
Q 23.140625 74.21875 28.21875 74.21875 
Q 39.59375 74.21875 46.1875 68.703125 
Q 52.78125 63.1875 52.78125 53.71875 
Q 52.78125 43.015625 37.84375 28.125 
Q 36.671875 27 36.078125 26.421875 
L 17.671875 8.015625 
L 48.09375 8.015625 
L 48.09375 17 
L 53.8125 17 
L 53.8125 0 
L 6.78125 0 
L 6.78125 5.328125 
L 28.90625 27.390625 
Q 36.234375 34.71875 39.359375 40.84375 
Q 42.484375 46.96875 42.484375 53.71875 
Q 42.484375 61.078125 38.640625 65.234375 
Q 34.8125 69.390625 28.078125 69.390625 
Q 21.09375 69.390625 17.28125 65.921875 
Q 13.484375 62.453125 12.796875 55.515625 
z
" id="DejaVuSerif-50"/>
      </defs>
      <g transform="translate(982.098922 1792.389844)scale(0.65 -0.65)">
       <use xlink:href="#DejaVuSerif-50"/>
       <use x="63.623047" xlink:href="#DejaVuSerif-48"/>
      </g>
     </g>
    </g>
    <g id="xtick_4">
     <g id="line2d_4">
      <g>
       <use style="stroke:#000000;stroke-width:3.5;" x="1408.282759" xlink:href="#mbd46bb7465" y="1732.5"/>
      </g>
     </g>
     <g id="text_4">
      <!-- 30 -->
      <defs>
       <path d="M 9.71875 69.828125 
Q 15.4375 71.96875 20.671875 73.09375 
Q 25.921875 74.21875 30.515625 74.21875 
Q 41.21875 74.21875 47.21875 69.59375 
Q 53.21875 64.984375 53.21875 56.78125 
Q 53.21875 50.203125 49.0625 45.78125 
Q 44.921875 41.359375 37.3125 39.796875 
Q 46.296875 38.53125 51.25 33.28125 
Q 56.203125 28.03125 56.203125 19.671875 
Q 56.203125 9.46875 49.34375 4.015625 
Q 42.484375 -1.421875 29.59375 -1.421875 
Q 23.875 -1.421875 18.421875 -0.1875 
Q 12.984375 1.03125 7.625 3.515625 
L 7.625 17.671875 
L 13.09375 17.671875 
Q 13.578125 10.640625 17.828125 7.03125 
Q 22.078125 3.421875 29.78125 3.421875 
Q 37.25 3.421875 41.578125 7.734375 
Q 45.90625 12.0625 45.90625 19.578125 
Q 45.90625 28.171875 41.453125 32.59375 
Q 37.015625 37.015625 28.421875 37.015625 
L 23.78125 37.015625 
L 23.78125 42 
L 26.21875 42 
Q 34.765625 42 39.03125 45.53125 
Q 43.3125 49.078125 43.3125 56.203125 
Q 43.3125 62.59375 39.796875 65.984375 
Q 36.28125 69.390625 29.6875 69.390625 
Q 23.09375 69.390625 19.453125 66.265625 
Q 15.828125 63.140625 15.1875 56.984375 
L 9.71875 56.984375 
z
" id="DejaVuSerif-51"/>
      </defs>
      <g transform="translate(1366.926509 1792.389844)scale(0.65 -0.65)">
       <use xlink:href="#DejaVuSerif-51"/>
       <use x="63.623047" xlink:href="#DejaVuSerif-48"/>
      </g>
     </g>
    </g>
   </g>
   <g id="matplotlib.axis_2">
    <g id="ytick_1">
     <g id="line2d_5">
      <defs>
       <path d="M 7 0 
L -7 -0 
" id="m82f478e595" style="stroke:#000000;stroke-width:3.5;"/>
      </defs>
      <g>
       <use style="stroke:#000000;stroke-width:3.5;" x="198" xlink:href="#m82f478e595" y="1732.5"/>
      </g>
     </g>
     <g id="text_5">
      <!-- 0 -->
      <g transform="translate(146.14375 1757.194922)scale(0.65 -0.65)">
       <use xlink:href="#DejaVuSerif-48"/>
      </g>
     </g>
    </g>
    <g id="ytick_2">
     <g id="line2d_6">
      <g>
       <use style="stroke:#000000;stroke-width:3.5;" x="198" xlink:href="#m82f478e595" y="1518.942857"/>
      </g>
     </g>
     <g id="text_6">
      <!-- 1 -->
      <g transform="translate(146.14375 1543.637779)scale(0.65 -0.65)">
       <use xlink:href="#DejaVuSerif-49"/>
      </g>
     </g>
    </g>
    <g id="ytick_3">
     <g id="line2d_7">
      <g>
       <use style="stroke:#000000;stroke-width:3.5;" x="198" xlink:href="#m82f478e595" y="1305.385714"/>
      </g>
     </g>
     <g id="text_7">
      <!-- 2 -->
      <g transform="translate(146.14375 1330.080636)scale(0.65 -0.65)">
       <use xlink:href="#DejaVuSerif-50"/>
      </g>
     </g>
    </g>
    <g id="ytick_4">
     <g id="line2d_8">
      <g>
       <use style="stroke:#000000;stroke-width:3.5;" x="198" xlink:href="#m82f478e595" y="1091.828571"/>
      </g>
     </g>
     <g id="text_8">
      <!-- 3 -->
      <g transform="translate(146.14375 1116.523493)scale(0.65 -0.65)">
       <use xlink:href="#DejaVuSerif-51"/>
      </g>
     </g>
    </g>
    <g id="ytick_5">
     <g id="line2d_9">
      <g>
       <use style="stroke:#000000;stroke-width:3.5;" x="198" xlink:href="#m82f478e595" y="878.271429"/>
      </g>
     </g>
     <g id="text_9">
      <!-- 4 -->
      <defs>
       <path d="M 34.90625 24.703125 
L 34.90625 63.484375 
L 10.015625 24.703125 
z
M 56.390625 0 
L 23.1875 0 
L 23.1875 5.171875 
L 34.90625 5.171875 
L 34.90625 19.484375 
L 3.078125 19.484375 
L 3.078125 24.8125 
L 35.015625 74.21875 
L 44.671875 74.21875 
L 44.671875 24.703125 
L 58.59375 24.703125 
L 58.59375 19.484375 
L 44.671875 19.484375 
L 44.671875 5.171875 
L 56.390625 5.171875 
z
" id="DejaVuSerif-52"/>
      </defs>
      <g transform="translate(146.14375 902.96635)scale(0.65 -0.65)">
       <use xlink:href="#DejaVuSerif-52"/>
      </g>
     </g>
    </g>
    <g id="ytick_6">
     <g id="line2d_10">
      <g>
       <use style="stroke:#000000;stroke-width:3.5;" x="198" xlink:href="#m82f478e595" y="664.714286"/>
      </g>
     </g>
     <g id="text_10">
      <!-- 5 -->
      <defs>
       <path d="M 50.296875 72.90625 
L 50.296875 64.890625 
L 16.890625 64.890625 
L 16.890625 44 
Q 19.4375 45.75 22.828125 46.625 
Q 26.21875 47.515625 30.421875 47.515625 
Q 42.234375 47.515625 49.0625 40.96875 
Q 55.90625 34.421875 55.90625 23.09375 
Q 55.90625 11.53125 49 5.046875 
Q 42.09375 -1.421875 29.59375 -1.421875 
Q 24.5625 -1.421875 19.28125 -0.1875 
Q 14.015625 1.03125 8.5 3.515625 
L 8.5 17.671875 
L 14.015625 17.671875 
Q 14.453125 10.75 18.421875 7.078125 
Q 22.40625 3.421875 29.59375 3.421875 
Q 37.3125 3.421875 41.453125 8.5 
Q 45.609375 13.578125 45.609375 23.09375 
Q 45.609375 32.5625 41.484375 37.609375 
Q 37.359375 42.671875 29.59375 42.671875 
Q 25.203125 42.671875 21.84375 41.109375 
Q 18.5 39.546875 15.921875 36.28125 
L 11.71875 36.28125 
L 11.71875 72.90625 
z
" id="DejaVuSerif-53"/>
      </defs>
      <g transform="translate(146.14375 689.409208)scale(0.65 -0.65)">
       <use xlink:href="#DejaVuSerif-53"/>
      </g>
     </g>
    </g>
    <g id="ytick_7">
     <g id="line2d_11">
      <g>
       <use style="stroke:#000000;stroke-width:3.5;" x="198" xlink:href="#m82f478e595" y="451.157143"/>
      </g>
     </g>
     <g id="text_11">
      <!-- 6 -->
      <defs>
       <path d="M 32.71875 3.421875 
Q 39.59375 3.421875 43.296875 8.46875 
Q 47.015625 13.53125 47.015625 23 
Q 47.015625 32.46875 43.296875 37.515625 
Q 39.59375 42.578125 32.71875 42.578125 
Q 25.734375 42.578125 22.0625 37.6875 
Q 18.40625 32.8125 18.40625 23.578125 
Q 18.40625 13.875 22.109375 8.640625 
Q 25.828125 3.421875 32.71875 3.421875 
z
M 16.796875 40.140625 
Q 20.125 43.796875 24.3125 45.59375 
Q 28.515625 47.40625 33.796875 47.40625 
Q 44.671875 47.40625 51 40.859375 
Q 57.328125 34.328125 57.328125 23 
Q 57.328125 11.921875 50.515625 5.25 
Q 43.703125 -1.421875 32.328125 -1.421875 
Q 19.96875 -1.421875 13.328125 7.78125 
Q 6.6875 17 6.6875 34.078125 
Q 6.6875 53.21875 14.546875 63.71875 
Q 22.40625 74.21875 36.71875 74.21875 
Q 40.578125 74.21875 44.828125 73.484375 
Q 49.078125 72.75 53.515625 71.296875 
L 53.515625 59.28125 
L 48 59.28125 
Q 47.40625 64.203125 44.234375 66.796875 
Q 41.0625 69.390625 35.6875 69.390625 
Q 26.21875 69.390625 21.578125 62.203125 
Q 16.9375 55.03125 16.796875 40.140625 
z
" id="DejaVuSerif-54"/>
      </defs>
      <g transform="translate(146.14375 475.852065)scale(0.65 -0.65)">
       <use xlink:href="#DejaVuSerif-54"/>
      </g>
     </g>
    </g>
    <g id="ytick_8">
     <g id="line2d_12">
      <g>
       <use style="stroke:#000000;stroke-width:3.5;" x="198" xlink:href="#m82f478e595" y="237.6"/>
      </g>
     </g>
     <g id="text_12">
      <!-- 7 -->
      <defs>
       <path d="M 56.390625 67.921875 
L 27.875 0 
L 20.609375 0 
L 47.796875 64.890625 
L 14.109375 64.890625 
L 14.109375 55.90625 
L 8.40625 55.90625 
L 8.40625 72.90625 
L 56.390625 72.90625 
z
" id="DejaVuSerif-55"/>
      </defs>
      <g transform="translate(146.14375 262.294922)scale(0.65 -0.65)">
       <use xlink:href="#DejaVuSerif-55"/>
      </g>
     </g>
    </g>
   </g>
   <g id="line2d_13">
    <path clip-path="url(#pa3bd70f7af)" d="M 253.8 1732.491133 
L 292.282759 1691.742343 
L 330.765517 1676.479479 
L 369.248276 1581.911254 
L 407.731034 1294.511957 
L 446.213793 1131.226692 
L 484.696552 998.844971 
L 523.17931 846.838241 
L 561.662069 741.384395 
L 600.144828 682.48365 
L 638.627586 652.31507 
L 677.110345 604.987274 
L 715.593103 559.521186 
L 754.075862 529.127486 
L 792.558621 510.054558 
L 831.041379 490.113288 
L 869.524138 475.872196 
L 908.006897 482.842623 
L 946.489655 475.161768 
L 984.972414 462.246993 
L 1023.455172 475.189713 
L 1061.937931 462.373583 
L 1100.42069 461.485555 
L 1138.903448 461.888665 
L 1177.386207 464.929973 
L 1215.868966 456.364287 
L 1254.351724 455.358234 
L 1292.834483 462.633443 
L 1331.317241 467.615382 
L 1369.8 475.18132 
" style="fill:none;stroke:#74c265;stroke-linecap:square;stroke-width:4;"/>
    <defs>
     <path d="M 0 7.5 
C 1.989023 7.5 3.896849 6.709753 5.303301 5.303301 
C 6.709753 3.896849 7.5 1.989023 7.5 0 
C 7.5 -1.989023 6.709753 -3.896849 5.303301 -5.303301 
C 3.896849 -6.709753 1.989023 -7.5 0 -7.5 
C -1.989023 -7.5 -3.896849 -6.709753 -5.303301 -5.303301 
C -6.709753 -3.896849 -7.5 -1.989023 -7.5 0 
C -7.5 1.989023 -6.709753 3.896849 -5.303301 5.303301 
C -3.896849 6.709753 -1.989023 7.5 0 7.5 
z
" id="mdaedc7f38c" style="stroke:#74c265;"/>
    </defs>
    <g clip-path="url(#pa3bd70f7af)">
     <use style="fill:#74c265;stroke:#74c265;" x="253.8" xlink:href="#mdaedc7f38c" y="1732.491133"/>
     <use style="fill:#74c265;stroke:#74c265;" x="292.282759" xlink:href="#mdaedc7f38c" y="1691.742343"/>
     <use style="fill:#74c265;stroke:#74c265;" x="330.765517" xlink:href="#mdaedc7f38c" y="1676.479479"/>
     <use style="fill:#74c265;stroke:#74c265;" x="369.248276" xlink:href="#mdaedc7f38c" y="1581.911254"/>
     <use style="fill:#74c265;stroke:#74c265;" x="407.731034" xlink:href="#mdaedc7f38c" y="1294.511957"/>
     <use style="fill:#74c265;stroke:#74c265;" x="446.213793" xlink:href="#mdaedc7f38c" y="1131.226692"/>
     <use style="fill:#74c265;stroke:#74c265;" x="484.696552" xlink:href="#mdaedc7f38c" y="998.844971"/>
     <use style="fill:#74c265;stroke:#74c265;" x="523.17931" xlink:href="#mdaedc7f38c" y="846.838241"/>
     <use style="fill:#74c265;stroke:#74c265;" x="561.662069" xlink:href="#mdaedc7f38c" y="741.384395"/>
     <use style="fill:#74c265;stroke:#74c265;" x="600.144828" xlink:href="#mdaedc7f38c" y="682.48365"/>
     <use style="fill:#74c265;stroke:#74c265;" x="638.627586" xlink:href="#mdaedc7f38c" y="652.31507"/>
     <use style="fill:#74c265;stroke:#74c265;" x="677.110345" xlink:href="#mdaedc7f38c" y="604.987274"/>
     <use style="fill:#74c265;stroke:#74c265;" x="715.593103" xlink:href="#mdaedc7f38c" y="559.521186"/>
     <use style="fill:#74c265;stroke:#74c265;" x="754.075862" xlink:href="#mdaedc7f38c" y="529.127486"/>
     <use style="fill:#74c265;stroke:#74c265;" x="792.558621" xlink:href="#mdaedc7f38c" y="510.054558"/>
     <use style="fill:#74c265;stroke:#74c265;" x="831.041379" xlink:href="#mdaedc7f38c" y="490.113288"/>
     <use style="fill:#74c265;stroke:#74c265;" x="869.524138" xlink:href="#mdaedc7f38c" y="475.872196"/>
     <use style="fill:#74c265;stroke:#74c265;" x="908.006897" xlink:href="#mdaedc7f38c" y="482.842623"/>
     <use style="fill:#74c265;stroke:#74c265;" x="946.489655" xlink:href="#mdaedc7f38c" y="475.161768"/>
     <use style="fill:#74c265;stroke:#74c265;" x="984.972414" xlink:href="#mdaedc7f38c" y="462.246993"/>
     <use style="fill:#74c265;stroke:#74c265;" x="1023.455172" xlink:href="#mdaedc7f38c" y="475.189713"/>
     <use style="fill:#74c265;stroke:#74c265;" x="1061.937931" xlink:href="#mdaedc7f38c" y="462.373583"/>
     <use style="fill:#74c265;stroke:#74c265;" x="1100.42069" xlink:href="#mdaedc7f38c" y="461.485555"/>
     <use style="fill:#74c265;stroke:#74c265;" x="1138.903448" xlink:href="#mdaedc7f38c" y="461.888665"/>
     <use style="fill:#74c265;stroke:#74c265;" x="1177.386207" xlink:href="#mdaedc7f38c" y="464.929973"/>
     <use style="fill:#74c265;stroke:#74c265;" x="1215.868966" xlink:href="#mdaedc7f38c" y="456.364287"/>
     <use style="fill:#74c265;stroke:#74c265;" x="1254.351724" xlink:href="#mdaedc7f38c" y="455.358234"/>
     <use style="fill:#74c265;stroke:#74c265;" x="1292.834483" xlink:href="#mdaedc7f38c" y="462.633443"/>
     <use style="fill:#74c265;stroke:#74c265;" x="1331.317241" xlink:href="#mdaedc7f38c" y="467.615382"/>
     <use style="fill:#74c265;stroke:#74c265;" x="1369.8" xlink:href="#mdaedc7f38c" y="475.18132"/>
    </g>
   </g>
   <g id="line2d_14">
    <path clip-path="url(#pa3bd70f7af)" d="M 253.8 1732.492507 
L 292.282759 1699.866318 
L 330.765517 1691.64578 
L 369.248276 1609.680181 
L 407.731034 1347.172005 
L 446.213793 1215.154222 
L 484.696552 1081.282558 
L 523.17931 923.549957 
L 561.662069 820.290036 
L 600.144828 775.174821 
L 638.627586 733.17948 
L 677.110345 684.042941 
L 715.593103 631.077968 
L 754.075862 622.245768 
L 792.558621 598.292092 
L 831.041379 585.150625 
L 869.524138 552.804816 
L 908.006897 570.39996 
L 946.489655 566.805061 
L 984.972414 550.512422 
L 1023.455172 571.397378 
L 1061.937931 546.588365 
L 1100.42069 542.100387 
L 1138.903448 558.580567 
L 1177.386207 562.276698 
L 1215.868966 548.549186 
L 1254.351724 551.557586 
L 1292.834483 557.125256 
L 1331.317241 589.238512 
L 1369.8 562.387013 
" style="fill:none;stroke:#74c265;stroke-dasharray:5.55,2.4;stroke-dashoffset:0;stroke-width:1.5;"/>
   </g>
   <g id="line2d_15">
    <path clip-path="url(#pa3bd70f7af)" d="M 253.8 1732.489758 
L 292.282759 1683.618368 
L 330.765517 1661.313177 
L 369.248276 1554.142327 
L 407.731034 1241.851909 
L 446.213793 1047.299162 
L 484.696552 916.407384 
L 523.17931 770.126525 
L 561.662069 662.478754 
L 600.144828 589.792479 
L 638.627586 571.450661 
L 677.110345 525.931607 
L 715.593103 487.964405 
L 754.075862 436.009204 
L 792.558621 421.817024 
L 831.041379 395.075952 
L 869.524138 398.939575 
L 908.006897 395.285286 
L 946.489655 383.518474 
L 984.972414 373.981563 
L 1023.455172 378.982048 
L 1061.937931 378.158801 
L 1100.42069 380.870722 
L 1138.903448 365.196763 
L 1177.386207 367.583248 
L 1215.868966 364.179387 
L 1254.351724 359.158882 
L 1292.834483 368.14163 
L 1331.317241 345.992252 
L 1369.8 387.975626 
" style="fill:none;stroke:#74c265;stroke-dasharray:5.55,2.4;stroke-dashoffset:0;stroke-width:1.5;"/>
   </g>
   <g id="line2d_16">
    <path clip-path="url(#pa3bd70f7af)" d="M 253.8 1732.491598 
L 292.282759 1677.649301 
L 330.765517 1659.612487 
L 369.248276 1588.75006 
L 407.731034 1339.323225 
L 446.213793 1183.473132 
L 484.696552 1045.528044 
L 523.17931 888.394173 
L 561.662069 800.815898 
L 600.144828 710.465544 
L 638.627586 660.934858 
L 677.110345 635.557052 
L 715.593103 590.828759 
L 754.075862 558.31867 
L 792.558621 530.931389 
L 831.041379 494.598889 
L 869.524138 477.417651 
L 908.006897 484.298282 
L 946.489655 479.959254 
L 984.972414 457.228137 
L 1023.455172 464.393822 
L 1061.937931 450.61008 
L 1100.42069 459.493457 
L 1138.903448 457.346759 
L 1177.386207 458.000916 
L 1215.868966 462.575447 
L 1254.351724 451.910565 
L 1292.834483 459.184359 
L 1331.317241 467.000389 
L 1369.8 462.928433 
" style="fill:none;stroke:#ff9933;stroke-linecap:square;stroke-width:4;"/>
    <defs>
     <path d="M 0 7.5 
C 1.989023 7.5 3.896849 6.709753 5.303301 5.303301 
C 6.709753 3.896849 7.5 1.989023 7.5 0 
C 7.5 -1.989023 6.709753 -3.896849 5.303301 -5.303301 
C 3.896849 -6.709753 1.989023 -7.5 0 -7.5 
C -1.989023 -7.5 -3.896849 -6.709753 -5.303301 -5.303301 
C -6.709753 -3.896849 -7.5 -1.989023 -7.5 0 
C -7.5 1.989023 -6.709753 3.896849 -5.303301 5.303301 
C -3.896849 6.709753 -1.989023 7.5 0 7.5 
z
" id="mf348b398f9" style="stroke:#ff9933;"/>
    </defs>
    <g clip-path="url(#pa3bd70f7af)">
     <use style="fill:#ff9933;stroke:#ff9933;" x="253.8" xlink:href="#mf348b398f9" y="1732.491598"/>
     <use style="fill:#ff9933;stroke:#ff9933;" x="292.282759" xlink:href="#mf348b398f9" y="1677.649301"/>
     <use style="fill:#ff9933;stroke:#ff9933;" x="330.765517" xlink:href="#mf348b398f9" y="1659.612487"/>
     <use style="fill:#ff9933;stroke:#ff9933;" x="369.248276" xlink:href="#mf348b398f9" y="1588.75006"/>
     <use style="fill:#ff9933;stroke:#ff9933;" x="407.731034" xlink:href="#mf348b398f9" y="1339.323225"/>
     <use style="fill:#ff9933;stroke:#ff9933;" x="446.213793" xlink:href="#mf348b398f9" y="1183.473132"/>
     <use style="fill:#ff9933;stroke:#ff9933;" x="484.696552" xlink:href="#mf348b398f9" y="1045.528044"/>
     <use style="fill:#ff9933;stroke:#ff9933;" x="523.17931" xlink:href="#mf348b398f9" y="888.394173"/>
     <use style="fill:#ff9933;stroke:#ff9933;" x="561.662069" xlink:href="#mf348b398f9" y="800.815898"/>
     <use style="fill:#ff9933;stroke:#ff9933;" x="600.144828" xlink:href="#mf348b398f9" y="710.465544"/>
     <use style="fill:#ff9933;stroke:#ff9933;" x="638.627586" xlink:href="#mf348b398f9" y="660.934858"/>
     <use style="fill:#ff9933;stroke:#ff9933;" x="677.110345" xlink:href="#mf348b398f9" y="635.557052"/>
     <use style="fill:#ff9933;stroke:#ff9933;" x="715.593103" xlink:href="#mf348b398f9" y="590.828759"/>
     <use style="fill:#ff9933;stroke:#ff9933;" x="754.075862" xlink:href="#mf348b398f9" y="558.31867"/>
     <use style="fill:#ff9933;stroke:#ff9933;" x="792.558621" xlink:href="#mf348b398f9" y="530.931389"/>
     <use style="fill:#ff9933;stroke:#ff9933;" x="831.041379" xlink:href="#mf348b398f9" y="494.598889"/>
     <use style="fill:#ff9933;stroke:#ff9933;" x="869.524138" xlink:href="#mf348b398f9" y="477.417651"/>
     <use style="fill:#ff9933;stroke:#ff9933;" x="908.006897" xlink:href="#mf348b398f9" y="484.298282"/>
     <use style="fill:#ff9933;stroke:#ff9933;" x="946.489655" xlink:href="#mf348b398f9" y="479.959254"/>
     <use style="fill:#ff9933;stroke:#ff9933;" x="984.972414" xlink:href="#mf348b398f9" y="457.228137"/>
     <use style="fill:#ff9933;stroke:#ff9933;" x="1023.455172" xlink:href="#mf348b398f9" y="464.393822"/>
     <use style="fill:#ff9933;stroke:#ff9933;" x="1061.937931" xlink:href="#mf348b398f9" y="450.61008"/>
     <use style="fill:#ff9933;stroke:#ff9933;" x="1100.42069" xlink:href="#mf348b398f9" y="459.493457"/>
     <use style="fill:#ff9933;stroke:#ff9933;" x="1138.903448" xlink:href="#mf348b398f9" y="457.346759"/>
     <use style="fill:#ff9933;stroke:#ff9933;" x="1177.386207" xlink:href="#mf348b398f9" y="458.000916"/>
     <use style="fill:#ff9933;stroke:#ff9933;" x="1215.868966" xlink:href="#mf348b398f9" y="462.575447"/>
     <use style="fill:#ff9933;stroke:#ff9933;" x="1254.351724" xlink:href="#mf348b398f9" y="451.910565"/>
     <use style="fill:#ff9933;stroke:#ff9933;" x="1292.834483" xlink:href="#mf348b398f9" y="459.184359"/>
     <use style="fill:#ff9933;stroke:#ff9933;" x="1331.317241" xlink:href="#mf348b398f9" y="467.000389"/>
     <use style="fill:#ff9933;stroke:#ff9933;" x="1369.8" xlink:href="#mf348b398f9" y="462.928433"/>
    </g>
   </g>
   <g id="line2d_17">
    <path clip-path="url(#pa3bd70f7af)" d="M 253.8 1732.492924 
L 292.282759 1690.499737 
L 330.765517 1686.890095 
L 369.248276 1613.904435 
L 407.731034 1389.03744 
L 446.213793 1260.179968 
L 484.696552 1122.514564 
L 523.17931 963.319003 
L 561.662069 883.517089 
L 600.144828 793.095464 
L 638.627586 745.63022 
L 677.110345 706.282212 
L 715.593103 672.177286 
L 754.075862 648.634731 
L 792.558621 621.979928 
L 831.041379 588.618512 
L 869.524138 565.540513 
L 908.006897 574.326191 
L 946.489655 566.952249 
L 984.972414 544.106422 
L 1023.455172 558.724747 
L 1061.937931 540.467598 
L 1100.42069 549.400949 
L 1138.903448 541.815016 
L 1177.386207 549.987251 
L 1215.868966 548.784913 
L 1254.351724 546.610131 
L 1292.834483 560.123578 
L 1331.317241 569.850605 
L 1369.8 562.828838 
" style="fill:none;stroke:#ff9933;stroke-dasharray:5.55,2.4;stroke-dashoffset:0;stroke-width:1.5;"/>
   </g>
   <g id="line2d_18">
    <path clip-path="url(#pa3bd70f7af)" d="M 253.8 1732.490273 
L 292.282759 1664.798864 
L 330.765517 1632.334879 
L 369.248276 1563.595685 
L 407.731034 1289.60901 
L 446.213793 1106.766295 
L 484.696552 968.541523 
L 523.17931 813.469342 
L 561.662069 718.114707 
L 600.144828 627.835624 
L 638.627586 576.239496 
L 677.110345 564.831892 
L 715.593103 509.480231 
L 754.075862 468.002608 
L 792.558621 439.88285 
L 831.041379 400.579267 
L 869.524138 389.294789 
L 908.006897 394.270373 
L 946.489655 392.966259 
L 984.972414 370.349853 
L 1023.455172 370.062898 
L 1061.937931 360.752563 
L 1100.42069 369.585965 
L 1138.903448 372.878503 
L 1177.386207 366.01458 
L 1215.868966 376.365981 
L 1254.351724 357.210999 
L 1292.834483 358.245139 
L 1331.317241 364.150172 
L 1369.8 363.028029 
" style="fill:none;stroke:#ff9933;stroke-dasharray:5.55,2.4;stroke-dashoffset:0;stroke-width:1.5;"/>
   </g>
   <g id="line2d_19">
    <path clip-path="url(#pa3bd70f7af)" d="M 253.8 1732.492173 
L 292.282759 1693.666537 
L 330.765517 1669.54554 
L 369.248276 1595.456816 
L 407.731034 1368.507169 
L 446.213793 1204.04066 
L 484.696552 1053.123871 
L 523.17931 885.831809 
L 561.662069 797.121801 
L 600.144828 703.41928 
L 638.627586 652.629083 
L 677.110345 626.958868 
L 715.593103 589.584405 
L 754.075862 564.641036 
L 792.558621 528.467292 
L 831.041379 484.891682 
L 869.524138 469.31189 
L 908.006897 475.294658 
L 946.489655 479.031677 
L 984.972414 459.209059 
L 1023.455172 467.197954 
L 1061.937931 442.941608 
L 1100.42069 446.50604 
L 1138.903448 438.730933 
L 1177.386207 443.564685 
L 1215.868966 447.722416 
L 1254.351724 440.482563 
L 1292.834483 448.962841 
L 1331.317241 459.261744 
L 1369.8 453.077644 
" style="fill:none;stroke:#d1aa9f;stroke-linecap:square;stroke-width:4;"/>
    <defs>
     <path d="M 0 7.5 
C 1.989023 7.5 3.896849 6.709753 5.303301 5.303301 
C 6.709753 3.896849 7.5 1.989023 7.5 0 
C 7.5 -1.989023 6.709753 -3.896849 5.303301 -5.303301 
C 3.896849 -6.709753 1.989023 -7.5 0 -7.5 
C -1.989023 -7.5 -3.896849 -6.709753 -5.303301 -5.303301 
C -6.709753 -3.896849 -7.5 -1.989023 -7.5 0 
C -7.5 1.989023 -6.709753 3.896849 -5.303301 5.303301 
C -3.896849 6.709753 -1.989023 7.5 0 7.5 
z
" id="mc89e865cf1" style="stroke:#d1aa9f;"/>
    </defs>
    <g clip-path="url(#pa3bd70f7af)">
     <use style="fill:#d1aa9f;stroke:#d1aa9f;" x="253.8" xlink:href="#mc89e865cf1" y="1732.492173"/>
     <use style="fill:#d1aa9f;stroke:#d1aa9f;" x="292.282759" xlink:href="#mc89e865cf1" y="1693.666537"/>
     <use style="fill:#d1aa9f;stroke:#d1aa9f;" x="330.765517" xlink:href="#mc89e865cf1" y="1669.54554"/>
     <use style="fill:#d1aa9f;stroke:#d1aa9f;" x="369.248276" xlink:href="#mc89e865cf1" y="1595.456816"/>
     <use style="fill:#d1aa9f;stroke:#d1aa9f;" x="407.731034" xlink:href="#mc89e865cf1" y="1368.507169"/>
     <use style="fill:#d1aa9f;stroke:#d1aa9f;" x="446.213793" xlink:href="#mc89e865cf1" y="1204.04066"/>
     <use style="fill:#d1aa9f;stroke:#d1aa9f;" x="484.696552" xlink:href="#mc89e865cf1" y="1053.123871"/>
     <use style="fill:#d1aa9f;stroke:#d1aa9f;" x="523.17931" xlink:href="#mc89e865cf1" y="885.831809"/>
     <use style="fill:#d1aa9f;stroke:#d1aa9f;" x="561.662069" xlink:href="#mc89e865cf1" y="797.121801"/>
     <use style="fill:#d1aa9f;stroke:#d1aa9f;" x="600.144828" xlink:href="#mc89e865cf1" y="703.41928"/>
     <use style="fill:#d1aa9f;stroke:#d1aa9f;" x="638.627586" xlink:href="#mc89e865cf1" y="652.629083"/>
     <use style="fill:#d1aa9f;stroke:#d1aa9f;" x="677.110345" xlink:href="#mc89e865cf1" y="626.958868"/>
     <use style="fill:#d1aa9f;stroke:#d1aa9f;" x="715.593103" xlink:href="#mc89e865cf1" y="589.584405"/>
     <use style="fill:#d1aa9f;stroke:#d1aa9f;" x="754.075862" xlink:href="#mc89e865cf1" y="564.641036"/>
     <use style="fill:#d1aa9f;stroke:#d1aa9f;" x="792.558621" xlink:href="#mc89e865cf1" y="528.467292"/>
     <use style="fill:#d1aa9f;stroke:#d1aa9f;" x="831.041379" xlink:href="#mc89e865cf1" y="484.891682"/>
     <use style="fill:#d1aa9f;stroke:#d1aa9f;" x="869.524138" xlink:href="#mc89e865cf1" y="469.31189"/>
     <use style="fill:#d1aa9f;stroke:#d1aa9f;" x="908.006897" xlink:href="#mc89e865cf1" y="475.294658"/>
     <use style="fill:#d1aa9f;stroke:#d1aa9f;" x="946.489655" xlink:href="#mc89e865cf1" y="479.031677"/>
     <use style="fill:#d1aa9f;stroke:#d1aa9f;" x="984.972414" xlink:href="#mc89e865cf1" y="459.209059"/>
     <use style="fill:#d1aa9f;stroke:#d1aa9f;" x="1023.455172" xlink:href="#mc89e865cf1" y="467.197954"/>
     <use style="fill:#d1aa9f;stroke:#d1aa9f;" x="1061.937931" xlink:href="#mc89e865cf1" y="442.941608"/>
     <use style="fill:#d1aa9f;stroke:#d1aa9f;" x="1100.42069" xlink:href="#mc89e865cf1" y="446.50604"/>
     <use style="fill:#d1aa9f;stroke:#d1aa9f;" x="1138.903448" xlink:href="#mc89e865cf1" y="438.730933"/>
     <use style="fill:#d1aa9f;stroke:#d1aa9f;" x="1177.386207" xlink:href="#mc89e865cf1" y="443.564685"/>
     <use style="fill:#d1aa9f;stroke:#d1aa9f;" x="1215.868966" xlink:href="#mc89e865cf1" y="447.722416"/>
     <use style="fill:#d1aa9f;stroke:#d1aa9f;" x="1254.351724" xlink:href="#mc89e865cf1" y="440.482563"/>
     <use style="fill:#d1aa9f;stroke:#d1aa9f;" x="1292.834483" xlink:href="#mc89e865cf1" y="448.962841"/>
     <use style="fill:#d1aa9f;stroke:#d1aa9f;" x="1331.317241" xlink:href="#mc89e865cf1" y="459.261744"/>
     <use style="fill:#d1aa9f;stroke:#d1aa9f;" x="1369.8" xlink:href="#mc89e865cf1" y="453.077644"/>
    </g>
   </g>
   <g id="line2d_20">
    <path clip-path="url(#pa3bd70f7af)" d="M 253.8 1732.49341 
L 292.282759 1711.648519 
L 330.765517 1705.512463 
L 369.248276 1631.814778 
L 407.731034 1411.928791 
L 446.213793 1276.917881 
L 484.696552 1129.702215 
L 523.17931 957.619595 
L 561.662069 874.598996 
L 600.144828 787.924576 
L 638.627586 739.299447 
L 677.110345 697.1713 
L 715.593103 670.995581 
L 754.075862 650.675715 
L 792.558621 625.988572 
L 831.041379 586.10062 
L 869.524138 573.603975 
L 908.006897 575.069098 
L 946.489655 562.65722 
L 984.972414 557.41622 
L 1023.455172 554.139376 
L 1061.937931 527.68688 
L 1100.42069 534.13216 
L 1138.903448 532.152056 
L 1177.386207 543.239812 
L 1215.868966 530.695455 
L 1254.351724 530.674672 
L 1292.834483 551.839296 
L 1331.317241 555.137819 
L 1369.8 552.026196 
" style="fill:none;stroke:#d1aa9f;stroke-dasharray:5.55,2.4;stroke-dashoffset:0;stroke-width:1.5;"/>
   </g>
   <g id="line2d_21">
    <path clip-path="url(#pa3bd70f7af)" d="M 253.8 1732.490936 
L 292.282759 1675.684556 
L 330.765517 1633.578617 
L 369.248276 1559.098854 
L 407.731034 1325.085547 
L 446.213793 1131.163439 
L 484.696552 976.545527 
L 523.17931 814.044023 
L 561.662069 719.644607 
L 600.144828 618.913984 
L 638.627586 565.958718 
L 677.110345 556.746437 
L 715.593103 508.173229 
L 754.075862 478.606358 
L 792.558621 430.946013 
L 831.041379 383.682744 
L 869.524138 365.019804 
L 908.006897 375.520218 
L 946.489655 395.406134 
L 984.972414 361.001898 
L 1023.455172 380.256532 
L 1061.937931 358.196336 
L 1100.42069 358.879921 
L 1138.903448 345.30981 
L 1177.386207 343.889557 
L 1215.868966 364.749376 
L 1254.351724 350.290453 
L 1292.834483 346.086385 
L 1331.317241 363.38567 
L 1369.8 354.129092 
" style="fill:none;stroke:#d1aa9f;stroke-dasharray:5.55,2.4;stroke-dashoffset:0;stroke-width:1.5;"/>
   </g>
   <g id="line2d_22">
    <path clip-path="url(#pa3bd70f7af)" d="M 253.8 1732.494528 
L 292.282759 1703.063265 
L 330.765517 1684.830763 
L 369.248276 1629.45677 
L 407.731034 1442.88552 
L 446.213793 1251.05326 
L 484.696552 1002.694911 
L 523.17931 820.781214 
L 561.662069 732.876188 
L 600.144828 657.169938 
L 638.627586 630.366018 
L 677.110345 602.092515 
L 715.593103 578.452763 
L 754.075862 557.078483 
L 792.558621 546.253637 
L 831.041379 524.564734 
L 869.524138 510.937061 
L 908.006897 515.265436 
L 946.489655 511.738674 
L 984.972414 500.973404 
L 1023.455172 508.141568 
L 1061.937931 495.380333 
L 1100.42069 495.08545 
L 1138.903448 497.000606 
L 1177.386207 497.578924 
L 1215.868966 501.077665 
L 1254.351724 492.916894 
L 1292.834483 499.20109 
L 1331.317241 501.870992 
L 1369.8 499.652297 
" style="fill:none;stroke:#005394;stroke-linecap:square;stroke-width:4;"/>
    <defs>
     <path d="M 0 7.5 
C 1.989023 7.5 3.896849 6.709753 5.303301 5.303301 
C 6.709753 3.896849 7.5 1.989023 7.5 0 
C 7.5 -1.989023 6.709753 -3.896849 5.303301 -5.303301 
C 3.896849 -6.709753 1.989023 -7.5 0 -7.5 
C -1.989023 -7.5 -3.896849 -6.709753 -5.303301 -5.303301 
C -6.709753 -3.896849 -7.5 -1.989023 -7.5 0 
C -7.5 1.989023 -6.709753 3.896849 -5.303301 5.303301 
C -3.896849 6.709753 -1.989023 7.5 0 7.5 
z
" id="m62fa4fd577" style="stroke:#005394;"/>
    </defs>
    <g clip-path="url(#pa3bd70f7af)">
     <use style="fill:#005394;stroke:#005394;" x="253.8" xlink:href="#m62fa4fd577" y="1732.494528"/>
     <use style="fill:#005394;stroke:#005394;" x="292.282759" xlink:href="#m62fa4fd577" y="1703.063265"/>
     <use style="fill:#005394;stroke:#005394;" x="330.765517" xlink:href="#m62fa4fd577" y="1684.830763"/>
     <use style="fill:#005394;stroke:#005394;" x="369.248276" xlink:href="#m62fa4fd577" y="1629.45677"/>
     <use style="fill:#005394;stroke:#005394;" x="407.731034" xlink:href="#m62fa4fd577" y="1442.88552"/>
     <use style="fill:#005394;stroke:#005394;" x="446.213793" xlink:href="#m62fa4fd577" y="1251.05326"/>
     <use style="fill:#005394;stroke:#005394;" x="484.696552" xlink:href="#m62fa4fd577" y="1002.694911"/>
     <use style="fill:#005394;stroke:#005394;" x="523.17931" xlink:href="#m62fa4fd577" y="820.781214"/>
     <use style="fill:#005394;stroke:#005394;" x="561.662069" xlink:href="#m62fa4fd577" y="732.876188"/>
     <use style="fill:#005394;stroke:#005394;" x="600.144828" xlink:href="#m62fa4fd577" y="657.169938"/>
     <use style="fill:#005394;stroke:#005394;" x="638.627586" xlink:href="#m62fa4fd577" y="630.366018"/>
     <use style="fill:#005394;stroke:#005394;" x="677.110345" xlink:href="#m62fa4fd577" y="602.092515"/>
     <use style="fill:#005394;stroke:#005394;" x="715.593103" xlink:href="#m62fa4fd577" y="578.452763"/>
     <use style="fill:#005394;stroke:#005394;" x="754.075862" xlink:href="#m62fa4fd577" y="557.078483"/>
     <use style="fill:#005394;stroke:#005394;" x="792.558621" xlink:href="#m62fa4fd577" y="546.253637"/>
     <use style="fill:#005394;stroke:#005394;" x="831.041379" xlink:href="#m62fa4fd577" y="524.564734"/>
     <use style="fill:#005394;stroke:#005394;" x="869.524138" xlink:href="#m62fa4fd577" y="510.937061"/>
     <use style="fill:#005394;stroke:#005394;" x="908.006897" xlink:href="#m62fa4fd577" y="515.265436"/>
     <use style="fill:#005394;stroke:#005394;" x="946.489655" xlink:href="#m62fa4fd577" y="511.738674"/>
     <use style="fill:#005394;stroke:#005394;" x="984.972414" xlink:href="#m62fa4fd577" y="500.973404"/>
     <use style="fill:#005394;stroke:#005394;" x="1023.455172" xlink:href="#m62fa4fd577" y="508.141568"/>
     <use style="fill:#005394;stroke:#005394;" x="1061.937931" xlink:href="#m62fa4fd577" y="495.380333"/>
     <use style="fill:#005394;stroke:#005394;" x="1100.42069" xlink:href="#m62fa4fd577" y="495.08545"/>
     <use style="fill:#005394;stroke:#005394;" x="1138.903448" xlink:href="#m62fa4fd577" y="497.000606"/>
     <use style="fill:#005394;stroke:#005394;" x="1177.386207" xlink:href="#m62fa4fd577" y="497.578924"/>
     <use style="fill:#005394;stroke:#005394;" x="1215.868966" xlink:href="#m62fa4fd577" y="501.077665"/>
     <use style="fill:#005394;stroke:#005394;" x="1254.351724" xlink:href="#m62fa4fd577" y="492.916894"/>
     <use style="fill:#005394;stroke:#005394;" x="1292.834483" xlink:href="#m62fa4fd577" y="499.20109"/>
     <use style="fill:#005394;stroke:#005394;" x="1331.317241" xlink:href="#m62fa4fd577" y="501.870992"/>
     <use style="fill:#005394;stroke:#005394;" x="1369.8" xlink:href="#m62fa4fd577" y="499.652297"/>
    </g>
   </g>
   <g id="line2d_23">
    <path clip-path="url(#pa3bd70f7af)" d="M 253.8 1732.495495 
L 292.282759 1715.752907 
L 330.765517 1706.626679 
L 369.248276 1654.122036 
L 407.731034 1475.602535 
L 446.213793 1301.80073 
L 484.696552 1070.912597 
L 523.17931 892.845605 
L 561.662069 804.838354 
L 600.144828 735.947098 
L 638.627586 704.854053 
L 677.110345 675.764942 
L 715.593103 654.56635 
L 754.075862 634.11259 
L 792.558621 624.266825 
L 831.041379 606.388925 
L 869.524138 589.705585 
L 908.006897 595.369772 
L 946.489655 591.098587 
L 984.972414 579.42177 
L 1023.455172 585.956463 
L 1061.937931 566.294728 
L 1100.42069 583.016537 
L 1138.903448 567.452184 
L 1177.386207 574.821173 
L 1215.868966 568.890875 
L 1254.351724 565.950486 
L 1292.834483 578.315198 
L 1331.317241 590.546765 
L 1369.8 582.321341 
" style="fill:none;stroke:#005394;stroke-dasharray:5.55,2.4;stroke-dashoffset:0;stroke-width:1.5;"/>
   </g>
   <g id="line2d_24">
    <path clip-path="url(#pa3bd70f7af)" d="M 253.8 1732.493562 
L 292.282759 1690.373624 
L 330.765517 1663.034847 
L 369.248276 1604.791504 
L 407.731034 1410.168505 
L 446.213793 1200.30579 
L 484.696552 934.477225 
L 523.17931 748.716823 
L 561.662069 660.914022 
L 600.144828 578.392778 
L 638.627586 555.877982 
L 677.110345 528.420089 
L 715.593103 502.339176 
L 754.075862 480.044377 
L 792.558621 468.240449 
L 831.041379 442.740542 
L 869.524138 432.168537 
L 908.006897 435.161101 
L 946.489655 432.378761 
L 984.972414 422.525039 
L 1023.455172 430.326673 
L 1061.937931 424.465938 
L 1100.42069 407.154364 
L 1138.903448 426.549028 
L 1177.386207 420.336675 
L 1215.868966 433.264456 
L 1254.351724 419.883302 
L 1292.834483 420.086982 
L 1331.317241 413.195218 
L 1369.8 416.983252 
" style="fill:none;stroke:#005394;stroke-dasharray:5.55,2.4;stroke-dashoffset:0;stroke-width:1.5;"/>
   </g>
   <g id="line2d_25">
    <path clip-path="url(#pa3bd70f7af)" d="M 253.8 1732.483974 
L 292.282759 1704.72903 
L 330.765517 1693.567902 
L 369.248276 1590.728547 
L 407.731034 1198.882944 
L 446.213793 867.573466 
L 484.696552 702.952813 
L 523.17931 635.760076 
L 561.662069 615.335703 
L 600.144828 614.047551 
L 638.627586 617.88695 
L 677.110345 613.877196 
L 715.593103 620.222621 
L 754.075862 617.782901 
L 792.558621 615.467512 
L 831.041379 610.689856 
L 869.524138 607.305533 
L 908.006897 611.733752 
L 946.489655 613.455002 
L 984.972414 613.676363 
L 1023.455172 613.788202 
L 1061.937931 613.607893 
L 1100.42069 608.190665 
L 1138.903448 607.097083 
L 1177.386207 609.896054 
L 1215.868966 610.417794 
L 1254.351724 610.176818 
L 1292.834483 609.653774 
L 1331.317241 612.96409 
L 1369.8 614.790204 
" style="fill:none;stroke:#c54c36;stroke-linecap:square;stroke-width:4;"/>
    <defs>
     <path d="M 0 7.5 
C 1.989023 7.5 3.896849 6.709753 5.303301 5.303301 
C 6.709753 3.896849 7.5 1.989023 7.5 0 
C 7.5 -1.989023 6.709753 -3.896849 5.303301 -5.303301 
C 3.896849 -6.709753 1.989023 -7.5 0 -7.5 
C -1.989023 -7.5 -3.896849 -6.709753 -5.303301 -5.303301 
C -6.709753 -3.896849 -7.5 -1.989023 -7.5 0 
C -7.5 1.989023 -6.709753 3.896849 -5.303301 5.303301 
C -3.896849 6.709753 -1.989023 7.5 0 7.5 
z
" id="m48e224f34f" style="stroke:#c54c36;"/>
    </defs>
    <g clip-path="url(#pa3bd70f7af)">
     <use style="fill:#c54c36;stroke:#c54c36;" x="253.8" xlink:href="#m48e224f34f" y="1732.483974"/>
     <use style="fill:#c54c36;stroke:#c54c36;" x="292.282759" xlink:href="#m48e224f34f" y="1704.72903"/>
     <use style="fill:#c54c36;stroke:#c54c36;" x="330.765517" xlink:href="#m48e224f34f" y="1693.567902"/>
     <use style="fill:#c54c36;stroke:#c54c36;" x="369.248276" xlink:href="#m48e224f34f" y="1590.728547"/>
     <use style="fill:#c54c36;stroke:#c54c36;" x="407.731034" xlink:href="#m48e224f34f" y="1198.882944"/>
     <use style="fill:#c54c36;stroke:#c54c36;" x="446.213793" xlink:href="#m48e224f34f" y="867.573466"/>
     <use style="fill:#c54c36;stroke:#c54c36;" x="484.696552" xlink:href="#m48e224f34f" y="702.952813"/>
     <use style="fill:#c54c36;stroke:#c54c36;" x="523.17931" xlink:href="#m48e224f34f" y="635.760076"/>
     <use style="fill:#c54c36;stroke:#c54c36;" x="561.662069" xlink:href="#m48e224f34f" y="615.335703"/>
     <use style="fill:#c54c36;stroke:#c54c36;" x="600.144828" xlink:href="#m48e224f34f" y="614.047551"/>
     <use style="fill:#c54c36;stroke:#c54c36;" x="638.627586" xlink:href="#m48e224f34f" y="617.88695"/>
     <use style="fill:#c54c36;stroke:#c54c36;" x="677.110345" xlink:href="#m48e224f34f" y="613.877196"/>
     <use style="fill:#c54c36;stroke:#c54c36;" x="715.593103" xlink:href="#m48e224f34f" y="620.222621"/>
     <use style="fill:#c54c36;stroke:#c54c36;" x="754.075862" xlink:href="#m48e224f34f" y="617.782901"/>
     <use style="fill:#c54c36;stroke:#c54c36;" x="792.558621" xlink:href="#m48e224f34f" y="615.467512"/>
     <use style="fill:#c54c36;stroke:#c54c36;" x="831.041379" xlink:href="#m48e224f34f" y="610.689856"/>
     <use style="fill:#c54c36;stroke:#c54c36;" x="869.524138" xlink:href="#m48e224f34f" y="607.305533"/>
     <use style="fill:#c54c36;stroke:#c54c36;" x="908.006897" xlink:href="#m48e224f34f" y="611.733752"/>
     <use style="fill:#c54c36;stroke:#c54c36;" x="946.489655" xlink:href="#m48e224f34f" y="613.455002"/>
     <use style="fill:#c54c36;stroke:#c54c36;" x="984.972414" xlink:href="#m48e224f34f" y="613.676363"/>
     <use style="fill:#c54c36;stroke:#c54c36;" x="1023.455172" xlink:href="#m48e224f34f" y="613.788202"/>
     <use style="fill:#c54c36;stroke:#c54c36;" x="1061.937931" xlink:href="#m48e224f34f" y="613.607893"/>
     <use style="fill:#c54c36;stroke:#c54c36;" x="1100.42069" xlink:href="#m48e224f34f" y="608.190665"/>
     <use style="fill:#c54c36;stroke:#c54c36;" x="1138.903448" xlink:href="#m48e224f34f" y="607.097083"/>
     <use style="fill:#c54c36;stroke:#c54c36;" x="1177.386207" xlink:href="#m48e224f34f" y="609.896054"/>
     <use style="fill:#c54c36;stroke:#c54c36;" x="1215.868966" xlink:href="#m48e224f34f" y="610.417794"/>
     <use style="fill:#c54c36;stroke:#c54c36;" x="1254.351724" xlink:href="#m48e224f34f" y="610.176818"/>
     <use style="fill:#c54c36;stroke:#c54c36;" x="1292.834483" xlink:href="#m48e224f34f" y="609.653774"/>
     <use style="fill:#c54c36;stroke:#c54c36;" x="1331.317241" xlink:href="#m48e224f34f" y="612.96409"/>
     <use style="fill:#c54c36;stroke:#c54c36;" x="1369.8" xlink:href="#m48e224f34f" y="614.790204"/>
    </g>
   </g>
   <g id="line2d_26">
    <path clip-path="url(#pa3bd70f7af)" d="M 253.8 1732.485333 
L 292.282759 1713.783691 
L 330.765517 1705.162233 
L 369.248276 1608.284594 
L 407.731034 1232.420047 
L 446.213793 930.227973 
L 484.696552 753.134648 
L 523.17931 672.065766 
L 561.662069 650.897961 
L 600.144828 649.724364 
L 638.627586 656.013045 
L 677.110345 657.02162 
L 715.593103 658.44102 
L 754.075862 656.079992 
L 792.558621 661.448241 
L 831.041379 652.662306 
L 869.524138 652.93548 
L 908.006897 653.157718 
L 946.489655 650.261128 
L 984.972414 647.086506 
L 1023.455172 653.206805 
L 1061.937931 653.423858 
L 1100.42069 648.478272 
L 1138.903448 645.600303 
L 1177.386207 647.337126 
L 1215.868966 649.576006 
L 1254.351724 647.26491 
L 1292.834483 648.562082 
L 1331.317241 650.527722 
L 1369.8 653.40989 
" style="fill:none;stroke:#c54c36;stroke-dasharray:5.55,2.4;stroke-dashoffset:0;stroke-width:1.5;"/>
   </g>
   <g id="line2d_27">
    <path clip-path="url(#pa3bd70f7af)" d="M 253.8 1732.482615 
L 292.282759 1695.674368 
L 330.765517 1681.973571 
L 369.248276 1573.1725 
L 407.731034 1165.345841 
L 446.213793 804.918959 
L 484.696552 652.770977 
L 523.17931 599.454386 
L 561.662069 579.773444 
L 600.144828 578.370737 
L 638.627586 579.760854 
L 677.110345 570.732772 
L 715.593103 582.004222 
L 754.075862 579.485809 
L 792.558621 569.486783 
L 831.041379 568.717406 
L 869.524138 561.675586 
L 908.006897 570.309787 
L 946.489655 576.648876 
L 984.972414 580.26622 
L 1023.455172 574.369599 
L 1061.937931 573.791928 
L 1100.42069 567.903057 
L 1138.903448 568.593864 
L 1177.386207 572.454981 
L 1215.868966 571.259582 
L 1254.351724 573.088727 
L 1292.834483 570.745466 
L 1331.317241 575.400457 
L 1369.8 576.170518 
" style="fill:none;stroke:#c54c36;stroke-dasharray:5.55,2.4;stroke-dashoffset:0;stroke-width:1.5;"/>
   </g>
   <g id="patch_3">
    <path d="M 198 1732.5 
L 198 237.6 
" style="fill:none;stroke:#000000;stroke-linecap:square;stroke-linejoin:miter;stroke-width:0.8;"/>
   </g>
   <g id="patch_4">
    <path d="M 1425.6 1732.5 
L 1425.6 237.6 
" style="fill:none;stroke:#000000;stroke-linecap:square;stroke-linejoin:miter;stroke-width:0.8;"/>
   </g>
   <g id="patch_5">
    <path d="M 198 1732.5 
L 1425.6 1732.5 
" style="fill:none;stroke:#000000;stroke-linecap:square;stroke-linejoin:miter;stroke-width:0.8;"/>
   </g>
   <g id="patch_6">
    <path d="M 198 237.6 
L 1425.6 237.6 
" style="fill:none;stroke:#000000;stroke-linecap:square;stroke-linejoin:miter;stroke-width:0.8;"/>
   </g>
  </g>
 </g>
 <defs>
  <clipPath id="pa3bd70f7af">
   <rect height="1494.9" width="1227.6" x="198" y="237.6"/>
  </clipPath>
 </defs>
</svg>
