<?xml version="1.0" encoding="utf-8" standalone="no"?>
<!DOCTYPE svg PUBLIC "-//W3C//DTD SVG 1.1//EN"
  "http://www.w3.org/Graphics/SVG/1.1/DTD/svg11.dtd">
<!-- Created with matplotlib (https://matplotlib.org/) -->
<svg height="1980pt" version="1.1" viewBox="0 0 1584 1980" width="1584pt" xmlns="http://www.w3.org/2000/svg" xmlns:xlink="http://www.w3.org/1999/xlink">
 <defs>
  <style type="text/css">
*{stroke-linecap:butt;stroke-linejoin:round;}
  </style>
 </defs>
 <g id="figure_1">
  <g id="patch_1">
   <path d="M 0 1980 
L 1584 1980 
L 1584 0 
L 0 0 
z
" style="fill:#ffffff;"/>
  </g>
  <g id="axes_1">
   <g id="patch_2">
    <path d="M 198 1732.5 
L 1425.6 1732.5 
L 1425.6 237.6 
L 198 237.6 
z
" style="fill:#ffffff;"/>
   </g>
   <g id="PolyCollection_1">
    <defs>
     <path d="M 253.8 -247.515134 
L 253.8 -247.50919 
L 292.282759 -249.87566 
L 330.765517 -262.262987 
L 369.248276 -309.050533 
L 407.731034 -376.822814 
L 446.213793 -641.200267 
L 484.696552 -729.810923 
L 523.17931 -883.449837 
L 561.662069 -919.980938 
L 600.144828 -955.324466 
L 638.627586 -1030.482027 
L 677.110345 -1084.887617 
L 715.593103 -1093.859287 
L 754.075862 -1143.507327 
L 792.558621 -1225.68476 
L 831.041379 -1274.48532 
L 869.524138 -1260.660015 
L 908.006897 -1309.033834 
L 946.489655 -1335.615087 
L 984.972414 -1368.070463 
L 1023.455172 -1374.55704 
L 1061.937931 -1385.88077 
L 1100.42069 -1400.318022 
L 1138.903448 -1405.358911 
L 1177.386207 -1403.525418 
L 1215.868966 -1389.050925 
L 1254.351724 -1372.747358 
L 1292.834483 -1404.3214 
L 1331.317241 -1408.951628 
L 1369.8 -1400.45484 
L 1369.8 -1597.590399 
L 1369.8 -1597.590399 
L 1331.317241 -1585.909741 
L 1292.834483 -1567.749235 
L 1254.351724 -1638.448934 
L 1215.868966 -1592.025627 
L 1177.386207 -1563.588999 
L 1138.903448 -1548.83693 
L 1100.42069 -1555.322823 
L 1061.937931 -1566.958888 
L 1023.455172 -1543.210218 
L 984.972414 -1523.418628 
L 946.489655 -1514.894764 
L 908.006897 -1483.314647 
L 869.524138 -1469.052144 
L 831.041379 -1430.487012 
L 792.558621 -1386.960564 
L 754.075862 -1379.970095 
L 715.593103 -1253.735372 
L 677.110345 -1257.765414 
L 638.627586 -1215.318939 
L 600.144828 -1109.33615 
L 561.662069 -1078.210252 
L 523.17931 -1077.604007 
L 484.696552 -863.083025 
L 446.213793 -822.793974 
L 407.731034 -423.771138 
L 369.248276 -338.748672 
L 330.765517 -272.461886 
L 292.282759 -251.376026 
L 253.8 -247.515134 
z
" id="mb69165a983" style="stroke:#74c265;stroke-opacity:0.2;"/>
    </defs>
    <g clip-path="url(#p0d690531fe)">
     <use style="fill:#74c265;fill-opacity:0.2;stroke:#74c265;stroke-opacity:0.2;" x="0" xlink:href="#mb69165a983" y="1980"/>
    </g>
   </g>
   <g id="PolyCollection_2">
    <defs>
     <path d="M 253.8 -247.515222 
L 253.8 -247.5091 
L 292.282759 -249.75365 
L 330.765517 -262.22873 
L 369.248276 -308.508217 
L 407.731034 -375.126015 
L 446.213793 -634.107599 
L 484.696552 -728.576436 
L 523.17931 -886.061023 
L 561.662069 -914.037829 
L 600.144828 -952.312913 
L 638.627586 -1032.596273 
L 677.110345 -1094.029069 
L 715.593103 -1129.578148 
L 754.075862 -1144.885139 
L 792.558621 -1227.345197 
L 831.041379 -1273.332598 
L 869.524138 -1273.228286 
L 908.006897 -1303.739292 
L 946.489655 -1337.840601 
L 984.972414 -1371.914701 
L 1023.455172 -1377.481982 
L 1061.937931 -1375.124025 
L 1100.42069 -1387.511149 
L 1138.903448 -1403.463917 
L 1177.386207 -1408.21495 
L 1215.868966 -1398.419761 
L 1254.351724 -1373.045319 
L 1292.834483 -1407.567756 
L 1331.317241 -1407.411521 
L 1369.8 -1401.381593 
L 1369.8 -1605.800938 
L 1369.8 -1605.800938 
L 1331.317241 -1584.12992 
L 1292.834483 -1561.512853 
L 1254.351724 -1630.814863 
L 1215.868966 -1571.374041 
L 1177.386207 -1560.196482 
L 1138.903448 -1541.689519 
L 1100.42069 -1547.421935 
L 1061.937931 -1565.784126 
L 1023.455172 -1540.077054 
L 984.972414 -1530.389437 
L 946.489655 -1513.336996 
L 908.006897 -1476.863682 
L 869.524138 -1457.038186 
L 831.041379 -1433.886641 
L 792.558621 -1397.235065 
L 754.075862 -1385.190401 
L 715.593103 -1301.921424 
L 677.110345 -1259.247524 
L 638.627586 -1211.872903 
L 600.144828 -1119.559268 
L 561.662069 -1068.847396 
L 523.17931 -1087.34817 
L 484.696552 -849.178568 
L 446.213793 -774.29451 
L 407.731034 -421.951233 
L 369.248276 -332.007339 
L 330.765517 -271.017373 
L 292.282759 -251.109184 
L 253.8 -247.515222 
z
" id="m20e57e6782" style="stroke:#ff9933;stroke-opacity:0.2;"/>
    </defs>
    <g clip-path="url(#p0d690531fe)">
     <use style="fill:#ff9933;fill-opacity:0.2;stroke:#ff9933;stroke-opacity:0.2;" x="0" xlink:href="#m20e57e6782" y="1980"/>
    </g>
   </g>
   <g id="PolyCollection_3">
    <defs>
     <path d="M 253.8 -247.515191 
L 253.8 -247.509033 
L 292.282759 -249.640535 
L 330.765517 -260.988057 
L 369.248276 -306.774097 
L 407.731034 -369.433829 
L 446.213793 -636.534932 
L 484.696552 -715.536006 
L 523.17931 -905.214006 
L 561.662069 -923.715075 
L 600.144828 -958.588589 
L 638.627586 -1043.72617 
L 677.110345 -1076.770186 
L 715.593103 -1131.74309 
L 754.075862 -1174.07122 
L 792.558621 -1237.487761 
L 831.041379 -1287.152731 
L 869.524138 -1298.094612 
L 908.006897 -1324.389226 
L 946.489655 -1347.609377 
L 984.972414 -1376.163659 
L 1023.455172 -1361.593744 
L 1061.937931 -1364.019146 
L 1100.42069 -1384.289902 
L 1138.903448 -1404.945558 
L 1177.386207 -1408.199436 
L 1215.868966 -1400.594075 
L 1254.351724 -1378.78666 
L 1292.834483 -1405.043481 
L 1331.317241 -1400.119153 
L 1369.8 -1406.690988 
L 1369.8 -1589.488909 
L 1369.8 -1589.488909 
L 1331.317241 -1576.967195 
L 1292.834483 -1563.705957 
L 1254.351724 -1614.543821 
L 1215.868966 -1547.51952 
L 1177.386207 -1549.549404 
L 1138.903448 -1539.201636 
L 1100.42069 -1541.533399 
L 1061.937931 -1551.569868 
L 1023.455172 -1524.564655 
L 984.972414 -1522.254367 
L 946.489655 -1508.007066 
L 908.006897 -1478.075931 
L 869.524138 -1464.448072 
L 831.041379 -1428.567668 
L 792.558621 -1403.774422 
L 754.075862 -1366.000969 
L 715.593103 -1305.070344 
L 677.110345 -1248.686448 
L 638.627586 -1219.583447 
L 600.144828 -1117.418528 
L 561.662069 -1075.6578 
L 523.17931 -1089.582828 
L 484.696552 -831.92619 
L 446.213793 -799.855343 
L 407.731034 -415.451503 
L 369.248276 -330.999802 
L 330.765517 -267.912079 
L 292.282759 -250.947926 
L 253.8 -247.515191 
z
" id="m8951c502c6" style="stroke:#d1aa9f;stroke-opacity:0.2;"/>
    </defs>
    <g clip-path="url(#p0d690531fe)">
     <use style="fill:#d1aa9f;fill-opacity:0.2;stroke:#d1aa9f;stroke-opacity:0.2;" x="0" xlink:href="#m8951c502c6" y="1980"/>
    </g>
   </g>
   <g id="PolyCollection_4">
    <defs>
     <path d="M 253.8 -247.514955 
L 253.8 -247.510058 
L 292.282759 -249.405222 
L 330.765517 -259.220035 
L 369.248276 -286.295973 
L 407.731034 -382.303592 
L 446.213793 -631.44926 
L 484.696552 -808.68753 
L 523.17931 -942.845089 
L 561.662069 -1079.449944 
L 600.144828 -1072.843331 
L 638.627586 -1189.331286 
L 677.110345 -1260.139944 
L 715.593103 -1278.793857 
L 754.075862 -1305.81775 
L 792.558621 -1333.464059 
L 831.041379 -1356.605153 
L 869.524138 -1367.356895 
L 908.006897 -1376.020764 
L 946.489655 -1368.548345 
L 984.972414 -1379.212223 
L 1023.455172 -1374.63424 
L 1061.937931 -1377.545403 
L 1100.42069 -1383.591148 
L 1138.903448 -1390.497428 
L 1177.386207 -1387.070769 
L 1215.868966 -1380.385604 
L 1254.351724 -1373.034044 
L 1292.834483 -1381.105275 
L 1331.317241 -1383.506381 
L 1369.8 -1385.214689 
L 1369.8 -1518.396335 
L 1369.8 -1518.396335 
L 1331.317241 -1514.428171 
L 1292.834483 -1520.555845 
L 1254.351724 -1547.639123 
L 1215.868966 -1511.124602 
L 1177.386207 -1505.430722 
L 1138.903448 -1510.56644 
L 1100.42069 -1514.592175 
L 1061.937931 -1517.013769 
L 1023.455172 -1504.075963 
L 984.972414 -1502.122574 
L 946.489655 -1514.281567 
L 908.006897 -1507.730472 
L 869.524138 -1511.974893 
L 831.041379 -1487.140568 
L 792.558621 -1464.218829 
L 754.075862 -1434.505766 
L 715.593103 -1416.250978 
L 677.110345 -1415.765636 
L 638.627586 -1350.98603 
L 600.144828 -1205.178436 
L 561.662069 -1201.05949 
L 523.17931 -1067.44428 
L 484.696552 -944.44423 
L 446.213793 -720.30824 
L 407.731034 -421.507591 
L 369.248276 -300.845389 
L 330.765517 -264.210101 
L 292.282759 -250.473569 
L 253.8 -247.514955 
z
" id="mb950482b17" style="stroke:#005394;stroke-opacity:0.2;"/>
    </defs>
    <g clip-path="url(#p0d690531fe)">
     <use style="fill:#005394;fill-opacity:0.2;stroke:#005394;stroke-opacity:0.2;" x="0" xlink:href="#mb950482b17" y="1980"/>
    </g>
   </g>
   <g id="PolyCollection_5">
    <defs>
     <path d="M 253.8 -247.517775 
L 253.8 -247.515167 
L 292.282759 -249.96718 
L 330.765517 -261.300973 
L 369.248276 -391.246682 
L 407.731034 -935.20912 
L 446.213793 -1263.227865 
L 484.696552 -1317.794769 
L 523.17931 -1325.156074 
L 561.662069 -1325.025973 
L 600.144828 -1322.975417 
L 638.627586 -1319.308366 
L 677.110345 -1320.176766 
L 715.593103 -1317.956031 
L 754.075862 -1319.951828 
L 792.558621 -1314.925706 
L 831.041379 -1320.172858 
L 869.524138 -1321.485676 
L 908.006897 -1321.546605 
L 946.489655 -1322.898108 
L 984.972414 -1326.52622 
L 1023.455172 -1318.265001 
L 1061.937931 -1321.454639 
L 1100.42069 -1328.689738 
L 1138.903448 -1330.756451 
L 1177.386207 -1327.356406 
L 1215.868966 -1325.626662 
L 1254.351724 -1327.338593 
L 1292.834483 -1323.878175 
L 1331.317241 -1323.634132 
L 1369.8 -1320.721147 
L 1369.8 -1388.765959 
L 1369.8 -1388.765959 
L 1331.317241 -1393.657194 
L 1292.834483 -1400.741651 
L 1254.351724 -1396.301658 
L 1215.868966 -1394.231309 
L 1177.386207 -1395.921521 
L 1138.903448 -1401.849675 
L 1100.42069 -1400.066691 
L 1061.937931 -1396.18402 
L 1023.455172 -1395.209109 
L 984.972414 -1389.780382 
L 946.489655 -1393.105216 
L 908.006897 -1396.800051 
L 869.524138 -1407.048656 
L 831.041379 -1400.634603 
L 792.558621 -1395.559399 
L 754.075862 -1389.649774 
L 715.593103 -1389.587772 
L 677.110345 -1393.629583 
L 638.627586 -1389.85674 
L 600.144828 -1389.761399 
L 561.662069 -1396.406898 
L 523.17931 -1390.919944 
L 484.696552 -1390.324987 
L 446.213793 -1348.309094 
L 407.731034 -1023.197072 
L 369.248276 -410.521995 
L 330.765517 -262.834437 
L 292.282759 -250.453193 
L 253.8 -247.517775 
z
" id="m947d6a0b5a" style="stroke:#c54c36;stroke-opacity:0.2;"/>
    </defs>
    <g clip-path="url(#p0d690531fe)">
     <use style="fill:#c54c36;fill-opacity:0.2;stroke:#c54c36;stroke-opacity:0.2;" x="0" xlink:href="#m947d6a0b5a" y="1980"/>
    </g>
   </g>
   <g id="matplotlib.axis_1">
    <g id="xtick_1">
     <g id="line2d_1">
      <defs>
       <path d="M 0 7 
L 0 -7 
" id="m87b0b61757" style="stroke:#000000;stroke-width:3.5;"/>
      </defs>
      <g>
       <use style="stroke:#000000;stroke-width:3.5;" x="253.8" xlink:href="#m87b0b61757" y="1732.5"/>
      </g>
     </g>
     <g id="text_1">
      <!-- 0 -->
      <defs>
       <path d="M 31.78125 3.421875 
Q 39.265625 3.421875 42.96875 11.625 
Q 46.6875 19.828125 46.6875 36.375 
Q 46.6875 52.984375 42.96875 61.1875 
Q 39.265625 69.390625 31.78125 69.390625 
Q 24.3125 69.390625 20.59375 61.1875 
Q 16.890625 52.984375 16.890625 36.375 
Q 16.890625 19.828125 20.59375 11.625 
Q 24.3125 3.421875 31.78125 3.421875 
z
M 31.78125 -1.421875 
Q 19.921875 -1.421875 13.25 8.53125 
Q 6.59375 18.5 6.59375 36.375 
Q 6.59375 54.296875 13.25 64.25 
Q 19.921875 74.21875 31.78125 74.21875 
Q 43.703125 74.21875 50.34375 64.25 
Q 56.984375 54.296875 56.984375 36.375 
Q 56.984375 18.5 50.34375 8.53125 
Q 43.703125 -1.421875 31.78125 -1.421875 
z
" id="DejaVuSerif-48"/>
      </defs>
      <g transform="translate(233.121875 1792.389844)scale(0.65 -0.65)">
       <use xlink:href="#DejaVuSerif-48"/>
      </g>
     </g>
    </g>
    <g id="xtick_2">
     <g id="line2d_2">
      <g>
       <use style="stroke:#000000;stroke-width:3.5;" x="638.627586" xlink:href="#m87b0b61757" y="1732.5"/>
      </g>
     </g>
     <g id="text_2">
      <!-- 10 -->
      <defs>
       <path d="M 14.203125 0 
L 14.203125 5.171875 
L 26.90625 5.171875 
L 26.90625 65.828125 
L 12.203125 56.296875 
L 12.203125 62.703125 
L 29.984375 74.21875 
L 36.71875 74.21875 
L 36.71875 5.171875 
L 49.421875 5.171875 
L 49.421875 0 
z
" id="DejaVuSerif-49"/>
      </defs>
      <g transform="translate(597.271336 1792.389844)scale(0.65 -0.65)">
       <use xlink:href="#DejaVuSerif-49"/>
       <use x="63.623047" xlink:href="#DejaVuSerif-48"/>
      </g>
     </g>
    </g>
    <g id="xtick_3">
     <g id="line2d_3">
      <g>
       <use style="stroke:#000000;stroke-width:3.5;" x="1023.455172" xlink:href="#m87b0b61757" y="1732.5"/>
      </g>
     </g>
     <g id="text_3">
      <!-- 20 -->
      <defs>
       <path d="M 12.796875 55.515625 
L 7.328125 55.515625 
L 7.328125 68.5 
Q 12.546875 71.296875 17.84375 72.75 
Q 23.140625 74.21875 28.21875 74.21875 
Q 39.59375 74.21875 46.1875 68.703125 
Q 52.78125 63.1875 52.78125 53.71875 
Q 52.78125 43.015625 37.84375 28.125 
Q 36.671875 27 36.078125 26.421875 
L 17.671875 8.015625 
L 48.09375 8.015625 
L 48.09375 17 
L 53.8125 17 
L 53.8125 0 
L 6.78125 0 
L 6.78125 5.328125 
L 28.90625 27.390625 
Q 36.234375 34.71875 39.359375 40.84375 
Q 42.484375 46.96875 42.484375 53.71875 
Q 42.484375 61.078125 38.640625 65.234375 
Q 34.8125 69.390625 28.078125 69.390625 
Q 21.09375 69.390625 17.28125 65.921875 
Q 13.484375 62.453125 12.796875 55.515625 
z
" id="DejaVuSerif-50"/>
      </defs>
      <g transform="translate(982.098922 1792.389844)scale(0.65 -0.65)">
       <use xlink:href="#DejaVuSerif-50"/>
       <use x="63.623047" xlink:href="#DejaVuSerif-48"/>
      </g>
     </g>
    </g>
    <g id="xtick_4">
     <g id="line2d_4">
      <g>
       <use style="stroke:#000000;stroke-width:3.5;" x="1408.282759" xlink:href="#m87b0b61757" y="1732.5"/>
      </g>
     </g>
     <g id="text_4">
      <!-- 30 -->
      <defs>
       <path d="M 9.71875 69.828125 
Q 15.4375 71.96875 20.671875 73.09375 
Q 25.921875 74.21875 30.515625 74.21875 
Q 41.21875 74.21875 47.21875 69.59375 
Q 53.21875 64.984375 53.21875 56.78125 
Q 53.21875 50.203125 49.0625 45.78125 
Q 44.921875 41.359375 37.3125 39.796875 
Q 46.296875 38.53125 51.25 33.28125 
Q 56.203125 28.03125 56.203125 19.671875 
Q 56.203125 9.46875 49.34375 4.015625 
Q 42.484375 -1.421875 29.59375 -1.421875 
Q 23.875 -1.421875 18.421875 -0.1875 
Q 12.984375 1.03125 7.625 3.515625 
L 7.625 17.671875 
L 13.09375 17.671875 
Q 13.578125 10.640625 17.828125 7.03125 
Q 22.078125 3.421875 29.78125 3.421875 
Q 37.25 3.421875 41.578125 7.734375 
Q 45.90625 12.0625 45.90625 19.578125 
Q 45.90625 28.171875 41.453125 32.59375 
Q 37.015625 37.015625 28.421875 37.015625 
L 23.78125 37.015625 
L 23.78125 42 
L 26.21875 42 
Q 34.765625 42 39.03125 45.53125 
Q 43.3125 49.078125 43.3125 56.203125 
Q 43.3125 62.59375 39.796875 65.984375 
Q 36.28125 69.390625 29.6875 69.390625 
Q 23.09375 69.390625 19.453125 66.265625 
Q 15.828125 63.140625 15.1875 56.984375 
L 9.71875 56.984375 
z
" id="DejaVuSerif-51"/>
      </defs>
      <g transform="translate(1366.926509 1792.389844)scale(0.65 -0.65)">
       <use xlink:href="#DejaVuSerif-51"/>
       <use x="63.623047" xlink:href="#DejaVuSerif-48"/>
      </g>
     </g>
    </g>
   </g>
   <g id="matplotlib.axis_2">
    <g id="ytick_1">
     <g id="line2d_5">
      <defs>
       <path d="M 7 0 
L -7 -0 
" id="m5742014023" style="stroke:#000000;stroke-width:3.5;"/>
      </defs>
      <g>
       <use style="stroke:#000000;stroke-width:3.5;" x="198" xlink:href="#m5742014023" y="1732.5"/>
      </g>
     </g>
     <g id="text_5">
      <!-- 0 -->
      <g transform="translate(146.14375 1757.194922)scale(0.65 -0.65)">
       <use xlink:href="#DejaVuSerif-48"/>
      </g>
     </g>
    </g>
    <g id="ytick_2">
     <g id="line2d_6">
      <g>
       <use style="stroke:#000000;stroke-width:3.5;" x="198" xlink:href="#m5742014023" y="1518.942857"/>
      </g>
     </g>
     <g id="text_6">
      <!-- 1 -->
      <g transform="translate(146.14375 1543.637779)scale(0.65 -0.65)">
       <use xlink:href="#DejaVuSerif-49"/>
      </g>
     </g>
    </g>
    <g id="ytick_3">
     <g id="line2d_7">
      <g>
       <use style="stroke:#000000;stroke-width:3.5;" x="198" xlink:href="#m5742014023" y="1305.385714"/>
      </g>
     </g>
     <g id="text_7">
      <!-- 2 -->
      <g transform="translate(146.14375 1330.080636)scale(0.65 -0.65)">
       <use xlink:href="#DejaVuSerif-50"/>
      </g>
     </g>
    </g>
    <g id="ytick_4">
     <g id="line2d_8">
      <g>
       <use style="stroke:#000000;stroke-width:3.5;" x="198" xlink:href="#m5742014023" y="1091.828571"/>
      </g>
     </g>
     <g id="text_8">
      <!-- 3 -->
      <g transform="translate(146.14375 1116.523493)scale(0.65 -0.65)">
       <use xlink:href="#DejaVuSerif-51"/>
      </g>
     </g>
    </g>
    <g id="ytick_5">
     <g id="line2d_9">
      <g>
       <use style="stroke:#000000;stroke-width:3.5;" x="198" xlink:href="#m5742014023" y="878.271429"/>
      </g>
     </g>
     <g id="text_9">
      <!-- 4 -->
      <defs>
       <path d="M 34.90625 24.703125 
L 34.90625 63.484375 
L 10.015625 24.703125 
z
M 56.390625 0 
L 23.1875 0 
L 23.1875 5.171875 
L 34.90625 5.171875 
L 34.90625 19.484375 
L 3.078125 19.484375 
L 3.078125 24.8125 
L 35.015625 74.21875 
L 44.671875 74.21875 
L 44.671875 24.703125 
L 58.59375 24.703125 
L 58.59375 19.484375 
L 44.671875 19.484375 
L 44.671875 5.171875 
L 56.390625 5.171875 
z
" id="DejaVuSerif-52"/>
      </defs>
      <g transform="translate(146.14375 902.96635)scale(0.65 -0.65)">
       <use xlink:href="#DejaVuSerif-52"/>
      </g>
     </g>
    </g>
    <g id="ytick_6">
     <g id="line2d_10">
      <g>
       <use style="stroke:#000000;stroke-width:3.5;" x="198" xlink:href="#m5742014023" y="664.714286"/>
      </g>
     </g>
     <g id="text_10">
      <!-- 5 -->
      <defs>
       <path d="M 50.296875 72.90625 
L 50.296875 64.890625 
L 16.890625 64.890625 
L 16.890625 44 
Q 19.4375 45.75 22.828125 46.625 
Q 26.21875 47.515625 30.421875 47.515625 
Q 42.234375 47.515625 49.0625 40.96875 
Q 55.90625 34.421875 55.90625 23.09375 
Q 55.90625 11.53125 49 5.046875 
Q 42.09375 -1.421875 29.59375 -1.421875 
Q 24.5625 -1.421875 19.28125 -0.1875 
Q 14.015625 1.03125 8.5 3.515625 
L 8.5 17.671875 
L 14.015625 17.671875 
Q 14.453125 10.75 18.421875 7.078125 
Q 22.40625 3.421875 29.59375 3.421875 
Q 37.3125 3.421875 41.453125 8.5 
Q 45.609375 13.578125 45.609375 23.09375 
Q 45.609375 32.5625 41.484375 37.609375 
Q 37.359375 42.671875 29.59375 42.671875 
Q 25.203125 42.671875 21.84375 41.109375 
Q 18.5 39.546875 15.921875 36.28125 
L 11.71875 36.28125 
L 11.71875 72.90625 
z
" id="DejaVuSerif-53"/>
      </defs>
      <g transform="translate(146.14375 689.409208)scale(0.65 -0.65)">
       <use xlink:href="#DejaVuSerif-53"/>
      </g>
     </g>
    </g>
    <g id="ytick_7">
     <g id="line2d_11">
      <g>
       <use style="stroke:#000000;stroke-width:3.5;" x="198" xlink:href="#m5742014023" y="451.157143"/>
      </g>
     </g>
     <g id="text_11">
      <!-- 6 -->
      <defs>
       <path d="M 32.71875 3.421875 
Q 39.59375 3.421875 43.296875 8.46875 
Q 47.015625 13.53125 47.015625 23 
Q 47.015625 32.46875 43.296875 37.515625 
Q 39.59375 42.578125 32.71875 42.578125 
Q 25.734375 42.578125 22.0625 37.6875 
Q 18.40625 32.8125 18.40625 23.578125 
Q 18.40625 13.875 22.109375 8.640625 
Q 25.828125 3.421875 32.71875 3.421875 
z
M 16.796875 40.140625 
Q 20.125 43.796875 24.3125 45.59375 
Q 28.515625 47.40625 33.796875 47.40625 
Q 44.671875 47.40625 51 40.859375 
Q 57.328125 34.328125 57.328125 23 
Q 57.328125 11.921875 50.515625 5.25 
Q 43.703125 -1.421875 32.328125 -1.421875 
Q 19.96875 -1.421875 13.328125 7.78125 
Q 6.6875 17 6.6875 34.078125 
Q 6.6875 53.21875 14.546875 63.71875 
Q 22.40625 74.21875 36.71875 74.21875 
Q 40.578125 74.21875 44.828125 73.484375 
Q 49.078125 72.75 53.515625 71.296875 
L 53.515625 59.28125 
L 48 59.28125 
Q 47.40625 64.203125 44.234375 66.796875 
Q 41.0625 69.390625 35.6875 69.390625 
Q 26.21875 69.390625 21.578125 62.203125 
Q 16.9375 55.03125 16.796875 40.140625 
z
" id="DejaVuSerif-54"/>
      </defs>
      <g transform="translate(146.14375 475.852065)scale(0.65 -0.65)">
       <use xlink:href="#DejaVuSerif-54"/>
      </g>
     </g>
    </g>
    <g id="ytick_8">
     <g id="line2d_12">
      <g>
       <use style="stroke:#000000;stroke-width:3.5;" x="198" xlink:href="#m5742014023" y="237.6"/>
      </g>
     </g>
     <g id="text_12">
      <!-- 7 -->
      <defs>
       <path d="M 56.390625 67.921875 
L 27.875 0 
L 20.609375 0 
L 47.796875 64.890625 
L 14.109375 64.890625 
L 14.109375 55.90625 
L 8.40625 55.90625 
L 8.40625 72.90625 
L 56.390625 72.90625 
z
" id="DejaVuSerif-55"/>
      </defs>
      <g transform="translate(146.14375 262.294922)scale(0.65 -0.65)">
       <use xlink:href="#DejaVuSerif-55"/>
      </g>
     </g>
    </g>
   </g>
   <g id="line2d_13">
    <path clip-path="url(#p0d690531fe)" d="M 253.8 1732.487838 
L 292.282759 1729.374157 
L 330.765517 1712.637563 
L 369.248276 1656.100398 
L 407.731034 1579.703024 
L 446.213793 1248.00288 
L 484.696552 1183.553026 
L 523.17931 999.473078 
L 561.662069 980.904405 
L 600.144828 947.669692 
L 638.627586 857.099517 
L 677.110345 808.673484 
L 715.593103 806.202671 
L 754.075862 718.261289 
L 792.558621 673.677338 
L 831.041379 627.513834 
L 869.524138 615.143921 
L 908.006897 583.825759 
L 946.489655 554.745074 
L 984.972414 534.255454 
L 1023.455172 521.116371 
L 1061.937931 503.580171 
L 1100.42069 502.179578 
L 1138.903448 502.902079 
L 1177.386207 496.442791 
L 1215.868966 489.461724 
L 1254.351724 474.401854 
L 1292.834483 493.964682 
L 1331.317241 482.569316 
L 1369.8 480.97738 
" style="fill:none;stroke:#74c265;stroke-linecap:square;stroke-width:4;"/>
    <defs>
     <path d="M 0 7.5 
C 1.989023 7.5 3.896849 6.709753 5.303301 5.303301 
C 6.709753 3.896849 7.5 1.989023 7.5 0 
C 7.5 -1.989023 6.709753 -3.896849 5.303301 -5.303301 
C 3.896849 -6.709753 1.989023 -7.5 0 -7.5 
C -1.989023 -7.5 -3.896849 -6.709753 -5.303301 -5.303301 
C -6.709753 -3.896849 -7.5 -1.989023 -7.5 0 
C -7.5 1.989023 -6.709753 3.896849 -5.303301 5.303301 
C -3.896849 6.709753 -1.989023 7.5 0 7.5 
z
" id="m6842a71f28" style="stroke:#74c265;"/>
    </defs>
    <g clip-path="url(#p0d690531fe)">
     <use style="fill:#74c265;stroke:#74c265;" x="253.8" xlink:href="#m6842a71f28" y="1732.487838"/>
     <use style="fill:#74c265;stroke:#74c265;" x="292.282759" xlink:href="#m6842a71f28" y="1729.374157"/>
     <use style="fill:#74c265;stroke:#74c265;" x="330.765517" xlink:href="#m6842a71f28" y="1712.637563"/>
     <use style="fill:#74c265;stroke:#74c265;" x="369.248276" xlink:href="#m6842a71f28" y="1656.100398"/>
     <use style="fill:#74c265;stroke:#74c265;" x="407.731034" xlink:href="#m6842a71f28" y="1579.703024"/>
     <use style="fill:#74c265;stroke:#74c265;" x="446.213793" xlink:href="#m6842a71f28" y="1248.00288"/>
     <use style="fill:#74c265;stroke:#74c265;" x="484.696552" xlink:href="#m6842a71f28" y="1183.553026"/>
     <use style="fill:#74c265;stroke:#74c265;" x="523.17931" xlink:href="#m6842a71f28" y="999.473078"/>
     <use style="fill:#74c265;stroke:#74c265;" x="561.662069" xlink:href="#m6842a71f28" y="980.904405"/>
     <use style="fill:#74c265;stroke:#74c265;" x="600.144828" xlink:href="#m6842a71f28" y="947.669692"/>
     <use style="fill:#74c265;stroke:#74c265;" x="638.627586" xlink:href="#m6842a71f28" y="857.099517"/>
     <use style="fill:#74c265;stroke:#74c265;" x="677.110345" xlink:href="#m6842a71f28" y="808.673484"/>
     <use style="fill:#74c265;stroke:#74c265;" x="715.593103" xlink:href="#m6842a71f28" y="806.202671"/>
     <use style="fill:#74c265;stroke:#74c265;" x="754.075862" xlink:href="#m6842a71f28" y="718.261289"/>
     <use style="fill:#74c265;stroke:#74c265;" x="792.558621" xlink:href="#m6842a71f28" y="673.677338"/>
     <use style="fill:#74c265;stroke:#74c265;" x="831.041379" xlink:href="#m6842a71f28" y="627.513834"/>
     <use style="fill:#74c265;stroke:#74c265;" x="869.524138" xlink:href="#m6842a71f28" y="615.143921"/>
     <use style="fill:#74c265;stroke:#74c265;" x="908.006897" xlink:href="#m6842a71f28" y="583.825759"/>
     <use style="fill:#74c265;stroke:#74c265;" x="946.489655" xlink:href="#m6842a71f28" y="554.745074"/>
     <use style="fill:#74c265;stroke:#74c265;" x="984.972414" xlink:href="#m6842a71f28" y="534.255454"/>
     <use style="fill:#74c265;stroke:#74c265;" x="1023.455172" xlink:href="#m6842a71f28" y="521.116371"/>
     <use style="fill:#74c265;stroke:#74c265;" x="1061.937931" xlink:href="#m6842a71f28" y="503.580171"/>
     <use style="fill:#74c265;stroke:#74c265;" x="1100.42069" xlink:href="#m6842a71f28" y="502.179578"/>
     <use style="fill:#74c265;stroke:#74c265;" x="1138.903448" xlink:href="#m6842a71f28" y="502.902079"/>
     <use style="fill:#74c265;stroke:#74c265;" x="1177.386207" xlink:href="#m6842a71f28" y="496.442791"/>
     <use style="fill:#74c265;stroke:#74c265;" x="1215.868966" xlink:href="#m6842a71f28" y="489.461724"/>
     <use style="fill:#74c265;stroke:#74c265;" x="1254.351724" xlink:href="#m6842a71f28" y="474.401854"/>
     <use style="fill:#74c265;stroke:#74c265;" x="1292.834483" xlink:href="#m6842a71f28" y="493.964682"/>
     <use style="fill:#74c265;stroke:#74c265;" x="1331.317241" xlink:href="#m6842a71f28" y="482.569316"/>
     <use style="fill:#74c265;stroke:#74c265;" x="1369.8" xlink:href="#m6842a71f28" y="480.97738"/>
    </g>
   </g>
   <g id="line2d_14">
    <path clip-path="url(#p0d690531fe)" d="M 253.8 1732.49081 
L 292.282759 1730.12434 
L 330.765517 1717.737013 
L 369.248276 1670.949467 
L 407.731034 1603.177186 
L 446.213793 1338.799733 
L 484.696552 1250.189077 
L 523.17931 1096.550163 
L 561.662069 1060.019062 
L 600.144828 1024.675534 
L 638.627586 949.517973 
L 677.110345 895.112383 
L 715.593103 886.140713 
L 754.075862 836.492673 
L 792.558621 754.31524 
L 831.041379 705.51468 
L 869.524138 719.339985 
L 908.006897 670.966166 
L 946.489655 644.384913 
L 984.972414 611.929537 
L 1023.455172 605.44296 
L 1061.937931 594.11923 
L 1100.42069 579.681978 
L 1138.903448 574.641089 
L 1177.386207 576.474582 
L 1215.868966 590.949075 
L 1254.351724 607.252642 
L 1292.834483 575.6786 
L 1331.317241 571.048372 
L 1369.8 579.54516 
" style="fill:none;stroke:#74c265;stroke-dasharray:5.55,2.4;stroke-dashoffset:0;stroke-width:1.5;"/>
   </g>
   <g id="line2d_15">
    <path clip-path="url(#p0d690531fe)" d="M 253.8 1732.484866 
L 292.282759 1728.623974 
L 330.765517 1707.538114 
L 369.248276 1641.251328 
L 407.731034 1556.228862 
L 446.213793 1157.206026 
L 484.696552 1116.916975 
L 523.17931 902.395993 
L 561.662069 901.789748 
L 600.144828 870.66385 
L 638.627586 764.681061 
L 677.110345 722.234586 
L 715.593103 726.264628 
L 754.075862 600.029905 
L 792.558621 593.039436 
L 831.041379 549.512988 
L 869.524138 510.947856 
L 908.006897 496.685353 
L 946.489655 465.105236 
L 984.972414 456.581372 
L 1023.455172 436.789782 
L 1061.937931 413.041112 
L 1100.42069 424.677177 
L 1138.903448 431.16307 
L 1177.386207 416.411001 
L 1215.868966 387.974373 
L 1254.351724 341.551066 
L 1292.834483 412.250765 
L 1331.317241 394.090259 
L 1369.8 382.409601 
" style="fill:none;stroke:#74c265;stroke-dasharray:5.55,2.4;stroke-dashoffset:0;stroke-width:1.5;"/>
   </g>
   <g id="line2d_16">
    <path clip-path="url(#p0d690531fe)" d="M 253.8 1732.487839 
L 292.282759 1729.568583 
L 330.765517 1713.376949 
L 369.248276 1659.742222 
L 407.731034 1581.461376 
L 446.213793 1275.798945 
L 484.696552 1191.122498 
L 523.17931 993.295403 
L 561.662069 988.557387 
L 600.144828 944.063909 
L 638.627586 857.765412 
L 677.110345 803.361703 
L 715.593103 764.250214 
L 754.075862 714.96223 
L 792.558621 667.709869 
L 831.041379 626.39038 
L 869.524138 614.866764 
L 908.006897 589.698513 
L 946.489655 554.411201 
L 984.972414 528.847931 
L 1023.455172 521.220482 
L 1061.937931 509.545925 
L 1100.42069 512.533458 
L 1138.903448 507.423282 
L 1177.386207 495.794284 
L 1215.868966 495.103099 
L 1254.351724 478.069909 
L 1292.834483 495.459696 
L 1331.317241 484.229279 
L 1369.8 476.408735 
" style="fill:none;stroke:#ff9933;stroke-linecap:square;stroke-width:4;"/>
    <defs>
     <path d="M 0 7.5 
C 1.989023 7.5 3.896849 6.709753 5.303301 5.303301 
C 6.709753 3.896849 7.5 1.989023 7.5 0 
C 7.5 -1.989023 6.709753 -3.896849 5.303301 -5.303301 
C 3.896849 -6.709753 1.989023 -7.5 0 -7.5 
C -1.989023 -7.5 -3.896849 -6.709753 -5.303301 -5.303301 
C -6.709753 -3.896849 -7.5 -1.989023 -7.5 0 
C -7.5 1.989023 -6.709753 3.896849 -5.303301 5.303301 
C -3.896849 6.709753 -1.989023 7.5 0 7.5 
z
" id="m37447a9f8f" style="stroke:#ff9933;"/>
    </defs>
    <g clip-path="url(#p0d690531fe)">
     <use style="fill:#ff9933;stroke:#ff9933;" x="253.8" xlink:href="#m37447a9f8f" y="1732.487839"/>
     <use style="fill:#ff9933;stroke:#ff9933;" x="292.282759" xlink:href="#m37447a9f8f" y="1729.568583"/>
     <use style="fill:#ff9933;stroke:#ff9933;" x="330.765517" xlink:href="#m37447a9f8f" y="1713.376949"/>
     <use style="fill:#ff9933;stroke:#ff9933;" x="369.248276" xlink:href="#m37447a9f8f" y="1659.742222"/>
     <use style="fill:#ff9933;stroke:#ff9933;" x="407.731034" xlink:href="#m37447a9f8f" y="1581.461376"/>
     <use style="fill:#ff9933;stroke:#ff9933;" x="446.213793" xlink:href="#m37447a9f8f" y="1275.798945"/>
     <use style="fill:#ff9933;stroke:#ff9933;" x="484.696552" xlink:href="#m37447a9f8f" y="1191.122498"/>
     <use style="fill:#ff9933;stroke:#ff9933;" x="523.17931" xlink:href="#m37447a9f8f" y="993.295403"/>
     <use style="fill:#ff9933;stroke:#ff9933;" x="561.662069" xlink:href="#m37447a9f8f" y="988.557387"/>
     <use style="fill:#ff9933;stroke:#ff9933;" x="600.144828" xlink:href="#m37447a9f8f" y="944.063909"/>
     <use style="fill:#ff9933;stroke:#ff9933;" x="638.627586" xlink:href="#m37447a9f8f" y="857.765412"/>
     <use style="fill:#ff9933;stroke:#ff9933;" x="677.110345" xlink:href="#m37447a9f8f" y="803.361703"/>
     <use style="fill:#ff9933;stroke:#ff9933;" x="715.593103" xlink:href="#m37447a9f8f" y="764.250214"/>
     <use style="fill:#ff9933;stroke:#ff9933;" x="754.075862" xlink:href="#m37447a9f8f" y="714.96223"/>
     <use style="fill:#ff9933;stroke:#ff9933;" x="792.558621" xlink:href="#m37447a9f8f" y="667.709869"/>
     <use style="fill:#ff9933;stroke:#ff9933;" x="831.041379" xlink:href="#m37447a9f8f" y="626.39038"/>
     <use style="fill:#ff9933;stroke:#ff9933;" x="869.524138" xlink:href="#m37447a9f8f" y="614.866764"/>
     <use style="fill:#ff9933;stroke:#ff9933;" x="908.006897" xlink:href="#m37447a9f8f" y="589.698513"/>
     <use style="fill:#ff9933;stroke:#ff9933;" x="946.489655" xlink:href="#m37447a9f8f" y="554.411201"/>
     <use style="fill:#ff9933;stroke:#ff9933;" x="984.972414" xlink:href="#m37447a9f8f" y="528.847931"/>
     <use style="fill:#ff9933;stroke:#ff9933;" x="1023.455172" xlink:href="#m37447a9f8f" y="521.220482"/>
     <use style="fill:#ff9933;stroke:#ff9933;" x="1061.937931" xlink:href="#m37447a9f8f" y="509.545925"/>
     <use style="fill:#ff9933;stroke:#ff9933;" x="1100.42069" xlink:href="#m37447a9f8f" y="512.533458"/>
     <use style="fill:#ff9933;stroke:#ff9933;" x="1138.903448" xlink:href="#m37447a9f8f" y="507.423282"/>
     <use style="fill:#ff9933;stroke:#ff9933;" x="1177.386207" xlink:href="#m37447a9f8f" y="495.794284"/>
     <use style="fill:#ff9933;stroke:#ff9933;" x="1215.868966" xlink:href="#m37447a9f8f" y="495.103099"/>
     <use style="fill:#ff9933;stroke:#ff9933;" x="1254.351724" xlink:href="#m37447a9f8f" y="478.069909"/>
     <use style="fill:#ff9933;stroke:#ff9933;" x="1292.834483" xlink:href="#m37447a9f8f" y="495.459696"/>
     <use style="fill:#ff9933;stroke:#ff9933;" x="1331.317241" xlink:href="#m37447a9f8f" y="484.229279"/>
     <use style="fill:#ff9933;stroke:#ff9933;" x="1369.8" xlink:href="#m37447a9f8f" y="476.408735"/>
    </g>
   </g>
   <g id="line2d_17">
    <path clip-path="url(#p0d690531fe)" d="M 253.8 1732.4909 
L 292.282759 1730.24635 
L 330.765517 1717.77127 
L 369.248276 1671.491783 
L 407.731034 1604.873985 
L 446.213793 1345.892401 
L 484.696552 1251.423564 
L 523.17931 1093.938977 
L 561.662069 1065.962171 
L 600.144828 1027.687087 
L 638.627586 947.403727 
L 677.110345 885.970931 
L 715.593103 850.421852 
L 754.075862 835.114861 
L 792.558621 752.654803 
L 831.041379 706.667402 
L 869.524138 706.771714 
L 908.006897 676.260708 
L 946.489655 642.159399 
L 984.972414 608.085299 
L 1023.455172 602.518018 
L 1061.937931 604.875975 
L 1100.42069 592.488851 
L 1138.903448 576.536083 
L 1177.386207 571.78505 
L 1215.868966 581.580239 
L 1254.351724 606.954681 
L 1292.834483 572.432244 
L 1331.317241 572.588479 
L 1369.8 578.618407 
" style="fill:none;stroke:#ff9933;stroke-dasharray:5.55,2.4;stroke-dashoffset:0;stroke-width:1.5;"/>
   </g>
   <g id="line2d_18">
    <path clip-path="url(#p0d690531fe)" d="M 253.8 1732.484778 
L 292.282759 1728.890816 
L 330.765517 1708.982627 
L 369.248276 1647.992661 
L 407.731034 1558.048767 
L 446.213793 1205.70549 
L 484.696552 1130.821432 
L 523.17931 892.65183 
L 561.662069 911.152604 
L 600.144828 860.440732 
L 638.627586 768.127097 
L 677.110345 720.752476 
L 715.593103 678.078576 
L 754.075862 594.809599 
L 792.558621 582.764935 
L 831.041379 546.113359 
L 869.524138 522.961814 
L 908.006897 503.136318 
L 946.489655 466.663004 
L 984.972414 449.610563 
L 1023.455172 439.922946 
L 1061.937931 414.215874 
L 1100.42069 432.578065 
L 1138.903448 438.310481 
L 1177.386207 419.803518 
L 1215.868966 408.625959 
L 1254.351724 349.185137 
L 1292.834483 418.487147 
L 1331.317241 395.87008 
L 1369.8 374.199062 
" style="fill:none;stroke:#ff9933;stroke-dasharray:5.55,2.4;stroke-dashoffset:0;stroke-width:1.5;"/>
   </g>
   <g id="line2d_19">
    <path clip-path="url(#p0d690531fe)" d="M 253.8 1732.487888 
L 292.282759 1729.705769 
L 330.765517 1715.549932 
L 369.248276 1661.113051 
L 407.731034 1587.557334 
L 446.213793 1261.804863 
L 484.696552 1206.268902 
L 523.17931 982.601583 
L 561.662069 980.313563 
L 600.144828 941.996442 
L 638.627586 848.345192 
L 677.110345 817.271683 
L 715.593103 761.593283 
L 754.075862 709.963905 
L 792.558621 659.368908 
L 831.041379 622.139801 
L 869.524138 598.728658 
L 908.006897 578.767421 
L 946.489655 552.191779 
L 984.972414 530.790987 
L 1023.455172 536.920801 
L 1061.937931 522.205493 
L 1100.42069 517.088349 
L 1138.903448 507.926403 
L 1177.386207 501.12558 
L 1215.868966 505.943202 
L 1254.351724 483.334759 
L 1292.834483 495.625281 
L 1331.317241 491.456826 
L 1369.8 481.910051 
" style="fill:none;stroke:#d1aa9f;stroke-linecap:square;stroke-width:4;"/>
    <defs>
     <path d="M 0 7.5 
C 1.989023 7.5 3.896849 6.709753 5.303301 5.303301 
C 6.709753 3.896849 7.5 1.989023 7.5 0 
C 7.5 -1.989023 6.709753 -3.896849 5.303301 -5.303301 
C 3.896849 -6.709753 1.989023 -7.5 0 -7.5 
C -1.989023 -7.5 -3.896849 -6.709753 -5.303301 -5.303301 
C -6.709753 -3.896849 -7.5 -1.989023 -7.5 0 
C -7.5 1.989023 -6.709753 3.896849 -5.303301 5.303301 
C -3.896849 6.709753 -1.989023 7.5 0 7.5 
z
" id="m48f86d39c2" style="stroke:#d1aa9f;"/>
    </defs>
    <g clip-path="url(#p0d690531fe)">
     <use style="fill:#d1aa9f;stroke:#d1aa9f;" x="253.8" xlink:href="#m48f86d39c2" y="1732.487888"/>
     <use style="fill:#d1aa9f;stroke:#d1aa9f;" x="292.282759" xlink:href="#m48f86d39c2" y="1729.705769"/>
     <use style="fill:#d1aa9f;stroke:#d1aa9f;" x="330.765517" xlink:href="#m48f86d39c2" y="1715.549932"/>
     <use style="fill:#d1aa9f;stroke:#d1aa9f;" x="369.248276" xlink:href="#m48f86d39c2" y="1661.113051"/>
     <use style="fill:#d1aa9f;stroke:#d1aa9f;" x="407.731034" xlink:href="#m48f86d39c2" y="1587.557334"/>
     <use style="fill:#d1aa9f;stroke:#d1aa9f;" x="446.213793" xlink:href="#m48f86d39c2" y="1261.804863"/>
     <use style="fill:#d1aa9f;stroke:#d1aa9f;" x="484.696552" xlink:href="#m48f86d39c2" y="1206.268902"/>
     <use style="fill:#d1aa9f;stroke:#d1aa9f;" x="523.17931" xlink:href="#m48f86d39c2" y="982.601583"/>
     <use style="fill:#d1aa9f;stroke:#d1aa9f;" x="561.662069" xlink:href="#m48f86d39c2" y="980.313563"/>
     <use style="fill:#d1aa9f;stroke:#d1aa9f;" x="600.144828" xlink:href="#m48f86d39c2" y="941.996442"/>
     <use style="fill:#d1aa9f;stroke:#d1aa9f;" x="638.627586" xlink:href="#m48f86d39c2" y="848.345192"/>
     <use style="fill:#d1aa9f;stroke:#d1aa9f;" x="677.110345" xlink:href="#m48f86d39c2" y="817.271683"/>
     <use style="fill:#d1aa9f;stroke:#d1aa9f;" x="715.593103" xlink:href="#m48f86d39c2" y="761.593283"/>
     <use style="fill:#d1aa9f;stroke:#d1aa9f;" x="754.075862" xlink:href="#m48f86d39c2" y="709.963905"/>
     <use style="fill:#d1aa9f;stroke:#d1aa9f;" x="792.558621" xlink:href="#m48f86d39c2" y="659.368908"/>
     <use style="fill:#d1aa9f;stroke:#d1aa9f;" x="831.041379" xlink:href="#m48f86d39c2" y="622.139801"/>
     <use style="fill:#d1aa9f;stroke:#d1aa9f;" x="869.524138" xlink:href="#m48f86d39c2" y="598.728658"/>
     <use style="fill:#d1aa9f;stroke:#d1aa9f;" x="908.006897" xlink:href="#m48f86d39c2" y="578.767421"/>
     <use style="fill:#d1aa9f;stroke:#d1aa9f;" x="946.489655" xlink:href="#m48f86d39c2" y="552.191779"/>
     <use style="fill:#d1aa9f;stroke:#d1aa9f;" x="984.972414" xlink:href="#m48f86d39c2" y="530.790987"/>
     <use style="fill:#d1aa9f;stroke:#d1aa9f;" x="1023.455172" xlink:href="#m48f86d39c2" y="536.920801"/>
     <use style="fill:#d1aa9f;stroke:#d1aa9f;" x="1061.937931" xlink:href="#m48f86d39c2" y="522.205493"/>
     <use style="fill:#d1aa9f;stroke:#d1aa9f;" x="1100.42069" xlink:href="#m48f86d39c2" y="517.088349"/>
     <use style="fill:#d1aa9f;stroke:#d1aa9f;" x="1138.903448" xlink:href="#m48f86d39c2" y="507.926403"/>
     <use style="fill:#d1aa9f;stroke:#d1aa9f;" x="1177.386207" xlink:href="#m48f86d39c2" y="501.12558"/>
     <use style="fill:#d1aa9f;stroke:#d1aa9f;" x="1215.868966" xlink:href="#m48f86d39c2" y="505.943202"/>
     <use style="fill:#d1aa9f;stroke:#d1aa9f;" x="1254.351724" xlink:href="#m48f86d39c2" y="483.334759"/>
     <use style="fill:#d1aa9f;stroke:#d1aa9f;" x="1292.834483" xlink:href="#m48f86d39c2" y="495.625281"/>
     <use style="fill:#d1aa9f;stroke:#d1aa9f;" x="1331.317241" xlink:href="#m48f86d39c2" y="491.456826"/>
     <use style="fill:#d1aa9f;stroke:#d1aa9f;" x="1369.8" xlink:href="#m48f86d39c2" y="481.910051"/>
    </g>
   </g>
   <g id="line2d_20">
    <path clip-path="url(#p0d690531fe)" d="M 253.8 1732.490967 
L 292.282759 1730.359465 
L 330.765517 1719.011943 
L 369.248276 1673.225903 
L 407.731034 1610.566171 
L 446.213793 1343.465068 
L 484.696552 1264.463994 
L 523.17931 1074.785994 
L 561.662069 1056.284925 
L 600.144828 1021.411411 
L 638.627586 936.27383 
L 677.110345 903.229814 
L 715.593103 848.25691 
L 754.075862 805.92878 
L 792.558621 742.512239 
L 831.041379 692.847269 
L 869.524138 681.905388 
L 908.006897 655.610774 
L 946.489655 632.390623 
L 984.972414 603.836341 
L 1023.455172 618.406256 
L 1061.937931 615.980854 
L 1100.42069 595.710098 
L 1138.903448 575.054442 
L 1177.386207 571.800564 
L 1215.868966 579.405925 
L 1254.351724 601.21334 
L 1292.834483 574.956519 
L 1331.317241 579.880847 
L 1369.8 573.309012 
" style="fill:none;stroke:#d1aa9f;stroke-dasharray:5.55,2.4;stroke-dashoffset:0;stroke-width:1.5;"/>
   </g>
   <g id="line2d_21">
    <path clip-path="url(#p0d690531fe)" d="M 253.8 1732.484809 
L 292.282759 1729.052074 
L 330.765517 1712.087921 
L 369.248276 1649.000198 
L 407.731034 1564.548497 
L 446.213793 1180.144657 
L 484.696552 1148.07381 
L 523.17931 890.417172 
L 561.662069 904.3422 
L 600.144828 862.581472 
L 638.627586 760.416553 
L 677.110345 731.313552 
L 715.593103 674.929656 
L 754.075862 613.999031 
L 792.558621 576.225578 
L 831.041379 551.432332 
L 869.524138 515.551928 
L 908.006897 501.924069 
L 946.489655 471.992934 
L 984.972414 457.745633 
L 1023.455172 455.435345 
L 1061.937931 428.430132 
L 1100.42069 438.466601 
L 1138.903448 440.798364 
L 1177.386207 430.450596 
L 1215.868966 432.48048 
L 1254.351724 365.456179 
L 1292.834483 416.294043 
L 1331.317241 403.032805 
L 1369.8 390.511091 
" style="fill:none;stroke:#d1aa9f;stroke-dasharray:5.55,2.4;stroke-dashoffset:0;stroke-width:1.5;"/>
   </g>
   <g id="line2d_22">
    <path clip-path="url(#p0d690531fe)" d="M 253.8 1732.487493 
L 292.282759 1730.060605 
L 330.765517 1718.284932 
L 369.248276 1686.429319 
L 407.731034 1578.094409 
L 446.213793 1304.12125 
L 484.696552 1103.43412 
L 523.17931 974.855316 
L 561.662069 839.745283 
L 600.144828 840.989116 
L 638.627586 709.841342 
L 677.110345 642.04721 
L 715.593103 632.477583 
L 754.075862 609.838242 
L 792.558621 581.158556 
L 831.041379 558.127139 
L 869.524138 540.334106 
L 908.006897 538.124382 
L 946.489655 538.585044 
L 984.972414 539.332602 
L 1023.455172 540.644898 
L 1061.937931 532.720414 
L 1100.42069 530.908339 
L 1138.903448 529.468066 
L 1177.386207 533.749255 
L 1215.868966 534.244897 
L 1254.351724 519.663416 
L 1292.834483 529.16944 
L 1331.317241 531.032724 
L 1369.8 528.194488 
" style="fill:none;stroke:#005394;stroke-linecap:square;stroke-width:4;"/>
    <defs>
     <path d="M 0 7.5 
C 1.989023 7.5 3.896849 6.709753 5.303301 5.303301 
C 6.709753 3.896849 7.5 1.989023 7.5 0 
C 7.5 -1.989023 6.709753 -3.896849 5.303301 -5.303301 
C 3.896849 -6.709753 1.989023 -7.5 0 -7.5 
C -1.989023 -7.5 -3.896849 -6.709753 -5.303301 -5.303301 
C -6.709753 -3.896849 -7.5 -1.989023 -7.5 0 
C -7.5 1.989023 -6.709753 3.896849 -5.303301 5.303301 
C -3.896849 6.709753 -1.989023 7.5 0 7.5 
z
" id="mea0c4092e2" style="stroke:#005394;"/>
    </defs>
    <g clip-path="url(#p0d690531fe)">
     <use style="fill:#005394;stroke:#005394;" x="253.8" xlink:href="#mea0c4092e2" y="1732.487493"/>
     <use style="fill:#005394;stroke:#005394;" x="292.282759" xlink:href="#mea0c4092e2" y="1730.060605"/>
     <use style="fill:#005394;stroke:#005394;" x="330.765517" xlink:href="#mea0c4092e2" y="1718.284932"/>
     <use style="fill:#005394;stroke:#005394;" x="369.248276" xlink:href="#mea0c4092e2" y="1686.429319"/>
     <use style="fill:#005394;stroke:#005394;" x="407.731034" xlink:href="#mea0c4092e2" y="1578.094409"/>
     <use style="fill:#005394;stroke:#005394;" x="446.213793" xlink:href="#mea0c4092e2" y="1304.12125"/>
     <use style="fill:#005394;stroke:#005394;" x="484.696552" xlink:href="#mea0c4092e2" y="1103.43412"/>
     <use style="fill:#005394;stroke:#005394;" x="523.17931" xlink:href="#mea0c4092e2" y="974.855316"/>
     <use style="fill:#005394;stroke:#005394;" x="561.662069" xlink:href="#mea0c4092e2" y="839.745283"/>
     <use style="fill:#005394;stroke:#005394;" x="600.144828" xlink:href="#mea0c4092e2" y="840.989116"/>
     <use style="fill:#005394;stroke:#005394;" x="638.627586" xlink:href="#mea0c4092e2" y="709.841342"/>
     <use style="fill:#005394;stroke:#005394;" x="677.110345" xlink:href="#mea0c4092e2" y="642.04721"/>
     <use style="fill:#005394;stroke:#005394;" x="715.593103" xlink:href="#mea0c4092e2" y="632.477583"/>
     <use style="fill:#005394;stroke:#005394;" x="754.075862" xlink:href="#mea0c4092e2" y="609.838242"/>
     <use style="fill:#005394;stroke:#005394;" x="792.558621" xlink:href="#mea0c4092e2" y="581.158556"/>
     <use style="fill:#005394;stroke:#005394;" x="831.041379" xlink:href="#mea0c4092e2" y="558.127139"/>
     <use style="fill:#005394;stroke:#005394;" x="869.524138" xlink:href="#mea0c4092e2" y="540.334106"/>
     <use style="fill:#005394;stroke:#005394;" x="908.006897" xlink:href="#mea0c4092e2" y="538.124382"/>
     <use style="fill:#005394;stroke:#005394;" x="946.489655" xlink:href="#mea0c4092e2" y="538.585044"/>
     <use style="fill:#005394;stroke:#005394;" x="984.972414" xlink:href="#mea0c4092e2" y="539.332602"/>
     <use style="fill:#005394;stroke:#005394;" x="1023.455172" xlink:href="#mea0c4092e2" y="540.644898"/>
     <use style="fill:#005394;stroke:#005394;" x="1061.937931" xlink:href="#mea0c4092e2" y="532.720414"/>
     <use style="fill:#005394;stroke:#005394;" x="1100.42069" xlink:href="#mea0c4092e2" y="530.908339"/>
     <use style="fill:#005394;stroke:#005394;" x="1138.903448" xlink:href="#mea0c4092e2" y="529.468066"/>
     <use style="fill:#005394;stroke:#005394;" x="1177.386207" xlink:href="#mea0c4092e2" y="533.749255"/>
     <use style="fill:#005394;stroke:#005394;" x="1215.868966" xlink:href="#mea0c4092e2" y="534.244897"/>
     <use style="fill:#005394;stroke:#005394;" x="1254.351724" xlink:href="#mea0c4092e2" y="519.663416"/>
     <use style="fill:#005394;stroke:#005394;" x="1292.834483" xlink:href="#mea0c4092e2" y="529.16944"/>
     <use style="fill:#005394;stroke:#005394;" x="1331.317241" xlink:href="#mea0c4092e2" y="531.032724"/>
     <use style="fill:#005394;stroke:#005394;" x="1369.8" xlink:href="#mea0c4092e2" y="528.194488"/>
    </g>
   </g>
   <g id="line2d_23">
    <path clip-path="url(#p0d690531fe)" d="M 253.8 1732.489942 
L 292.282759 1730.594778 
L 330.765517 1720.779965 
L 369.248276 1693.704027 
L 407.731034 1597.696408 
L 446.213793 1348.55074 
L 484.696552 1171.31247 
L 523.17931 1037.154911 
L 561.662069 900.550056 
L 600.144828 907.156669 
L 638.627586 790.668714 
L 677.110345 719.860056 
L 715.593103 701.206143 
L 754.075862 674.18225 
L 792.558621 646.535941 
L 831.041379 623.394847 
L 869.524138 612.643105 
L 908.006897 603.979236 
L 946.489655 611.451655 
L 984.972414 600.787777 
L 1023.455172 605.36576 
L 1061.937931 602.454597 
L 1100.42069 596.408852 
L 1138.903448 589.502572 
L 1177.386207 592.929231 
L 1215.868966 599.614396 
L 1254.351724 606.965956 
L 1292.834483 598.894725 
L 1331.317241 596.493619 
L 1369.8 594.785311 
" style="fill:none;stroke:#005394;stroke-dasharray:5.55,2.4;stroke-dashoffset:0;stroke-width:1.5;"/>
   </g>
   <g id="line2d_24">
    <path clip-path="url(#p0d690531fe)" d="M 253.8 1732.485045 
L 292.282759 1729.526431 
L 330.765517 1715.789899 
L 369.248276 1679.154611 
L 407.731034 1558.492409 
L 446.213793 1259.69176 
L 484.696552 1035.55577 
L 523.17931 912.55572 
L 561.662069 778.94051 
L 600.144828 774.821564 
L 638.627586 629.01397 
L 677.110345 564.234364 
L 715.593103 563.749022 
L 754.075862 545.494234 
L 792.558621 515.781171 
L 831.041379 492.859432 
L 869.524138 468.025107 
L 908.006897 472.269528 
L 946.489655 465.718433 
L 984.972414 477.877426 
L 1023.455172 475.924037 
L 1061.937931 462.986231 
L 1100.42069 465.407825 
L 1138.903448 469.43356 
L 1177.386207 474.569278 
L 1215.868966 468.875398 
L 1254.351724 432.360877 
L 1292.834483 459.444155 
L 1331.317241 465.571829 
L 1369.8 461.603665 
" style="fill:none;stroke:#005394;stroke-dasharray:5.55,2.4;stroke-dashoffset:0;stroke-width:1.5;"/>
   </g>
   <g id="line2d_25">
    <path clip-path="url(#p0d690531fe)" d="M 253.8 1732.483529 
L 292.282759 1729.789814 
L 330.765517 1717.932295 
L 369.248276 1579.115662 
L 407.731034 1000.796904 
L 446.213793 674.23152 
L 484.696552 625.940122 
L 523.17931 621.961991 
L 561.662069 619.283564 
L 600.144828 623.631592 
L 638.627586 625.417447 
L 677.110345 623.096826 
L 715.593103 626.228098 
L 754.075862 625.199199 
L 792.558621 624.757447 
L 831.041379 619.596269 
L 869.524138 615.732834 
L 908.006897 620.826672 
L 946.489655 621.998338 
L 984.972414 621.846699 
L 1023.455172 623.262945 
L 1061.937931 621.180671 
L 1100.42069 615.621785 
L 1138.903448 613.696937 
L 1177.386207 618.361037 
L 1215.868966 620.071015 
L 1254.351724 618.179875 
L 1292.834483 617.690087 
L 1331.317241 621.354337 
L 1369.8 625.256447 
" style="fill:none;stroke:#c54c36;stroke-linecap:square;stroke-width:4;"/>
    <defs>
     <path d="M 0 7.5 
C 1.989023 7.5 3.896849 6.709753 5.303301 5.303301 
C 6.709753 3.896849 7.5 1.989023 7.5 0 
C 7.5 -1.989023 6.709753 -3.896849 5.303301 -5.303301 
C 3.896849 -6.709753 1.989023 -7.5 0 -7.5 
C -1.989023 -7.5 -3.896849 -6.709753 -5.303301 -5.303301 
C -6.709753 -3.896849 -7.5 -1.989023 -7.5 0 
C -7.5 1.989023 -6.709753 3.896849 -5.303301 5.303301 
C -3.896849 6.709753 -1.989023 7.5 0 7.5 
z
" id="m08bc508513" style="stroke:#c54c36;"/>
    </defs>
    <g clip-path="url(#p0d690531fe)">
     <use style="fill:#c54c36;stroke:#c54c36;" x="253.8" xlink:href="#m08bc508513" y="1732.483529"/>
     <use style="fill:#c54c36;stroke:#c54c36;" x="292.282759" xlink:href="#m08bc508513" y="1729.789814"/>
     <use style="fill:#c54c36;stroke:#c54c36;" x="330.765517" xlink:href="#m08bc508513" y="1717.932295"/>
     <use style="fill:#c54c36;stroke:#c54c36;" x="369.248276" xlink:href="#m08bc508513" y="1579.115662"/>
     <use style="fill:#c54c36;stroke:#c54c36;" x="407.731034" xlink:href="#m08bc508513" y="1000.796904"/>
     <use style="fill:#c54c36;stroke:#c54c36;" x="446.213793" xlink:href="#m08bc508513" y="674.23152"/>
     <use style="fill:#c54c36;stroke:#c54c36;" x="484.696552" xlink:href="#m08bc508513" y="625.940122"/>
     <use style="fill:#c54c36;stroke:#c54c36;" x="523.17931" xlink:href="#m08bc508513" y="621.961991"/>
     <use style="fill:#c54c36;stroke:#c54c36;" x="561.662069" xlink:href="#m08bc508513" y="619.283564"/>
     <use style="fill:#c54c36;stroke:#c54c36;" x="600.144828" xlink:href="#m08bc508513" y="623.631592"/>
     <use style="fill:#c54c36;stroke:#c54c36;" x="638.627586" xlink:href="#m08bc508513" y="625.417447"/>
     <use style="fill:#c54c36;stroke:#c54c36;" x="677.110345" xlink:href="#m08bc508513" y="623.096826"/>
     <use style="fill:#c54c36;stroke:#c54c36;" x="715.593103" xlink:href="#m08bc508513" y="626.228098"/>
     <use style="fill:#c54c36;stroke:#c54c36;" x="754.075862" xlink:href="#m08bc508513" y="625.199199"/>
     <use style="fill:#c54c36;stroke:#c54c36;" x="792.558621" xlink:href="#m08bc508513" y="624.757447"/>
     <use style="fill:#c54c36;stroke:#c54c36;" x="831.041379" xlink:href="#m08bc508513" y="619.596269"/>
     <use style="fill:#c54c36;stroke:#c54c36;" x="869.524138" xlink:href="#m08bc508513" y="615.732834"/>
     <use style="fill:#c54c36;stroke:#c54c36;" x="908.006897" xlink:href="#m08bc508513" y="620.826672"/>
     <use style="fill:#c54c36;stroke:#c54c36;" x="946.489655" xlink:href="#m08bc508513" y="621.998338"/>
     <use style="fill:#c54c36;stroke:#c54c36;" x="984.972414" xlink:href="#m08bc508513" y="621.846699"/>
     <use style="fill:#c54c36;stroke:#c54c36;" x="1023.455172" xlink:href="#m08bc508513" y="623.262945"/>
     <use style="fill:#c54c36;stroke:#c54c36;" x="1061.937931" xlink:href="#m08bc508513" y="621.180671"/>
     <use style="fill:#c54c36;stroke:#c54c36;" x="1100.42069" xlink:href="#m08bc508513" y="615.621785"/>
     <use style="fill:#c54c36;stroke:#c54c36;" x="1138.903448" xlink:href="#m08bc508513" y="613.696937"/>
     <use style="fill:#c54c36;stroke:#c54c36;" x="1177.386207" xlink:href="#m08bc508513" y="618.361037"/>
     <use style="fill:#c54c36;stroke:#c54c36;" x="1215.868966" xlink:href="#m08bc508513" y="620.071015"/>
     <use style="fill:#c54c36;stroke:#c54c36;" x="1254.351724" xlink:href="#m08bc508513" y="618.179875"/>
     <use style="fill:#c54c36;stroke:#c54c36;" x="1292.834483" xlink:href="#m08bc508513" y="617.690087"/>
     <use style="fill:#c54c36;stroke:#c54c36;" x="1331.317241" xlink:href="#m08bc508513" y="621.354337"/>
     <use style="fill:#c54c36;stroke:#c54c36;" x="1369.8" xlink:href="#m08bc508513" y="625.256447"/>
    </g>
   </g>
   <g id="line2d_26">
    <path clip-path="url(#p0d690531fe)" d="M 253.8 1732.484833 
L 292.282759 1730.03282 
L 330.765517 1718.699027 
L 369.248276 1588.753318 
L 407.731034 1044.79088 
L 446.213793 716.772135 
L 484.696552 662.205231 
L 523.17931 654.843926 
L 561.662069 654.974027 
L 600.144828 657.024583 
L 638.627586 660.691634 
L 677.110345 659.823234 
L 715.593103 662.043969 
L 754.075862 660.048172 
L 792.558621 665.074294 
L 831.041379 659.827142 
L 869.524138 658.514324 
L 908.006897 658.453395 
L 946.489655 657.101892 
L 984.972414 653.47378 
L 1023.455172 661.734999 
L 1061.937931 658.545361 
L 1100.42069 651.310262 
L 1138.903448 649.243549 
L 1177.386207 652.643594 
L 1215.868966 654.373338 
L 1254.351724 652.661407 
L 1292.834483 656.121825 
L 1331.317241 656.365868 
L 1369.8 659.278853 
" style="fill:none;stroke:#c54c36;stroke-dasharray:5.55,2.4;stroke-dashoffset:0;stroke-width:1.5;"/>
   </g>
   <g id="line2d_27">
    <path clip-path="url(#p0d690531fe)" d="M 253.8 1732.482225 
L 292.282759 1729.546807 
L 330.765517 1717.165563 
L 369.248276 1569.478005 
L 407.731034 956.802928 
L 446.213793 631.690906 
L 484.696552 589.675013 
L 523.17931 589.080056 
L 561.662069 583.593102 
L 600.144828 590.238601 
L 638.627586 590.14326 
L 677.110345 586.370417 
L 715.593103 590.412228 
L 754.075862 590.350226 
L 792.558621 584.440601 
L 831.041379 579.365397 
L 869.524138 572.951344 
L 908.006897 583.199949 
L 946.489655 586.894784 
L 984.972414 590.219618 
L 1023.455172 584.790891 
L 1061.937931 583.81598 
L 1100.42069 579.933309 
L 1138.903448 578.150325 
L 1177.386207 584.078479 
L 1215.868966 585.768691 
L 1254.351724 583.698342 
L 1292.834483 579.258349 
L 1331.317241 586.342806 
L 1369.8 591.234041 
" style="fill:none;stroke:#c54c36;stroke-dasharray:5.55,2.4;stroke-dashoffset:0;stroke-width:1.5;"/>
   </g>
   <g id="patch_3">
    <path d="M 198 1732.5 
L 198 237.6 
" style="fill:none;stroke:#000000;stroke-linecap:square;stroke-linejoin:miter;stroke-width:0.8;"/>
   </g>
   <g id="patch_4">
    <path d="M 1425.6 1732.5 
L 1425.6 237.6 
" style="fill:none;stroke:#000000;stroke-linecap:square;stroke-linejoin:miter;stroke-width:0.8;"/>
   </g>
   <g id="patch_5">
    <path d="M 198 1732.5 
L 1425.6 1732.5 
" style="fill:none;stroke:#000000;stroke-linecap:square;stroke-linejoin:miter;stroke-width:0.8;"/>
   </g>
   <g id="patch_6">
    <path d="M 198 237.6 
L 1425.6 237.6 
" style="fill:none;stroke:#000000;stroke-linecap:square;stroke-linejoin:miter;stroke-width:0.8;"/>
   </g>
  </g>
 </g>
 <defs>
  <clipPath id="p0d690531fe">
   <rect height="1494.9" width="1227.6" x="198" y="237.6"/>
  </clipPath>
 </defs>
</svg>
