<?xml version="1.0" encoding="utf-8" standalone="no"?>
<!DOCTYPE svg PUBLIC "-//W3C//DTD SVG 1.1//EN"
  "http://www.w3.org/Graphics/SVG/1.1/DTD/svg11.dtd">
<!-- Created with matplotlib (https://matplotlib.org/) -->
<svg height="1980pt" version="1.1" viewBox="0 0 1584 1980" width="1584pt" xmlns="http://www.w3.org/2000/svg" xmlns:xlink="http://www.w3.org/1999/xlink">
 <defs>
  <style type="text/css">
*{stroke-linecap:butt;stroke-linejoin:round;}
  </style>
 </defs>
 <g id="figure_1">
  <g id="patch_1">
   <path d="M 0 1980 
L 1584 1980 
L 1584 0 
L 0 0 
z
" style="fill:#ffffff;"/>
  </g>
  <g id="axes_1">
   <g id="patch_2">
    <path d="M 198 1732.5 
L 1425.6 1732.5 
L 1425.6 237.6 
L 198 237.6 
z
" style="fill:#ffffff;"/>
   </g>
   <g id="PolyCollection_1">
    <defs>
     <path d="M 253.8 -1606.5 
L 253.8 -1606.5 
L 292.282759 -1604.004165 
L 330.765517 -1600.982319 
L 369.248276 -1572.85937 
L 407.731034 -1346.611222 
L 446.213793 -1103.292131 
L 484.696552 -864.3616 
L 523.17931 -603.196937 
L 561.662069 -453.631282 
L 600.144828 -377.896063 
L 638.627586 -314.255833 
L 677.110345 -273.651561 
L 715.593103 -248.42907 
L 754.075862 -242.937025 
L 792.558621 -234.204268 
L 831.041379 -242.997858 
L 869.524138 -243.089367 
L 908.006897 -242.554151 
L 946.489655 -241.947924 
L 984.972414 -242.866142 
L 1023.455172 -243.875098 
L 1061.937931 -242.463597 
L 1100.42069 -241.797741 
L 1138.903448 -243.317193 
L 1177.386207 -242.538906 
L 1215.868966 -245.323015 
L 1254.351724 -243.659902 
L 1292.834483 -243.278428 
L 1331.317241 -241.834209 
L 1369.8 -241.243901 
L 1369.8 -278.195199 
L 1369.8 -278.195199 
L 1331.317241 -282.612009 
L 1292.834483 -285.28943 
L 1254.351724 -276.724055 
L 1215.868966 -277.835258 
L 1177.386207 -278.634126 
L 1138.903448 -283.142001 
L 1100.42069 -277.2448 
L 1061.937931 -277.72538 
L 1023.455172 -280.017723 
L 984.972414 -279.350431 
L 946.489655 -280.133271 
L 908.006897 -281.556504 
L 869.524138 -280.037418 
L 831.041379 -283.029856 
L 792.558621 -309.018861 
L 754.075862 -316.866584 
L 715.593103 -333.117746 
L 677.110345 -390.199321 
L 638.627586 -498.606803 
L 600.144828 -573.023054 
L 561.662069 -650.971085 
L 523.17931 -843.802351 
L 484.696552 -1103.878488 
L 446.213793 -1280.970492 
L 407.731034 -1431.716684 
L 369.248276 -1589.326229 
L 330.765517 -1604.865467 
L 292.282759 -1605.386517 
L 253.8 -1606.5 
z
" id="md85b3919d0" style="stroke:#74c265;stroke-opacity:0.2;"/>
    </defs>
    <g clip-path="url(#p9620b2ce9e)">
     <use style="fill:#74c265;fill-opacity:0.2;stroke:#74c265;stroke-opacity:0.2;" x="0" xlink:href="#md85b3919d0" y="1980"/>
    </g>
   </g>
   <g id="PolyCollection_2">
    <defs>
     <path d="M 253.8 -1606.5 
L 253.8 -1606.5 
L 292.282759 -1601.675047 
L 330.765517 -1596.382743 
L 369.248276 -1575.8013 
L 407.731034 -1392.694789 
L 446.213793 -1182.272604 
L 484.696552 -954.934594 
L 523.17931 -682.645889 
L 561.662069 -539.186484 
L 600.144828 -405.106078 
L 638.627586 -334.786855 
L 677.110345 -300.058444 
L 715.593103 -265.863065 
L 754.075862 -249.587999 
L 792.558621 -232.562316 
L 831.041379 -242.854311 
L 869.524138 -243.981735 
L 908.006897 -243.435268 
L 946.489655 -239.59088 
L 984.972414 -243.495752 
L 1023.455172 -242.731576 
L 1061.937931 -241.645429 
L 1100.42069 -239.700464 
L 1138.903448 -238.98875 
L 1177.386207 -242.362619 
L 1215.868966 -246.555082 
L 1254.351724 -240.22057 
L 1292.834483 -239.657628 
L 1331.317241 -242.166858 
L 1369.8 -243.970342 
L 1369.8 -275.854531 
L 1369.8 -275.854531 
L 1331.317241 -280.985802 
L 1292.834483 -286.05144 
L 1254.351724 -285.936029 
L 1215.868966 -274.978447 
L 1177.386207 -277.18329 
L 1138.903448 -290.629348 
L 1100.42069 -281.496347 
L 1061.937931 -280.827241 
L 1023.455172 -280.312094 
L 984.972414 -279.645039 
L 946.489655 -286.263623 
L 908.006897 -280.620638 
L 869.524138 -280.389885 
L 831.041379 -293.936211 
L 792.558621 -336.521463 
L 754.075862 -350.190767 
L 715.593103 -387.233249 
L 677.110345 -456.375903 
L 638.627586 -519.699241 
L 600.144828 -616.817272 
L 561.662069 -772.441055 
L 523.17931 -915.542905 
L 484.696552 -1168.07968 
L 446.213793 -1338.723554 
L 407.731034 -1469.609089 
L 369.248276 -1590.791479 
L 330.765517 -1604.402148 
L 292.282759 -1604.764672 
L 253.8 -1606.5 
z
" id="m76209ab38c" style="stroke:#ff9933;stroke-opacity:0.2;"/>
    </defs>
    <g clip-path="url(#p9620b2ce9e)">
     <use style="fill:#ff9933;fill-opacity:0.2;stroke:#ff9933;stroke-opacity:0.2;" x="0" xlink:href="#m76209ab38c" y="1980"/>
    </g>
   </g>
   <g id="PolyCollection_3">
    <defs>
     <path d="M 253.8 -1606.5 
L 253.8 -1606.5 
L 292.282759 -1604.29208 
L 330.765517 -1598.140878 
L 369.248276 -1579.283164 
L 407.731034 -1426.062756 
L 446.213793 -1216.922701 
L 484.696552 -969.442361 
L 523.17931 -681.666325 
L 561.662069 -544.671573 
L 600.144828 -403.458141 
L 638.627586 -329.101941 
L 677.110345 -299.053512 
L 715.593103 -265.557569 
L 754.075862 -255.47269 
L 792.558621 -235.582039 
L 831.041379 -240.912771 
L 869.524138 -242.262701 
L 908.006897 -242.759659 
L 946.489655 -241.566965 
L 984.972414 -242.80176 
L 1023.455172 -242.834565 
L 1061.937931 -238.98459 
L 1100.42069 -239.477188 
L 1138.903448 -238.690427 
L 1177.386207 -243.048176 
L 1215.868966 -245.811053 
L 1254.351724 -239.887482 
L 1292.834483 -241.191752 
L 1331.317241 -241.137226 
L 1369.8 -243.288851 
L 1369.8 -279.910681 
L 1369.8 -279.910681 
L 1331.317241 -282.916127 
L 1292.834483 -284.570166 
L 1254.351724 -285.872414 
L 1215.868966 -275.437009 
L 1177.386207 -276.704785 
L 1138.903448 -285.779979 
L 1100.42069 -280.943792 
L 1061.937931 -284.094236 
L 1023.455172 -285.538637 
L 984.972414 -283.272315 
L 946.489655 -287.381709 
L 908.006897 -284.191289 
L 869.524138 -288.188972 
L 831.041379 -298.351204 
L 792.558621 -336.76635 
L 754.075862 -357.036355 
L 715.593103 -390.838713 
L 677.110345 -445.020645 
L 638.627586 -514.244052 
L 600.144828 -608.970075 
L 561.662069 -757.518059 
L 523.17931 -909.647741 
L 484.696552 -1183.112839 
L 446.213793 -1357.932946 
L 407.731034 -1487.536125 
L 369.248276 -1594.290653 
L 330.765517 -1606.899519 
L 292.282759 -1606.353093 
L 253.8 -1606.5 
z
" id="m0031400ca5" style="stroke:#d1aa9f;stroke-opacity:0.2;"/>
    </defs>
    <g clip-path="url(#p9620b2ce9e)">
     <use style="fill:#d1aa9f;fill-opacity:0.2;stroke:#d1aa9f;stroke-opacity:0.2;" x="0" xlink:href="#m0031400ca5" y="1980"/>
    </g>
   </g>
   <g id="PolyCollection_4">
    <defs>
     <path d="M 253.8 -1606.5 
L 253.8 -1606.5 
L 292.282759 -1605.198543 
L 330.765517 -1602.591938 
L 369.248276 -1590.605456 
L 407.731034 -1492.432937 
L 446.213793 -1290.394714 
L 484.696552 -891.12169 
L 523.17931 -550.788823 
L 561.662069 -414.429065 
L 600.144828 -319.657951 
L 638.627586 -285.938157 
L 677.110345 -266.346774 
L 715.593103 -252.352583 
L 754.075862 -244.466151 
L 792.558621 -234.49879 
L 831.041379 -241.758119 
L 869.524138 -242.985301 
L 908.006897 -244.294452 
L 946.489655 -242.659794 
L 984.972414 -244.938217 
L 1023.455172 -241.476836 
L 1061.937931 -241.962349 
L 1100.42069 -241.382036 
L 1138.903448 -241.796259 
L 1177.386207 -243.063021 
L 1215.868966 -244.95355 
L 1254.351724 -244.163923 
L 1292.834483 -241.244358 
L 1331.317241 -238.135927 
L 1369.8 -240.702436 
L 1369.8 -282.444766 
L 1369.8 -282.444766 
L 1331.317241 -286.581179 
L 1292.834483 -285.361881 
L 1254.351724 -279.379561 
L 1215.868966 -279.479487 
L 1177.386207 -279.691793 
L 1138.903448 -285.435867 
L 1100.42069 -280.181594 
L 1061.937931 -277.232938 
L 1023.455172 -280.039363 
L 984.972414 -276.031909 
L 946.489655 -278.791973 
L 908.006897 -280.651496 
L 869.524138 -280.863973 
L 831.041379 -289.667779 
L 792.558621 -312.660608 
L 754.075862 -316.399934 
L 715.593103 -342.826067 
L 677.110345 -376.309603 
L 638.627586 -427.648678 
L 600.144828 -488.996624 
L 561.662069 -606.344284 
L 523.17931 -776.630236 
L 484.696552 -1094.273398 
L 446.213793 -1387.957626 
L 407.731034 -1528.904678 
L 369.248276 -1599.847368 
L 330.765517 -1606.234477 
L 292.282759 -1606.449329 
L 253.8 -1606.5 
z
" id="mef2f40b7e0" style="stroke:#005394;stroke-opacity:0.2;"/>
    </defs>
    <g clip-path="url(#p9620b2ce9e)">
     <use style="fill:#005394;fill-opacity:0.2;stroke:#005394;stroke-opacity:0.2;" x="0" xlink:href="#mef2f40b7e0" y="1980"/>
    </g>
   </g>
   <g id="PolyCollection_5">
    <defs>
     <path d="M 253.8 -1606.5 
L 253.8 -1606.5 
L 292.282759 -1605.035134 
L 330.765517 -1604.071555 
L 369.248276 -1578.133279 
L 407.731034 -1232.264588 
L 446.213793 -594.73205 
L 484.696552 -296.092004 
L 523.17931 -240.408938 
L 561.662069 -243.554964 
L 600.144828 -239.240873 
L 638.627586 -240.295204 
L 677.110345 -245.042833 
L 715.593103 -242.379861 
L 754.075862 -243.355709 
L 792.558621 -239.471212 
L 831.041379 -240.136778 
L 869.524138 -239.402985 
L 908.006897 -244.475261 
L 946.489655 -243.180136 
L 984.972414 -244.988475 
L 1023.455172 -242.565641 
L 1061.937931 -243.45501 
L 1100.42069 -243.373993 
L 1138.903448 -243.412819 
L 1177.386207 -241.19842 
L 1215.868966 -241.130761 
L 1254.351724 -243.670271 
L 1292.834483 -244.194783 
L 1331.317241 -241.539529 
L 1369.8 -240.946586 
L 1369.8 -281.898261 
L 1369.8 -281.898261 
L 1331.317241 -279.702349 
L 1292.834483 -275.698803 
L 1254.351724 -277.733087 
L 1215.868966 -286.396298 
L 1177.386207 -279.793184 
L 1138.903448 -276.438899 
L 1100.42069 -282.32116 
L 1061.937931 -278.801254 
L 1023.455172 -275.038003 
L 984.972414 -271.088222 
L 946.489655 -273.268841 
L 908.006897 -277.495078 
L 869.524138 -282.489535 
L 831.041379 -283.702318 
L 792.558621 -284.504987 
L 754.075862 -277.312237 
L 715.593103 -284.995268 
L 677.110345 -278.787737 
L 638.627586 -284.326423 
L 600.144828 -283.744854 
L 561.662069 -275.665877 
L 523.17931 -298.191278 
L 484.696552 -456.004492 
L 446.213793 -839.567214 
L 407.731034 -1317.874949 
L 369.248276 -1589.212698 
L 330.765517 -1605.826542 
L 292.282759 -1606.281727 
L 253.8 -1606.5 
z
" id="m0d11d276e9" style="stroke:#c54c36;stroke-opacity:0.2;"/>
    </defs>
    <g clip-path="url(#p9620b2ce9e)">
     <use style="fill:#c54c36;fill-opacity:0.2;stroke:#c54c36;stroke-opacity:0.2;" x="0" xlink:href="#m0d11d276e9" y="1980"/>
    </g>
   </g>
   <g id="matplotlib.axis_1">
    <g id="xtick_1">
     <g id="line2d_1">
      <defs>
       <path d="M 0 7 
L 0 -7 
" id="m67ea512c41" style="stroke:#000000;stroke-width:3.5;"/>
      </defs>
      <g>
       <use style="stroke:#000000;stroke-width:3.5;" x="253.8" xlink:href="#m67ea512c41" y="1732.5"/>
      </g>
     </g>
     <g id="text_1">
      <!-- 0 -->
      <defs>
       <path d="M 31.78125 3.421875 
Q 39.265625 3.421875 42.96875 11.625 
Q 46.6875 19.828125 46.6875 36.375 
Q 46.6875 52.984375 42.96875 61.1875 
Q 39.265625 69.390625 31.78125 69.390625 
Q 24.3125 69.390625 20.59375 61.1875 
Q 16.890625 52.984375 16.890625 36.375 
Q 16.890625 19.828125 20.59375 11.625 
Q 24.3125 3.421875 31.78125 3.421875 
z
M 31.78125 -1.421875 
Q 19.921875 -1.421875 13.25 8.53125 
Q 6.59375 18.5 6.59375 36.375 
Q 6.59375 54.296875 13.25 64.25 
Q 19.921875 74.21875 31.78125 74.21875 
Q 43.703125 74.21875 50.34375 64.25 
Q 56.984375 54.296875 56.984375 36.375 
Q 56.984375 18.5 50.34375 8.53125 
Q 43.703125 -1.421875 31.78125 -1.421875 
z
" id="DejaVuSerif-48"/>
      </defs>
      <g transform="translate(233.121875 1792.389844)scale(0.65 -0.65)">
       <use xlink:href="#DejaVuSerif-48"/>
      </g>
     </g>
    </g>
    <g id="xtick_2">
     <g id="line2d_2">
      <g>
       <use style="stroke:#000000;stroke-width:3.5;" x="638.627586" xlink:href="#m67ea512c41" y="1732.5"/>
      </g>
     </g>
     <g id="text_2">
      <!-- 10 -->
      <defs>
       <path d="M 14.203125 0 
L 14.203125 5.171875 
L 26.90625 5.171875 
L 26.90625 65.828125 
L 12.203125 56.296875 
L 12.203125 62.703125 
L 29.984375 74.21875 
L 36.71875 74.21875 
L 36.71875 5.171875 
L 49.421875 5.171875 
L 49.421875 0 
z
" id="DejaVuSerif-49"/>
      </defs>
      <g transform="translate(597.271336 1792.389844)scale(0.65 -0.65)">
       <use xlink:href="#DejaVuSerif-49"/>
       <use x="63.623047" xlink:href="#DejaVuSerif-48"/>
      </g>
     </g>
    </g>
    <g id="xtick_3">
     <g id="line2d_3">
      <g>
       <use style="stroke:#000000;stroke-width:3.5;" x="1023.455172" xlink:href="#m67ea512c41" y="1732.5"/>
      </g>
     </g>
     <g id="text_3">
      <!-- 20 -->
      <defs>
       <path d="M 12.796875 55.515625 
L 7.328125 55.515625 
L 7.328125 68.5 
Q 12.546875 71.296875 17.84375 72.75 
Q 23.140625 74.21875 28.21875 74.21875 
Q 39.59375 74.21875 46.1875 68.703125 
Q 52.78125 63.1875 52.78125 53.71875 
Q 52.78125 43.015625 37.84375 28.125 
Q 36.671875 27 36.078125 26.421875 
L 17.671875 8.015625 
L 48.09375 8.015625 
L 48.09375 17 
L 53.8125 17 
L 53.8125 0 
L 6.78125 0 
L 6.78125 5.328125 
L 28.90625 27.390625 
Q 36.234375 34.71875 39.359375 40.84375 
Q 42.484375 46.96875 42.484375 53.71875 
Q 42.484375 61.078125 38.640625 65.234375 
Q 34.8125 69.390625 28.078125 69.390625 
Q 21.09375 69.390625 17.28125 65.921875 
Q 13.484375 62.453125 12.796875 55.515625 
z
" id="DejaVuSerif-50"/>
      </defs>
      <g transform="translate(982.098922 1792.389844)scale(0.65 -0.65)">
       <use xlink:href="#DejaVuSerif-50"/>
       <use x="63.623047" xlink:href="#DejaVuSerif-48"/>
      </g>
     </g>
    </g>
    <g id="xtick_4">
     <g id="line2d_4">
      <g>
       <use style="stroke:#000000;stroke-width:3.5;" x="1408.282759" xlink:href="#m67ea512c41" y="1732.5"/>
      </g>
     </g>
     <g id="text_4">
      <!-- 30 -->
      <defs>
       <path d="M 9.71875 69.828125 
Q 15.4375 71.96875 20.671875 73.09375 
Q 25.921875 74.21875 30.515625 74.21875 
Q 41.21875 74.21875 47.21875 69.59375 
Q 53.21875 64.984375 53.21875 56.78125 
Q 53.21875 50.203125 49.0625 45.78125 
Q 44.921875 41.359375 37.3125 39.796875 
Q 46.296875 38.53125 51.25 33.28125 
Q 56.203125 28.03125 56.203125 19.671875 
Q 56.203125 9.46875 49.34375 4.015625 
Q 42.484375 -1.421875 29.59375 -1.421875 
Q 23.875 -1.421875 18.421875 -0.1875 
Q 12.984375 1.03125 7.625 3.515625 
L 7.625 17.671875 
L 13.09375 17.671875 
Q 13.578125 10.640625 17.828125 7.03125 
Q 22.078125 3.421875 29.78125 3.421875 
Q 37.25 3.421875 41.578125 7.734375 
Q 45.90625 12.0625 45.90625 19.578125 
Q 45.90625 28.171875 41.453125 32.59375 
Q 37.015625 37.015625 28.421875 37.015625 
L 23.78125 37.015625 
L 23.78125 42 
L 26.21875 42 
Q 34.765625 42 39.03125 45.53125 
Q 43.3125 49.078125 43.3125 56.203125 
Q 43.3125 62.59375 39.796875 65.984375 
Q 36.28125 69.390625 29.6875 69.390625 
Q 23.09375 69.390625 19.453125 66.265625 
Q 15.828125 63.140625 15.1875 56.984375 
L 9.71875 56.984375 
z
" id="DejaVuSerif-51"/>
      </defs>
      <g transform="translate(1366.926509 1792.389844)scale(0.65 -0.65)">
       <use xlink:href="#DejaVuSerif-51"/>
       <use x="63.623047" xlink:href="#DejaVuSerif-48"/>
      </g>
     </g>
    </g>
   </g>
   <g id="matplotlib.axis_2">
    <g id="ytick_1">
     <g id="line2d_5">
      <defs>
       <path d="M 7 0 
L -7 -0 
" id="mddff41cdad" style="stroke:#000000;stroke-width:3.5;"/>
      </defs>
      <g>
       <use style="stroke:#000000;stroke-width:3.5;" x="198" xlink:href="#mddff41cdad" y="1732.5"/>
      </g>
     </g>
     <g id="text_5">
      <!-- 0.0 -->
      <defs>
       <path d="M 9.421875 5.078125 
Q 9.421875 7.8125 11.28125 9.71875 
Q 13.140625 11.625 15.921875 11.625 
Q 18.609375 11.625 20.5 9.71875 
Q 22.40625 7.8125 22.40625 5.078125 
Q 22.40625 2.390625 20.5 0.484375 
Q 18.609375 -1.421875 15.921875 -1.421875 
Q 13.140625 -1.421875 11.28125 0.453125 
Q 9.421875 2.34375 9.421875 5.078125 
z
" id="DejaVuSerif-46"/>
      </defs>
      <g transform="translate(84.129688 1757.194922)scale(0.65 -0.65)">
       <use xlink:href="#DejaVuSerif-48"/>
       <use x="63.623047" xlink:href="#DejaVuSerif-46"/>
       <use x="95.410156" xlink:href="#DejaVuSerif-48"/>
      </g>
     </g>
    </g>
    <g id="ytick_2">
     <g id="line2d_6">
      <g>
       <use style="stroke:#000000;stroke-width:3.5;" x="198" xlink:href="#mddff41cdad" y="1460.7"/>
      </g>
     </g>
     <g id="text_6">
      <!-- 0.2 -->
      <g transform="translate(84.129688 1485.394922)scale(0.65 -0.65)">
       <use xlink:href="#DejaVuSerif-48"/>
       <use x="63.623047" xlink:href="#DejaVuSerif-46"/>
       <use x="95.410156" xlink:href="#DejaVuSerif-50"/>
      </g>
     </g>
    </g>
    <g id="ytick_3">
     <g id="line2d_7">
      <g>
       <use style="stroke:#000000;stroke-width:3.5;" x="198" xlink:href="#mddff41cdad" y="1188.9"/>
      </g>
     </g>
     <g id="text_7">
      <!-- 0.4 -->
      <defs>
       <path d="M 34.90625 24.703125 
L 34.90625 63.484375 
L 10.015625 24.703125 
z
M 56.390625 0 
L 23.1875 0 
L 23.1875 5.171875 
L 34.90625 5.171875 
L 34.90625 19.484375 
L 3.078125 19.484375 
L 3.078125 24.8125 
L 35.015625 74.21875 
L 44.671875 74.21875 
L 44.671875 24.703125 
L 58.59375 24.703125 
L 58.59375 19.484375 
L 44.671875 19.484375 
L 44.671875 5.171875 
L 56.390625 5.171875 
z
" id="DejaVuSerif-52"/>
      </defs>
      <g transform="translate(84.129688 1213.594922)scale(0.65 -0.65)">
       <use xlink:href="#DejaVuSerif-48"/>
       <use x="63.623047" xlink:href="#DejaVuSerif-46"/>
       <use x="95.410156" xlink:href="#DejaVuSerif-52"/>
      </g>
     </g>
    </g>
    <g id="ytick_4">
     <g id="line2d_8">
      <g>
       <use style="stroke:#000000;stroke-width:3.5;" x="198" xlink:href="#mddff41cdad" y="917.1"/>
      </g>
     </g>
     <g id="text_8">
      <!-- 0.6 -->
      <defs>
       <path d="M 32.71875 3.421875 
Q 39.59375 3.421875 43.296875 8.46875 
Q 47.015625 13.53125 47.015625 23 
Q 47.015625 32.46875 43.296875 37.515625 
Q 39.59375 42.578125 32.71875 42.578125 
Q 25.734375 42.578125 22.0625 37.6875 
Q 18.40625 32.8125 18.40625 23.578125 
Q 18.40625 13.875 22.109375 8.640625 
Q 25.828125 3.421875 32.71875 3.421875 
z
M 16.796875 40.140625 
Q 20.125 43.796875 24.3125 45.59375 
Q 28.515625 47.40625 33.796875 47.40625 
Q 44.671875 47.40625 51 40.859375 
Q 57.328125 34.328125 57.328125 23 
Q 57.328125 11.921875 50.515625 5.25 
Q 43.703125 -1.421875 32.328125 -1.421875 
Q 19.96875 -1.421875 13.328125 7.78125 
Q 6.6875 17 6.6875 34.078125 
Q 6.6875 53.21875 14.546875 63.71875 
Q 22.40625 74.21875 36.71875 74.21875 
Q 40.578125 74.21875 44.828125 73.484375 
Q 49.078125 72.75 53.515625 71.296875 
L 53.515625 59.28125 
L 48 59.28125 
Q 47.40625 64.203125 44.234375 66.796875 
Q 41.0625 69.390625 35.6875 69.390625 
Q 26.21875 69.390625 21.578125 62.203125 
Q 16.9375 55.03125 16.796875 40.140625 
z
" id="DejaVuSerif-54"/>
      </defs>
      <g transform="translate(84.129688 941.794922)scale(0.65 -0.65)">
       <use xlink:href="#DejaVuSerif-48"/>
       <use x="63.623047" xlink:href="#DejaVuSerif-46"/>
       <use x="95.410156" xlink:href="#DejaVuSerif-54"/>
      </g>
     </g>
    </g>
    <g id="ytick_5">
     <g id="line2d_9">
      <g>
       <use style="stroke:#000000;stroke-width:3.5;" x="198" xlink:href="#mddff41cdad" y="645.3"/>
      </g>
     </g>
     <g id="text_9">
      <!-- 0.8 -->
      <defs>
       <path d="M 46.578125 19.921875 
Q 46.578125 27.734375 42.6875 32.046875 
Q 38.8125 36.375 31.78125 36.375 
Q 24.75 36.375 20.875 32.046875 
Q 17 27.734375 17 19.921875 
Q 17 12.0625 20.875 7.734375 
Q 24.75 3.421875 31.78125 3.421875 
Q 38.8125 3.421875 42.6875 7.734375 
Q 46.578125 12.0625 46.578125 19.921875 
z
M 44.578125 55.328125 
Q 44.578125 61.96875 41.203125 65.671875 
Q 37.84375 69.390625 31.78125 69.390625 
Q 25.78125 69.390625 22.390625 65.671875 
Q 19 61.96875 19 55.328125 
Q 19 48.640625 22.390625 44.921875 
Q 25.78125 41.21875 31.78125 41.21875 
Q 37.84375 41.21875 41.203125 44.921875 
Q 44.578125 48.640625 44.578125 55.328125 
z
M 39.3125 38.8125 
Q 47.609375 37.703125 52.25 32.6875 
Q 56.890625 27.6875 56.890625 19.921875 
Q 56.890625 9.671875 50.390625 4.125 
Q 43.890625 -1.421875 31.78125 -1.421875 
Q 19.734375 -1.421875 13.203125 4.125 
Q 6.6875 9.671875 6.6875 19.921875 
Q 6.6875 27.6875 11.328125 32.6875 
Q 15.96875 37.703125 24.3125 38.8125 
Q 16.9375 40.140625 13 44.40625 
Q 9.078125 48.6875 9.078125 55.328125 
Q 9.078125 64.109375 15.125 69.15625 
Q 21.1875 74.21875 31.78125 74.21875 
Q 42.390625 74.21875 48.4375 69.15625 
Q 54.5 64.109375 54.5 55.328125 
Q 54.5 48.6875 50.5625 44.40625 
Q 46.625 40.140625 39.3125 38.8125 
z
" id="DejaVuSerif-56"/>
      </defs>
      <g transform="translate(84.129688 669.994922)scale(0.65 -0.65)">
       <use xlink:href="#DejaVuSerif-48"/>
       <use x="63.623047" xlink:href="#DejaVuSerif-46"/>
       <use x="95.410156" xlink:href="#DejaVuSerif-56"/>
      </g>
     </g>
    </g>
    <g id="ytick_6">
     <g id="line2d_10">
      <g>
       <use style="stroke:#000000;stroke-width:3.5;" x="198" xlink:href="#mddff41cdad" y="373.5"/>
      </g>
     </g>
     <g id="text_10">
      <!-- 1.0 -->
      <g transform="translate(84.129688 398.194922)scale(0.65 -0.65)">
       <use xlink:href="#DejaVuSerif-49"/>
       <use x="63.623047" xlink:href="#DejaVuSerif-46"/>
       <use x="95.410156" xlink:href="#DejaVuSerif-48"/>
      </g>
     </g>
    </g>
   </g>
   <g id="line2d_11">
    <path clip-path="url(#p9620b2ce9e)" d="M 253.8 373.5 
L 292.282759 375.304659 
L 330.765517 377.076107 
L 369.248276 398.9072 
L 407.731034 590.836047 
L 446.213793 787.868688 
L 484.696552 995.879956 
L 523.17931 1256.500356 
L 561.662069 1427.698816 
L 600.144828 1504.540442 
L 638.627586 1573.568682 
L 677.110345 1648.074559 
L 715.593103 1689.226592 
L 754.075862 1700.098195 
L 792.558621 1708.388436 
L 831.041379 1716.986143 
L 869.524138 1718.436608 
L 908.006897 1717.944673 
L 946.489655 1718.959403 
L 984.972414 1718.891714 
L 1023.455172 1718.05359 
L 1061.937931 1719.905511 
L 1100.42069 1720.47873 
L 1138.903448 1716.770403 
L 1177.386207 1719.413484 
L 1215.868966 1718.420864 
L 1254.351724 1719.808022 
L 1292.834483 1715.716071 
L 1331.317241 1717.776891 
L 1369.8 1720.28045 
" style="fill:none;stroke:#74c265;stroke-linecap:square;stroke-width:4;"/>
    <defs>
     <path d="M 0 7.5 
C 1.989023 7.5 3.896849 6.709753 5.303301 5.303301 
C 6.709753 3.896849 7.5 1.989023 7.5 0 
C 7.5 -1.989023 6.709753 -3.896849 5.303301 -5.303301 
C 3.896849 -6.709753 1.989023 -7.5 0 -7.5 
C -1.989023 -7.5 -3.896849 -6.709753 -5.303301 -5.303301 
C -6.709753 -3.896849 -7.5 -1.989023 -7.5 0 
C -7.5 1.989023 -6.709753 3.896849 -5.303301 5.303301 
C -3.896849 6.709753 -1.989023 7.5 0 7.5 
z
" id="m21772928a6" style="stroke:#74c265;"/>
    </defs>
    <g clip-path="url(#p9620b2ce9e)">
     <use style="fill:#74c265;stroke:#74c265;" x="253.8" xlink:href="#m21772928a6" y="373.5"/>
     <use style="fill:#74c265;stroke:#74c265;" x="292.282759" xlink:href="#m21772928a6" y="375.304659"/>
     <use style="fill:#74c265;stroke:#74c265;" x="330.765517" xlink:href="#m21772928a6" y="377.076107"/>
     <use style="fill:#74c265;stroke:#74c265;" x="369.248276" xlink:href="#m21772928a6" y="398.9072"/>
     <use style="fill:#74c265;stroke:#74c265;" x="407.731034" xlink:href="#m21772928a6" y="590.836047"/>
     <use style="fill:#74c265;stroke:#74c265;" x="446.213793" xlink:href="#m21772928a6" y="787.868688"/>
     <use style="fill:#74c265;stroke:#74c265;" x="484.696552" xlink:href="#m21772928a6" y="995.879956"/>
     <use style="fill:#74c265;stroke:#74c265;" x="523.17931" xlink:href="#m21772928a6" y="1256.500356"/>
     <use style="fill:#74c265;stroke:#74c265;" x="561.662069" xlink:href="#m21772928a6" y="1427.698816"/>
     <use style="fill:#74c265;stroke:#74c265;" x="600.144828" xlink:href="#m21772928a6" y="1504.540442"/>
     <use style="fill:#74c265;stroke:#74c265;" x="638.627586" xlink:href="#m21772928a6" y="1573.568682"/>
     <use style="fill:#74c265;stroke:#74c265;" x="677.110345" xlink:href="#m21772928a6" y="1648.074559"/>
     <use style="fill:#74c265;stroke:#74c265;" x="715.593103" xlink:href="#m21772928a6" y="1689.226592"/>
     <use style="fill:#74c265;stroke:#74c265;" x="754.075862" xlink:href="#m21772928a6" y="1700.098195"/>
     <use style="fill:#74c265;stroke:#74c265;" x="792.558621" xlink:href="#m21772928a6" y="1708.388436"/>
     <use style="fill:#74c265;stroke:#74c265;" x="831.041379" xlink:href="#m21772928a6" y="1716.986143"/>
     <use style="fill:#74c265;stroke:#74c265;" x="869.524138" xlink:href="#m21772928a6" y="1718.436608"/>
     <use style="fill:#74c265;stroke:#74c265;" x="908.006897" xlink:href="#m21772928a6" y="1717.944673"/>
     <use style="fill:#74c265;stroke:#74c265;" x="946.489655" xlink:href="#m21772928a6" y="1718.959403"/>
     <use style="fill:#74c265;stroke:#74c265;" x="984.972414" xlink:href="#m21772928a6" y="1718.891714"/>
     <use style="fill:#74c265;stroke:#74c265;" x="1023.455172" xlink:href="#m21772928a6" y="1718.05359"/>
     <use style="fill:#74c265;stroke:#74c265;" x="1061.937931" xlink:href="#m21772928a6" y="1719.905511"/>
     <use style="fill:#74c265;stroke:#74c265;" x="1100.42069" xlink:href="#m21772928a6" y="1720.47873"/>
     <use style="fill:#74c265;stroke:#74c265;" x="1138.903448" xlink:href="#m21772928a6" y="1716.770403"/>
     <use style="fill:#74c265;stroke:#74c265;" x="1177.386207" xlink:href="#m21772928a6" y="1719.413484"/>
     <use style="fill:#74c265;stroke:#74c265;" x="1215.868966" xlink:href="#m21772928a6" y="1718.420864"/>
     <use style="fill:#74c265;stroke:#74c265;" x="1254.351724" xlink:href="#m21772928a6" y="1719.808022"/>
     <use style="fill:#74c265;stroke:#74c265;" x="1292.834483" xlink:href="#m21772928a6" y="1715.716071"/>
     <use style="fill:#74c265;stroke:#74c265;" x="1331.317241" xlink:href="#m21772928a6" y="1717.776891"/>
     <use style="fill:#74c265;stroke:#74c265;" x="1369.8" xlink:href="#m21772928a6" y="1720.28045"/>
    </g>
   </g>
   <g id="line2d_12">
    <path clip-path="url(#p9620b2ce9e)" d="M 253.8 373.5 
L 292.282759 375.995835 
L 330.765517 379.017681 
L 369.248276 407.14063 
L 407.731034 633.388778 
L 446.213793 876.707869 
L 484.696552 1115.6384 
L 523.17931 1376.803063 
L 561.662069 1526.368718 
L 600.144828 1602.103937 
L 638.627586 1665.744167 
L 677.110345 1706.348439 
L 715.593103 1731.57093 
L 754.075862 1737.062975 
L 792.558621 1745.795732 
L 831.041379 1737.002142 
L 869.524138 1736.910633 
L 908.006897 1737.445849 
L 946.489655 1738.052076 
L 984.972414 1737.133858 
L 1023.455172 1736.124902 
L 1061.937931 1737.536403 
L 1100.42069 1738.202259 
L 1138.903448 1736.682807 
L 1177.386207 1737.461094 
L 1215.868966 1734.676985 
L 1254.351724 1736.340098 
L 1292.834483 1736.721572 
L 1331.317241 1738.165791 
L 1369.8 1738.756099 
" style="fill:none;stroke:#74c265;stroke-dasharray:5.55,2.4;stroke-dashoffset:0;stroke-width:1.5;"/>
   </g>
   <g id="line2d_13">
    <path clip-path="url(#p9620b2ce9e)" d="M 253.8 373.5 
L 292.282759 374.613483 
L 330.765517 375.134533 
L 369.248276 390.673771 
L 407.731034 548.283316 
L 446.213793 699.029508 
L 484.696552 876.121512 
L 523.17931 1136.197649 
L 561.662069 1329.028915 
L 600.144828 1406.976946 
L 638.627586 1481.393197 
L 677.110345 1589.800679 
L 715.593103 1646.882254 
L 754.075862 1663.133416 
L 792.558621 1670.981139 
L 831.041379 1696.970144 
L 869.524138 1699.962582 
L 908.006897 1698.443496 
L 946.489655 1699.866729 
L 984.972414 1700.649569 
L 1023.455172 1699.982277 
L 1061.937931 1702.27462 
L 1100.42069 1702.7552 
L 1138.903448 1696.857999 
L 1177.386207 1701.365874 
L 1215.868966 1702.164742 
L 1254.351724 1703.275945 
L 1292.834483 1694.71057 
L 1331.317241 1697.387991 
L 1369.8 1701.804801 
" style="fill:none;stroke:#74c265;stroke-dasharray:5.55,2.4;stroke-dashoffset:0;stroke-width:1.5;"/>
   </g>
   <g id="line2d_14">
    <path clip-path="url(#p9620b2ce9e)" d="M 253.8 373.5 
L 292.282759 376.780141 
L 330.765517 379.607554 
L 369.248276 396.703611 
L 407.731034 548.848061 
L 446.213793 719.501921 
L 484.696552 918.492863 
L 523.17931 1180.905603 
L 561.662069 1324.186231 
L 600.144828 1469.038325 
L 638.627586 1552.756952 
L 677.110345 1601.782826 
L 715.593103 1653.451843 
L 754.075862 1680.110617 
L 792.558621 1695.45811 
L 831.041379 1711.604739 
L 869.524138 1717.81419 
L 908.006897 1717.972047 
L 946.489655 1717.072749 
L 984.972414 1718.429604 
L 1023.455172 1718.478165 
L 1061.937931 1718.763665 
L 1100.42069 1719.401595 
L 1138.903448 1715.190951 
L 1177.386207 1720.227045 
L 1215.868966 1719.233236 
L 1254.351724 1716.921701 
L 1292.834483 1717.145466 
L 1331.317241 1718.42367 
L 1369.8 1720.087564 
" style="fill:none;stroke:#ff9933;stroke-linecap:square;stroke-width:4;"/>
    <defs>
     <path d="M 0 7.5 
C 1.989023 7.5 3.896849 6.709753 5.303301 5.303301 
C 6.709753 3.896849 7.5 1.989023 7.5 0 
C 7.5 -1.989023 6.709753 -3.896849 5.303301 -5.303301 
C 3.896849 -6.709753 1.989023 -7.5 0 -7.5 
C -1.989023 -7.5 -3.896849 -6.709753 -5.303301 -5.303301 
C -6.709753 -3.896849 -7.5 -1.989023 -7.5 0 
C -7.5 1.989023 -6.709753 3.896849 -5.303301 5.303301 
C -3.896849 6.709753 -1.989023 7.5 0 7.5 
z
" id="m23c899fefc" style="stroke:#ff9933;"/>
    </defs>
    <g clip-path="url(#p9620b2ce9e)">
     <use style="fill:#ff9933;stroke:#ff9933;" x="253.8" xlink:href="#m23c899fefc" y="373.5"/>
     <use style="fill:#ff9933;stroke:#ff9933;" x="292.282759" xlink:href="#m23c899fefc" y="376.780141"/>
     <use style="fill:#ff9933;stroke:#ff9933;" x="330.765517" xlink:href="#m23c899fefc" y="379.607554"/>
     <use style="fill:#ff9933;stroke:#ff9933;" x="369.248276" xlink:href="#m23c899fefc" y="396.703611"/>
     <use style="fill:#ff9933;stroke:#ff9933;" x="407.731034" xlink:href="#m23c899fefc" y="548.848061"/>
     <use style="fill:#ff9933;stroke:#ff9933;" x="446.213793" xlink:href="#m23c899fefc" y="719.501921"/>
     <use style="fill:#ff9933;stroke:#ff9933;" x="484.696552" xlink:href="#m23c899fefc" y="918.492863"/>
     <use style="fill:#ff9933;stroke:#ff9933;" x="523.17931" xlink:href="#m23c899fefc" y="1180.905603"/>
     <use style="fill:#ff9933;stroke:#ff9933;" x="561.662069" xlink:href="#m23c899fefc" y="1324.186231"/>
     <use style="fill:#ff9933;stroke:#ff9933;" x="600.144828" xlink:href="#m23c899fefc" y="1469.038325"/>
     <use style="fill:#ff9933;stroke:#ff9933;" x="638.627586" xlink:href="#m23c899fefc" y="1552.756952"/>
     <use style="fill:#ff9933;stroke:#ff9933;" x="677.110345" xlink:href="#m23c899fefc" y="1601.782826"/>
     <use style="fill:#ff9933;stroke:#ff9933;" x="715.593103" xlink:href="#m23c899fefc" y="1653.451843"/>
     <use style="fill:#ff9933;stroke:#ff9933;" x="754.075862" xlink:href="#m23c899fefc" y="1680.110617"/>
     <use style="fill:#ff9933;stroke:#ff9933;" x="792.558621" xlink:href="#m23c899fefc" y="1695.45811"/>
     <use style="fill:#ff9933;stroke:#ff9933;" x="831.041379" xlink:href="#m23c899fefc" y="1711.604739"/>
     <use style="fill:#ff9933;stroke:#ff9933;" x="869.524138" xlink:href="#m23c899fefc" y="1717.81419"/>
     <use style="fill:#ff9933;stroke:#ff9933;" x="908.006897" xlink:href="#m23c899fefc" y="1717.972047"/>
     <use style="fill:#ff9933;stroke:#ff9933;" x="946.489655" xlink:href="#m23c899fefc" y="1717.072749"/>
     <use style="fill:#ff9933;stroke:#ff9933;" x="984.972414" xlink:href="#m23c899fefc" y="1718.429604"/>
     <use style="fill:#ff9933;stroke:#ff9933;" x="1023.455172" xlink:href="#m23c899fefc" y="1718.478165"/>
     <use style="fill:#ff9933;stroke:#ff9933;" x="1061.937931" xlink:href="#m23c899fefc" y="1718.763665"/>
     <use style="fill:#ff9933;stroke:#ff9933;" x="1100.42069" xlink:href="#m23c899fefc" y="1719.401595"/>
     <use style="fill:#ff9933;stroke:#ff9933;" x="1138.903448" xlink:href="#m23c899fefc" y="1715.190951"/>
     <use style="fill:#ff9933;stroke:#ff9933;" x="1177.386207" xlink:href="#m23c899fefc" y="1720.227045"/>
     <use style="fill:#ff9933;stroke:#ff9933;" x="1215.868966" xlink:href="#m23c899fefc" y="1719.233236"/>
     <use style="fill:#ff9933;stroke:#ff9933;" x="1254.351724" xlink:href="#m23c899fefc" y="1716.921701"/>
     <use style="fill:#ff9933;stroke:#ff9933;" x="1292.834483" xlink:href="#m23c899fefc" y="1717.145466"/>
     <use style="fill:#ff9933;stroke:#ff9933;" x="1331.317241" xlink:href="#m23c899fefc" y="1718.42367"/>
     <use style="fill:#ff9933;stroke:#ff9933;" x="1369.8" xlink:href="#m23c899fefc" y="1720.087564"/>
    </g>
   </g>
   <g id="line2d_15">
    <path clip-path="url(#p9620b2ce9e)" d="M 253.8 373.5 
L 292.282759 378.324953 
L 330.765517 383.617257 
L 369.248276 404.1987 
L 407.731034 587.305211 
L 446.213793 797.727396 
L 484.696552 1025.065406 
L 523.17931 1297.354111 
L 561.662069 1440.813516 
L 600.144828 1574.893922 
L 638.627586 1645.213145 
L 677.110345 1679.941556 
L 715.593103 1714.136935 
L 754.075862 1730.412001 
L 792.558621 1747.437684 
L 831.041379 1737.145689 
L 869.524138 1736.018265 
L 908.006897 1736.564732 
L 946.489655 1740.40912 
L 984.972414 1736.504248 
L 1023.455172 1737.268424 
L 1061.937931 1738.354571 
L 1100.42069 1740.299536 
L 1138.903448 1741.01125 
L 1177.386207 1737.637381 
L 1215.868966 1733.444918 
L 1254.351724 1739.77943 
L 1292.834483 1740.342372 
L 1331.317241 1737.833142 
L 1369.8 1736.029658 
" style="fill:none;stroke:#ff9933;stroke-dasharray:5.55,2.4;stroke-dashoffset:0;stroke-width:1.5;"/>
   </g>
   <g id="line2d_16">
    <path clip-path="url(#p9620b2ce9e)" d="M 253.8 373.5 
L 292.282759 375.235328 
L 330.765517 375.597852 
L 369.248276 389.208521 
L 407.731034 510.390911 
L 446.213793 641.276446 
L 484.696552 811.92032 
L 523.17931 1064.457095 
L 561.662069 1207.558945 
L 600.144828 1363.182728 
L 638.627586 1460.300759 
L 677.110345 1523.624097 
L 715.593103 1592.766751 
L 754.075862 1629.809233 
L 792.558621 1643.478537 
L 831.041379 1686.063789 
L 869.524138 1699.610115 
L 908.006897 1699.379362 
L 946.489655 1693.736377 
L 984.972414 1700.354961 
L 1023.455172 1699.687906 
L 1061.937931 1699.172759 
L 1100.42069 1698.503653 
L 1138.903448 1689.370652 
L 1177.386207 1702.81671 
L 1215.868966 1705.021553 
L 1254.351724 1694.063971 
L 1292.834483 1693.94856 
L 1331.317241 1699.014198 
L 1369.8 1704.145469 
" style="fill:none;stroke:#ff9933;stroke-dasharray:5.55,2.4;stroke-dashoffset:0;stroke-width:1.5;"/>
   </g>
   <g id="line2d_17">
    <path clip-path="url(#p9620b2ce9e)" d="M 253.8 373.5 
L 292.282759 374.677414 
L 330.765517 377.479802 
L 369.248276 393.213092 
L 407.731034 523.200559 
L 446.213793 692.572177 
L 484.696552 903.7224 
L 523.17931 1184.342967 
L 561.662069 1328.905184 
L 600.144828 1473.785892 
L 638.627586 1558.327003 
L 677.110345 1607.962922 
L 715.593103 1651.801859 
L 754.075862 1673.745477 
L 792.558621 1693.825806 
L 831.041379 1710.368012 
L 869.524138 1714.774164 
L 908.006897 1716.524526 
L 946.489655 1715.525663 
L 984.972414 1716.962963 
L 1023.455172 1715.813399 
L 1061.937931 1718.460587 
L 1100.42069 1719.78951 
L 1138.903448 1717.764797 
L 1177.386207 1720.12352 
L 1215.868966 1719.375969 
L 1254.351724 1717.120052 
L 1292.834483 1717.119041 
L 1331.317241 1717.973324 
L 1369.8 1718.400234 
" style="fill:none;stroke:#d1aa9f;stroke-linecap:square;stroke-width:4;"/>
    <defs>
     <path d="M 0 7.5 
C 1.989023 7.5 3.896849 6.709753 5.303301 5.303301 
C 6.709753 3.896849 7.5 1.989023 7.5 0 
C 7.5 -1.989023 6.709753 -3.896849 5.303301 -5.303301 
C 3.896849 -6.709753 1.989023 -7.5 0 -7.5 
C -1.989023 -7.5 -3.896849 -6.709753 -5.303301 -5.303301 
C -6.709753 -3.896849 -7.5 -1.989023 -7.5 0 
C -7.5 1.989023 -6.709753 3.896849 -5.303301 5.303301 
C -3.896849 6.709753 -1.989023 7.5 0 7.5 
z
" id="ma032aa31cc" style="stroke:#d1aa9f;"/>
    </defs>
    <g clip-path="url(#p9620b2ce9e)">
     <use style="fill:#d1aa9f;stroke:#d1aa9f;" x="253.8" xlink:href="#ma032aa31cc" y="373.5"/>
     <use style="fill:#d1aa9f;stroke:#d1aa9f;" x="292.282759" xlink:href="#ma032aa31cc" y="374.677414"/>
     <use style="fill:#d1aa9f;stroke:#d1aa9f;" x="330.765517" xlink:href="#ma032aa31cc" y="377.479802"/>
     <use style="fill:#d1aa9f;stroke:#d1aa9f;" x="369.248276" xlink:href="#ma032aa31cc" y="393.213092"/>
     <use style="fill:#d1aa9f;stroke:#d1aa9f;" x="407.731034" xlink:href="#ma032aa31cc" y="523.200559"/>
     <use style="fill:#d1aa9f;stroke:#d1aa9f;" x="446.213793" xlink:href="#ma032aa31cc" y="692.572177"/>
     <use style="fill:#d1aa9f;stroke:#d1aa9f;" x="484.696552" xlink:href="#ma032aa31cc" y="903.7224"/>
     <use style="fill:#d1aa9f;stroke:#d1aa9f;" x="523.17931" xlink:href="#ma032aa31cc" y="1184.342967"/>
     <use style="fill:#d1aa9f;stroke:#d1aa9f;" x="561.662069" xlink:href="#ma032aa31cc" y="1328.905184"/>
     <use style="fill:#d1aa9f;stroke:#d1aa9f;" x="600.144828" xlink:href="#ma032aa31cc" y="1473.785892"/>
     <use style="fill:#d1aa9f;stroke:#d1aa9f;" x="638.627586" xlink:href="#ma032aa31cc" y="1558.327003"/>
     <use style="fill:#d1aa9f;stroke:#d1aa9f;" x="677.110345" xlink:href="#ma032aa31cc" y="1607.962922"/>
     <use style="fill:#d1aa9f;stroke:#d1aa9f;" x="715.593103" xlink:href="#ma032aa31cc" y="1651.801859"/>
     <use style="fill:#d1aa9f;stroke:#d1aa9f;" x="754.075862" xlink:href="#ma032aa31cc" y="1673.745477"/>
     <use style="fill:#d1aa9f;stroke:#d1aa9f;" x="792.558621" xlink:href="#ma032aa31cc" y="1693.825806"/>
     <use style="fill:#d1aa9f;stroke:#d1aa9f;" x="831.041379" xlink:href="#ma032aa31cc" y="1710.368012"/>
     <use style="fill:#d1aa9f;stroke:#d1aa9f;" x="869.524138" xlink:href="#ma032aa31cc" y="1714.774164"/>
     <use style="fill:#d1aa9f;stroke:#d1aa9f;" x="908.006897" xlink:href="#ma032aa31cc" y="1716.524526"/>
     <use style="fill:#d1aa9f;stroke:#d1aa9f;" x="946.489655" xlink:href="#ma032aa31cc" y="1715.525663"/>
     <use style="fill:#d1aa9f;stroke:#d1aa9f;" x="984.972414" xlink:href="#ma032aa31cc" y="1716.962963"/>
     <use style="fill:#d1aa9f;stroke:#d1aa9f;" x="1023.455172" xlink:href="#ma032aa31cc" y="1715.813399"/>
     <use style="fill:#d1aa9f;stroke:#d1aa9f;" x="1061.937931" xlink:href="#ma032aa31cc" y="1718.460587"/>
     <use style="fill:#d1aa9f;stroke:#d1aa9f;" x="1100.42069" xlink:href="#ma032aa31cc" y="1719.78951"/>
     <use style="fill:#d1aa9f;stroke:#d1aa9f;" x="1138.903448" xlink:href="#ma032aa31cc" y="1717.764797"/>
     <use style="fill:#d1aa9f;stroke:#d1aa9f;" x="1177.386207" xlink:href="#ma032aa31cc" y="1720.12352"/>
     <use style="fill:#d1aa9f;stroke:#d1aa9f;" x="1215.868966" xlink:href="#ma032aa31cc" y="1719.375969"/>
     <use style="fill:#d1aa9f;stroke:#d1aa9f;" x="1254.351724" xlink:href="#ma032aa31cc" y="1717.120052"/>
     <use style="fill:#d1aa9f;stroke:#d1aa9f;" x="1292.834483" xlink:href="#ma032aa31cc" y="1717.119041"/>
     <use style="fill:#d1aa9f;stroke:#d1aa9f;" x="1331.317241" xlink:href="#ma032aa31cc" y="1717.973324"/>
     <use style="fill:#d1aa9f;stroke:#d1aa9f;" x="1369.8" xlink:href="#ma032aa31cc" y="1718.400234"/>
    </g>
   </g>
   <g id="line2d_18">
    <path clip-path="url(#p9620b2ce9e)" d="M 253.8 373.5 
L 292.282759 375.70792 
L 330.765517 381.859122 
L 369.248276 400.716836 
L 407.731034 553.937244 
L 446.213793 763.077299 
L 484.696552 1010.557639 
L 523.17931 1298.333675 
L 561.662069 1435.328427 
L 600.144828 1576.541859 
L 638.627586 1650.898059 
L 677.110345 1680.946488 
L 715.593103 1714.442431 
L 754.075862 1724.52731 
L 792.558621 1744.417961 
L 831.041379 1739.087229 
L 869.524138 1737.737299 
L 908.006897 1737.240341 
L 946.489655 1738.433035 
L 984.972414 1737.19824 
L 1023.455172 1737.165435 
L 1061.937931 1741.01541 
L 1100.42069 1740.522812 
L 1138.903448 1741.309573 
L 1177.386207 1736.951824 
L 1215.868966 1734.188947 
L 1254.351724 1740.112518 
L 1292.834483 1738.808248 
L 1331.317241 1738.862774 
L 1369.8 1736.711149 
" style="fill:none;stroke:#d1aa9f;stroke-dasharray:5.55,2.4;stroke-dashoffset:0;stroke-width:1.5;"/>
   </g>
   <g id="line2d_19">
    <path clip-path="url(#p9620b2ce9e)" d="M 253.8 373.5 
L 292.282759 373.646907 
L 330.765517 373.100481 
L 369.248276 385.709347 
L 407.731034 492.463875 
L 446.213793 622.067054 
L 484.696552 796.887161 
L 523.17931 1070.352259 
L 561.662069 1222.481941 
L 600.144828 1371.029925 
L 638.627586 1465.755948 
L 677.110345 1534.979355 
L 715.593103 1589.161287 
L 754.075862 1622.963645 
L 792.558621 1643.23365 
L 831.041379 1681.648796 
L 869.524138 1691.811028 
L 908.006897 1695.808711 
L 946.489655 1692.618291 
L 984.972414 1696.727685 
L 1023.455172 1694.461363 
L 1061.937931 1695.905764 
L 1100.42069 1699.056208 
L 1138.903448 1694.220021 
L 1177.386207 1703.295215 
L 1215.868966 1704.562991 
L 1254.351724 1694.127586 
L 1292.834483 1695.429834 
L 1331.317241 1697.083873 
L 1369.8 1700.089319 
" style="fill:none;stroke:#d1aa9f;stroke-dasharray:5.55,2.4;stroke-dashoffset:0;stroke-width:1.5;"/>
   </g>
   <g id="line2d_20">
    <path clip-path="url(#p9620b2ce9e)" d="M 253.8 373.5 
L 292.282759 374.176064 
L 330.765517 375.586792 
L 369.248276 384.773588 
L 407.731034 469.331192 
L 446.213793 640.82383 
L 484.696552 987.302456 
L 523.17931 1316.29047 
L 561.662069 1469.613325 
L 600.144828 1575.672713 
L 638.627586 1623.206583 
L 677.110345 1658.671811 
L 715.593103 1682.410675 
L 754.075862 1699.566958 
L 792.558621 1706.420301 
L 831.041379 1714.287051 
L 869.524138 1718.075363 
L 908.006897 1717.527026 
L 946.489655 1719.274117 
L 984.972414 1719.514937 
L 1023.455172 1719.2419 
L 1061.937931 1720.402356 
L 1100.42069 1719.218185 
L 1138.903448 1716.383937 
L 1177.386207 1718.622593 
L 1215.868966 1717.783481 
L 1254.351724 1718.228258 
L 1292.834483 1716.69688 
L 1331.317241 1717.641447 
L 1369.8 1718.426399 
" style="fill:none;stroke:#005394;stroke-linecap:square;stroke-width:4;"/>
    <defs>
     <path d="M 0 7.5 
C 1.989023 7.5 3.896849 6.709753 5.303301 5.303301 
C 6.709753 3.896849 7.5 1.989023 7.5 0 
C 7.5 -1.989023 6.709753 -3.896849 5.303301 -5.303301 
C 3.896849 -6.709753 1.989023 -7.5 0 -7.5 
C -1.989023 -7.5 -3.896849 -6.709753 -5.303301 -5.303301 
C -6.709753 -3.896849 -7.5 -1.989023 -7.5 0 
C -7.5 1.989023 -6.709753 3.896849 -5.303301 5.303301 
C -3.896849 6.709753 -1.989023 7.5 0 7.5 
z
" id="m513a156096" style="stroke:#005394;"/>
    </defs>
    <g clip-path="url(#p9620b2ce9e)">
     <use style="fill:#005394;stroke:#005394;" x="253.8" xlink:href="#m513a156096" y="373.5"/>
     <use style="fill:#005394;stroke:#005394;" x="292.282759" xlink:href="#m513a156096" y="374.176064"/>
     <use style="fill:#005394;stroke:#005394;" x="330.765517" xlink:href="#m513a156096" y="375.586792"/>
     <use style="fill:#005394;stroke:#005394;" x="369.248276" xlink:href="#m513a156096" y="384.773588"/>
     <use style="fill:#005394;stroke:#005394;" x="407.731034" xlink:href="#m513a156096" y="469.331192"/>
     <use style="fill:#005394;stroke:#005394;" x="446.213793" xlink:href="#m513a156096" y="640.82383"/>
     <use style="fill:#005394;stroke:#005394;" x="484.696552" xlink:href="#m513a156096" y="987.302456"/>
     <use style="fill:#005394;stroke:#005394;" x="523.17931" xlink:href="#m513a156096" y="1316.29047"/>
     <use style="fill:#005394;stroke:#005394;" x="561.662069" xlink:href="#m513a156096" y="1469.613325"/>
     <use style="fill:#005394;stroke:#005394;" x="600.144828" xlink:href="#m513a156096" y="1575.672713"/>
     <use style="fill:#005394;stroke:#005394;" x="638.627586" xlink:href="#m513a156096" y="1623.206583"/>
     <use style="fill:#005394;stroke:#005394;" x="677.110345" xlink:href="#m513a156096" y="1658.671811"/>
     <use style="fill:#005394;stroke:#005394;" x="715.593103" xlink:href="#m513a156096" y="1682.410675"/>
     <use style="fill:#005394;stroke:#005394;" x="754.075862" xlink:href="#m513a156096" y="1699.566958"/>
     <use style="fill:#005394;stroke:#005394;" x="792.558621" xlink:href="#m513a156096" y="1706.420301"/>
     <use style="fill:#005394;stroke:#005394;" x="831.041379" xlink:href="#m513a156096" y="1714.287051"/>
     <use style="fill:#005394;stroke:#005394;" x="869.524138" xlink:href="#m513a156096" y="1718.075363"/>
     <use style="fill:#005394;stroke:#005394;" x="908.006897" xlink:href="#m513a156096" y="1717.527026"/>
     <use style="fill:#005394;stroke:#005394;" x="946.489655" xlink:href="#m513a156096" y="1719.274117"/>
     <use style="fill:#005394;stroke:#005394;" x="984.972414" xlink:href="#m513a156096" y="1719.514937"/>
     <use style="fill:#005394;stroke:#005394;" x="1023.455172" xlink:href="#m513a156096" y="1719.2419"/>
     <use style="fill:#005394;stroke:#005394;" x="1061.937931" xlink:href="#m513a156096" y="1720.402356"/>
     <use style="fill:#005394;stroke:#005394;" x="1100.42069" xlink:href="#m513a156096" y="1719.218185"/>
     <use style="fill:#005394;stroke:#005394;" x="1138.903448" xlink:href="#m513a156096" y="1716.383937"/>
     <use style="fill:#005394;stroke:#005394;" x="1177.386207" xlink:href="#m513a156096" y="1718.622593"/>
     <use style="fill:#005394;stroke:#005394;" x="1215.868966" xlink:href="#m513a156096" y="1717.783481"/>
     <use style="fill:#005394;stroke:#005394;" x="1254.351724" xlink:href="#m513a156096" y="1718.228258"/>
     <use style="fill:#005394;stroke:#005394;" x="1292.834483" xlink:href="#m513a156096" y="1716.69688"/>
     <use style="fill:#005394;stroke:#005394;" x="1331.317241" xlink:href="#m513a156096" y="1717.641447"/>
     <use style="fill:#005394;stroke:#005394;" x="1369.8" xlink:href="#m513a156096" y="1718.426399"/>
    </g>
   </g>
   <g id="line2d_21">
    <path clip-path="url(#p9620b2ce9e)" d="M 253.8 373.5 
L 292.282759 374.801457 
L 330.765517 377.408062 
L 369.248276 389.394544 
L 407.731034 487.567063 
L 446.213793 689.605286 
L 484.696552 1088.87831 
L 523.17931 1429.211177 
L 561.662069 1565.570935 
L 600.144828 1660.342049 
L 638.627586 1694.061843 
L 677.110345 1713.653226 
L 715.593103 1727.647417 
L 754.075862 1735.533849 
L 792.558621 1745.50121 
L 831.041379 1738.241881 
L 869.524138 1737.014699 
L 908.006897 1735.705548 
L 946.489655 1737.340206 
L 984.972414 1735.061783 
L 1023.455172 1738.523164 
L 1061.937931 1738.037651 
L 1100.42069 1738.617964 
L 1138.903448 1738.203741 
L 1177.386207 1736.936979 
L 1215.868966 1735.04645 
L 1254.351724 1735.836077 
L 1292.834483 1738.755642 
L 1331.317241 1741.864073 
L 1369.8 1739.297564 
" style="fill:none;stroke:#005394;stroke-dasharray:5.55,2.4;stroke-dashoffset:0;stroke-width:1.5;"/>
   </g>
   <g id="line2d_22">
    <path clip-path="url(#p9620b2ce9e)" d="M 253.8 373.5 
L 292.282759 373.550671 
L 330.765517 373.765523 
L 369.248276 380.152632 
L 407.731034 451.095322 
L 446.213793 592.042374 
L 484.696552 885.726602 
L 523.17931 1203.369764 
L 561.662069 1373.655716 
L 600.144828 1491.003376 
L 638.627586 1552.351322 
L 677.110345 1603.690397 
L 715.593103 1637.173933 
L 754.075862 1663.600066 
L 792.558621 1667.339392 
L 831.041379 1690.332221 
L 869.524138 1699.136027 
L 908.006897 1699.348504 
L 946.489655 1701.208027 
L 984.972414 1703.968091 
L 1023.455172 1699.960637 
L 1061.937931 1702.767062 
L 1100.42069 1699.818406 
L 1138.903448 1694.564133 
L 1177.386207 1700.308207 
L 1215.868966 1700.520513 
L 1254.351724 1700.620439 
L 1292.834483 1694.638119 
L 1331.317241 1693.418821 
L 1369.8 1697.555234 
" style="fill:none;stroke:#005394;stroke-dasharray:5.55,2.4;stroke-dashoffset:0;stroke-width:1.5;"/>
   </g>
   <g id="line2d_23">
    <path clip-path="url(#p9620b2ce9e)" d="M 253.8 373.5 
L 292.282759 374.34157 
L 330.765517 375.050951 
L 369.248276 396.327011 
L 407.731034 704.930231 
L 446.213793 1262.850368 
L 484.696552 1603.951752 
L 523.17931 1710.699892 
L 561.662069 1720.38958 
L 600.144828 1718.507137 
L 638.627586 1717.689187 
L 677.110345 1718.084715 
L 715.593103 1716.312436 
L 754.075862 1719.666027 
L 792.558621 1718.011901 
L 831.041379 1718.080452 
L 869.524138 1719.05374 
L 908.006897 1719.01483 
L 946.489655 1721.775512 
L 984.972414 1721.961651 
L 1023.455172 1721.198178 
L 1061.937931 1718.871868 
L 1100.42069 1717.152424 
L 1138.903448 1720.074141 
L 1177.386207 1719.504198 
L 1215.868966 1716.236471 
L 1254.351724 1719.298321 
L 1292.834483 1720.053207 
L 1331.317241 1719.379061 
L 1369.8 1718.577577 
" style="fill:none;stroke:#c54c36;stroke-linecap:square;stroke-width:4;"/>
    <defs>
     <path d="M 0 7.5 
C 1.989023 7.5 3.896849 6.709753 5.303301 5.303301 
C 6.709753 3.896849 7.5 1.989023 7.5 0 
C 7.5 -1.989023 6.709753 -3.896849 5.303301 -5.303301 
C 3.896849 -6.709753 1.989023 -7.5 0 -7.5 
C -1.989023 -7.5 -3.896849 -6.709753 -5.303301 -5.303301 
C -6.709753 -3.896849 -7.5 -1.989023 -7.5 0 
C -7.5 1.989023 -6.709753 3.896849 -5.303301 5.303301 
C -3.896849 6.709753 -1.989023 7.5 0 7.5 
z
" id="mfe634c3782" style="stroke:#c54c36;"/>
    </defs>
    <g clip-path="url(#p9620b2ce9e)">
     <use style="fill:#c54c36;stroke:#c54c36;" x="253.8" xlink:href="#mfe634c3782" y="373.5"/>
     <use style="fill:#c54c36;stroke:#c54c36;" x="292.282759" xlink:href="#mfe634c3782" y="374.34157"/>
     <use style="fill:#c54c36;stroke:#c54c36;" x="330.765517" xlink:href="#mfe634c3782" y="375.050951"/>
     <use style="fill:#c54c36;stroke:#c54c36;" x="369.248276" xlink:href="#mfe634c3782" y="396.327011"/>
     <use style="fill:#c54c36;stroke:#c54c36;" x="407.731034" xlink:href="#mfe634c3782" y="704.930231"/>
     <use style="fill:#c54c36;stroke:#c54c36;" x="446.213793" xlink:href="#mfe634c3782" y="1262.850368"/>
     <use style="fill:#c54c36;stroke:#c54c36;" x="484.696552" xlink:href="#mfe634c3782" y="1603.951752"/>
     <use style="fill:#c54c36;stroke:#c54c36;" x="523.17931" xlink:href="#mfe634c3782" y="1710.699892"/>
     <use style="fill:#c54c36;stroke:#c54c36;" x="561.662069" xlink:href="#mfe634c3782" y="1720.38958"/>
     <use style="fill:#c54c36;stroke:#c54c36;" x="600.144828" xlink:href="#mfe634c3782" y="1718.507137"/>
     <use style="fill:#c54c36;stroke:#c54c36;" x="638.627586" xlink:href="#mfe634c3782" y="1717.689187"/>
     <use style="fill:#c54c36;stroke:#c54c36;" x="677.110345" xlink:href="#mfe634c3782" y="1718.084715"/>
     <use style="fill:#c54c36;stroke:#c54c36;" x="715.593103" xlink:href="#mfe634c3782" y="1716.312436"/>
     <use style="fill:#c54c36;stroke:#c54c36;" x="754.075862" xlink:href="#mfe634c3782" y="1719.666027"/>
     <use style="fill:#c54c36;stroke:#c54c36;" x="792.558621" xlink:href="#mfe634c3782" y="1718.011901"/>
     <use style="fill:#c54c36;stroke:#c54c36;" x="831.041379" xlink:href="#mfe634c3782" y="1718.080452"/>
     <use style="fill:#c54c36;stroke:#c54c36;" x="869.524138" xlink:href="#mfe634c3782" y="1719.05374"/>
     <use style="fill:#c54c36;stroke:#c54c36;" x="908.006897" xlink:href="#mfe634c3782" y="1719.01483"/>
     <use style="fill:#c54c36;stroke:#c54c36;" x="946.489655" xlink:href="#mfe634c3782" y="1721.775512"/>
     <use style="fill:#c54c36;stroke:#c54c36;" x="984.972414" xlink:href="#mfe634c3782" y="1721.961651"/>
     <use style="fill:#c54c36;stroke:#c54c36;" x="1023.455172" xlink:href="#mfe634c3782" y="1721.198178"/>
     <use style="fill:#c54c36;stroke:#c54c36;" x="1061.937931" xlink:href="#mfe634c3782" y="1718.871868"/>
     <use style="fill:#c54c36;stroke:#c54c36;" x="1100.42069" xlink:href="#mfe634c3782" y="1717.152424"/>
     <use style="fill:#c54c36;stroke:#c54c36;" x="1138.903448" xlink:href="#mfe634c3782" y="1720.074141"/>
     <use style="fill:#c54c36;stroke:#c54c36;" x="1177.386207" xlink:href="#mfe634c3782" y="1719.504198"/>
     <use style="fill:#c54c36;stroke:#c54c36;" x="1215.868966" xlink:href="#mfe634c3782" y="1716.236471"/>
     <use style="fill:#c54c36;stroke:#c54c36;" x="1254.351724" xlink:href="#mfe634c3782" y="1719.298321"/>
     <use style="fill:#c54c36;stroke:#c54c36;" x="1292.834483" xlink:href="#mfe634c3782" y="1720.053207"/>
     <use style="fill:#c54c36;stroke:#c54c36;" x="1331.317241" xlink:href="#mfe634c3782" y="1719.379061"/>
     <use style="fill:#c54c36;stroke:#c54c36;" x="1369.8" xlink:href="#mfe634c3782" y="1718.577577"/>
    </g>
   </g>
   <g id="line2d_24">
    <path clip-path="url(#p9620b2ce9e)" d="M 253.8 373.5 
L 292.282759 374.964866 
L 330.765517 375.928445 
L 369.248276 401.866721 
L 407.731034 747.735412 
L 446.213793 1385.26795 
L 484.696552 1683.907996 
L 523.17931 1739.591062 
L 561.662069 1736.445036 
L 600.144828 1740.759127 
L 638.627586 1739.704796 
L 677.110345 1734.957167 
L 715.593103 1737.620139 
L 754.075862 1736.644291 
L 792.558621 1740.528788 
L 831.041379 1739.863222 
L 869.524138 1740.597015 
L 908.006897 1735.524739 
L 946.489655 1736.819864 
L 984.972414 1735.011525 
L 1023.455172 1737.434359 
L 1061.937931 1736.54499 
L 1100.42069 1736.626007 
L 1138.903448 1736.587181 
L 1177.386207 1738.80158 
L 1215.868966 1738.869239 
L 1254.351724 1736.329729 
L 1292.834483 1735.805217 
L 1331.317241 1738.460471 
L 1369.8 1739.053414 
" style="fill:none;stroke:#c54c36;stroke-dasharray:5.55,2.4;stroke-dashoffset:0;stroke-width:1.5;"/>
   </g>
   <g id="line2d_25">
    <path clip-path="url(#p9620b2ce9e)" d="M 253.8 373.5 
L 292.282759 373.718273 
L 330.765517 374.173458 
L 369.248276 390.787302 
L 407.731034 662.125051 
L 446.213793 1140.432786 
L 484.696552 1523.995508 
L 523.17931 1681.808722 
L 561.662069 1704.334123 
L 600.144828 1696.255146 
L 638.627586 1695.673577 
L 677.110345 1701.212263 
L 715.593103 1695.004732 
L 754.075862 1702.687763 
L 792.558621 1695.495013 
L 831.041379 1696.297682 
L 869.524138 1697.510465 
L 908.006897 1702.504922 
L 946.489655 1706.731159 
L 984.972414 1708.911778 
L 1023.455172 1704.961997 
L 1061.937931 1701.198746 
L 1100.42069 1697.67884 
L 1138.903448 1703.561101 
L 1177.386207 1700.206816 
L 1215.868966 1693.603702 
L 1254.351724 1702.266913 
L 1292.834483 1704.301197 
L 1331.317241 1700.297651 
L 1369.8 1698.101739 
" style="fill:none;stroke:#c54c36;stroke-dasharray:5.55,2.4;stroke-dashoffset:0;stroke-width:1.5;"/>
   </g>
   <g id="patch_3">
    <path d="M 198 1732.5 
L 198 237.6 
" style="fill:none;stroke:#000000;stroke-linecap:square;stroke-linejoin:miter;stroke-width:0.8;"/>
   </g>
   <g id="patch_4">
    <path d="M 1425.6 1732.5 
L 1425.6 237.6 
" style="fill:none;stroke:#000000;stroke-linecap:square;stroke-linejoin:miter;stroke-width:0.8;"/>
   </g>
   <g id="patch_5">
    <path d="M 198 1732.5 
L 1425.6 1732.5 
" style="fill:none;stroke:#000000;stroke-linecap:square;stroke-linejoin:miter;stroke-width:0.8;"/>
   </g>
   <g id="patch_6">
    <path d="M 198 237.6 
L 1425.6 237.6 
" style="fill:none;stroke:#000000;stroke-linecap:square;stroke-linejoin:miter;stroke-width:0.8;"/>
   </g>
  </g>
 </g>
 <defs>
  <clipPath id="p9620b2ce9e">
   <rect height="1494.9" width="1227.6" x="198" y="237.6"/>
  </clipPath>
 </defs>
</svg>
